<svg xmlns="http://www.w3.org/2000/svg" xmlns:xlink="http://www.w3.org/1999/xlink" width="106.211" height="106.211" viewBox="0 0 106.211 106.211">
  <defs>
    <filter id="Trazado_896985" x="0" y="0" width="106.211" height="106.211" filterUnits="userSpaceOnUse">
      <feOffset dy="3" input="SourceAlpha"/>
      <feGaussianBlur stdDeviation="3" result="blur"/>
      <feFlood flood-opacity="0.161"/>
      <feComposite operator="in" in2="blur"/>
      <feComposite in="SourceGraphic"/>
    </filter>
  </defs>
  <g id="Grupo_1178113" data-name="Grupo 1178113" transform="translate(-746.994 -4085)">
    <g id="Grupo_1098742" data-name="Grupo 1098742" transform="translate(755.994 4091)">
      <g transform="matrix(1, 0, 0, 1, -9, -6)" filter="url(#Trazado_896985)">
        <g id="Trazado_896985-2" data-name="Trazado 896985" transform="translate(9 6)" fill="#2f5235" opacity="0.859">
          <path d="M 44.10559844970703 86.71131896972656 C 38.35322189331055 86.71131896972656 32.77369689941406 85.58504486083984 27.52203559875488 83.36377716064453 C 22.44877433776855 81.21797180175781 17.89219856262207 78.14572906494141 13.97888565063477 74.23242950439453 C 10.06558609008789 70.31911468505859 6.993348598480225 65.76254272460938 4.847536087036133 60.68928146362305 C 2.626273393630981 55.43761825561523 1.499998450279236 49.85809326171875 1.499998450279236 44.10571670532227 C 1.499998450279236 38.35321807861328 2.626273393630981 32.7736930847168 4.847536087036133 27.52202987670898 C 6.993348598480225 22.44876861572266 10.06558609008789 17.89219284057617 13.97888565063477 13.9788932800293 C 17.89219856262207 10.06558036804199 22.44877433776855 6.993355751037598 27.52203559875488 4.847543239593506 C 32.77369689941406 2.626280784606934 38.35322189331055 1.500005722045898 44.10559844970703 1.500005722045898 C 49.85798645019531 1.500005722045898 55.4375 2.626280784606934 60.68915939331055 4.847543239593506 C 65.76243591308594 6.993355751037598 70.31900024414062 10.06558036804199 74.23230743408203 13.9788932800293 C 78.14562225341797 17.89219284057617 81.21784973144531 22.44876861572266 83.36366271972656 27.52202987670898 C 85.58492279052734 32.7736930847168 86.71119689941406 38.35321807861328 86.71119689941406 44.10559463500977 C 86.71119689941406 49.85809326171875 85.58492279052734 55.43761825561523 83.36366271972656 60.68928146362305 C 81.21784973144531 65.76254272460938 78.14562225341797 70.31911468505859 74.23230743408203 74.23242950439453 C 70.31900024414062 78.14572906494141 65.76243591308594 81.21797180175781 60.68915939331055 83.36377716064453 C 55.4375 85.58504486083984 49.85798645019531 86.71131896972656 44.10559844970703 86.71131896972656 Z" stroke="none"/>
          <path d="M 44.10559844970703 3 C 38.5550537109375 3 33.17214202880859 4.086410522460938 28.10636901855469 6.229057312011719 C 23.21189880371094 8.299240112304688 18.81558227539062 11.26351165771484 15.03955841064453 15.03955841064453 C 11.26351165771484 18.81558227539062 8.299240112304688 23.21189880371094 6.229057312011719 28.10636901855469 C 4.086410522460938 33.17214202880859 3 38.55505752563477 3 44.105712890625 C 3 49.65625381469727 4.086410522460938 55.03916931152344 6.229057312011719 60.10494232177734 C 8.299240112304688 64.99941253662109 11.26351165771484 69.39572906494141 15.03955841064453 73.1717529296875 C 18.81558227539062 76.94779968261719 23.21189880371094 79.91207122802734 28.10636901855469 81.98225402832031 C 33.17214202880859 84.12490081787109 38.5550537109375 85.21131134033203 44.10559844970703 85.21131134033203 C 49.65614318847656 85.21131134033203 55.03907012939453 84.12490081787109 60.10484313964844 81.98225402832031 C 64.99929809570312 79.91207122802734 69.39561462402344 76.94779968261719 73.17165374755859 73.1717529296875 C 76.94768524169922 69.39572906494141 79.91197204589844 64.99941253662109 81.98215484619141 60.10494232177734 C 84.12478637695312 55.03916931152344 85.21119689941406 49.65625381469727 85.21119689941406 44.10559844970703 C 85.21119689941406 38.55505752563477 84.12478637695312 33.17214202880859 81.98215484619141 28.10636901855469 C 79.91197204589844 23.21189880371094 76.94768524169922 18.81558227539062 73.17165374755859 15.03955841064453 C 69.39561462402344 11.26351165771484 64.99929809570312 8.299240112304688 60.10484313964844 6.229057312011719 C 55.03907012939453 4.086410522460938 49.65614318847656 3 44.10559844970703 3 M 44.10559844970703 0 C 68.46445465087891 0 88.21119689941406 19.74675750732422 88.21119689941406 44.10559844970703 L 88.21119689941406 44.105712890625 C 88.21119689941406 68.46455383300781 68.46445465087891 88.21131134033203 44.10559844970703 88.21131134033203 C 19.74675750732422 88.21131134033203 0 68.46455383300781 0 44.105712890625 L 0 44.10559844970703 C 0 19.74675750732422 19.74675750732422 0 44.10559844970703 0 Z" stroke="none" fill="#fff"/>
        </g>
      </g>
      <g id="Rectángulo_400907" data-name="Rectángulo 400907" transform="translate(0)" fill="none" stroke="#fff" stroke-width="3">
        <rect width="88.211" height="88.211" rx="44.106" stroke="none"/>
        <rect x="1.5" y="1.5" width="85.211" height="85.211" rx="42.606" fill="none"/>
      </g>
    </g>
    <g id="Grupo_1178112" data-name="Grupo 1178112" transform="translate(770.994 4092.134)">
      <g id="Grupo_1178110" data-name="Grupo 1178110" transform="translate(0.853 16.72)">
        <path id="Trazado_1034568" data-name="Trazado 1034568" d="M424.229,28.563v10.18a2.858,2.858,0,1,1-5.716,0V29.171l-4.627,1.6.878-5.352.551-.55a5.222,5.222,0,0,1,8.915,3.693Z" transform="translate(-367.478 -23.341)" fill="#f9f6f9"/>
        <path id="Trazado_1034569" data-name="Trazado 1034569" d="M421.719,24.1c-.562.748-1.172,2.211-1.172,5.034V41.48a2.859,2.859,0,0,1-2.034-2.736V29.171l-4.627,1.6.878-5.352.551-.55a5.227,5.227,0,0,1,6.4-.771Z" transform="translate(-367.478 -23.341)" fill="#dfeaef"/>
        <path id="Trazado_1034570" data-name="Trazado 1034570" d="M331.434,45.3l-3.75-3.75-12.1,6.1,3.22,6.535,6.535,3.22Z" transform="translate(-280.398 -39.475)" fill="#f6e266"/>
        <path id="Trazado_1034571" data-name="Trazado 1034571" d="M318.8,54.188l-3.22-6.535,12.1-6.1,1.367,1.367-9.913,8.288Z" transform="translate(-280.398 -39.475)" fill="#eab14d"/>
        <path id="Trazado_1034572" data-name="Trazado 1034572" d="M249.478,93.3l-9.748-9.748a5.034,5.034,0,0,0-7.119,0l-2.663,2.663,16.867,16.867,2.663-2.663A5.034,5.034,0,0,0,249.478,93.3Z" transform="translate(-204.544 -75.37)" fill="#f9f6f9"/>
        <path id="Trazado_1034573" data-name="Trazado 1034573" d="M244.085,87.907a5.034,5.034,0,0,0-7.119,0L234.3,90.57l-4.351-4.351,2.663-2.663a5.035,5.035,0,0,1,7.119,0Z" transform="translate(-204.548 -75.375)" fill="#dfeaef"/>
        <path id="Trazado_1034574" data-name="Trazado 1034574" d="M50.283,110.19,36.756,96.663a7.427,7.427,0,0,0-10.5,0L9.642,113.274a7.427,7.427,0,0,0,0,10.5L23.169,137.3a7.427,7.427,0,0,0,10.5,0l16.611-16.611A7.427,7.427,0,0,0,50.283,110.19Z" transform="translate(-7.467 -86.364)" fill="#da4a54"/>
        <path id="Trazado_1034575" data-name="Trazado 1034575" d="M15.352,129.488l-5.71-5.71a7.427,7.427,0,0,1,0-10.5L26.253,96.664a7.427,7.427,0,0,1,10.5,0l5.71,5.71a7.427,7.427,0,0,0-10.5,0L15.352,118.984A7.427,7.427,0,0,0,15.352,129.488Z" transform="translate(-7.467 -86.365)" fill="#c32430"/>
        <path id="Trazado_1034576" data-name="Trazado 1034576" d="M114.07,201.624l-5.246,5.246a6.026,6.026,0,0,1-8.522,0l-8.081-8.081a6.024,6.024,0,0,1,0-8.522l5.246-5.246a6.024,6.024,0,0,1,8.522,0l8.081,8.081A6.025,6.025,0,0,1,114.07,201.624Z" transform="translate(-80.98 -164.996)" fill="#f9f6f9"/>
        <path id="Trazado_1034577" data-name="Trazado 1034577" d="M103.073,183.408,90.608,195.872a6.02,6.02,0,0,1,1.614-5.605l5.246-5.246A6.019,6.019,0,0,1,103.073,183.408Z" transform="translate(-80.98 -164.996)" fill="#dfeaef"/>
      </g>
      <g id="Grupo_1178111" data-name="Grupo 1178111" transform="translate(0 15.866)">
        <path id="Trazado_1034578" data-name="Trazado 1034578" d="M108.058,195.586a6.891,6.891,0,0,0,0-9.734l-8.081-8.081a6.882,6.882,0,0,0-9.734,0L85,183.017a6.891,6.891,0,0,0,0,9.734l8.081,8.081a6.89,6.89,0,0,0,9.734,0ZM94.29,199.62l-8.081-8.081a5.176,5.176,0,0,1,0-7.311l5.245-5.245a5.17,5.17,0,0,1,7.311,0l8.081,8.081a5.176,5.176,0,0,1,0,7.311L101.6,199.62A5.176,5.176,0,0,1,94.29,199.62Z" transform="translate(-73.509 -157.499)"/>
        <path id="Trazado_1034579" data-name="Trazado 1034579" d="M56.68,17.644a6.086,6.086,0,0,0-8.6,0l-.453.453L42.7,20.583a.856.856,0,1,0,.771,1.53l4.5-2.269,2.875,2.874L45.558,33.209l-8.08-8.08,3.017-1.52a.856.856,0,0,0-.771-1.53L36.17,23.871a5.9,5.9,0,0,0-7.856.425l-.3.3a8.3,8.3,0,0,0-8.982,1.818L2.422,43.025a8.293,8.293,0,0,0,0,11.714L15.949,68.266a8.247,8.247,0,0,0,10.215,1.189.856.856,0,1,0-.9-1.456,6.542,6.542,0,0,1-8.1-.944L3.633,53.528a6.578,6.578,0,0,1,0-9.292l16.61-16.61a6.569,6.569,0,0,1,9.292,0L43.063,41.151a6.579,6.579,0,0,1,0,9.292l-15.4,15.4a.856.856,0,0,0,1.211,1.211l15.4-15.4a8.3,8.3,0,0,0,1.815-8.978l.3-.3a5.889,5.889,0,0,0,.425-7.856l4.215-8.365v5.97a3.714,3.714,0,1,0,7.428,0V21.942a6.038,6.038,0,0,0-1.78-4.3ZM45.239,41.1a8.288,8.288,0,0,0-.965-1.162L30.747,26.414a8.374,8.374,0,0,0-1.16-.966,4.175,4.175,0,0,1,5.846.059l9.748,9.748a4.175,4.175,0,0,1,.057,5.847Zm11.509-8.98a2,2,0,1,1-4,0V22.549h0a.856.856,0,0,0-.251-.606L49.351,18.8a4.365,4.365,0,0,1,7.4,3.141Z" transform="translate(0 -15.866)"/>
      </g>
    </g>
  </g>
</svg>
