<svg xmlns="http://www.w3.org/2000/svg" xmlns:xlink="http://www.w3.org/1999/xlink" width="106.211" height="106.211" viewBox="0 0 106.211 106.211">
  <defs>
    <filter id="Trazado_896985" x="0" y="0" width="106.211" height="106.211" filterUnits="userSpaceOnUse">
      <feOffset dy="3" input="SourceAlpha"/>
      <feGaussianBlur stdDeviation="3" result="blur"/>
      <feFlood flood-opacity="0.161"/>
      <feComposite operator="in" in2="blur"/>
      <feComposite in="SourceGraphic"/>
    </filter>
  </defs>
  <g id="Grupo_1178118" data-name="Grupo 1178118" transform="translate(-1166.994 -4085)">
    <g id="Grupo_1098742" data-name="Grupo 1098742" transform="translate(1175.994 4091)">
      <g transform="matrix(1, 0, 0, 1, -9, -6)" filter="url(#Trazado_896985)">
        <g id="Trazado_896985-2" data-name="Trazado 896985" transform="translate(9 6)" fill="#2f5235" opacity="0.859">
          <path d="M 44.10559844970703 86.71131896972656 C 38.35322189331055 86.71131896972656 32.77369689941406 85.58504486083984 27.52203559875488 83.36377716064453 C 22.44877433776855 81.21797180175781 17.89219856262207 78.14572906494141 13.97888565063477 74.23242950439453 C 10.06558609008789 70.31911468505859 6.993348598480225 65.76254272460938 4.847536087036133 60.68928146362305 C 2.626273393630981 55.43761825561523 1.499998450279236 49.85809326171875 1.499998450279236 44.10571670532227 C 1.499998450279236 38.35321807861328 2.626273393630981 32.7736930847168 4.847536087036133 27.52202987670898 C 6.993348598480225 22.44876861572266 10.06558609008789 17.89219284057617 13.97888565063477 13.9788932800293 C 17.89219856262207 10.06558036804199 22.44877433776855 6.993355751037598 27.52203559875488 4.847543239593506 C 32.77369689941406 2.626280784606934 38.35322189331055 1.500005722045898 44.10559844970703 1.500005722045898 C 49.85798645019531 1.500005722045898 55.4375 2.626280784606934 60.68915939331055 4.847543239593506 C 65.76243591308594 6.993355751037598 70.31900024414062 10.06558036804199 74.23230743408203 13.9788932800293 C 78.14562225341797 17.89219284057617 81.21784973144531 22.44876861572266 83.36366271972656 27.52202987670898 C 85.58492279052734 32.7736930847168 86.71119689941406 38.35321807861328 86.71119689941406 44.10559463500977 C 86.71119689941406 49.85809326171875 85.58492279052734 55.43761825561523 83.36366271972656 60.68928146362305 C 81.21784973144531 65.76254272460938 78.14562225341797 70.31911468505859 74.23230743408203 74.23242950439453 C 70.31900024414062 78.14572906494141 65.76243591308594 81.21797180175781 60.68915939331055 83.36377716064453 C 55.4375 85.58504486083984 49.85798645019531 86.71131896972656 44.10559844970703 86.71131896972656 Z" stroke="none"/>
          <path d="M 44.10559844970703 3 C 38.5550537109375 3 33.17214202880859 4.086410522460938 28.10636901855469 6.229057312011719 C 23.21189880371094 8.299240112304688 18.81558227539062 11.26351165771484 15.03955841064453 15.03955841064453 C 11.26351165771484 18.81558227539062 8.299240112304688 23.21189880371094 6.229057312011719 28.10636901855469 C 4.086410522460938 33.17214202880859 3 38.55505752563477 3 44.105712890625 C 3 49.65625381469727 4.086410522460938 55.03916931152344 6.229057312011719 60.10494232177734 C 8.299240112304688 64.99941253662109 11.26351165771484 69.39572906494141 15.03955841064453 73.1717529296875 C 18.81558227539062 76.94779968261719 23.21189880371094 79.91207122802734 28.10636901855469 81.98225402832031 C 33.17214202880859 84.12490081787109 38.5550537109375 85.21131134033203 44.10559844970703 85.21131134033203 C 49.65614318847656 85.21131134033203 55.03907012939453 84.12490081787109 60.10484313964844 81.98225402832031 C 64.99929809570312 79.91207122802734 69.39561462402344 76.94779968261719 73.17165374755859 73.1717529296875 C 76.94768524169922 69.39572906494141 79.91197204589844 64.99941253662109 81.98215484619141 60.10494232177734 C 84.12478637695312 55.03916931152344 85.21119689941406 49.65625381469727 85.21119689941406 44.10559844970703 C 85.21119689941406 38.55505752563477 84.12478637695312 33.17214202880859 81.98215484619141 28.10636901855469 C 79.91197204589844 23.21189880371094 76.94768524169922 18.81558227539062 73.17165374755859 15.03955841064453 C 69.39561462402344 11.26351165771484 64.99929809570312 8.299240112304688 60.10484313964844 6.229057312011719 C 55.03907012939453 4.086410522460938 49.65614318847656 3 44.10559844970703 3 M 44.10559844970703 0 C 68.46445465087891 0 88.21119689941406 19.74675750732422 88.21119689941406 44.10559844970703 L 88.21119689941406 44.105712890625 C 88.21119689941406 68.46455383300781 68.46445465087891 88.21131134033203 44.10559844970703 88.21131134033203 C 19.74675750732422 88.21131134033203 0 68.46455383300781 0 44.105712890625 L 0 44.10559844970703 C 0 19.74675750732422 19.74675750732422 0 44.10559844970703 0 Z" stroke="none" fill="#fff"/>
        </g>
      </g>
      <g id="Rect치ngulo_400907" data-name="Rect치ngulo 400907" transform="translate(0)" fill="none" stroke="#fff" stroke-width="3">
        <rect width="88.211" height="88.211" rx="44.106" stroke="none"/>
        <rect x="1.5" y="1.5" width="85.211" height="85.211" rx="42.606" fill="none"/>
      </g>
    </g>
    <g id="Grupo_1178117" data-name="Grupo 1178117" transform="translate(1188.994 4053.52)">
      <path id="Trazado_1034580" data-name="Trazado 1034580" d="M54.5,138.542h0a1.251,1.251,0,0,0-1.251,1.251v3.114h2.5v-3.114A1.251,1.251,0,0,0,54.5,138.542Z" transform="translate(-46.765 -71.193)" fill="#234c60"/>
      <path id="Trazado_1034581" data-name="Trazado 1034581" d="M350.936,72.719h-1.831a.9.9,0,0,1-.9-.9V65.67a.9.9,0,0,1,.9-.9h1.831a.9.9,0,0,1,.9.9v6.146A.9.9,0,0,1,350.936,72.719Z" transform="translate(-305.808 -6.4)" fill="#ff6d3a"/>
      <rect id="Rect치ngulo_405219" data-name="Rect치ngulo 405219" width="8.546" height="3.323" transform="translate(49.84 76.691)" fill="#234c60"/>
      <g id="Grupo_1178114" data-name="Grupo 1178114" transform="translate(8.985 69.114)">
        <path id="Trazado_1034582" data-name="Trazado 1034582" d="M466.9,171.516h0a2.451,2.451,0,0,1-2.451-2.451V155.49a2.451,2.451,0,0,1,2.451-2.451h0a2.451,2.451,0,0,1,2.451,2.451v13.575A2.451,2.451,0,0,1,466.9,171.516Z" transform="translate(-416.888 -153.039)" fill="#2d5872"/>
        <path id="Trazado_1034583" data-name="Trazado 1034583" d="M73.8,156.369v8.867l25.454,2.16a5.954,5.954,0,0,1,5.232,6.983L102.579,185.1h15.239V160.178a7.139,7.139,0,0,0-7.89-7.1Z" transform="translate(-73.802 -153.039)" fill="#2d5872"/>
      </g>
      <path id="Trazado_1034584" data-name="Trazado 1034584" d="M317.876,153.057a7.1,7.1,0,0,1,2.006,4.959v20.209a3.177,3.177,0,0,1-3.177,3.177h-5.882l-.66,3.707H325.4V160.184A7.139,7.139,0,0,0,317.876,153.057Z" transform="translate(-272.4 -83.931)" fill="#234c60"/>
      <path id="Trazado_1034585" data-name="Trazado 1034585" d="M62.644,414.468H9.159A1.872,1.872,0,0,1,7.287,412.6v-.8a1.872,1.872,0,0,1,1.872-1.872H62.644a1.872,1.872,0,0,1,1.872,1.872v.8A1.872,1.872,0,0,1,62.644,414.468Z" transform="translate(-6.4 -309.536)" fill="#ff6d3a"/>
      <path id="Trazado_1034586" data-name="Trazado 1034586" d="M62.644,409.924H59.035v1.2a1.269,1.269,0,0,1-1.269,1.269H7.287v.2a1.872,1.872,0,0,0,1.872,1.872H62.644a1.872,1.872,0,0,0,1.872-1.872v-.8A1.872,1.872,0,0,0,62.644,409.924Z" transform="translate(-6.4 -309.534)" fill="#ed5729"/>
      <path id="Trazado_1034587" data-name="Trazado 1034587" d="M50.107,282.544h0a1.73,1.73,0,0,1-1.73-1.73V276.4h3.46v4.412A1.73,1.73,0,0,1,50.107,282.544Z" transform="translate(-42.487 -192.268)" fill="#234c60"/>
      <path id="Trazado_1034588" data-name="Trazado 1034588" d="M37.854,176.8h3.081a.954.954,0,0,0,.952-.9l.721-13.866a.954.954,0,0,0-.952-1H37.133a.954.954,0,0,0-.952,1L36.9,175.9A.954.954,0,0,0,37.854,176.8Z" transform="translate(-31.774 -90.94)" fill="#2d5872"/>
      <g id="Grupo_1178115" data-name="Grupo 1178115" transform="translate(43.324 82.702)">
        <circle id="Elipse_11676" data-name="Elipse 11676" cx="2.445" cy="2.445" r="2.445" fill="#61aff7"/>
        <circle id="Elipse_11677" data-name="Elipse 11677" cx="2.445" cy="2.445" r="2.445" transform="translate(0 8.756)" fill="#61aff7"/>
      </g>
      <path id="Trazado_1034589" data-name="Trazado 1034589" d="M64.849,161.027H62.587V176.8h1.54a.954.954,0,0,0,.952-.9L65.8,162.03A.954.954,0,0,0,64.849,161.027Z" transform="translate(-54.967 -90.94)" fill="#234c60"/>
      <g id="Grupo_1178116" data-name="Grupo 1178116" transform="translate(44.04 83.418)">
        <path id="Trazado_1034590" data-name="Trazado 1034590" d="M365.178,273.976a2.445,2.445,0,0,0,0-3.458l-3.458,3.458A2.445,2.445,0,0,0,365.178,273.976Z" transform="translate(-361.72 -270.518)" fill="#55a2f0"/>
        <path id="Trazado_1034591" data-name="Trazado 1034591" d="M365.178,345.9a2.445,2.445,0,0,0,0-3.458L361.72,345.9A2.445,2.445,0,0,0,365.178,345.9Z" transform="translate(-361.72 -333.687)" fill="#55a2f0"/>
      </g>
      <path id="Trazado_1034592" data-name="Trazado 1034592" d="M484.582,171.516a2.451,2.451,0,0,0,2.451-2.451V155.49a2.451,2.451,0,0,0-2.451-2.451h0v18.477Z" transform="translate(-425.584 -83.925)" fill="#234c60"/>
      <path id="Trazado_1034593" data-name="Trazado 1034593" d="M351.883,264.013a3.33,3.33,0,1,0-2.356-.974A3.322,3.322,0,0,0,351.883,264.013Zm-1.1-4.432a1.558,1.558,0,1,1-.456,1.1A1.548,1.548,0,0,1,350.782,259.581Z" transform="translate(-306.115 -175.536)"/>
      <path id="Trazado_1034594" data-name="Trazado 1034594" d="M349.526,334.973a3.336,3.336,0,0,0,4.712,0h0a3.332,3.332,0,1,0-4.712,0Zm1.255-3.458a1.558,1.558,0,1,1-.456,1.1A1.553,1.553,0,0,1,350.781,331.516Z" transform="translate(-306.114 -238.714)"/>
      <path id="Trazado_1034595" data-name="Trazado 1034595" d="M59,68.227a3.342,3.342,0,0,0-3.338,3.338V75.8H53.876A8.022,8.022,0,0,0,45.1,68.266V67.207h.028a1.792,1.792,0,0,0,1.79-1.79V59.27a1.792,1.792,0,0,0-1.79-1.79H43.3a1.792,1.792,0,0,0-1.79,1.79v6.146a1.792,1.792,0,0,0,1.79,1.79h.028v1.22l-2.874.262a.887.887,0,1,0,.161,1.767L44.3,70.12h0l.888-.081H45.2a6.252,6.252,0,0,1,6.91,6.217V99.5H38.962l1.582-8.891a6.841,6.841,0,0,0-6.012-8.023l-.018,0L11.227,80.612l.391-7.516,23.505-2.14a.887.887,0,0,0-.161-1.767L11.711,71.306l.009-.17A1.841,1.841,0,0,0,9.882,69.2H9.873v-.6a2.138,2.138,0,0,0-4.277,0v.6H5.358A1.841,1.841,0,0,0,3.52,71.136l.358,6.884a.887.887,0,1,0,1.772-.092l-.358-6.884a.066.066,0,0,1,.066-.07H9.881a.066.066,0,0,1,.066.07L9.227,84.91a.066.066,0,0,1-.066.063H6.08a.067.067,0,0,1-.066-.063l-.075-1.437a.887.887,0,1,0-1.772.092L4.241,85A1.835,1.835,0,0,0,5,86.4v2.149a2.622,2.622,0,0,0,1.73,2.462v4.633a.887.887,0,0,0,1.774,0V91.008a2.622,2.622,0,0,0,1.73-2.462V86.4A1.836,1.836,0,0,0,11,85l.136-2.618,23.22,1.971A5.067,5.067,0,0,1,38.8,90.3L37.16,99.5H2.759A2.762,2.762,0,0,0,0,102.262v.8a2.762,2.762,0,0,0,2.759,2.759H56.244A2.762,2.762,0,0,0,59,103.061v-.8A2.762,2.762,0,0,0,56.244,99.5H53.889V80.9H55.66v4.239a3.338,3.338,0,0,0,6.676,0V71.565A3.342,3.342,0,0,0,59,68.227ZM43.3,65.432a.016.016,0,0,1-.016-.016V59.27a.016.016,0,0,1,.016-.016h1.831a.016.016,0,0,1,.016.016v6.146a.016.016,0,0,1-.016.016ZM8.1,69.2H7.37v-.6a.364.364,0,0,1,.728,0v.6Zm.365,19.347a.843.843,0,0,1-1.686,0v-1.8H8.463Zm47.781,12.731a.986.986,0,0,1,.985.984v.8a.986.986,0,0,1-.985.984H2.759a.986.986,0,0,1-.985-.984v-.8a.986.986,0,0,1,.985-.984H56.244Zm-.584-22.15H53.889V77.579H55.66Zm4.9,6.013a1.564,1.564,0,1,1-3.128,0V71.566a1.564,1.564,0,0,1,3.128,0Z"/>
    </g>
  </g>
</svg>
