<svg xmlns="http://www.w3.org/2000/svg" xmlns:xlink="http://www.w3.org/1999/xlink" width="106.211" height="106.211" viewBox="0 0 106.211 106.211">
  <defs>
    <filter id="Trazado_896985" x="0" y="0" width="106.211" height="106.211" filterUnits="userSpaceOnUse">
      <feOffset dy="3" input="SourceAlpha"/>
      <feGaussianBlur stdDeviation="3" result="blur"/>
      <feFlood flood-opacity="0.161"/>
      <feComposite operator="in" in2="blur"/>
      <feComposite in="SourceGraphic"/>
    </filter>
  </defs>
  <g id="Grupo_1178120" data-name="Grupo 1178120" transform="translate(9 6)">
    <g id="Grupo_1178073" data-name="Grupo 1178073">
      <g transform="matrix(1, 0, 0, 1, -9, -6)" filter="url(#Trazado_896985)">
        <g id="Trazado_896985-2" data-name="Trazado 896985" transform="translate(9 6)" fill="#d8cabd" opacity="0.859">
          <path d="M 44.10559844970703 86.71131896972656 C 38.35321044921875 86.71131896972656 32.77369689941406 85.58504486083984 27.52203559875488 83.36377716064453 C 22.44876098632812 81.21797180175781 17.89219856262207 78.14572906494141 13.97888565063477 74.23242950439453 C 10.06557369232178 70.31911468505859 6.993348598480225 65.76254272460938 4.847536087036133 60.68928146362305 C 2.626273393630981 55.43761825561523 1.499998450279236 49.85809326171875 1.499998450279236 44.10571670532227 C 1.499998450279236 38.35321807861328 2.626273393630981 32.7736930847168 4.847536087036133 27.52202987670898 C 6.993348598480225 22.44876861572266 10.06557369232178 17.89219284057617 13.97888565063477 13.9788932800293 C 17.89219856262207 10.06558036804199 22.44876098632812 6.993355751037598 27.52203559875488 4.847543239593506 C 32.77369689941406 2.626280784606934 38.35321044921875 1.500005722045898 44.10559844970703 1.500005722045898 C 49.85797500610352 1.500005722045898 55.4375 2.626280784606934 60.68915939331055 4.847543239593506 C 65.76242065429688 6.993355751037598 70.31900024414062 10.06558036804199 74.23230743408203 13.9788932800293 C 78.14561462402344 17.89219284057617 81.21784973144531 22.44876861572266 83.36366271972656 27.52202987670898 C 85.58492279052734 32.7736930847168 86.71119689941406 38.35321807861328 86.71119689941406 44.10559463500977 C 86.71119689941406 49.85809326171875 85.58492279052734 55.43761825561523 83.36366271972656 60.68928146362305 C 81.21784973144531 65.76254272460938 78.14561462402344 70.31911468505859 74.23230743408203 74.23242950439453 C 70.31900024414062 78.14572906494141 65.76242065429688 81.21797180175781 60.68915939331055 83.36377716064453 C 55.4375 85.58504486083984 49.85797500610352 86.71131896972656 44.10559844970703 86.71131896972656 Z" stroke="none"/>
          <path d="M 44.10559844970703 3 C 38.5550537109375 3 33.17212677001953 4.086410522460938 28.10635375976562 6.229057312011719 C 23.21188354492188 8.299240112304688 18.81556701660156 11.26351165771484 15.03954315185547 15.03955841064453 C 11.26351165771484 18.81558227539062 8.299224853515625 23.21189880371094 6.229042053222656 28.10636901855469 C 4.086410522460938 33.17214202880859 3 38.55505752563477 3 44.105712890625 C 3 49.65625381469727 4.086410522460938 55.03916931152344 6.229042053222656 60.10494232177734 C 8.299224853515625 64.99941253662109 11.26351165771484 69.39572906494141 15.03954315185547 73.1717529296875 C 18.81556701660156 76.94779968261719 23.21188354492188 79.91207122802734 28.10635375976562 81.98225402832031 C 33.17212677001953 84.12490081787109 38.5550537109375 85.21131134033203 44.10559844970703 85.21131134033203 C 49.65614318847656 85.21131134033203 55.03905487060547 84.12490081787109 60.10482788085938 81.98225402832031 C 64.99929809570312 79.91207122802734 69.39561462402344 76.94779968261719 73.17163848876953 73.1717529296875 C 76.94768524169922 69.39572906494141 79.91195678710938 64.99941253662109 81.98213958740234 60.10494232177734 C 84.12478637695312 55.03916931152344 85.21119689941406 49.65625381469727 85.21119689941406 44.10559844970703 C 85.21119689941406 38.55505752563477 84.12478637695312 33.17214202880859 81.98213958740234 28.10636901855469 C 79.91195678710938 23.21189880371094 76.94768524169922 18.81558227539062 73.17163848876953 15.03955841064453 C 69.39561462402344 11.26351165771484 64.99929809570312 8.299240112304688 60.10482788085938 6.229057312011719 C 55.03905487060547 4.086410522460938 49.65614318847656 3 44.10559844970703 3 M 44.10559844970703 0 C 68.46443939208984 0 88.21119689941406 19.74675750732422 88.21119689941406 44.10559844970703 L 88.21119689941406 44.105712890625 C 88.21119689941406 68.46455383300781 68.46443939208984 88.21131134033203 44.10559844970703 88.21131134033203 C 19.74672698974609 88.21131134033203 0 68.46455383300781 0 44.105712890625 L 0 44.10559844970703 C 0 19.74675750732422 19.74672698974609 0 44.10559844970703 0 Z" stroke="none" fill="#fff"/>
        </g>
      </g>
      <g id="Rectángulo_400907" data-name="Rectángulo 400907" transform="translate(0)" fill="none" stroke="#fff" stroke-width="3">
        <rect width="88.211" height="88.211" rx="44.106" stroke="none"/>
        <rect x="1.5" y="1.5" width="85.211" height="85.211" rx="42.606" fill="none"/>
      </g>
    </g>
    <g id="Grupo_1178119" data-name="Grupo 1178119" transform="translate(21.534 20)">
      <path id="Trazado_1034596" data-name="Trazado 1034596" d="M44.594,24H24V69.939H44.594Z" transform="translate(2.138 -23.208)" fill="#0093b9"/>
      <path id="Trazado_1034597" data-name="Trazado 1034597" d="M152.713,24H144V69.939h8.713Z" transform="translate(-117.862 -23.208)" fill="#fdc01e"/>
      <path id="Trazado_1034598" data-name="Trazado 1034598" d="M300.593,24H280V69.939h20.594Z" transform="translate(-279.208 -23.208)" fill="#0093b9"/>
      <path id="Trazado_1034599" data-name="Trazado 1034599" d="M288.713,24H280V69.939h8.713Z" transform="translate(-267.327 -23.208)" fill="#fdc01e"/>
      <path id="Trazado_1034600" data-name="Trazado 1034600" d="M16.792,16H37.386a.792.792,0,0,1,.792.792V19.96h3.168V16.792A.792.792,0,0,1,42.138,16H62.731a.792.792,0,0,1,.792.792V62.731a.792.792,0,0,1-.792.792H42.138a.792.792,0,0,1-.792-.792V59.563H38.178v3.168a.792.792,0,0,1-.792.792H16.792A.792.792,0,0,1,16,62.731V16.792A.792.792,0,0,1,16.792,16Zm21.386,5.544v3.777l3.168-1.358v-2.42Zm0,7.921h3.168V25.688l-3.168,1.358Zm-1.584-1.741-3.175,1.361a.2.2,0,0,0,.078.38h3.1ZM38.178,38.97h3.168V35.192L38.178,36.55Zm-1.584-1.741L33.418,38.59a.2.2,0,0,0,.078.38h3.1Zm1.584,11.245h3.168V44.7l-3.168,1.358Zm-1.584-1.741-3.175,1.361a.2.2,0,0,0,.078.38h3.1Zm4.752,3.325H38.178v3.777l3.168-1.358ZM42.93,51.8l3.175-1.361a.2.2,0,0,0-.078-.38h-3.1Zm-1.584-8.826v-2.42H38.178v3.777Zm1.584-.679,3.175-1.361a.2.2,0,0,0-.078-.38h-3.1Zm-1.584-8.826v-2.42H38.178v3.777Zm1.584-.679,3.175-1.361a.2.2,0,0,0-.078-.38h-3.1Zm0-9.5,3.175-1.361a.2.2,0,0,0-.078-.38h-3.1Zm19.009-5.7h-10.3V61.939h10.3ZM42.93,61.939h7.129V17.584H42.93V19.96h3.1a1.782,1.782,0,0,1,.7,3.42l-3.8,1.628v4.456h3.1a1.782,1.782,0,0,1,.7,3.42l-3.8,1.628V38.97h3.1a1.782,1.782,0,0,1,.7,3.42l-3.8,1.628v4.456h3.1a1.782,1.782,0,0,1,.7,3.42l-3.8,1.628v4.456h4.752v1.584H42.93Zm-1.584-3.96V54.2l-3.168,1.358v2.42Zm-4.752-1.741L33.418,57.6a.2.2,0,0,0,.078.38h3.1Zm0,3.325H33.5a1.782,1.782,0,0,1-.7-3.42l3.8-1.628V50.058H33.5a1.782,1.782,0,0,1-.7-3.42l3.8-1.628V40.554H33.5a1.782,1.782,0,0,1-.7-3.42l3.8-1.628V31.049H33.5a1.782,1.782,0,0,1-.7-3.42L36.594,26V21.544H31.841V19.96h4.752V17.584H29.465V61.939h7.129ZM17.584,61.939h10.3V17.584h-10.3Z" transform="translate(-16 -16)"/>
      <path id="Trazado_1034601" data-name="Trazado 1034601" d="M393.584,56H392v1.584h1.584Z" transform="translate(-383.287 -52.04)"/>
      <path id="Trazado_1034602" data-name="Trazado 1034602" d="M393.584,120H392v1.584h1.584Z" transform="translate(-383.287 -109.703)"/>
      <path id="Trazado_1034603" data-name="Trazado 1034603" d="M393.584,184H392v1.584h1.584Z" transform="translate(-383.287 -167.367)"/>
      <path id="Trazado_1034604" data-name="Trazado 1034604" d="M393.584,248H392v1.584h1.584Z" transform="translate(-383.287 -225.03)"/>
      <path id="Trazado_1034605" data-name="Trazado 1034605" d="M393.584,312H392v1.584h1.584Z" transform="translate(-383.287 -282.694)"/>
      <path id="Trazado_1034606" data-name="Trazado 1034606" d="M393.584,376H392v1.584h1.584Z" transform="translate(-383.287 -340.357)"/>
      <path id="Trazado_1034607" data-name="Trazado 1034607" d="M393.584,440H392v1.584h1.584Z" transform="translate(-383.287 -398.021)"/>
      <path id="Trazado_1034608" data-name="Trazado 1034608" d="M105.584,56H104v1.584h1.584Z" transform="translate(-66.773 -52.04)"/>
      <path id="Trazado_1034609" data-name="Trazado 1034609" d="M105.584,120H104v1.584h1.584Z" transform="translate(-66.773 -109.703)"/>
      <path id="Trazado_1034610" data-name="Trazado 1034610" d="M105.584,184H104v1.584h1.584Z" transform="translate(-66.773 -167.367)"/>
      <path id="Trazado_1034611" data-name="Trazado 1034611" d="M105.584,248H104v1.584h1.584Z" transform="translate(-66.773 -225.03)"/>
      <path id="Trazado_1034612" data-name="Trazado 1034612" d="M105.584,312H104v1.584h1.584Z" transform="translate(-66.773 -282.694)"/>
      <path id="Trazado_1034613" data-name="Trazado 1034613" d="M105.584,376H104v1.584h1.584Z" transform="translate(-66.773 -340.357)"/>
      <path id="Trazado_1034614" data-name="Trazado 1034614" d="M105.584,440H104v1.584h1.584Z" transform="translate(-66.773 -398.021)"/>
    </g>
  </g>
</svg>
