<svg xmlns="http://www.w3.org/2000/svg" width="396" height="300.23" viewBox="0 0 396 300.23">
  <g id="Grupo_1177596" data-name="Grupo 1177596" transform="translate(9559 2434)">
    <rect id="Rectángulo_405103" data-name="Rectángulo 405103" width="396" height="300.23" rx="8" transform="translate(-9559 -2434)" fill="#d8cabd"/>
    <g id="Grupo_1177601" data-name="Grupo 1177601" transform="translate(-9514.616 -2440.056)">
      <g id="Grupo_1178030" data-name="Grupo 1178030" transform="translate(51.787 39.155)">
        <path id="Trazado_1033898" data-name="Trazado 1033898" d="M224.519,111.641c-.686,1.712-1.988,3.472-4.058,3.221a4.718,4.718,0,0,1-1.458-.437c-4.046-1.782-8.286-3.081-12.295-4.954a11.858,11.858,0,0,1-4.776-3.5,11.293,11.293,0,0,1-1.918-5.061,36.782,36.782,0,0,1-.257-5.673,31.369,31.369,0,0,1,.523-6.218,11.71,11.71,0,0,1,2.342-5.13,10.659,10.659,0,0,1,3.681-2.815,13.318,13.318,0,0,1,9.348-.615,14.183,14.183,0,0,1,7.808,6.325,19.5,19.5,0,0,1,2.76,10.228c-.011,2.426-.1,4.868-.3,7.286a25.243,25.243,0,0,1-1.4,7.34" transform="translate(-144.319 -79.895)" fill="#2f5235"/>
        <path id="Trazado_1033899" data-name="Trazado 1033899" d="M181.136,106.755a.375.375,0,0,1-.043.127c0,.015,0,.028,0,.044-.17,1.032-.3,2.072-.485,3.1a9.344,9.344,0,0,1-.668,2.314,5.962,5.962,0,0,1-3.767,3.11,9.3,9.3,0,0,1-5.749-.2,5.5,5.5,0,0,1-2.317-1.629,8.938,8.938,0,0,1-1.518-2.991c-.4-1.218-.734-2.466-1.049-3.708a25.219,25.219,0,0,1-.741-4.125,11.742,11.742,0,0,1,1.274-6.71,7.343,7.343,0,0,1,4.781-3.69,8.833,8.833,0,0,1,9.969,5.54,15.938,15.938,0,0,1,.517,7.016c-.058.6-.128,1.2-.2,1.8" transform="translate(-129.939 -84.957)" fill="#2f5235"/>
        <path id="Trazado_1033900" data-name="Trazado 1033900" d="M151.051,127.56c-2.874,1.582-6.931.85-8.632-2.086a10.325,10.325,0,0,1-1.051-2.829,30.9,30.9,0,0,1-.562-3.039,14.1,14.1,0,0,1,.364-6.195,8.03,8.03,0,0,1,3.135-4.2,5.778,5.778,0,0,1,5.038-.738,7.507,7.507,0,0,1,3.913,3.3,14.952,14.952,0,0,1,1.78,5.94c.064.512.118,1.025.17,1.539a.553.553,0,0,1,.02.075,7.634,7.634,0,0,1-.83,4.95,8.6,8.6,0,0,1-3.344,3.285" transform="translate(-120.031 -91.519)" fill="#2f5235"/>
        <path id="Trazado_1033901" data-name="Trazado 1033901" d="M129.369,146.509a6.094,6.094,0,0,1-4.194.208,5.134,5.134,0,0,1-3.193-2.806,9.431,9.431,0,0,1-.658-2.44c-.139-.913-.235-1.833-.283-2.755a11.32,11.32,0,0,1,.82-5.345c1.251-2.7,4.381-4.788,7.35-3.47a6.707,6.707,0,0,1,3.2,3.222,13.231,13.231,0,0,1,1.1,5.172c.021.395.035.789.047,1.184a.386.386,0,0,1,.009.038,6.745,6.745,0,0,1-1.05,4.368,7.343,7.343,0,0,1-3.142,2.623" transform="translate(-111.974 -100.271)" fill="#2f5235"/>
        <path id="Trazado_1033902" data-name="Trazado 1033902" d="M106.312,156.014a6.828,6.828,0,0,1,2.709-3.41,4.318,4.318,0,0,1,4.1-.3,6.389,6.389,0,0,1,2.973,3.153,14.259,14.259,0,0,1,1.1,5.179c.027.423.047.847.065,1.271a.669.669,0,0,1,.013.078,7.036,7.036,0,0,1-.917,4.278,6.884,6.884,0,0,1-2.809,2.617,5.211,5.211,0,0,1-3.907.263,4.941,4.941,0,0,1-3.018-2.852,10.491,10.491,0,0,1-.626-2.451c-.132-.88-.236-1.768-.292-2.657a12.444,12.444,0,0,1,.6-5.169" transform="translate(-105.67 -109.483)" fill="#2f5235"/>
        <path id="Trazado_1033903" data-name="Trazado 1033903" d="M188.511,295.5c-2.284-3.268-4.964-6.229-7.551-9.254-1.29-1.509-2.558-3.037-3.744-4.63a.513.513,0,0,1-.091-.12c-4.336-5.282-8.834-10.427-13.21-15.674-2.217-2.659-4.408-5.341-6.527-8.079-2.062-2.665-4.007-5.409-5.94-8.167-3.8-5.411-7.533-10.954-9.8-17.212a55.592,55.592,0,0,1-2.437-9.462,59.215,59.215,0,0,1-.911-9.649c-.035-5.961,2.6-11.961,6.395-16.474q.734-.873,1.541-1.681a25.434,25.434,0,0,1,5.662-4.279,29.007,29.007,0,0,1,9.234-3.1,59.906,59.906,0,0,1,9.726-.695,57.642,57.642,0,0,0,9.1-.582c6.189-1.015,12.45-3.842,15.39-9.7a19.177,19.177,0,0,0-.7-17.764c-3.123-5.553-8.56-9.511-14.474-11.664-6.839-2.49-14.368-2.758-21.55-2.074a63.575,63.575,0,0,0-19.029,4.755A49,49,0,0,0,123.544,160.9a42.394,42.394,0,0,0-9.715,16.247,39.844,39.844,0,0,0-1.473,18.762,36.694,36.694,0,0,0,1.071,4.584c2.31,8.427,4.487,16.891,6.453,25.405,2.012,8.714,3.806,17.481,5.267,26.305,1.431,8.636,2.543,17.331,3.156,26.064s1.132,17.441,3,26.022a66.137,66.137,0,0,0,7.358,19.781,35.546,35.546,0,0,0,13.388,13.27,32.565,32.565,0,0,0,10.529,3.636A30.37,30.37,0,0,0,175.243,340c6.525-1.8,13.3-4.933,17.071-10.832a21.892,21.892,0,0,0,3.024-10.562,34.928,34.928,0,0,0-1.541-12.22,38.663,38.663,0,0,0-5.286-10.887" transform="translate(-108.205 -106.605)" fill="#2f5235"/>
        <path id="Trazado_1033904" data-name="Trazado 1033904" d="M315.1,111.641c.686,1.712,1.988,3.472,4.058,3.221a4.718,4.718,0,0,0,1.458-.437c4.046-1.782,8.286-3.081,12.295-4.954a11.858,11.858,0,0,0,4.776-3.5,11.292,11.292,0,0,0,1.918-5.061,36.784,36.784,0,0,0,.257-5.673,31.411,31.411,0,0,0-.523-6.218A11.716,11.716,0,0,0,337,83.892a10.667,10.667,0,0,0-3.681-2.815,13.318,13.318,0,0,0-9.348-.615,14.183,14.183,0,0,0-7.808,6.325,19.5,19.5,0,0,0-2.76,10.228c.011,2.426.1,4.868.3,7.286a25.243,25.243,0,0,0,1.4,7.34" transform="translate(-191.007 -79.895)" fill="#2f5235"/>
        <path id="Trazado_1033905" data-name="Trazado 1033905" d="M365.263,106.755a.373.373,0,0,0,.043.127c0,.015,0,.028,0,.044.17,1.032.3,2.072.486,3.1a9.341,9.341,0,0,0,.668,2.314,5.962,5.962,0,0,0,3.767,3.11,9.3,9.3,0,0,0,5.749-.2,5.5,5.5,0,0,0,2.317-1.629,8.939,8.939,0,0,0,1.518-2.991c.4-1.218.734-2.466,1.049-3.708a25.227,25.227,0,0,0,.741-4.125,11.742,11.742,0,0,0-1.274-6.71,7.343,7.343,0,0,0-4.781-3.69,8.833,8.833,0,0,0-9.969,5.54,15.937,15.937,0,0,0-.517,7.016c.058.6.128,1.2.2,1.8" transform="translate(-212.167 -84.957)" fill="#2f5235"/>
        <path id="Trazado_1033906" data-name="Trazado 1033906" d="M396.774,127.56c2.874,1.582,6.931.85,8.632-2.086a10.326,10.326,0,0,0,1.051-2.829c.238-1,.425-2.019.562-3.039a14.1,14.1,0,0,0-.364-6.195,8.03,8.03,0,0,0-3.135-4.2,5.778,5.778,0,0,0-5.038-.738,7.507,7.507,0,0,0-3.913,3.3,14.951,14.951,0,0,0-1.78,5.94c-.064.512-.118,1.025-.17,1.539a.548.548,0,0,0-.02.075,7.634,7.634,0,0,0,.83,4.95,8.6,8.6,0,0,0,3.344,3.285" transform="translate(-223.5 -91.519)" fill="#2f5235"/>
        <path id="Trazado_1033907" data-name="Trazado 1033907" d="M419.935,146.509a6.094,6.094,0,0,0,4.195.208,5.135,5.135,0,0,0,3.193-2.806,9.431,9.431,0,0,0,.658-2.44c.139-.913.235-1.833.283-2.755a11.321,11.321,0,0,0-.82-5.345c-1.251-2.7-4.381-4.788-7.35-3.47a6.711,6.711,0,0,0-3.2,3.222,13.243,13.243,0,0,0-1.1,5.172c-.021.395-.035.789-.047,1.184a.386.386,0,0,0-.009.038,6.744,6.744,0,0,0,1.05,4.368,7.343,7.343,0,0,0,3.142,2.623" transform="translate(-233.038 -100.271)" fill="#2f5235"/>
        <path id="Trazado_1033908" data-name="Trazado 1033908" d="M443.642,156.014a6.828,6.828,0,0,0-2.709-3.41,4.318,4.318,0,0,0-4.1-.3,6.389,6.389,0,0,0-2.973,3.153,14.259,14.259,0,0,0-1.1,5.179c-.027.423-.047.847-.065,1.271a.686.686,0,0,0-.013.078,7.036,7.036,0,0,0,.917,4.278,6.884,6.884,0,0,0,2.809,2.617,5.211,5.211,0,0,0,3.907.263,4.941,4.941,0,0,0,3.018-2.852,10.493,10.493,0,0,0,.626-2.451c.132-.88.236-1.768.292-2.657a12.443,12.443,0,0,0-.6-5.169" transform="translate(-239.992 -109.483)" fill="#2f5235"/>
        <path id="Trazado_1033909" data-name="Trazado 1033909" d="M310.04,295.5c2.284-3.268,4.964-6.229,7.551-9.254,1.29-1.509,2.558-3.037,3.743-4.63a.589.589,0,0,1,.047-.052.681.681,0,0,1,.045-.068c4.336-5.282,8.834-10.427,13.21-15.674,2.217-2.659,4.407-5.341,6.526-8.079,2.062-2.665,4.007-5.409,5.941-8.167,3.8-5.411,7.533-10.954,9.8-17.212a55.585,55.585,0,0,0,2.437-9.462,59.09,59.09,0,0,0,.911-9.649c.035-5.961-2.6-11.961-6.395-16.474q-.734-.873-1.541-1.681a25.434,25.434,0,0,0-5.662-4.279,29,29,0,0,0-9.234-3.1,59.9,59.9,0,0,0-9.726-.695,57.642,57.642,0,0,1-9.1-.582c-6.189-1.015-12.45-3.842-15.39-9.7a19.178,19.178,0,0,1,.7-17.764c3.123-5.553,8.56-9.511,14.474-11.664,6.839-2.49,14.368-2.758,21.55-2.074a63.575,63.575,0,0,1,19.028,4.755A49,49,0,0,1,375.006,160.9a42.4,42.4,0,0,1,9.716,16.247,39.844,39.844,0,0,1,1.472,18.762,36.789,36.789,0,0,1-1.07,4.584c-2.31,8.427-4.488,16.891-6.454,25.405-2.012,8.714-3.806,17.481-5.267,26.305-1.431,8.636-2.542,17.331-3.156,26.064s-1.132,17.441-3,26.022a66.138,66.138,0,0,1-7.358,19.781,35.549,35.549,0,0,1-13.387,13.27,32.565,32.565,0,0,1-10.53,3.636A30.368,30.368,0,0,1,323.308,340c-6.525-1.8-13.3-4.933-17.072-10.832a21.9,21.9,0,0,1-3.023-10.562,34.927,34.927,0,0,1,1.541-12.22A38.665,38.665,0,0,1,310.04,295.5" transform="translate(-186.053 -106.605)" fill="#2f5235"/>
      </g>
    </g>
  </g>
</svg>
