<svg xmlns="http://www.w3.org/2000/svg" width="396" height="300.23" viewBox="0 0 396 300.23">
  <g id="Grupo_1178035" data-name="Grupo 1178035" transform="translate(6919 3982)">
    <rect id="Rectángulo_405194" data-name="Rectángulo 405194" width="396" height="300.23" rx="8" transform="translate(-6919 -3982)" fill="#d8cabd"/>
    <g id="Grupo_1178032" data-name="Grupo 1178032" transform="translate(-1288.497 -222.956)">
      <path id="Trazado_1033911" data-name="Trazado 1033911" d="M292.7,113.474c.877,1.625,2.373,3.229,4.4,2.743a4.732,4.732,0,0,0,1.4-.6c3.823-2.233,7.895-4.007,11.67-6.326a11.876,11.876,0,0,0,4.355-4.022,11.308,11.308,0,0,0,1.334-5.254,36.806,36.806,0,0,0-.389-5.673,31.47,31.47,0,0,0-1.226-6.128,11.737,11.737,0,0,0-2.913-4.839,10.677,10.677,0,0,0-3.982-2.382,13.337,13.337,0,0,0-9.371.45,14.2,14.2,0,0,0-7.051,7.181,19.52,19.52,0,0,0-1.584,10.49c.286,2.413.655,4.832,1.124,7.216a25.292,25.292,0,0,0,2.227,7.144" transform="translate(-5716.566 -3802.394)" fill="#2f5235"/>
      <path id="Trazado_1033912" data-name="Trazado 1033912" d="M339.111,99.578a.373.373,0,0,0,.07.114c0,.014.007.027.013.041.4.97.76,1.954,1.172,2.918a9.319,9.319,0,0,0,1.174,2.108,5.965,5.965,0,0,0,4.376,2.186,9.312,9.312,0,0,0,5.564-1.491,5.5,5.5,0,0,0,1.894-2.111,8.941,8.941,0,0,0,.807-3.261c.116-1.279.161-2.571.188-3.855a25.3,25.3,0,0,0-.206-4.192,11.762,11.762,0,0,0-2.755-6.261,7.353,7.353,0,0,0-5.5-2.523,8.846,8.846,0,0,0-8.48,7.651,15.951,15.951,0,0,0,1.075,6.962c.192.575.4,1.144.6,1.713" transform="translate(-5737.192 -3803.636)" fill="#2f5235"/>
      <path id="Trazado_1033913" data-name="Trazado 1033913" d="M376.444,115.219c3.171.863,6.947-.8,7.911-4.063a10.33,10.33,0,0,0,.356-3,30.676,30.676,0,0,0-.169-3.09,14.111,14.111,0,0,0-1.812-5.944,8.042,8.042,0,0,0-4.041-3.349,5.784,5.784,0,0,0-5.077.468,7.517,7.517,0,0,0-3.033,4.13,14.992,14.992,0,0,0-.334,6.2c.058.514.127,1.026.2,1.538a.573.573,0,0,0,0,.077,7.646,7.646,0,0,0,1.973,4.623,8.612,8.612,0,0,0,4.029,2.41" transform="translate(-5751.208 -3808.838)" fill="#2f5235"/>
      <path id="Trazado_1033914" data-name="Trazado 1033914" d="M402.838,129.934a6.1,6.1,0,0,0,4.2-.15,5.139,5.139,0,0,0,2.947-3.072,9.451,9.451,0,0,0,.449-2.49c.061-.923.078-1.849.047-2.773a11.339,11.339,0,0,0-1.273-5.263c-1.478-2.587-4.78-4.4-7.631-2.836a6.719,6.719,0,0,0-2.918,3.487,13.253,13.253,0,0,0-.652,5.254c.013.4.033.791.054,1.186a.291.291,0,0,0-.006.039,6.755,6.755,0,0,0,1.42,4.269,7.36,7.36,0,0,0,3.359,2.349" transform="translate(-5763.165 -3816.279)" fill="#2f5235"/>
      <path id="Trazado_1033915" data-name="Trazado 1033915" d="M429.116,133.786a6.835,6.835,0,0,0-3.291-2.862,4.325,4.325,0,0,0-4.094.456,6.4,6.4,0,0,0-2.35,3.648,14.3,14.3,0,0,0-.139,5.3c.051.422.109.843.169,1.263a.716.716,0,0,0,0,.079,7.043,7.043,0,0,0,1.686,4.044,6.9,6.9,0,0,0,3.244,2.063,5.224,5.224,0,0,0,3.9-.456,4.949,4.949,0,0,0,2.45-3.361,10.522,10.522,0,0,0,.168-2.528c-.031-.891-.091-1.784-.2-2.669a12.465,12.465,0,0,0-1.539-4.979" transform="translate(-5772.189 -3823.921)" fill="#2f5235"/>
      <path id="Trazado_1033916" data-name="Trazado 1033916" d="M296.029,170.62c-.708-9.209,1.889-12.278,6.375-17.236,4.007-4.429,8.684-6.778,14.4-8.5a69.6,69.6,0,0,1,27.407-2.525c14.311,1.541,27.1,10.949,34.644,23.208s10.235,27.059,9.659,41.442-4.247,28.466-8.663,42.166c-.763,2.368-1.6,4.821-3.361,6.584s-4.711,2.594-6.779,1.21c-2.6-1.739-2.369-5.546-2.021-8.653a82.635,82.635,0,0,0-3.712-35.181c-2.485-7.455-6.931-15.313-14.54-17.275-6.254-1.613-13.977-.046-20.356.969-14.951,2.378-32.583-6.139-33.056-26.209" transform="translate(-5719.441 -3828.783)" fill="#2f5235"/>
      <path id="Trazado_1033917" data-name="Trazado 1033917" d="M323.573,409.319c-3.305-6.847-1.865-12.919.439-17.826s6.315-8.791,10.459-12.285A127.188,127.188,0,0,1,361.5,361.746c4.19-2.007,9.188-3.774,13.326-1.662,4.72,2.408,5.888,8.567,5.982,13.865a82.716,82.716,0,0,1-5.1,30.068c-3.048,8.245-7.878,16.444-15.757,20.341a25.021,25.021,0,0,1-21,.041,33.208,33.208,0,0,1-15.368-15.08" transform="translate(-5730.457 -3921.801)" fill="#2f5235"/>
      <path id="Trazado_1033918" data-name="Trazado 1033918" d="M245.391,113.887c-.877,1.625-2.372,3.229-4.4,2.743a4.731,4.731,0,0,1-1.4-.6c-3.823-2.233-7.895-4.007-11.67-6.326a11.877,11.877,0,0,1-4.355-4.022,11.309,11.309,0,0,1-1.334-5.254,36.821,36.821,0,0,1,.389-5.673,31.477,31.477,0,0,1,1.226-6.128,11.731,11.731,0,0,1,2.913-4.838,10.671,10.671,0,0,1,3.982-2.382,13.337,13.337,0,0,1,9.371.45,14.2,14.2,0,0,1,7.051,7.181,19.521,19.521,0,0,1,1.584,10.49c-.286,2.413-.655,4.832-1.124,7.216a25.291,25.291,0,0,1-2.227,7.144" transform="translate(-5687.875 -3802.571)" fill="#2f5235"/>
      <path id="Trazado_1033919" data-name="Trazado 1033919" d="M206.207,99.991a.378.378,0,0,1-.07.114c0,.014-.007.027-.013.041-.4.969-.76,1.954-1.172,2.918a9.317,9.317,0,0,1-1.174,2.108,5.964,5.964,0,0,1-4.376,2.186,9.313,9.313,0,0,1-5.564-1.491,5.5,5.5,0,0,1-1.894-2.111,8.954,8.954,0,0,1-.807-3.261c-.115-1.279-.161-2.571-.188-3.854a25.3,25.3,0,0,1,.206-4.192,11.762,11.762,0,0,1,2.755-6.261,7.353,7.353,0,0,1,5.5-2.523,8.846,8.846,0,0,1,8.48,7.651,15.951,15.951,0,0,1-1.075,6.962c-.192.575-.4,1.144-.6,1.713" transform="translate(-5674.479 -3803.813)" fill="#2f5235"/>
      <path id="Trazado_1033920" data-name="Trazado 1033920" d="M170.667,115.632c-3.171.863-6.947-.8-7.911-4.063a10.331,10.331,0,0,1-.356-3,30.667,30.667,0,0,1,.169-3.09,14.11,14.11,0,0,1,1.812-5.944,8.042,8.042,0,0,1,4.041-3.349,5.784,5.784,0,0,1,5.077.468,7.517,7.517,0,0,1,3.033,4.13,14.983,14.983,0,0,1,.333,6.2c-.058.514-.126,1.026-.2,1.538a.569.569,0,0,1,0,.077,7.646,7.646,0,0,1-1.973,4.623,8.611,8.611,0,0,1-4.029,2.41" transform="translate(-5662.254 -3809.015)" fill="#2f5235"/>
      <path id="Trazado_1033921" data-name="Trazado 1033921" d="M145.865,130.347a6.1,6.1,0,0,1-4.2-.15,5.139,5.139,0,0,1-2.947-3.072,9.453,9.453,0,0,1-.449-2.49c-.061-.923-.078-1.849-.047-2.773a11.339,11.339,0,0,1,1.273-5.263c1.478-2.587,4.78-4.4,7.631-2.836a6.72,6.72,0,0,1,2.918,3.487,13.254,13.254,0,0,1,.652,5.254c-.013.4-.033.791-.054,1.186a.29.29,0,0,1,.006.039,6.758,6.758,0,0,1-1.42,4.269,7.36,7.36,0,0,1-3.359,2.349" transform="translate(-5651.891 -3816.456)" fill="#2f5235"/>
      <path id="Trazado_1033922" data-name="Trazado 1033922" d="M120.114,134.2a6.834,6.834,0,0,1,3.291-2.862,4.325,4.325,0,0,1,4.094.456,6.4,6.4,0,0,1,2.35,3.648,14.3,14.3,0,0,1,.14,5.3c-.051.422-.109.843-.169,1.263a.7.7,0,0,1,0,.079,7.043,7.043,0,0,1-1.686,4.044,6.9,6.9,0,0,1-3.244,2.063,5.224,5.224,0,0,1-3.9-.456,4.949,4.949,0,0,1-2.45-3.361,10.522,10.522,0,0,1-.168-2.528c.031-.891.091-1.784.2-2.669a12.465,12.465,0,0,1,1.54-4.979" transform="translate(-5643.393 -3824.098)" fill="#2f5235"/>
      <path id="Trazado_1033923" data-name="Trazado 1033923" d="M192.605,171.033c.708-9.209-1.889-12.278-6.375-17.236-4.007-4.429-8.684-6.778-14.4-8.5a69.6,69.6,0,0,0-27.407-2.525c-14.311,1.541-27.1,10.949-34.644,23.208s-10.235,27.059-9.659,41.442,4.247,28.466,8.663,42.166c.763,2.368,1.6,4.821,3.361,6.584s4.711,2.594,6.779,1.21c2.6-1.739,2.37-5.546,2.021-8.653a82.634,82.634,0,0,1,3.712-35.181c2.485-7.455,6.931-15.313,14.54-17.275,6.254-1.613,13.977-.046,20.356.969,14.951,2.378,32.583-6.139,33.056-26.209" transform="translate(-5635.545 -3828.96)" fill="#2f5235"/>
      <path id="Trazado_1033924" data-name="Trazado 1033924" d="M190.155,409.732c3.305-6.847,1.865-12.919-.438-17.826s-6.315-8.791-10.459-12.285a127.187,127.187,0,0,0-27.027-17.461c-4.19-2.007-9.188-3.774-13.326-1.662-4.72,2.408-5.888,8.567-5.982,13.865a82.717,82.717,0,0,0,5.1,30.068c3.048,8.245,7.878,16.444,15.757,20.341a25.021,25.021,0,0,0,21,.041,33.207,33.207,0,0,0,15.368-15.08" transform="translate(-5649.623 -3921.978)" fill="#2f5235"/>
    </g>
  </g>
</svg>
