<svg xmlns="http://www.w3.org/2000/svg" width="396" height="300.23" viewBox="0 0 396 300.23">
  <g id="Grupo_1178036" data-name="Grupo 1178036" transform="translate(6919 3543)">
    <rect id="Rectángulo_405193" data-name="Rectángulo 405193" width="396" height="300.23" rx="8" transform="translate(-6919 -3543)" fill="#d8cabd"/>
    <g id="Grupo_1178031" data-name="Grupo 1178031" transform="translate(-1324.536 -430.117)">
      <path id="Trazado_1033926" data-name="Trazado 1033926" d="M340.81,112.23c.408,1.9,1.447,3.962,3.643,4.07a5,5,0,0,0,1.594-.195c4.521-1.131,9.159-1.726,13.658-2.958a12.5,12.5,0,0,0,5.586-2.783,11.9,11.9,0,0,0,2.895-4.917,38.742,38.742,0,0,0,1.278-5.849,33.1,33.1,0,0,0,.564-6.554,12.347,12.347,0,0,0-1.52-5.748,11.238,11.238,0,0,0-3.324-3.58,14.045,14.045,0,0,0-9.6-2.3,14.953,14.953,0,0,0-9.24,5.183,20.548,20.548,0,0,0-4.689,10.137c-.421,2.523-.761,5.077-.989,7.624a26.632,26.632,0,0,0,.148,7.877" transform="translate(-5698.53 -3167.189)" fill="#2f5235"/>
      <path id="Trazado_1033927" data-name="Trazado 1033927" d="M393.8,112.831a.386.386,0,0,0,.029.138c0,.015,0,.03,0,.046.049,1.1.057,2.207.121,3.308a9.821,9.821,0,0,0,.411,2.507,6.28,6.28,0,0,0,3.557,3.724,9.808,9.808,0,0,0,6.043.506,5.8,5.8,0,0,0,2.628-1.417,9.417,9.417,0,0,0,1.961-2.942c.57-1.226,1.076-2.49,1.56-3.752a26.6,26.6,0,0,0,1.289-4.227,12.381,12.381,0,0,0-.5-7.184,7.742,7.742,0,0,0-4.546-4.458,9.314,9.314,0,0,0-11.127,4.559,16.8,16.8,0,0,0-1.415,7.281c-.014.637-.016,1.275-.012,1.912" transform="translate(-5718.825 -3173.774)" fill="#2f5235"/>
      <path id="Trazado_1033928" data-name="Trazado 1033928" d="M421.412,138.887c3.031,1.668,7.307.9,9.1-2.2a10.889,10.889,0,0,0,1.107-2.982,32.475,32.475,0,0,0,.593-3.2,14.86,14.86,0,0,0-.384-6.532,8.462,8.462,0,0,0-3.306-4.427,6.087,6.087,0,0,0-5.31-.778,7.914,7.914,0,0,0-4.126,3.475,15.765,15.765,0,0,0-1.877,6.263c-.068.54-.125,1.081-.179,1.622a.521.521,0,0,0-.02.079,8.049,8.049,0,0,0,.874,5.22,9.066,9.066,0,0,0,3.526,3.463" transform="translate(-5727.612 -3181.324)" fill="#2f5235"/>
      <path id="Trazado_1033929" data-name="Trazado 1033929" d="M440.429,161.816a6.428,6.428,0,0,0,4.347.843,5.412,5.412,0,0,0,3.751-2.452,9.95,9.95,0,0,0,1.051-2.448c.281-.931.519-1.877.706-2.832a11.936,11.936,0,0,0-.058-5.7c-.9-3-3.858-5.651-7.154-4.718a7.076,7.076,0,0,0-3.82,2.885,13.959,13.959,0,0,0-1.915,5.235c-.081.408-.154.819-.226,1.229a.288.288,0,0,0-.015.038,7.115,7.115,0,0,0,.444,4.716,7.751,7.751,0,0,0,2.889,3.206" transform="translate(-5735.214 -3191.157)" fill="#2f5235"/>
      <path id="Trazado_1033930" data-name="Trazado 1033930" d="M461.923,167.377a7.2,7.2,0,0,0-2.385-3.924,4.553,4.553,0,0,0-4.252-.853,6.734,6.734,0,0,0-3.525,2.907,15.037,15.037,0,0,0-1.836,5.272c-.084.439-.161.88-.235,1.321a.823.823,0,0,0-.024.079,7.423,7.423,0,0,0,.4,4.6,7.255,7.255,0,0,0,2.593,3.107,5.5,5.5,0,0,0,4.053.789,5.206,5.206,0,0,0,3.532-2.587,11.027,11.027,0,0,0,.978-2.481c.253-.9.479-1.819.654-2.741a13.124,13.124,0,0,0,.05-5.487" transform="translate(-5740.001 -3198.033)" fill="#2f5235"/>
      <path id="Trazado_1033931" data-name="Trazado 1033931" d="M314.127,227.067c-2.478-15.367-6.418-24.109-6.437-37.212s5.353-27,16.627-33.674c7.106-4.207,15.73-5.124,23.967-4.532,18.523,1.33,37.394,11.093,45.08,28,7.991,17.578,2.514,38.244-5.129,55.976s-12.986,32.121-16.11,51.176c-2.479,15.119,2.161,24.894,3.718,34.947,1.291,8.333-1.058,17.063-7.743,22.2-3.213,2.471-9.607,6.3-13.573,7.291-10.673,2.668-21,2.644-30.982-1.983-10.976-5.088-17.43-19.872-20.183-31.652s-1.671-24.1.068-36.074c2.59-17.839,10.7-32.408,10.7-54.468" transform="translate(-5683.788 -3193.884)" fill="#2f5235"/>
      <path id="Trazado_1033932" data-name="Trazado 1033932" d="M199.093,112.23c-.408,1.9-1.447,3.962-3.643,4.07a5,5,0,0,1-1.594-.195c-4.521-1.131-9.159-1.726-13.658-2.958a12.5,12.5,0,0,1-5.586-2.783,11.9,11.9,0,0,1-2.895-4.917,38.746,38.746,0,0,1-1.278-5.849,33.1,33.1,0,0,1-.564-6.554,12.348,12.348,0,0,1,1.52-5.748,11.238,11.238,0,0,1,3.324-3.58,14.045,14.045,0,0,1,9.6-2.3,14.953,14.953,0,0,1,9.24,5.183,20.548,20.548,0,0,1,4.689,10.137c.421,2.523.761,5.077.989,7.624a26.631,26.631,0,0,1-.148,7.877" transform="translate(-5633.646 -3167.189)" fill="#2f5235"/>
      <path id="Trazado_1033933" data-name="Trazado 1033933" d="M153.281,112.831a.385.385,0,0,1-.029.138c0,.015,0,.03,0,.046-.049,1.1-.057,2.207-.121,3.308a9.82,9.82,0,0,1-.411,2.507,6.28,6.28,0,0,1-3.557,3.724,9.808,9.808,0,0,1-6.043.506,5.794,5.794,0,0,1-2.628-1.417,9.417,9.417,0,0,1-1.961-2.942c-.57-1.226-1.076-2.49-1.56-3.752a26.605,26.605,0,0,1-1.289-4.227,12.381,12.381,0,0,1,.5-7.184,7.742,7.742,0,0,1,4.546-4.458,9.314,9.314,0,0,1,11.127,4.559,16.8,16.8,0,0,1,1.415,7.281c.014.637.015,1.275.012,1.912" transform="translate(-5620.529 -3173.774)" fill="#2f5235"/>
      <path id="Trazado_1033934" data-name="Trazado 1033934" d="M127.147,138.887c-3.031,1.668-7.307.9-9.1-2.2a10.891,10.891,0,0,1-1.107-2.982,32.495,32.495,0,0,1-.593-3.2,14.861,14.861,0,0,1,.384-6.532,8.462,8.462,0,0,1,3.306-4.427,6.087,6.087,0,0,1,5.31-.778,7.914,7.914,0,0,1,4.126,3.475,15.764,15.764,0,0,1,1.877,6.263c.068.54.125,1.081.179,1.622a.525.525,0,0,1,.02.079,8.049,8.049,0,0,1-.874,5.22,9.066,9.066,0,0,1-3.526,3.463" transform="translate(-5613.219 -3181.324)" fill="#2f5235"/>
      <path id="Trazado_1033935" data-name="Trazado 1033935" d="M109.225,161.816a6.428,6.428,0,0,1-4.347.843,5.412,5.412,0,0,1-3.751-2.452,9.95,9.95,0,0,1-1.051-2.448c-.281-.931-.518-1.877-.706-2.832a11.928,11.928,0,0,1,.059-5.7c.9-3,3.858-5.651,7.154-4.718a7.073,7.073,0,0,1,3.82,2.885,13.96,13.96,0,0,1,1.915,5.235c.081.408.154.819.226,1.229a.4.4,0,0,1,.014.038,7.115,7.115,0,0,1-.443,4.716,7.757,7.757,0,0,1-2.889,3.206" transform="translate(-5606.713 -3191.157)" fill="#2f5235"/>
      <path id="Trazado_1033936" data-name="Trazado 1033936" d="M88.342,167.377a7.2,7.2,0,0,1,2.385-3.924,4.553,4.553,0,0,1,4.252-.853,6.734,6.734,0,0,1,3.524,2.907,15.038,15.038,0,0,1,1.836,5.272c.084.439.16.88.235,1.321.009.026.017.052.024.079a7.423,7.423,0,0,1-.4,4.6,7.255,7.255,0,0,1-2.593,3.107,5.5,5.5,0,0,1-4.053.789,5.206,5.206,0,0,1-3.532-2.587,11.028,11.028,0,0,1-.978-2.481c-.253-.9-.479-1.819-.654-2.741a13.124,13.124,0,0,1-.05-5.487" transform="translate(-5602.536 -3198.033)" fill="#2f5235"/>
      <path id="Trazado_1033937" data-name="Trazado 1033937" d="M185.258,227.067c2.479-15.367,6.418-24.109,6.437-37.212s-5.353-27-16.627-33.674c-7.106-4.207-15.73-5.124-23.967-4.532-18.523,1.33-37.394,11.093-45.08,28-7.991,17.578-2.514,38.244,5.129,55.976s12.986,32.121,16.11,51.176c2.479,15.119-2.161,24.894-3.718,34.947-1.291,8.333,1.058,17.063,7.743,22.2,3.213,2.471,9.607,6.3,13.573,7.291,10.673,2.668,21,2.644,30.982-1.983,10.975-5.088,17.43-19.872,20.183-31.652s1.671-24.1-.068-36.074c-2.59-17.839-10.7-32.408-10.7-54.468" transform="translate(-5607.87 -3193.884)" fill="#2f5235"/>
    </g>
  </g>
</svg>
