<svg xmlns="http://www.w3.org/2000/svg" xmlns:xlink="http://www.w3.org/1999/xlink" width="118" height="118" viewBox="0 0 118 118">
  <defs>
    <filter id="Trazado_896985" x="0" y="0" width="118" height="118" filterUnits="userSpaceOnUse">
      <feOffset dy="3" input="SourceAlpha"/>
      <feGaussianBlur stdDeviation="3" result="blur"/>
      <feFlood flood-opacity="0.161"/>
      <feComposite operator="in" in2="blur"/>
      <feComposite in="SourceGraphic"/>
    </filter>
  </defs>
  <g id="Grupo_1111541" data-name="Grupo 1111541" transform="translate(-323.391 -3843)">
    <g id="Grupo_1111318" data-name="Grupo 1111318" transform="translate(-8.391 -3)">
      <g id="Grupo_1109826" data-name="Grupo 1109826" transform="translate(340.781 3852)">
        <g id="Grupo_1098742" data-name="Grupo 1098742">
          <g transform="matrix(1, 0, 0, 1, -9, -6)" filter="url(#Trazado_896985)">
            <g id="Trazado_896985-2" data-name="Trazado 896985" transform="translate(9 6)" fill="#2f5235" opacity="0.859">
              <path d="M 49.99993896484375 98.5 C 43.45182418823242 98.5 37.10037994384766 97.21788787841797 31.12203979492188 94.68926239013672 C 25.34688186645508 92.24657440185547 20.15993881225586 88.74932861328125 15.70529651641846 84.29470062255859 C 11.25066757202148 79.84007263183594 7.753438949584961 74.65312957763672 5.310753345489502 68.87797546386719 C 2.782124757766724 62.89963150024414 1.499996066093445 56.54819107055664 1.499996066093445 50.00007629394531 C 1.499996066093445 43.45181655883789 2.782124757766724 37.10037612915039 5.310753345489502 31.12203216552734 C 7.753438949584961 25.34687614440918 11.25066757202148 20.15993309020996 15.70529651641846 15.70530414581299 C 20.15993881225586 11.25067520141602 25.34688186645508 7.753432273864746 31.12203979492188 5.310746669769287 C 37.10037994384766 2.782118082046509 43.45182418823242 1.500003814697266 49.99993896484375 1.500003814697266 C 56.54805374145508 1.500003814697266 62.89949798583984 2.782118082046509 68.87785339355469 5.310746669769287 C 74.65300750732422 7.753432273864746 79.83995056152344 11.25067520141602 84.29457855224609 15.70530414581299 C 88.74921417236328 20.15993309020996 92.24645233154297 25.34687614440918 94.68914031982422 31.12203216552734 C 97.21776580810547 37.10037612915039 98.49988555908203 43.45181655883789 98.49988555908203 49.99993133544922 C 98.49988555908203 56.54819107055664 97.21776580810547 62.89963150024414 94.68914031982422 68.87797546386719 C 92.24645233154297 74.65312957763672 88.74921417236328 79.84007263183594 84.29457855224609 84.29470062255859 C 79.83995056152344 88.74932861328125 74.65300750732422 92.24657440185547 68.87785339355469 94.68926239013672 C 62.89949798583984 97.21788787841797 56.54805374145508 98.5 49.99993896484375 98.5 Z" stroke="none"/>
              <path d="M 49.99993896484375 3.000007629394531 C 43.65366363525391 3.000007629394531 37.49881744384766 4.242263793945312 31.70636749267578 6.692268371582031 C 26.11000061035156 9.059326171875 21.08332061767578 12.44860076904297 16.76596832275391 16.76596069335938 C 12.44860076904297 21.08332824707031 9.059326171875 26.11000061035156 6.6922607421875 31.70635986328125 C 4.242263793945312 37.49881744384766 3 43.65366363525391 3 50.00006484985352 C 3 56.34634399414062 4.242263793945312 62.50119018554688 6.6922607421875 68.29363250732422 C 9.059326171875 73.88999938964844 12.44860076904297 78.91667938232422 16.76596832275391 83.23403930664062 C 21.08332061767578 87.55140686035156 26.11000061035156 90.94068145751953 31.70636749267578 93.3077392578125 C 37.49881744384766 95.75774383544922 43.65366363525391 97 49.99993896484375 97 C 56.34621429443359 97 62.50106048583984 95.75774383544922 68.29352569580078 93.3077392578125 C 73.88987731933594 90.94068145751953 78.91654968261719 87.55140686035156 83.23392486572266 83.23403930664062 C 87.55127716064453 78.91667938232422 90.9405517578125 73.88999938964844 93.3076171875 68.29363250732422 C 95.75761413574219 62.50119018554688 96.9998779296875 56.34634399414062 96.9998779296875 49.99994277954102 C 96.9998779296875 43.65366363525391 95.75761413574219 37.49881744384766 93.3076171875 31.70635986328125 C 90.94056701660156 26.11000061035156 87.55127716064453 21.08332824707031 83.23392486572266 16.76596069335938 C 78.91654968261719 12.44860076904297 73.88987731933594 9.059310913085938 68.29352569580078 6.692268371582031 C 62.50106048583984 4.242263793945312 56.34621429443359 3.000007629394531 49.99993896484375 3.000007629394531 M 49.99993896484375 7.62939453125e-06 C 77.61415100097656 7.62939453125e-06 99.9998779296875 22.38572692871094 99.9998779296875 49.99994277954102 L 99.9998779296875 50.00006484985352 C 99.9998779296875 77.61426544189453 77.61415100097656 100 49.99993896484375 100 C 22.3857421875 100 0 77.61426544189453 0 50.00006484985352 L 0 49.99994277954102 C 0 22.38572692871094 22.3857421875 7.62939453125e-06 49.99993896484375 7.62939453125e-06 Z" stroke="none" fill="#fff"/>
            </g>
          </g>
          <g id="Rectángulo_400907" data-name="Rectángulo 400907" transform="translate(0 0)" fill="none" stroke="#fff" stroke-width="3">
            <rect width="100" height="100" rx="50" stroke="none"/>
            <rect x="1.5" y="1.5" width="97" height="97" rx="48.5" fill="none"/>
          </g>
        </g>
      </g>
    </g>
    <g id="thread_7242211" transform="translate(355.174 3868.674)">
      <g id="Grupo_1111505" data-name="Grupo 1111505" transform="translate(0.946 1.287)">
        <g id="Grupo_1111486" data-name="Grupo 1111486" transform="translate(45.408 27.533)">
          <path id="Trazado_900438" data-name="Trazado 900438" d="M395.784,243.72v12.966c0,.2-.009.408-.03.61a6.455,6.455,0,0,1-1.862,3.958,6.458,6.458,0,0,1-1.877-4.127c-.011-.147-.015-.293-.015-.441V243.72a3.79,3.79,0,0,0,3.784,0Z" transform="translate(-392 -243.72)" fill="#e6e9ed"/>
        </g>
        <g id="Grupo_1111487" data-name="Grupo 1111487" transform="translate(20.479 17.633)">
          <path id="Trazado_900439" data-name="Trazado 900439" d="M181.18,167.9l.589.747h0a29.62,29.62,0,0,1,7.311,1.242h0V160Z" transform="translate(-181.18 -160)" fill="#e6e9ed"/>
        </g>
        <g id="Grupo_1111488" data-name="Grupo 1111488" transform="translate(5.676 7.742)">
          <path id="Trazado_900440" data-name="Trazado 900440" d="M76.693,76.91a41.2,41.2,0,0,1-6.434.757h0L56,91.926v2.128a29.23,29.23,0,0,1,3.784-.236v-.946a1.86,1.86,0,0,1,.168-.778,1.889,1.889,0,0,1,1.724-1.114h3.413a6.592,6.592,0,0,1,2.654.556L78.7,80.574V76.361h0A16.061,16.061,0,0,1,76.693,76.91Z" transform="translate(-56 -76.36)" fill="#e6e9ed"/>
        </g>
        <g id="Grupo_1111489" data-name="Grupo 1111489" transform="translate(5.676 7.742)">
          <path id="Trazado_900441" data-name="Trazado 900441" d="M64.577,77.674,56,86.25V76.361h0A32.477,32.477,0,0,0,64.577,77.674Z" transform="translate(-56 -76.36)" fill="#e6e9ed"/>
        </g>
        <g id="Grupo_1111490" data-name="Grupo 1111490" transform="translate(17.418 15.741)">
          <path id="Trazado_900442" data-name="Trazado 900442" d="M165.316,146.838l-2.838,2.838-4.117,4.118-.516-.653a6.614,6.614,0,0,0-2.545-1.963l1.5-1.5,2.838-2.838L162.478,144Z" transform="translate(-155.3 -144)" fill="#ccd1d9"/>
        </g>
        <g id="Grupo_1111491" data-name="Grupo 1111491" transform="translate(24.596 11.957)">
          <path id="Trazado_900443" data-name="Trazado 900443" d="M219.784,112.946v4.73l-.946.946L216,115.784,219.784,112Z" transform="translate(-216 -112)" fill="#ccd1d9"/>
        </g>
        <g id="Grupo_1111492" data-name="Grupo 1111492" transform="translate(5.676 9.049)">
          <path id="Trazado_900444" data-name="Trazado 900444" d="M70.259,87.41h0l-1.015,1.015-2.838,2.838L63.568,94.1,60.73,96.94l-2.838,2.838L56,101.67V95.994l8.577-8.577c.9.041,1.823.063,2.775.063C68.35,87.48,69.323,87.456,70.259,87.41Z" transform="translate(-56 -87.41)" fill="#ccd1d9"/>
        </g>
        <g id="Grupo_1111493" data-name="Grupo 1111493" transform="translate(38.786 46.959)">
          <path id="Trazado_900445" data-name="Trazado 900445" d="M353.421,408.553a1.892,1.892,0,0,1-1.339,3.231H336c6.378,0,10.27-2.133,12.326-3.784h3.756A1.891,1.891,0,0,1,353.421,408.553Z" transform="translate(-336 -408)" fill="#ccd1d9"/>
        </g>
        <g id="Grupo_1111494" data-name="Grupo 1111494" transform="translate(0 48.851)">
          <path id="Trazado_900446" data-name="Trazado 900446" d="M64.207,425.339A1.89,1.89,0,0,0,64.76,424a7.567,7.567,0,0,1-7.568,7.568H28.812a2.835,2.835,0,0,1-1.7-.568l-3.027-2.27-1.05,1.574a2.836,2.836,0,0,1-2.36,1.264H11.229A3.23,3.23,0,0,1,8,428.339v-2.447H62.868A1.89,1.89,0,0,0,64.207,425.339Z" transform="translate(-8 -424)" fill="#aab2bd"/>
        </g>
        <g id="Grupo_1111495" data-name="Grupo 1111495" transform="translate(0 28.039)">
          <path id="Trazado_900447" data-name="Trazado 900447" d="M59.113,266.92c-2.056,1.651-5.948,3.784-12.326,3.784H28.812l-3.561-7.121a7.653,7.653,0,0,0-6.846-4.231H8V248c0,1.567,4.236,2.838,9.46,2.838a43.422,43.422,0,0,0,7.608-.577l.433.577a23.651,23.651,0,0,0,18.92,9.46h2.7a23.639,23.639,0,0,0,3.835.491l2.466.112a6.458,6.458,0,0,0,1.877,4.127,6.456,6.456,0,0,0,1.862-3.958l1.083.05a2.86,2.86,0,0,1,1.909,4.865,12.088,12.088,0,0,1-1.042.935Z" transform="translate(-8 -248)" fill="#dfb28b"/>
        </g>
        <g id="Grupo_1111496" data-name="Grupo 1111496" transform="translate(43.516 20.471)">
          <path id="Trazado_900448" data-name="Trazado 900448" d="M381.676,191.062a3.785,3.785,0,1,1,1.892-3.278A3.77,3.77,0,0,1,381.676,191.062Z" transform="translate(-376 -184)" fill="#ff826e"/>
        </g>
        <g id="Grupo_1111497" data-name="Grupo 1111497" transform="translate(17.068 28.491)">
          <path id="Trazado_900449" data-name="Trazado 900449" d="M174.395,263.666h-2.7a23.651,23.651,0,0,1-18.92-9.46l-.433-.577a21.771,21.771,0,0,0,5.743-1.809l2.181,2.762.477.6a23.655,23.655,0,0,0,13.654,8.481Z" transform="translate(-152.34 -251.82)" fill="#ecc19c"/>
        </g>
        <g id="Grupo_1111498" data-name="Grupo 1111498" transform="translate(24.992 28.985)">
          <path id="Trazado_900450" data-name="Trazado 900450" d="M224.63,256v3.784c0,.614-.911,1.182-2.457,1.647a23.443,23.443,0,0,1-2.346-2.56l-.477-.6C222.557,257.75,224.63,256.927,224.63,256Z" transform="translate(-219.35 -256)" fill="#fcd770"/>
        </g>
        <g id="Grupo_1111499" data-name="Grupo 1111499" transform="translate(3.784 2.497)">
          <path id="Trazado_900451" data-name="Trazado 900451" d="M62.585,37.8a41.2,41.2,0,0,1-6.434.757c-.935.046-1.909.07-2.907.07-.952,0-1.88-.021-2.775-.063a32.479,32.479,0,0,1-8.577-1.314c-1.2-.427-1.892-.927-1.892-1.462V32c0,1.567,5.929,2.838,13.244,2.838S66.488,33.567,66.488,32v3.784c0,.534-.691,1.035-1.892,1.462A16.061,16.061,0,0,1,62.585,37.8Z" transform="translate(-40 -32)" fill="#fcd770"/>
        </g>
        <g id="Grupo_1111500" data-name="Grupo 1111500" transform="translate(21.069 26.282)">
          <path id="Trazado_900452" data-name="Trazado 900452" d="M195.373,235.843c0,.927-2.073,1.75-5.28,2.268l-2.181-2.762-1.743-2.209a29.618,29.618,0,0,1,7.311,1.242C194.683,234.809,195.373,235.309,195.373,235.843Z" transform="translate(-186.17 -233.14)" fill="#ffeaa7"/>
        </g>
        <g id="Grupo_1111501" data-name="Grupo 1111501" transform="translate(3.641 0)">
          <ellipse id="Elipse_11602" data-name="Elipse 11602" cx="13.194" cy="2.474" rx="13.194" ry="2.474" transform="translate(0)" fill="#ffeaa7"/>
        </g>
        <g id="Grupo_1111502" data-name="Grupo 1111502" transform="translate(9.46 22.363)">
          <path id="Trazado_900453" data-name="Trazado 900453" d="M99.609,203.919l1.743,2.209a21.772,21.772,0,0,1-5.743,1.809,43.423,43.423,0,0,1-7.608.577v-6.622a1.86,1.86,0,0,1,.168-.778A1.889,1.889,0,0,1,89.892,200H93.3a6.632,6.632,0,0,1,5.2,2.519l.516.653.589.747Z" transform="translate(-88 -200)" fill="#d3a06c"/>
        </g>
        <g id="Grupo_1111503" data-name="Grupo 1111503" transform="translate(0 39.391)">
          <path id="Trazado_900454" data-name="Trazado 900454" d="M25.252,348.231l3.561,7.121H8V344H18.406A7.653,7.653,0,0,1,25.252,348.231Z" transform="translate(-8 -344)" fill="#e6e9ed"/>
        </g>
        <g id="Grupo_1111504" data-name="Grupo 1111504" transform="translate(0 25.201)">
          <path id="Trazado_900455" data-name="Trazado 900455" d="M17.46,224v5.676c-5.224,0-9.46-1.271-9.46-2.838,0-1.164,2.335-2.164,5.676-2.6A29.224,29.224,0,0,1,17.46,224Z" transform="translate(-8 -224)" fill="#cf9e76"/>
        </g>
      </g>
      <g id="Grupo_1111506" data-name="Grupo 1111506" transform="translate(0 0)">
        <path id="Trazado_900456" data-name="Trazado 900456" d="M55.814,47.3H54.3a3.808,3.808,0,0,0-3.069-5.8l-.15-.007V29.323a4.728,4.728,0,0,0-1.892-8.416V19.866a.947.947,0,0,1,.946-.946h5.676a2.838,2.838,0,0,0,0-5.676H30.272V9.676c1.28-.564,1.892-1.254,1.892-2.108V3.784c0-1.324-1.47-2.255-4.627-2.932A47.889,47.889,0,0,0,17.974,0,47.889,47.889,0,0,0,8.411.852C5.254,1.529,3.784,2.46,3.784,3.784V7.568c0,.853.612,1.544,1.892,2.108V25.909a18.213,18.213,0,0,0-2.231.5C1.159,27.1,0,28.079,0,29.326v25.15a4.176,4.176,0,0,0,4.176,4.176h9.441a3.776,3.776,0,0,0,3.148-1.685l.495-.742L19.488,57.9a3.809,3.809,0,0,0,2.271.757h28.38a8.524,8.524,0,0,0,8.514-8.514A2.841,2.841,0,0,0,55.814,47.3Zm.946,2.838a.947.947,0,0,1-.946.946H49.226a16.359,16.359,0,0,0,3.162-1.892h3.427A.947.947,0,0,1,56.76,50.138ZM52.976,45.3a1.894,1.894,0,0,1-.548,1.342c-1.641,1.658-5.473,4.439-12.7,4.439H22.343l-3.3-6.6a8.552,8.552,0,0,0-7.691-4.754v1.892a6.671,6.671,0,0,1,6,3.708l2.876,5.752H1.892v-9.46H5.676V39.732H1.892V31.645a10.065,10.065,0,0,0,1.553.594,25.234,25.234,0,0,0,6.961.871,45.709,45.709,0,0,0,7.2-.49l.084.112A24.6,24.6,0,0,0,37.367,42.57h2.6a24.633,24.633,0,0,0,3.89.49l1.671.076a7.351,7.351,0,0,0,2.045,3.887l.669.669.669-.669a7.354,7.354,0,0,0,2-3.643l.238.011A1.911,1.911,0,0,1,52.976,45.3ZM7.568,19.312l8.006-8.006c.785.03,1.587.046,2.4.046l.557,0L7.568,22.312Zm9.46-3.784,4.338,4.338-1.5,1.5-4.338-4.338Zm9.3,15.985-2.214-2.8c3.733.426,5.573,1.143,6.066,1.561A9.606,9.606,0,0,1,26.333,31.513ZM22.9,26.688l2.646-2.646L28.38,26.88v.659a34.129,34.129,0,0,0-5.484-.851ZM28.38,24.2l-1.5-1.5,1.5-1.5Zm-6.877,1.2a7.583,7.583,0,0,0-1.579-1.421l5.618-5.618,1.5,1.5ZM14.19,18.366,18.528,22.7l-.4.4a7.591,7.591,0,0,0-2.421-.4h-.183L12.69,19.866Zm1.521,6.23a5.644,5.644,0,0,1,4.455,2.159l2.1,2.654c-2.2.907-5.344,1.718-10.91,1.8V25.542A.947.947,0,0,1,12.3,24.6Zm7.765,6.351,2.2,2.783a24.584,24.584,0,0,0,8.1,6.655,22.843,22.843,0,0,1-14.09-8.176,22.44,22.44,0,0,0,3.794-1.262Zm5.534,3.68q-.7-.693-1.343-1.45a13.644,13.644,0,0,0,2.606-.8v1.594A3.247,3.247,0,0,1,29.01,34.627Zm-.629-16.1-1.5-1.5,1.5-1.5Zm-5.676,0L18.366,14.19l1.5-1.5L24.2,17.028Zm-1.5-7.176.088-.088c1.148-.062,2.249-.157,3.283-.282l-1.87,1.87ZM11.352,21.2l1.5,1.5H12.3a2.825,2.825,0,0,0-1.8.646L9.852,22.7Zm37.84,20.583a5.475,5.475,0,0,1-.946,3.091,5.475,5.475,0,0,1-.946-3.091V30.177a4.748,4.748,0,0,0,1.892,0Zm1.892-16.244A2.838,2.838,0,1,1,48.246,22.7,2.841,2.841,0,0,1,51.084,25.542Zm4.73-10.406a.946.946,0,1,1,0,1.892H50.138A2.841,2.841,0,0,0,47.3,19.866v1.041a4.728,4.728,0,0,0-1.892,8.416V41.236l-1.461-.066a22.69,22.69,0,0,1-13.386-5.14,2.418,2.418,0,0,0,1.6-1.973V30.272c0-1.032-.968-1.7-1.892-2.11V15.136ZM28.38,12.852,25.542,15.69l-1.5-1.5,3.745-3.745q.307-.069.593-.142ZM26.574,8.764a48.243,48.243,0,0,1-8.6.7,48.242,48.242,0,0,1-8.6-.7C6.809,8.277,5.869,7.7,5.676,7.482V5.892a14.375,14.375,0,0,0,2.735.824,47.889,47.889,0,0,0,9.563.852,47.889,47.889,0,0,0,9.563-.852,14.392,14.392,0,0,0,2.735-.824v1.59C30.079,7.7,29.14,8.277,26.574,8.764ZM9.374,2.588a48.242,48.242,0,0,1,8.6-.7,48.242,48.242,0,0,1,8.6.7,9.218,9.218,0,0,1,3.606,1.2,9.217,9.217,0,0,1-3.606,1.2,48.243,48.243,0,0,1-8.6.7,48.243,48.243,0,0,1-8.6-.7,9.217,9.217,0,0,1-3.606-1.2,9.217,9.217,0,0,1,3.606-1.2ZM8.411,10.5a37.626,37.626,0,0,0,4.641.653L7.568,16.636V10.3q.4.1.843.2ZM7.568,24.988l.946-.946.992.992a2.839,2.839,0,0,0-.046.508v.014c-.646.019-1.279.056-1.892.112Zm1.892,2.46V31.2C4.6,31.06,2.075,29.83,1.9,29.326,2.075,28.822,4.6,27.592,9.46,27.448ZM50.138,56.76H21.758a1.9,1.9,0,0,1-1.135-.378L16.8,53.511l-1.6,2.406a1.888,1.888,0,0,1-1.574.843H4.176a2.284,2.284,0,0,1-2.284-2.284v-1.5H55.814a2.866,2.866,0,0,0,.314-.018,6.63,6.63,0,0,1-5.99,3.8Z" transform="translate(0 0)"/>
        <path id="Trazado_900457" data-name="Trazado 900457" d="M64,336h1.892v1.892H64Z" transform="translate(-56.432 -296.268)"/>
      </g>
    </g>
  </g>
</svg>
