<svg xmlns="http://www.w3.org/2000/svg" xmlns:xlink="http://www.w3.org/1999/xlink" width="493" height="330" viewBox="0 0 493 330">
  <defs>
    <linearGradient id="linear-gradient" x1="0.096" y1="0.116" x2="0.868" y2="0.84" gradientUnits="objectBoundingBox">
      <stop offset="0" stop-color="#72390f"/>
      <stop offset="1" stop-color="#391d08"/>
    </linearGradient>
  </defs>
  <g id="Grupo_1178131" data-name="Grupo 1178131" transform="translate(-873.051 -3582)">
    <g id="Trazado_1034647" data-name="Trazado 1034647" transform="translate(873.051 3582)" fill="#f7f4f2">
      <path d="M 485 329 L 8 329 C 4.14018726348877 329 1 325.8598022460938 1 322 L 1 8 C 1 4.14018726348877 4.14018726348877 1 8 1 L 485 1 C 488.8598022460938 1 492 4.14018726348877 492 8 L 492 322 C 492 325.8598022460938 488.8598022460938 329 485 329 Z" stroke="none"/>
      <path d="M 8 2 C 4.691558837890625 2 2 4.691558837890625 2 8 L 2 322 C 2 325.3084411621094 4.691558837890625 328 8 328 L 485 328 C 488.3084411621094 328 491 325.3084411621094 491 322 L 491 8 C 491 4.691558837890625 488.3084411621094 2 485 2 L 8 2 M 8 0 L 485 0 C 489.4182434082031 0 493 3.581695556640625 493 8 L 493 322 C 493 326.4182434082031 489.4182434082031 330 485 330 L 8 330 C 3.581695556640625 330 0 326.4182434082031 0 322 L 0 8 C 0 3.581695556640625 3.581695556640625 0 8 0 Z" stroke="none" fill="#2f5235"/>
    </g>
    <path id="Trazado_1034648" data-name="Trazado 1034648" d="M-24.089-3.384A3.923,3.923,0,0,1-25.338-.773a4.093,4.093,0,0,1-2.794.919,3.758,3.758,0,0,1-3.029-1.355A5.451,5.451,0,0,1-32.3-4.834V-5.859a6.076,6.076,0,0,1,.531-2.615,3.966,3.966,0,0,1,1.505-1.732,4.191,4.191,0,0,1,2.256-.6,3.853,3.853,0,0,1,2.725.948,3.971,3.971,0,0,1,1.194,2.626H-25.5A3.064,3.064,0,0,0-26.3-9.088a2.4,2.4,0,0,0-1.71-.573,2.516,2.516,0,0,0-2.113,1,4.577,4.577,0,0,0-.765,2.837v1.034a4.7,4.7,0,0,0,.725,2.764A2.343,2.343,0,0,0-28.132-1a2.706,2.706,0,0,0,1.8-.531A2.947,2.947,0,0,0-25.5-3.384ZM-17.49,0a2.846,2.846,0,0,1-.19-.835,3.023,3.023,0,0,1-2.256.981,2.8,2.8,0,0,1-1.923-.663A2.145,2.145,0,0,1-22.61-2.2a2.24,2.24,0,0,1,.941-1.923A4.437,4.437,0,0,1-19.021-4.8H-17.7v-.623a1.522,1.522,0,0,0-.425-1.132A1.707,1.707,0,0,0-19.38-6.98a1.976,1.976,0,0,0-1.216.366,1.079,1.079,0,0,0-.491.886h-1.362a1.87,1.87,0,0,1,.421-1.146,2.874,2.874,0,0,1,1.143-.875A3.844,3.844,0,0,1-19.3-8.071a3.133,3.133,0,0,1,2.146.685A2.47,2.47,0,0,1-16.348-5.5v3.647a4.459,4.459,0,0,0,.278,1.736V0Zm-2.249-1.033a2.381,2.381,0,0,0,1.208-.33,1.994,1.994,0,0,0,.828-.857V-3.845h-1.062q-2.49,0-2.49,1.458a1.234,1.234,0,0,0,.425,1A1.633,1.633,0,0,0-19.739-1.033ZM-7.529-3.875A4.745,4.745,0,0,1-8.357-.959,2.653,2.653,0,0,1-10.6.146a2.906,2.906,0,0,1-2.271-.916V3.047h-1.355V-7.925h1.238l.066.879a2.791,2.791,0,0,1,2.3-1.025,2.7,2.7,0,0,1,2.26,1.077,4.8,4.8,0,0,1,.831,3Zm-1.355-.154a3.5,3.5,0,0,0-.571-2.117,1.84,1.84,0,0,0-1.567-.776A1.992,1.992,0,0,0-12.869-5.83v3.787a2,2,0,0,0,1.86,1.084,1.832,1.832,0,0,0,1.549-.773A3.822,3.822,0,0,0-8.884-4.028ZM-2.52.146A3.463,3.463,0,0,1-5.142-.912,3.928,3.928,0,0,1-6.152-3.743v-.249A4.756,4.756,0,0,1-5.7-6.1a3.514,3.514,0,0,1,1.26-1.45,3.167,3.167,0,0,1,1.754-.524,2.968,2.968,0,0,1,2.4,1.018A4.408,4.408,0,0,1,.571-4.138v.564H-4.8a2.817,2.817,0,0,0,.685,1.893,2.153,2.153,0,0,0,1.666.721A2.36,2.36,0,0,0-1.23-1.252a3.055,3.055,0,0,0,.872-.776l.828.645A3.328,3.328,0,0,1-2.52.146Zm-.168-7.1a1.807,1.807,0,0,0-1.377.6,2.9,2.9,0,0,0-.688,1.674h3.97v-.1a2.581,2.581,0,0,0-.557-1.6A1.7,1.7,0,0,0-2.688-6.958ZM3.611,0H2.256V-11.25H3.611Zm3.64,0H5.9V-11.25H7.251Zm7.061,0a2.846,2.846,0,0,1-.19-.835,3.023,3.023,0,0,1-2.256.981A2.8,2.8,0,0,1,9.943-.516,2.145,2.145,0,0,1,9.192-2.2a2.24,2.24,0,0,1,.941-1.923A4.437,4.437,0,0,1,12.781-4.8H14.1v-.623a1.522,1.522,0,0,0-.425-1.132,1.707,1.707,0,0,0-1.252-.421,1.976,1.976,0,0,0-1.216.366,1.079,1.079,0,0,0-.491.886H9.353a1.87,1.87,0,0,1,.421-1.146,2.874,2.874,0,0,1,1.143-.875A3.844,3.844,0,0,1,12.5-8.071a3.133,3.133,0,0,1,2.146.685A2.47,2.47,0,0,1,15.454-5.5v3.647a4.459,4.459,0,0,0,.278,1.736V0ZM12.063-1.033a2.381,2.381,0,0,0,1.208-.33,1.994,1.994,0,0,0,.828-.857V-3.845H13.037q-2.49,0-2.49,1.458a1.234,1.234,0,0,0,.425,1A1.633,1.633,0,0,0,12.063-1.033Zm5.186-3a4.642,4.642,0,0,1,.864-2.933,2.733,2.733,0,0,1,2.263-1.11,2.748,2.748,0,0,1,2.2.952V-11.25h1.355V0H22.69l-.066-.85a2.759,2.759,0,0,1-2.263,1A2.707,2.707,0,0,1,18.116-.981a4.7,4.7,0,0,1-.868-2.944Zm1.355.154a3.515,3.515,0,0,0,.557,2.109A1.8,1.8,0,0,0,20.7-1a1.977,1.977,0,0,0,1.882-1.157V-5.8a1.992,1.992,0,0,0-1.868-1.121,1.808,1.808,0,0,0-1.553.769A3.87,3.87,0,0,0,18.6-3.875ZM30.93,0a2.846,2.846,0,0,1-.19-.835,3.023,3.023,0,0,1-2.256.981,2.8,2.8,0,0,1-1.923-.663A2.145,2.145,0,0,1,25.811-2.2a2.24,2.24,0,0,1,.941-1.923A4.437,4.437,0,0,1,29.4-4.8h1.318v-.623a1.522,1.522,0,0,0-.425-1.132,1.707,1.707,0,0,0-1.252-.421,1.976,1.976,0,0,0-1.216.366,1.079,1.079,0,0,0-.491.886H25.972a1.87,1.87,0,0,1,.421-1.146,2.874,2.874,0,0,1,1.143-.875,3.844,3.844,0,0,1,1.586-.322,3.133,3.133,0,0,1,2.146.685A2.47,2.47,0,0,1,32.073-5.5v3.647a4.459,4.459,0,0,0,.278,1.736V0ZM28.682-1.033a2.381,2.381,0,0,0,1.208-.33,1.994,1.994,0,0,0,.828-.857V-3.845H29.656q-2.49,0-2.49,1.458a1.234,1.234,0,0,0,.425,1A1.633,1.633,0,0,0,28.682-1.033Z" transform="translate(1250.932 3815.25)" fill="#12263f"/>
    <path id="Trazado_1034649" data-name="Trazado 1034649" d="M-18.721-3.384A3.923,3.923,0,0,1-19.969-.773a4.093,4.093,0,0,1-2.794.919,3.758,3.758,0,0,1-3.029-1.355,5.451,5.451,0,0,1-1.139-3.625V-5.859A6.076,6.076,0,0,1-26.4-8.474,3.966,3.966,0,0,1-24.9-10.206a4.191,4.191,0,0,1,2.256-.6,3.853,3.853,0,0,1,2.725.948,3.971,3.971,0,0,1,1.194,2.626h-1.414a3.064,3.064,0,0,0-.795-1.851,2.4,2.4,0,0,0-1.71-.573,2.516,2.516,0,0,0-2.113,1,4.577,4.577,0,0,0-.765,2.837v1.034a4.7,4.7,0,0,0,.725,2.764A2.343,2.343,0,0,0-22.764-1a2.706,2.706,0,0,0,1.8-.531,2.947,2.947,0,0,0,.831-1.849Zm3.062-3.582a2.881,2.881,0,0,1,2.344-1.106q2.512,0,2.534,2.834V0h-1.355V-5.244a1.824,1.824,0,0,0-.392-1.267,1.57,1.57,0,0,0-1.2-.41,1.956,1.956,0,0,0-1.157.352,2.387,2.387,0,0,0-.776.923V0h-1.355V-11.25h1.355ZM-3.86,0a2.846,2.846,0,0,1-.19-.835A3.023,3.023,0,0,1-6.306.146,2.8,2.8,0,0,1-8.229-.516,2.145,2.145,0,0,1-8.979-2.2,2.24,2.24,0,0,1-8.038-4.12,4.437,4.437,0,0,1-5.391-4.8h1.318v-.623A1.522,1.522,0,0,0-4.5-6.559,1.707,1.707,0,0,0-5.75-6.98a1.976,1.976,0,0,0-1.216.366,1.079,1.079,0,0,0-.491.886H-8.818A1.87,1.87,0,0,1-8.4-6.874a2.874,2.874,0,0,1,1.143-.875,3.844,3.844,0,0,1,1.586-.322,3.133,3.133,0,0,1,2.146.685A2.47,2.47,0,0,1-2.717-5.5v3.647A4.459,4.459,0,0,0-2.439-.117V0ZM-6.108-1.033A2.381,2.381,0,0,0-4.9-1.362a1.994,1.994,0,0,0,.828-.857V-3.845H-5.134q-2.49,0-2.49,1.458a1.234,1.234,0,0,0,.425,1A1.633,1.633,0,0,0-6.108-1.033ZM6.1-3.875A4.745,4.745,0,0,1,5.273-.959,2.653,2.653,0,0,1,3.032.146,2.906,2.906,0,0,1,.762-.769V3.047H-.593V-7.925H.645l.066.879a2.791,2.791,0,0,1,2.3-1.025A2.7,2.7,0,0,1,5.27-6.995,4.8,4.8,0,0,1,6.1-4ZM4.746-4.028a3.5,3.5,0,0,0-.571-2.117,1.84,1.84,0,0,0-1.567-.776A1.992,1.992,0,0,0,.762-5.83v3.787A2,2,0,0,0,2.622-.959a1.832,1.832,0,0,0,1.549-.773A3.822,3.822,0,0,0,4.746-4.028ZM11.111.146A3.463,3.463,0,0,1,8.489-.912,3.928,3.928,0,0,1,7.478-3.743v-.249A4.756,4.756,0,0,1,7.928-6.1a3.514,3.514,0,0,1,1.26-1.45,3.167,3.167,0,0,1,1.754-.524,2.968,2.968,0,0,1,2.4,1.018A4.408,4.408,0,0,1,14.2-4.138v.564H8.833a2.817,2.817,0,0,0,.685,1.893,2.153,2.153,0,0,0,1.666.721A2.36,2.36,0,0,0,12.4-1.252a3.055,3.055,0,0,0,.872-.776l.828.645A3.328,3.328,0,0,1,11.111.146Zm-.168-7.1a1.807,1.807,0,0,0-1.377.6,2.9,2.9,0,0,0-.688,1.674h3.97v-.1a2.581,2.581,0,0,0-.557-1.6A1.7,1.7,0,0,0,10.942-6.958Zm6.665-2.886v1.919h1.479v1.047H17.607v4.921a1.1,1.1,0,0,0,.2.715A.832.832,0,0,0,18.479-1a3.281,3.281,0,0,0,.645-.088V0a3.951,3.951,0,0,1-1.04.146A1.687,1.687,0,0,1,16.714-.4a2.36,2.36,0,0,1-.461-1.56V-6.877H14.81V-7.925h1.443V-9.844ZM25.562,0a2.846,2.846,0,0,1-.19-.835,3.023,3.023,0,0,1-2.256.981,2.8,2.8,0,0,1-1.923-.663A2.145,2.145,0,0,1,20.442-2.2a2.24,2.24,0,0,1,.941-1.923A4.437,4.437,0,0,1,24.031-4.8h1.318v-.623a1.522,1.522,0,0,0-.425-1.132,1.707,1.707,0,0,0-1.252-.421,1.976,1.976,0,0,0-1.216.366,1.079,1.079,0,0,0-.491.886H20.6a1.87,1.87,0,0,1,.421-1.146,2.874,2.874,0,0,1,1.143-.875,3.844,3.844,0,0,1,1.586-.322,3.133,3.133,0,0,1,2.146.685A2.47,2.47,0,0,1,26.7-5.5v3.647a4.459,4.459,0,0,0,.278,1.736V0ZM23.313-1.033a2.381,2.381,0,0,0,1.208-.33,1.994,1.994,0,0,0,.828-.857V-3.845H24.287q-2.49,0-2.49,1.458a1.234,1.234,0,0,0,.425,1A1.633,1.633,0,0,0,23.313-1.033Z" transform="translate(1188.423 3787.739)" fill="#12263f"/>
    <g id="Grupo_1177998" data-name="Grupo 1177998" transform="translate(985.937 3763.705)">
      <g id="Grupo_1177988" data-name="Grupo 1177988" transform="matrix(0.999, -0.035, 0.035, 0.999, 0, 8.154)">
        <path id="Trazado_1034468" data-name="Trazado 1034468" d="M46.2,14.944S15.529-.645,6.884.021-4.17,13.724,11,19.919,46.2,14.944,46.2,14.944Z" transform="translate(15.111 2.434)" fill="#cea689"/>
        <path id="Trazado_1034468_-_Contorno" data-name="Trazado 1034468 - Contorno" d="M22.128,23.413h0a28,28,0,0,1-10.62-1.932A25.544,25.544,0,0,1,5.87,18.363a16.811,16.811,0,0,1-3.681-3.7A10.7,10.7,0,0,1,.107,6.869,8.033,8.033,0,0,1,2.553,2.183,8.269,8.269,0,0,1,7.632.023C7.831.008,8.044,0,8.265,0c3.988,0,11.794,2.537,23.2,7.541,8.441,3.7,15.834,7.454,15.908,7.492a.811.811,0,0,1,.028,1.431,60.26,60.26,0,0,1-7.825,3.476,61.729,61.729,0,0,1-8.067,2.385A44.012,44.012,0,0,1,22.128,23.413ZM8.265,1.622c-.179,0-.35.006-.508.018A6.4,6.4,0,0,0,1.71,7.12a9.1,9.1,0,0,0,1.8,6.6,19.335,19.335,0,0,0,8.609,6.255A26.389,26.389,0,0,0,22.128,21.79a42.376,42.376,0,0,0,9.014-1.047,60.063,60.063,0,0,0,7.843-2.315,65.559,65.559,0,0,0,6.229-2.662C42.67,14.5,37.024,11.75,30.807,9.023,19.769,4.182,11.974,1.622,8.265,1.622Z" transform="translate(14.301 1.623)"/>
        <path id="Trazado_1034469" data-name="Trazado 1034469" d="M76.393,1.24C64.749,4.194,68.376,9.8,47.36,16.5c-8.722,2.78-19.257,1.52-25.005-2.124a19.408,19.408,0,0,1-8.4-13.136S-.6,35.956.019,45.787s.44,22.048,18.72,26.547S39.666,80,39.666,80s2.271-28.637,22.543-28.778,41.032,15.205,41.032,15.205l25.041-28.488S118.571,18.783,105.6,9.609,88.037-1.715,76.393,1.24Z" transform="translate(0.811 6.572)" fill="#c3916e"/>
        <path id="Trazado_1034469_-_Contorno" data-name="Trazado 1034469 - Contorno" d="M85.534,0h0a21.3,21.3,0,0,1,9.693,2.393,88.294,88.294,0,0,1,11.65,7.365,54.784,54.784,0,0,1,9.156,8.421,94.559,94.559,0,0,1,7.252,9.388,109.409,109.409,0,0,1,6.53,10.813.811.811,0,0,1-.114.9L104.662,67.771a.811.811,0,0,1-1.091.117,94.025,94.025,0,0,0-12.715-7.543,82.572,82.572,0,0,0-12.924-5.168A51.5,51.5,0,0,0,63.3,52.84h-.273a17.83,17.83,0,0,0-6.495,1.22,17.291,17.291,0,0,0-5.049,3.133,26.784,26.784,0,0,0-6.591,9.6,50.277,50.277,0,0,0-3.606,14.078.819.819,0,0,1-.57.732.783.783,0,0,1-.855-.267,13.544,13.544,0,0,0-3.687-2.1,102.863,102.863,0,0,0-16.818-5.306c-8-1.968-13.282-5.564-16.16-11C.7,58.228.385,52.826.106,48.061.078,47.6.05,47.114.021,46.649-.244,42.461,2.037,33.617,6.8,20.364c3.527-9.814,7.178-18.539,7.215-18.626a.811.811,0,0,1,1.554.223,18.067,18.067,0,0,0,1.364,4.615,18.8,18.8,0,0,0,2.433,4.093A16.836,16.836,0,0,0,23.6,14.5c3.466,2.2,8.853,3.509,14.41,3.509a33.083,33.083,0,0,0,9.915-1.472,64.516,64.516,0,0,0,12.558-5.256,40.341,40.341,0,0,0,6.279-4.528A22.2,22.2,0,0,1,77,1.265,34.745,34.745,0,0,1,85.534,0Zm42.582,38.63a111.807,111.807,0,0,0-6.184-10.168,92.877,92.877,0,0,0-7.122-9.217,53.155,53.155,0,0,0-8.869-8.162c-9.093-6.43-14.07-9.46-20.406-9.46h0A33.21,33.21,0,0,0,77.4,2.837,20.6,20.6,0,0,0,67.8,8c-3.337,2.8-7.49,6.3-19.388,10.088A34.723,34.723,0,0,1,38.01,19.633a35.923,35.923,0,0,1-8.417-.983,23.391,23.391,0,0,1-6.862-2.778,18.456,18.456,0,0,1-4.665-4.231A20.451,20.451,0,0,1,15.422,7.17a21.8,21.8,0,0,1-.887-2.432c-1.322,3.252-3.8,9.46-6.21,16.18C3.7,33.775,1.393,42.637,1.64,46.547c.03.469.058.952.085,1.419a68.244,68.244,0,0,0,.69,7.27A22.6,22.6,0,0,0,4.63,62.177,16.908,16.908,0,0,0,9.845,68.1a28.664,28.664,0,0,0,9.9,4.261,103.721,103.721,0,0,1,17.463,5.568,23.194,23.194,0,0,1,2.623,1.382c.105-.785.27-1.858.522-3.133A50.53,50.53,0,0,1,43.4,66.149a28.378,28.378,0,0,1,7.007-10.172,18.714,18.714,0,0,1,12.606-4.759H63.3a53.127,53.127,0,0,1,15.115,2.41A84.24,84.24,0,0,1,91.6,58.905a99.452,99.452,0,0,1,12.322,7.244Z" transform="translate(0 5.76)"/>
        <path id="Trazado_1034470" data-name="Trazado 1034470" d="M18.761.4C8.567-1.9,0,6.49,0,6.49s14.822.677,26.99,9.2c12.622,8.841,21.414,28.3,21.414,28.3a33.384,33.384,0,0,1,8.3-5.627,12.362,12.362,0,0,1,8.723,0L42.191,15.69S28.955,2.7,18.761.4Z" transform="translate(78.657 0.811)" fill="#8b5a38"/>
        <path id="Trazado_1034470_-_Contorno" data-name="Trazado 1034470 - Contorno" d="M15.967,0a17.149,17.149,0,0,1,3.784.419,30.305,30.305,0,0,1,8.188,3.448,69.936,69.936,0,0,1,7.667,5.209,99.365,99.365,0,0,1,7.965,6.846l23.239,22.67a.811.811,0,0,1-.878,1.33,12.382,12.382,0,0,0-4.237-.755,9.763,9.763,0,0,0-3.856.752,32.71,32.71,0,0,0-8.066,5.47.811.811,0,0,1-1.3-.255,98.707,98.707,0,0,0-5.933-10.755,82.652,82.652,0,0,0-6.7-9.212,46.163,46.163,0,0,0-8.508-8,46.723,46.723,0,0,0-9.168-4.937A58.539,58.539,0,0,0,9.594,9.5,53.6,53.6,0,0,0,.774,8.111a.811.811,0,0,1-.53-1.39A26.031,26.031,0,0,1,4.775,3.359a25.6,25.6,0,0,1,4.969-2.3A19.652,19.652,0,0,1,15.967,0ZM63.542,37.671,42.436,17.081A97.666,97.666,0,0,0,34.6,10.349C28.7,5.8,23.444,2.916,19.393,2a15.592,15.592,0,0,0-3.425-.379h0a18.023,18.023,0,0,0-5.684.964A23.938,23.938,0,0,0,5.643,4.73,27.294,27.294,0,0,0,2.814,6.662,60.9,60.9,0,0,1,9.929,7.915a60.2,60.2,0,0,1,8.827,2.8,48.36,48.36,0,0,1,9.51,5.12,47.787,47.787,0,0,1,8.824,8.292,84.33,84.33,0,0,1,6.836,9.4,105.376,105.376,0,0,1,5.556,9.94A32.319,32.319,0,0,1,57.2,38.427a11.374,11.374,0,0,1,4.493-.882A13.84,13.84,0,0,1,63.542,37.671Z" transform="translate(77.846 0)"/>
        <path id="Trazado_1034471" data-name="Trazado 1034471" d="M3.773,13.748A96.142,96.142,0,0,1,14.462,6.893,43.575,43.575,0,0,1,22.3,3.712c.846-.3,2.35-5.158-4.828-3.283S0,10.77,0,10.77Z" transform="translate(112.783 25.449)" fill="#502929"/>
        <path id="Trazado_1034471_-_Contorno" data-name="Trazado 1034471 - Contorno" d="M4.584,15.37a.81.81,0,0,1-.5-.174L.309,12.218A.811.811,0,0,1,.3,10.955c.026-.021,2.642-2.168,6.1-4.512C11.081,3.271,15.01,1.256,18.076.455A12.3,12.3,0,0,1,21.109,0c2.807,0,3.386,1.628,3.505,2.328.208,1.227-.394,2.665-1.239,2.96-.153.053-.34.111-.577.185A42.048,42.048,0,0,0,15.64,8.428,95.878,95.878,0,0,0,5.066,15.211.81.81,0,0,1,4.584,15.37ZM2.116,11.578,4.6,13.54a91.275,91.275,0,0,1,10.3-6.559A43.568,43.568,0,0,1,22.32,3.923c.173-.053.318-.1.432-.136a1.674,1.674,0,0,0,.2-1.4c-.249-.629-1.141-.761-1.846-.761a10.718,10.718,0,0,0-2.624.4C12.688,3.54,4.642,9.6,2.116,11.578Z" transform="translate(111.972 24.638)"/>
        <path id="Trazado_1034472" data-name="Trazado 1034472" d="M3.773,13.748A96.142,96.142,0,0,1,14.462,6.893,43.575,43.575,0,0,1,22.3,3.712c.846-.3,2.35-5.158-4.828-3.283S0,10.77,0,10.77Z" transform="translate(105.954 19.301)" fill="#502929"/>
        <path id="Trazado_1034472_-_Contorno" data-name="Trazado 1034472 - Contorno" d="M4.584,15.37a.81.81,0,0,1-.5-.174L.309,12.218A.811.811,0,0,1,.3,10.955c.026-.021,2.642-2.168,6.1-4.512C11.081,3.271,15.01,1.256,18.076.455A12.3,12.3,0,0,1,21.109,0c2.807,0,3.386,1.628,3.505,2.328.208,1.227-.394,2.665-1.239,2.96-.153.053-.34.111-.577.185A42.048,42.048,0,0,0,15.64,8.428,95.878,95.878,0,0,0,5.066,15.211.81.81,0,0,1,4.584,15.37ZM2.116,11.578,4.6,13.54a91.275,91.275,0,0,1,10.3-6.559A43.568,43.568,0,0,1,22.32,3.923c.173-.053.318-.1.432-.136a1.674,1.674,0,0,0,.2-1.4c-.249-.629-1.141-.761-1.846-.761a10.718,10.718,0,0,0-2.624.4C12.688,3.54,4.642,9.6,2.116,11.578Z" transform="translate(105.143 18.49)"/>
        <path id="Trazado_1034473" data-name="Trazado 1034473" d="M3.773,13.748A96.142,96.142,0,0,1,14.462,6.893,43.575,43.575,0,0,1,22.3,3.712c.846-.3,2.35-5.158-4.828-3.283S0,10.77,0,10.77Z" transform="translate(99.83 14.273)" fill="#502929"/>
        <path id="Trazado_1034473_-_Contorno" data-name="Trazado 1034473 - Contorno" d="M4.584,15.37a.81.81,0,0,1-.5-.174L.309,12.218A.811.811,0,0,1,.3,10.955c.026-.021,2.642-2.168,6.1-4.512C11.081,3.271,15.01,1.256,18.076.455A12.3,12.3,0,0,1,21.109,0c2.807,0,3.386,1.628,3.505,2.328.208,1.227-.394,2.665-1.239,2.96-.153.053-.34.111-.577.185A42.048,42.048,0,0,0,15.64,8.428,95.878,95.878,0,0,0,5.066,15.211.81.81,0,0,1,4.584,15.37ZM2.116,11.578,4.6,13.54a91.275,91.275,0,0,1,10.3-6.559A43.568,43.568,0,0,1,22.32,3.923c.173-.053.318-.1.432-.136a1.674,1.674,0,0,0,.2-1.4c-.249-.629-1.141-.761-1.846-.761a10.718,10.718,0,0,0-2.624.4C12.688,3.54,4.642,9.6,2.116,11.578Z" transform="translate(99.019 13.462)"/>
        <path id="Trazado_1034474" data-name="Trazado 1034474" d="M3.773,13.748A96.142,96.142,0,0,1,14.462,6.893,43.575,43.575,0,0,1,22.3,3.712c.846-.3,2.35-5.158-4.828-3.283S0,10.77,0,10.77Z" transform="translate(92.435 7.766)" fill="#502929"/>
        <path id="Trazado_1034474_-_Contorno" data-name="Trazado 1034474 - Contorno" d="M4.584,15.37a.81.81,0,0,1-.5-.174L.309,12.218A.811.811,0,0,1,.3,10.955c.026-.021,2.642-2.168,6.1-4.512C11.081,3.271,15.01,1.256,18.076.455A12.3,12.3,0,0,1,21.109,0c2.807,0,3.386,1.628,3.505,2.328.208,1.227-.394,2.665-1.239,2.96-.153.053-.34.111-.577.185A42.048,42.048,0,0,0,15.64,8.428,95.878,95.878,0,0,0,5.066,15.211.81.81,0,0,1,4.584,15.37ZM2.116,11.578,4.6,13.54a91.275,91.275,0,0,1,10.3-6.559A43.568,43.568,0,0,1,22.32,3.923c.173-.053.318-.1.432-.136a1.674,1.674,0,0,0,.2-1.4c-.249-.629-1.141-.761-1.846-.761a10.718,10.718,0,0,0-2.624.4C12.688,3.54,4.642,9.6,2.116,11.578Z" transform="translate(91.624 6.955)"/>
        <path id="Trazado_1034475" data-name="Trazado 1034475" d="M3.773,13.748A96.142,96.142,0,0,1,14.462,6.893,43.575,43.575,0,0,1,22.3,3.712c.846-.3,2.35-5.158-4.828-3.283S0,10.77,0,10.77Z" transform="translate(84.639 1.036)" fill="#502929"/>
        <path id="Trazado_1034475_-_Contorno" data-name="Trazado 1034475 - Contorno" d="M4.584,15.37a.81.81,0,0,1-.5-.174L.309,12.218A.811.811,0,0,1,.3,10.955c.026-.021,2.642-2.168,6.1-4.512C11.081,3.271,15.01,1.256,18.076.455A12.3,12.3,0,0,1,21.109,0c2.807,0,3.386,1.628,3.505,2.328.208,1.227-.394,2.665-1.239,2.96-.153.053-.34.111-.577.185A42.048,42.048,0,0,0,15.64,8.428,95.878,95.878,0,0,0,5.066,15.211.81.81,0,0,1,4.584,15.37ZM2.116,11.578,4.6,13.54a91.275,91.275,0,0,1,10.3-6.559A43.568,43.568,0,0,1,22.32,3.923c.173-.053.318-.1.432-.136a1.674,1.674,0,0,0,.2-1.4c-.249-.629-1.141-.761-1.846-.761a10.718,10.718,0,0,0-2.624.4C12.688,3.54,4.642,9.6,2.116,11.578Z" transform="translate(83.828 0.225)"/>
        <circle id="Elipse_11668" data-name="Elipse 11668" cx="3.619" cy="3.619" r="3.619" transform="translate(109.711 35.195)" fill="#8b5a38"/>
        <path id="Elipse_11668_-_Contorno" data-name="Elipse 11668 - Contorno" d="M3.619,1.622a2,2,0,1,0,2,2,2,2,0,0,0-2-2M3.619,0A3.619,3.619,0,1,1,0,3.619,3.619,3.619,0,0,1,3.619,0Z" transform="translate(109.711 35.195)"/>
        <circle id="Elipse_11669" data-name="Elipse 11669" cx="3.619" cy="3.619" r="3.619" transform="translate(102.875 29.043)" fill="#8b5a38"/>
        <path id="Elipse_11669_-_Contorno" data-name="Elipse 11669 - Contorno" d="M3.619,1.622a2,2,0,1,0,2,2,2,2,0,0,0-2-2M3.619,0A3.619,3.619,0,1,1,0,3.619,3.619,3.619,0,0,1,3.619,0Z" transform="translate(102.875 29.043)"/>
        <circle id="Elipse_11670" data-name="Elipse 11670" cx="3.619" cy="3.619" r="3.619" transform="translate(96.745 23.877)" fill="#8b5a38"/>
        <path id="Elipse_11670_-_Contorno" data-name="Elipse 11670 - Contorno" d="M3.619,1.622a2,2,0,1,0,2,2,2,2,0,0,0-2-2M3.619,0A3.619,3.619,0,1,1,0,3.619,3.619,3.619,0,0,1,3.619,0Z" transform="translate(96.745 23.877)"/>
        <circle id="Elipse_11671" data-name="Elipse 11671" cx="3.619" cy="3.619" r="3.619" transform="translate(89.594 17.527)" fill="#8b5a38"/>
        <path id="Elipse_11671_-_Contorno" data-name="Elipse 11671 - Contorno" d="M3.619,1.622a2,2,0,1,0,2,2,2,2,0,0,0-2-2M3.619,0A3.619,3.619,0,1,1,0,3.619,3.619,3.619,0,0,1,3.619,0Z" transform="translate(89.594 17.527)"/>
        <circle id="Elipse_11672" data-name="Elipse 11672" cx="3.619" cy="3.619" r="3.619" transform="translate(81.541 10.862)" fill="#8b5a38"/>
        <path id="Elipse_11672_-_Contorno" data-name="Elipse 11672 - Contorno" d="M3.619,1.622a2,2,0,1,0,2,2,2,2,0,0,0-2-2M3.619,0A3.619,3.619,0,1,1,0,3.619,3.619,3.619,0,0,1,3.619,0Z" transform="translate(81.541 10.862)"/>
        <path id="Trazado_1034476" data-name="Trazado 1034476" d="M0,0V17.958s15.4-.893,22.393-5.389a17.437,17.437,0,0,0,1.7-1.487L15.416,6.635Z" transform="translate(36.536 6.572)" fill="#c3916e"/>
        <path id="Trazado_1034476_-_Contorno" data-name="Trazado 1034476 - Contorno" d="M.811,0a.811.811,0,0,1,.321.066L16.547,6.7l.049.023,8.677,4.447a.811.811,0,0,1,.2,1.3,17.192,17.192,0,0,1-1.83,1.591c-2.993,1.924-7.745,3.438-14.123,4.5C4.806,19.344.9,19.577.858,19.579A.811.811,0,0,1,0,18.769V.811A.811.811,0,0,1,.811,0Zm15.07,8.18L1.622,2.043V17.9c1.389-.111,4.312-.385,7.647-.94,6.065-1.009,10.732-2.482,13.5-4.26l0,0a7.265,7.265,0,0,0,.739-.606Z" transform="translate(35.725 5.761)"/>
        <path id="Trazado_1034477" data-name="Trazado 1034477" d="M104.149.229S98.471-1.907,88.316,6.868s-23.951,27.3-23.951,27.3S34.019,16.942,18.137,20.3,0,48.756,0,48.756,10.708,54.4,25.672,63.347C36.4,69.758,45.5,78.043,59.777,81.5c15.509,3.754,32.408,2.192,41.483,1.449,9.835-.8,15.392.063,32.15-1.9a285.761,285.761,0,0,0,46.8-9.651c5.44-1.613,9.855-3.938,11.369-6.28s8.293-10.8-2.755-20.507-19.044-4.179-44.191-14.814A114.658,114.658,0,0,1,104.149.229Z" transform="translate(37.817 36.866)" fill="#cea689"/>
        <path id="Trazado_1034477_-_Contorno" data-name="Trazado 1034477 - Contorno" d="M103.176,0h0a6.263,6.263,0,0,1,2.069.281.811.811,0,0,1,.345.248,97.309,97.309,0,0,0,10.747,10.718,119.378,119.378,0,0,0,12.644,9.586,105.667,105.667,0,0,0,16.783,9.023,108.072,108.072,0,0,0,26.094,7.505c7.148,1.259,12.312,2.169,18.316,7.447,4.652,4.089,6.816,8.483,6.432,13.061a16.825,16.825,0,0,1-3.231,8.046c-.117.173-.217.322-.3.45a12.268,12.268,0,0,1-4.505,3.685,38.439,38.439,0,0,1-7.314,2.932c-6.323,1.874-12.938,3.575-19.661,5.055-9.193,2.023-18.37,3.579-27.278,4.624A203.632,203.632,0,0,1,112.25,84.13c-3.3.069-6.417.134-10.113.436l-.892.073c-4.558.376-10.8.892-17.775.892-3.987,0-7.808-.173-11.357-.514A84.42,84.42,0,0,1,60.4,83.1c-10.664-2.581-18.523-7.849-26.123-12.944-2.658-1.782-5.407-3.625-8.207-5.3C11.293,56.02.54,50.342.433,50.285A.811.811,0,0,1,0,49.5,54.915,54.915,0,0,1,3.166,36.308,32.888,32.888,0,0,1,8.8,26.441a18.008,18.008,0,0,1,9.98-6.125,22.916,22.916,0,0,1,4.709-.451A51.1,51.1,0,0,1,37.183,22.13a117.431,117.431,0,0,1,13.652,4.95c6.808,2.911,12.316,5.857,14.117,6.844,1.067-1.412,4.036-5.295,7.765-9.821,4.325-5.25,10.591-12.467,15.88-17.037a33.9,33.9,0,0,1,8.9-5.783A14.988,14.988,0,0,1,103.176,0Zm1.32,1.752a5.974,5.974,0,0,0-1.32-.13c-2.166,0-6.8.866-13.518,6.671-2.872,2.482-7.925,7.418-15.688,16.841-4.652,5.647-8.108,10.28-8.143,10.326a.811.811,0,0,1-1.051.221c-.063-.036-6.368-3.6-14.594-7.117a115.758,115.758,0,0,0-13.454-4.877,49.505,49.505,0,0,0-13.238-2.2,21.3,21.3,0,0,0-4.373.416,16.419,16.419,0,0,0-9.077,5.586,31.236,31.236,0,0,0-5.345,9.364A54.966,54.966,0,0,0,1.678,49.11C3.944,50.32,13.866,55.668,26.9,63.462c2.836,1.7,5.6,3.55,8.278,5.344,3.743,2.509,7.614,5.1,11.776,7.335a57.748,57.748,0,0,0,13.826,5.38A82.792,82.792,0,0,0,72.269,83.4c3.5.336,7.267.507,11.2.507,6.908,0,13.112-.512,17.642-.886l.893-.074c3.745-.306,6.886-.372,10.211-.441a202.22,202.22,0,0,0,21.911-1.459c8.854-1.039,17.978-2.586,27.118-4.6,6.685-1.471,13.262-3.162,19.548-5.026a36.811,36.811,0,0,0,7-2.8,10.931,10.931,0,0,0,3.92-3.142c.091-.141.2-.3.317-.476a15.379,15.379,0,0,0,2.96-7.275c.339-4.037-1.641-7.976-5.886-11.706a24.634,24.634,0,0,0-8.22-4.927,57.933,57.933,0,0,0-9.307-2.141,109.5,109.5,0,0,1-26.445-7.609,107.307,107.307,0,0,1-17.064-9.176,121.017,121.017,0,0,1-12.825-9.729A100.031,100.031,0,0,1,104.5,1.752Z" transform="translate(37.006 36.055)"/>
      </g>
      <path id="Trazado_1034479" data-name="Trazado 1034479" d="M-8102.383-8699.638l-.928,23.052,33.134,12.066,28.067-6.713s-15.755-10.23-28.067-15.469-13.132-2.256-21.187-5.489S-8102.383-8699.638-8102.383-8699.638Z" transform="translate(8108.939 8777.756)" fill="#a25e2b"/>
      <path id="Trazado_1034479_-_Contorno" data-name="Trazado 1034479 - Contorno" d="M-8102.838-8701.13l.689.977a15,15,0,0,0,2.451,2.459,31.478,31.478,0,0,0,8.39,4.846,25.413,25.413,0,0,0,7.875,1.856c2.97.311,6.336.663,13.318,3.637a167.975,167.975,0,0,1,18.7,9.723c5.423,3.18,9.393,5.754,9.432,5.779l.792.515-.919.219-28.186,6.742-.115-.042-33.412-12.168.012-.3Zm59.609,29.442c-3.362-2.137-16.636-10.425-27.2-14.923-6.871-2.924-10.172-3.271-13.085-3.575a26.1,26.1,0,0,1-8.093-1.91,33,33,0,0,1-8.638-5,19.418,19.418,0,0,1-1.869-1.761l-.873,21.711,32.74,11.923Z" transform="translate(8109.037 8778.037)"/>
      <path id="Trazado_1034480" data-name="Trazado 1034480" d="M-8030.271-8670.845v22.393l28.3-6.788Z" transform="translate(8068.873 8761.961)" fill="#532c0e"/>
      <path id="Trazado_1034480_-_Contorno" data-name="Trazado 1034480 - Contorno" d="M-8030.771-8671.691l.6.332,29.222,16.109-1.019.244-28.8,6.909Zm27.6,16.141-26.786-14.767v21.192Z" transform="translate(8068.968 8762.12)"/>
      <path id="Trazado_1034481" data-name="Trazado 1034481" d="M-8046.454-8650.945l-24.135,6.464-32.775-13.188v3.646l32.775,12.981,28.8-6.97Z" transform="translate(8108.969 8754.733)" fill="url(#linear-gradient)"/>
      <path id="Trazado_1034481_-_Contorno" data-name="Trazado 1034481 - Contorno" d="M-8103.864-8658.41l.557.223,32.649,13.139,24.175-6.474.15.095,5.474,3.442-.934.226-28.92,7-.12-.048-33.031-13.084Zm33.155,14.215-.126-.05-32.218-12.965v2.77l32.4,12.834,27.737-6.715-3.7-2.325Z" transform="translate(8109.063 8754.873)"/>
      <path id="Trazado_1034482" data-name="Trazado 1034482" d="M-8030.271-8665.873s15.306,4.3,26.593,10.142,11.088,17.176,39.97,21.1c12.334,1.675,27.777-.073,41.639-1.478,18.465-1.872,33.885-3.574,33.885-3.574s26.585-4.445,39.52-9.708,12.262-11.7,12.262-11.7-9.637,8.17-34.874,13.7-37.989,6.258-66.55,8.719c-8.912.768-19.022,1.153-25.881,0-14.742-2.48-21.507-8.719-21.507-8.719l-45.056-25.235Z" transform="translate(8068.873 8762.938)" fill="#72390f"/>
      <path id="Trazado_1034482_-_Contorno" data-name="Trazado 1034482 - Contorno" d="M-8030.771-8673.479l.6.338,45.1,25.259.035.032a26.969,26.969,0,0,0,5.174,3.388,47.033,47.033,0,0,0,6.637,2.846,59.61,59.61,0,0,0,9.488,2.384,67.158,67.158,0,0,0,10.794.721c4.35,0,9.391-.243,14.984-.724,2.694-.233,5.23-.448,7.683-.657,23.2-1.968,35.984-3.054,58.814-8.056a141.952,141.952,0,0,0,16.016-4.446,95.5,95.5,0,0,0,10.75-4.423,42.685,42.685,0,0,0,7.933-4.742l.585-.5.08.763a6.993,6.993,0,0,1-1.342,4.135,15.548,15.548,0,0,1-3.7,3.879,32.432,32.432,0,0,1-7.467,4.1,102.7,102.7,0,0,1-11.679,3.754c-3.82,1.025-8.194,2.066-13,3.1-8.177,1.75-14.861,2.872-14.927,2.883l-.022,0c-.154.017-15.632,1.724-33.888,3.574l-2.312.234c-9.3.949-18.907,1.931-27.91,1.931a85.431,85.431,0,0,1-11.512-.689c-19.837-2.7-26.1-8.912-31.618-14.4a33.85,33.85,0,0,0-8.484-6.744,132.1,132.1,0,0,0-17.47-7.236c-5.168-1.782-9.009-2.867-9.047-2.877l-.3-.083Zm45.224,26.259-44.413-24.874v5.753c1,.287,4.423,1.3,8.791,2.8a139.194,139.194,0,0,1,17.583,7.283c3.643,1.884,6.091,4.315,8.684,6.891a42.729,42.729,0,0,0,10.28,8.124c5.3,2.879,12.126,4.856,20.875,6.046a84.621,84.621,0,0,0,11.4.682c8.961,0,18.553-.979,27.827-1.926q1.163-.119,2.313-.235c18.042-1.829,33.371-3.517,33.869-3.571.311-.053,6.88-1.163,14.884-2.877,7.522-1.61,17.886-4.1,24.539-6.807a31.753,31.753,0,0,0,7.223-3.951,14.935,14.935,0,0,0,3.523-3.642,7.8,7.8,0,0,0,1.2-2.856,50.255,50.255,0,0,1-7.323,4.267,96.36,96.36,0,0,1-10.852,4.47,143.233,143.233,0,0,1-16.142,4.486c-22.881,5.011-35.682,6.1-58.92,8.07-2.452.209-4.988.424-7.681.655-5.617.483-10.682.729-15.054.729a68.005,68.005,0,0,1-10.929-.733,60.39,60.39,0,0,1-9.645-2.425,47.833,47.833,0,0,1-6.76-2.907A27.7,27.7,0,0,1-7985.547-8647.22Z" transform="translate(8068.968 8763.1)"/>
      <path id="Trazado_1034486" data-name="Trazado 1034486" d="M250.492,130.045q-1.213,0-2.549-.024c-5.08-.092-10.36-.421-13.9-.68a100.055,100.055,0,0,1-20.54-3.977,171.347,171.347,0,0,1-18.745-6.793,195.2,195.2,0,0,1-18.99-9.273l.812-1.4a193.564,193.564,0,0,0,18.835,9.194,169.674,169.674,0,0,0,18.558,6.723,98.428,98.428,0,0,0,20.19,3.912c5.98.439,20.431,1.321,25.448.024a27.768,27.768,0,0,0,7.433-3.13,28.825,28.825,0,0,0,5.17-4,24.657,24.657,0,0,0,4.005-4.936l1.416.791a25.7,25.7,0,0,1-4.245,5.263,30.453,30.453,0,0,1-5.472,4.252,29.388,29.388,0,0,1-7.9,3.334A43.14,43.14,0,0,1,250.492,130.045Z" transform="translate(-65.762 -40.148)"/>
      <path id="Trazado_1034487" data-name="Trazado 1034487" d="M44.5,103.021a80.4,80.4,0,0,0-1.859-12.973A66.686,66.686,0,0,0,38.986,78.5a39.336,39.336,0,0,0-6.609-10.766,27.958,27.958,0,0,1-5.872-10.382,32.679,32.679,0,0,1-1.419-9.924,35.525,35.525,0,0,1,1.547-10.4l1.534.527-.767-.264.767.263a34.6,34.6,0,0,0-1.459,9.938A31.029,31.029,0,0,0,28.064,56.9a26.345,26.345,0,0,0,5.523,9.752,40.958,40.958,0,0,1,6.9,11.225,68.361,68.361,0,0,1,3.747,11.845,80.394,80.394,0,0,1,1.89,13.236Z" transform="translate(-8.842 -13.232)"/>
    </g>
    <g id="Grupo_1178002" data-name="Grupo 1178002" transform="matrix(-0.839, 0.545, -0.545, -0.839, 1250.3, 3830.132)">
      <path id="Línea_638" data-name="Línea 638" d="M53.767,5.16,0,2.757.1,0,53.87,2.4Z" transform="translate(0 1.277)" fill="#f6e15c"/>
      <path id="Polígono_5" data-name="Polígono 5" d="M5.059,0l5.059,7.358H0Z" transform="translate(58.872 0) rotate(90)" fill="#f6e15c"/>
      <path id="Polígono_5_-_Contorno" data-name="Polígono 5 - Contorno" d="M5.059,1.624,1.749,6.439H8.369L5.059,1.624M5.059,0l5.059,7.358H0Z" transform="translate(58.872 0) rotate(90)" fill="#f6e15c"/>
      <path id="Polígono_5_-_Contorno-2" data-name="Polígono 5 - Contorno" d="M5.059,1.624,1.749,6.439H8.369L5.059,1.624M5.059,0l5.059,7.358H0Z" transform="translate(58.872 0) rotate(90)" fill="#f6e15c"/>
    </g>
    <g id="Grupo_1178003" data-name="Grupo 1178003" transform="matrix(-0.839, 0.545, -0.545, -0.839, 1195.415, 3803.532)">
      <path id="Línea_638-2" data-name="Línea 638" d="M53.767,5.16,0,2.757.1,0,53.87,2.4Z" transform="translate(0 1.277)" fill="#f6e15c"/>
      <path id="Polígono_5-2" data-name="Polígono 5" d="M5.059,0l5.059,7.358H0Z" transform="translate(58.872 0) rotate(90)" fill="#f6e15c"/>
      <path id="Polígono_5_-_Contorno-3" data-name="Polígono 5 - Contorno" d="M5.059,1.624,1.749,6.439H8.369L5.059,1.624M5.059,0l5.059,7.358H0Z" transform="translate(58.872 0) rotate(90)" fill="#f6e15c"/>
      <path id="Polígono_5_-_Contorno-4" data-name="Polígono 5 - Contorno" d="M5.059,1.624,1.749,6.439H8.369L5.059,1.624M5.059,0l5.059,7.358H0Z" transform="translate(58.872 0) rotate(90)" fill="#f6e15c"/>
    </g>
    <path id="Trazado_1034650" data-name="Trazado 1034650" d="M-24.089-3.384A3.923,3.923,0,0,1-25.338-.773a4.093,4.093,0,0,1-2.794.919,3.758,3.758,0,0,1-3.029-1.355A5.451,5.451,0,0,1-32.3-4.834V-5.859a6.076,6.076,0,0,1,.531-2.615,3.966,3.966,0,0,1,1.505-1.732,4.191,4.191,0,0,1,2.256-.6,3.853,3.853,0,0,1,2.725.948,3.971,3.971,0,0,1,1.194,2.626H-25.5A3.064,3.064,0,0,0-26.3-9.088a2.4,2.4,0,0,0-1.71-.573,2.516,2.516,0,0,0-2.113,1,4.577,4.577,0,0,0-.765,2.837v1.034a4.7,4.7,0,0,0,.725,2.764A2.343,2.343,0,0,0-28.132-1a2.706,2.706,0,0,0,1.8-.531A2.947,2.947,0,0,0-25.5-3.384ZM-17.49,0a2.846,2.846,0,0,1-.19-.835,3.023,3.023,0,0,1-2.256.981,2.8,2.8,0,0,1-1.923-.663A2.145,2.145,0,0,1-22.61-2.2a2.24,2.24,0,0,1,.941-1.923A4.437,4.437,0,0,1-19.021-4.8H-17.7v-.623a1.522,1.522,0,0,0-.425-1.132A1.707,1.707,0,0,0-19.38-6.98a1.976,1.976,0,0,0-1.216.366,1.079,1.079,0,0,0-.491.886h-1.362a1.87,1.87,0,0,1,.421-1.146,2.874,2.874,0,0,1,1.143-.875A3.844,3.844,0,0,1-19.3-8.071a3.133,3.133,0,0,1,2.146.685A2.47,2.47,0,0,1-16.348-5.5v3.647a4.459,4.459,0,0,0,.278,1.736V0Zm-2.249-1.033a2.381,2.381,0,0,0,1.208-.33,1.994,1.994,0,0,0,.828-.857V-3.845h-1.062q-2.49,0-2.49,1.458a1.234,1.234,0,0,0,.425,1A1.633,1.633,0,0,0-19.739-1.033ZM-7.529-3.875A4.745,4.745,0,0,1-8.357-.959,2.653,2.653,0,0,1-10.6.146a2.906,2.906,0,0,1-2.271-.916V3.047h-1.355V-7.925h1.238l.066.879a2.791,2.791,0,0,1,2.3-1.025,2.7,2.7,0,0,1,2.26,1.077,4.8,4.8,0,0,1,.831,3Zm-1.355-.154a3.5,3.5,0,0,0-.571-2.117,1.84,1.84,0,0,0-1.567-.776A1.992,1.992,0,0,0-12.869-5.83v3.787a2,2,0,0,0,1.86,1.084,1.832,1.832,0,0,0,1.549-.773A3.822,3.822,0,0,0-8.884-4.028ZM-2.52.146A3.463,3.463,0,0,1-5.142-.912,3.928,3.928,0,0,1-6.152-3.743v-.249A4.756,4.756,0,0,1-5.7-6.1a3.514,3.514,0,0,1,1.26-1.45,3.167,3.167,0,0,1,1.754-.524,2.968,2.968,0,0,1,2.4,1.018A4.408,4.408,0,0,1,.571-4.138v.564H-4.8a2.817,2.817,0,0,0,.685,1.893,2.153,2.153,0,0,0,1.666.721A2.36,2.36,0,0,0-1.23-1.252a3.055,3.055,0,0,0,.872-.776l.828.645A3.328,3.328,0,0,1-2.52.146Zm-.168-7.1a1.807,1.807,0,0,0-1.377.6,2.9,2.9,0,0,0-.688,1.674h3.97v-.1a2.581,2.581,0,0,0-.557-1.6A1.7,1.7,0,0,0-2.688-6.958ZM3.611,0H2.256V-11.25H3.611Zm3.64,0H5.9V-11.25H7.251Zm7.061,0a2.846,2.846,0,0,1-.19-.835,3.023,3.023,0,0,1-2.256.981A2.8,2.8,0,0,1,9.943-.516,2.145,2.145,0,0,1,9.192-2.2a2.24,2.24,0,0,1,.941-1.923A4.437,4.437,0,0,1,12.781-4.8H14.1v-.623a1.522,1.522,0,0,0-.425-1.132,1.707,1.707,0,0,0-1.252-.421,1.976,1.976,0,0,0-1.216.366,1.079,1.079,0,0,0-.491.886H9.353a1.87,1.87,0,0,1,.421-1.146,2.874,2.874,0,0,1,1.143-.875A3.844,3.844,0,0,1,12.5-8.071a3.133,3.133,0,0,1,2.146.685A2.47,2.47,0,0,1,15.454-5.5v3.647a4.459,4.459,0,0,0,.278,1.736V0ZM12.063-1.033a2.381,2.381,0,0,0,1.208-.33,1.994,1.994,0,0,0,.828-.857V-3.845H13.037q-2.49,0-2.49,1.458a1.234,1.234,0,0,0,.425,1A1.633,1.633,0,0,0,12.063-1.033Zm5.186-3a4.642,4.642,0,0,1,.864-2.933,2.733,2.733,0,0,1,2.263-1.11,2.748,2.748,0,0,1,2.2.952V-11.25h1.355V0H22.69l-.066-.85a2.759,2.759,0,0,1-2.263,1A2.707,2.707,0,0,1,18.116-.981a4.7,4.7,0,0,1-.868-2.944Zm1.355.154a3.515,3.515,0,0,0,.557,2.109A1.8,1.8,0,0,0,20.7-1a1.977,1.977,0,0,0,1.882-1.157V-5.8a1.992,1.992,0,0,0-1.868-1.121,1.808,1.808,0,0,0-1.553.769A3.87,3.87,0,0,0,18.6-3.875ZM30.93,0a2.846,2.846,0,0,1-.19-.835,3.023,3.023,0,0,1-2.256.981,2.8,2.8,0,0,1-1.923-.663A2.145,2.145,0,0,1,25.811-2.2a2.24,2.24,0,0,1,.941-1.923A4.437,4.437,0,0,1,29.4-4.8h1.318v-.623a1.522,1.522,0,0,0-.425-1.132,1.707,1.707,0,0,0-1.252-.421,1.976,1.976,0,0,0-1.216.366,1.079,1.079,0,0,0-.491.886H25.972a1.87,1.87,0,0,1,.421-1.146,2.874,2.874,0,0,1,1.143-.875,3.844,3.844,0,0,1,1.586-.322,3.133,3.133,0,0,1,2.146.685A2.47,2.47,0,0,1,32.073-5.5v3.647a4.459,4.459,0,0,0,.278,1.736V0ZM28.682-1.033a2.381,2.381,0,0,0,1.208-.33,1.994,1.994,0,0,0,.828-.857V-3.845H29.656q-2.49,0-2.49,1.458a1.234,1.234,0,0,0,.425,1A1.633,1.633,0,0,0,28.682-1.033Z" transform="translate(1187.79 3637.039)" fill="#12263f"/>
    <path id="Trazado_1034651" data-name="Trazado 1034651" d="M-26.631,0V-10.664h3.486a4.047,4.047,0,0,1,2.611.718,2.587,2.587,0,0,1,.875,2.124A2.166,2.166,0,0,1-20.083-6.5a2.754,2.754,0,0,1-1.157.89,2.473,2.473,0,0,1,1.366.919,2.638,2.638,0,0,1,.5,1.615A2.852,2.852,0,0,1-20.3-.82,3.847,3.847,0,0,1-22.932,0Zm1.406-4.988V-1.15H-22.9a2.236,2.236,0,0,0,1.549-.509,1.788,1.788,0,0,0,.568-1.4q0-1.926-2.095-1.926Zm0-1.128H-23.1a2.226,2.226,0,0,0,1.476-.462,1.55,1.55,0,0,0,.553-1.255,1.524,1.524,0,0,0-.513-1.281,2.518,2.518,0,0,0-1.56-.4h-2.08ZM-16.033,0h-1.355V-7.925h1.355ZM-17.5-10.027a.809.809,0,0,1,.2-.557.756.756,0,0,1,.6-.227.768.768,0,0,1,.6.227.8.8,0,0,1,.205.557.774.774,0,0,1-.205.549.782.782,0,0,1-.6.22.77.77,0,0,1-.6-.22A.782.782,0,0,1-17.5-10.027Zm3.311,6a4.658,4.658,0,0,1,.857-2.948A2.741,2.741,0,0,1-11.06-8.071,2.726,2.726,0,0,1-8.8-7.046l.066-.879h1.238V-.19A3.224,3.224,0,0,1-8.4,2.234a3.365,3.365,0,0,1-2.45.886,4.076,4.076,0,0,1-1.677-.366,2.887,2.887,0,0,1-1.252-1l.7-.813A2.65,2.65,0,0,0-10.95,2.014a2.076,2.076,0,0,0,1.542-.557A2.128,2.128,0,0,0-8.855-.11V-.791a2.785,2.785,0,0,1-2.219.938A2.707,2.707,0,0,1-13.326-.974,4.9,4.9,0,0,1-14.187-4.028Zm1.362.154a3.553,3.553,0,0,0,.549,2.106A1.785,1.785,0,0,0-10.737-1,1.985,1.985,0,0,0-8.855-2.168V-5.786a2.008,2.008,0,0,0-1.868-1.135,1.8,1.8,0,0,0-1.545.769A3.87,3.87,0,0,0-12.825-3.875Zm7.017-.161A4.681,4.681,0,0,1-5.35-6.13,3.415,3.415,0,0,1-4.076-7.566a3.469,3.469,0,0,1,1.864-.505A3.342,3.342,0,0,1,.406-6.951a4.311,4.311,0,0,1,1,2.981v.1A4.722,4.722,0,0,1,.963-1.8,3.365,3.365,0,0,1-.3-.366,3.509,3.509,0,0,1-2.2.146,3.334,3.334,0,0,1-4.808-.974a4.29,4.29,0,0,1-1-2.966Zm1.362.161a3.39,3.39,0,0,0,.612,2.117,1.957,1.957,0,0,0,1.637.8A1.945,1.945,0,0,0-.557-1.769,3.707,3.707,0,0,0,.051-4.036,3.384,3.384,0,0,0-.568-6.149a1.968,1.968,0,0,0-1.644-.809,1.946,1.946,0,0,0-1.619.8A3.68,3.68,0,0,0-4.446-3.875Zm9.39-5.969v1.919H6.423v1.047H4.944v4.921a1.1,1.1,0,0,0,.2.715A.832.832,0,0,0,5.815-1a3.281,3.281,0,0,0,.645-.088V0A3.951,3.951,0,0,1,5.42.146,1.687,1.687,0,0,1,4.05-.4a2.36,2.36,0,0,1-.461-1.56V-6.877H2.146V-7.925H3.589V-9.844Zm6.35,9.99A3.463,3.463,0,0,1,8.672-.912,3.928,3.928,0,0,1,7.661-3.743v-.249A4.756,4.756,0,0,1,8.112-6.1a3.514,3.514,0,0,1,1.26-1.45,3.167,3.167,0,0,1,1.754-.524,2.968,2.968,0,0,1,2.4,1.018,4.408,4.408,0,0,1,.857,2.915v.564H9.016A2.817,2.817,0,0,0,9.7-1.681a2.153,2.153,0,0,0,1.666.721,2.36,2.36,0,0,0,1.216-.293,3.055,3.055,0,0,0,.872-.776l.828.645A3.328,3.328,0,0,1,11.294.146Zm-.168-7.1a1.807,1.807,0,0,0-1.377.6A2.9,2.9,0,0,0,9.06-4.687h3.97v-.1a2.581,2.581,0,0,0-.557-1.6A1.7,1.7,0,0,0,11.125-6.958Zm8.657.249a4.061,4.061,0,0,0-.667-.051,1.786,1.786,0,0,0-1.809,1.135V0H15.952V-7.925h1.318l.022.916a2.11,2.11,0,0,1,1.89-1.062,1.384,1.384,0,0,1,.6.1ZM25.627,0a2.846,2.846,0,0,1-.19-.835,3.023,3.023,0,0,1-2.256.981,2.8,2.8,0,0,1-1.923-.663A2.145,2.145,0,0,1,20.508-2.2a2.24,2.24,0,0,1,.941-1.923A4.437,4.437,0,0,1,24.1-4.8h1.318v-.623a1.522,1.522,0,0,0-.425-1.132,1.707,1.707,0,0,0-1.252-.421,1.976,1.976,0,0,0-1.216.366,1.079,1.079,0,0,0-.491.886H20.669a1.87,1.87,0,0,1,.421-1.146,2.874,2.874,0,0,1,1.143-.875,3.844,3.844,0,0,1,1.586-.322,3.133,3.133,0,0,1,2.146.685A2.47,2.47,0,0,1,26.77-5.5v3.647a4.459,4.459,0,0,0,.278,1.736V0ZM23.379-1.033a2.381,2.381,0,0,0,1.208-.33,1.994,1.994,0,0,0,.828-.857V-3.845H24.353q-2.49,0-2.49,1.458a1.234,1.234,0,0,0,.425,1A1.633,1.633,0,0,0,23.379-1.033Z" transform="translate(1236.335 3662.813)" fill="#12263f"/>
    <path id="Trazado_1034652" data-name="Trazado 1034652" d="M-25.7-3.384A3.923,3.923,0,0,1-26.953-.773a4.093,4.093,0,0,1-2.794.919,3.758,3.758,0,0,1-3.029-1.355,5.451,5.451,0,0,1-1.139-3.625V-5.859a6.076,6.076,0,0,1,.531-2.615,3.966,3.966,0,0,1,1.505-1.732,4.191,4.191,0,0,1,2.256-.6,3.853,3.853,0,0,1,2.725.948A3.971,3.971,0,0,1-25.7-7.236h-1.414a3.064,3.064,0,0,0-.795-1.851,2.4,2.4,0,0,0-1.71-.573,2.516,2.516,0,0,0-2.113,1A4.577,4.577,0,0,0-32.5-5.827v1.034a4.7,4.7,0,0,0,.725,2.764A2.343,2.343,0,0,0-29.747-1a2.706,2.706,0,0,0,1.8-.531,2.947,2.947,0,0,0,.831-1.849Zm1.348-.652A4.681,4.681,0,0,1-23.9-6.13a3.415,3.415,0,0,1,1.274-1.436,3.469,3.469,0,0,1,1.864-.505,3.342,3.342,0,0,1,2.618,1.121,4.311,4.311,0,0,1,1,2.981v.1A4.722,4.722,0,0,1-17.585-1.8,3.365,3.365,0,0,1-18.853-.366a3.509,3.509,0,0,1-1.893.513A3.334,3.334,0,0,1-23.357-.974a4.29,4.29,0,0,1-1-2.966Zm1.362.161a3.39,3.39,0,0,0,.612,2.117,1.957,1.957,0,0,0,1.637.8,1.945,1.945,0,0,0,1.641-.809A3.707,3.707,0,0,0-18.5-4.036a3.384,3.384,0,0,0-.619-2.113,1.968,1.968,0,0,0-1.644-.809,1.946,1.946,0,0,0-1.619.8A3.68,3.68,0,0,0-22.994-3.875Zm11.382-2.834a4.061,4.061,0,0,0-.667-.051,1.786,1.786,0,0,0-1.809,1.135V0h-1.355V-7.925h1.318l.022.916a2.11,2.11,0,0,1,1.89-1.062,1.384,1.384,0,0,1,.6.1Zm.916,2.681a4.642,4.642,0,0,1,.864-2.933A2.733,2.733,0,0,1-7.57-8.071a2.748,2.748,0,0,1,2.2.952V-11.25H-4.01V0H-5.255l-.066-.85a2.759,2.759,0,0,1-2.263,1A2.707,2.707,0,0,1-9.829-.981,4.7,4.7,0,0,1-10.7-3.926Zm1.355.154a3.515,3.515,0,0,0,.557,2.109A1.8,1.8,0,0,0-7.247-1,1.977,1.977,0,0,0-5.365-2.161V-5.8A1.992,1.992,0,0,0-7.233-6.921a1.808,1.808,0,0,0-1.553.769A3.87,3.87,0,0,0-9.342-3.875Zm7.075-.161A4.681,4.681,0,0,1-1.809-6.13,3.415,3.415,0,0,1-.535-7.566a3.469,3.469,0,0,1,1.864-.505A3.342,3.342,0,0,1,3.948-6.951a4.311,4.311,0,0,1,1,2.981v.1A4.722,4.722,0,0,1,4.5-1.8,3.365,3.365,0,0,1,3.237-.366,3.509,3.509,0,0,1,1.344.146,3.334,3.334,0,0,1-1.267-.974a4.29,4.29,0,0,1-1-2.966ZM-.9-3.875A3.39,3.39,0,0,0-.293-1.758a1.957,1.957,0,0,0,1.637.8,1.945,1.945,0,0,0,1.641-.809,3.707,3.707,0,0,0,.608-2.267,3.384,3.384,0,0,0-.619-2.113,1.968,1.968,0,0,0-1.644-.809,1.946,1.946,0,0,0-1.619.8A3.68,3.68,0,0,0-.9-3.875Zm8.833-4.05.044,1a2.888,2.888,0,0,1,2.373-1.143q2.512,0,2.534,2.834V0H11.525V-5.244a1.824,1.824,0,0,0-.392-1.267,1.57,1.57,0,0,0-1.2-.41,1.956,1.956,0,0,0-1.157.352A2.387,2.387,0,0,0,8-5.647V0H6.647V-7.925ZM18.212.146A3.463,3.463,0,0,1,15.59-.912a3.928,3.928,0,0,1-1.011-2.831v-.249a4.756,4.756,0,0,1,.45-2.106,3.514,3.514,0,0,1,1.26-1.45,3.167,3.167,0,0,1,1.754-.524,2.968,2.968,0,0,1,2.4,1.018A4.408,4.408,0,0,1,21.3-4.138v.564H15.934a2.817,2.817,0,0,0,.685,1.893,2.153,2.153,0,0,0,1.666.721A2.36,2.36,0,0,0,19.5-1.252a3.055,3.055,0,0,0,.872-.776l.828.645A3.328,3.328,0,0,1,18.212.146Zm-.168-7.1a1.807,1.807,0,0,0-1.377.6,2.9,2.9,0,0,0-.688,1.674h3.97v-.1a2.581,2.581,0,0,0-.557-1.6A1.7,1.7,0,0,0,18.043-6.958Zm8.657.249a4.061,4.061,0,0,0-.667-.051,1.786,1.786,0,0,0-1.809,1.135V0H22.87V-7.925h1.318l.022.916A2.11,2.11,0,0,1,26.1-8.071a1.384,1.384,0,0,1,.6.1ZM32.545,0a2.846,2.846,0,0,1-.19-.835A3.023,3.023,0,0,1,30.1.146a2.8,2.8,0,0,1-1.923-.663A2.145,2.145,0,0,1,27.426-2.2a2.24,2.24,0,0,1,.941-1.923A4.437,4.437,0,0,1,31.014-4.8h1.318v-.623a1.522,1.522,0,0,0-.425-1.132,1.707,1.707,0,0,0-1.252-.421,1.976,1.976,0,0,0-1.216.366,1.079,1.079,0,0,0-.491.886H27.587a1.87,1.87,0,0,1,.421-1.146,2.874,2.874,0,0,1,1.143-.875,3.844,3.844,0,0,1,1.586-.322,3.133,3.133,0,0,1,2.146.685A2.47,2.47,0,0,1,33.688-5.5v3.647a4.459,4.459,0,0,0,.278,1.736V0ZM30.3-1.033a2.381,2.381,0,0,0,1.208-.33,1.994,1.994,0,0,0,.828-.857V-3.845H31.271q-2.49,0-2.49,1.458a1.234,1.234,0,0,0,.425,1A1.633,1.633,0,0,0,30.3-1.033Z" transform="translate(984.051 3614)" fill="#12263f"/>
    <g id="Grupo_1177997" data-name="Grupo 1177997" transform="translate(989.969 3616.881)">
      <g id="Grupo_1177988-2" data-name="Grupo 1177988" transform="matrix(0.999, -0.035, 0.035, 0.999, 0, 8.154)">
        <path id="Trazado_1034468-2" data-name="Trazado 1034468" d="M46.2,14.944S15.529-.645,6.884.021-4.17,13.724,11,19.919,46.2,14.944,46.2,14.944Z" transform="translate(15.111 2.434)" fill="#cea689"/>
        <path id="Trazado_1034468_-_Contorno-2" data-name="Trazado 1034468 - Contorno" d="M22.128,23.413h0a28,28,0,0,1-10.62-1.932A25.544,25.544,0,0,1,5.87,18.363a16.811,16.811,0,0,1-3.681-3.7A10.7,10.7,0,0,1,.107,6.869,8.033,8.033,0,0,1,2.553,2.183,8.269,8.269,0,0,1,7.632.023C7.831.008,8.044,0,8.265,0c3.988,0,11.794,2.537,23.2,7.541,8.441,3.7,15.834,7.454,15.908,7.492a.811.811,0,0,1,.028,1.431,60.26,60.26,0,0,1-7.825,3.476,61.729,61.729,0,0,1-8.067,2.385A44.012,44.012,0,0,1,22.128,23.413ZM8.265,1.622c-.179,0-.35.006-.508.018A6.4,6.4,0,0,0,1.71,7.12a9.1,9.1,0,0,0,1.8,6.6,19.335,19.335,0,0,0,8.609,6.255A26.389,26.389,0,0,0,22.128,21.79a42.376,42.376,0,0,0,9.014-1.047,60.063,60.063,0,0,0,7.843-2.315,65.559,65.559,0,0,0,6.229-2.662C42.67,14.5,37.024,11.75,30.807,9.023,19.769,4.182,11.974,1.622,8.265,1.622Z" transform="translate(14.301 1.623)"/>
        <path id="Trazado_1034469-2" data-name="Trazado 1034469" d="M76.393,1.24C64.749,4.194,68.376,9.8,47.36,16.5c-8.722,2.78-19.257,1.52-25.005-2.124a19.408,19.408,0,0,1-8.4-13.136S-.6,35.956.019,45.787s.44,22.048,18.72,26.547S39.666,80,39.666,80,36.65,51.714,56.922,51.573s29.8,18.172,46.32,14.851,25.041-28.488,25.041-28.488S118.571,18.783,105.6,9.609,88.037-1.715,76.393,1.24Z" transform="translate(0.811 6.572)" fill="#c3916e"/>
        <path id="Trazado_1034469_-_Contorno-2" data-name="Trazado 1034469 - Contorno" d="M85.534,0h0a21.3,21.3,0,0,1,9.693,2.393,88.294,88.294,0,0,1,11.65,7.365,54.784,54.784,0,0,1,9.156,8.421,94.559,94.559,0,0,1,7.252,9.388,109.409,109.409,0,0,1,6.53,10.813.811.811,0,0,1,.045.627,69.669,69.669,0,0,1-6.407,13.169,46.306,46.306,0,0,1-7.977,9.808,23.921,23.921,0,0,1-11.266,6.046,21.088,21.088,0,0,1-4.146.419c-6.82,0-12.529-3.392-18.574-6.983A80.689,80.689,0,0,0,70.76,55.809a33.405,33.405,0,0,0-12.795-2.614h-.228a16.1,16.1,0,0,0-6.516,1.313A13.384,13.384,0,0,0,46.7,57.84a19.429,19.429,0,0,0-3.778,6.823,34.964,34.964,0,0,0-1.555,7.524,46.026,46.026,0,0,0-.088,8.535.823.823,0,0,1-.5.858.786.786,0,0,1-.926-.243,13.544,13.544,0,0,0-3.687-2.1,102.863,102.863,0,0,0-16.818-5.306c-8-1.968-13.282-5.564-16.16-11C.7,58.228.385,52.826.106,48.061.078,47.6.05,47.114.021,46.649-.244,42.461,2.037,33.617,6.8,20.364c3.527-9.814,7.178-18.539,7.215-18.626a.811.811,0,0,1,1.554.223,18.067,18.067,0,0,0,1.364,4.615,18.8,18.8,0,0,0,2.433,4.093A16.836,16.836,0,0,0,23.6,14.5c3.466,2.2,8.853,3.509,14.41,3.509a33.083,33.083,0,0,0,9.915-1.472,64.516,64.516,0,0,0,12.558-5.256,40.341,40.341,0,0,0,6.279-4.528A22.2,22.2,0,0,1,77,1.265,34.745,34.745,0,0,1,85.534,0Zm42.676,38.808a110.874,110.874,0,0,0-6.278-10.346,92.877,92.877,0,0,0-7.122-9.217,53.155,53.155,0,0,0-8.869-8.162c-9.093-6.43-14.07-9.46-20.406-9.46h0A33.21,33.21,0,0,0,77.4,2.837,20.6,20.6,0,0,0,67.8,8c-3.337,2.8-7.49,6.3-19.388,10.088A34.723,34.723,0,0,1,38.01,19.633a35.923,35.923,0,0,1-8.417-.983,23.391,23.391,0,0,1-6.862-2.778,18.456,18.456,0,0,1-4.665-4.231A20.451,20.451,0,0,1,15.422,7.17a21.8,21.8,0,0,1-.887-2.432c-1.322,3.252-3.8,9.46-6.21,16.18C3.7,33.775,1.393,42.637,1.64,46.547c.03.469.058.952.085,1.419a68.244,68.244,0,0,0,.69,7.27A22.6,22.6,0,0,0,4.63,62.177,16.908,16.908,0,0,0,9.845,68.1a28.664,28.664,0,0,0,9.9,4.261,103.721,103.721,0,0,1,17.463,5.568,24.871,24.871,0,0,1,2.343,1.21,49.685,49.685,0,0,1,.207-7.114,36.581,36.581,0,0,1,1.63-7.875,21.03,21.03,0,0,1,4.106-7.387,15.813,15.813,0,0,1,12.232-5.186h.239a35,35,0,0,1,13.406,2.734,81.934,81.934,0,0,1,10.949,5.765c5.848,3.474,11.371,6.756,17.745,6.756a19.462,19.462,0,0,0,3.826-.387,22.323,22.323,0,0,0,10.484-5.647,44.642,44.642,0,0,0,7.686-9.45A70.377,70.377,0,0,0,128.211,38.808Z" transform="translate(0 5.76)"/>
        <path id="Trazado_1034470-2" data-name="Trazado 1034470" d="M18.761.4C8.567-1.9,0,6.49,0,6.49A106.537,106.537,0,0,1,22.318,18.68C34.939,27.521,48.4,43.988,48.4,43.988a33.384,33.384,0,0,1,8.3-5.627,12.362,12.362,0,0,1,8.723,0L42.191,15.69S28.955,2.7,18.761.4Z" transform="translate(78.657 0.811)" fill="#8b5a38"/>
        <path id="Trazado_1034470_-_Contorno-2" data-name="Trazado 1034470 - Contorno" d="M15.967,0a17.149,17.149,0,0,1,3.784.419,30.305,30.305,0,0,1,8.188,3.448,69.937,69.937,0,0,1,7.667,5.209,99.365,99.365,0,0,1,7.965,6.846l23.239,22.67a.811.811,0,0,1-.878,1.33,12.382,12.382,0,0,0-4.237-.755,9.763,9.763,0,0,0-3.856.752,32.71,32.71,0,0,0-8.066,5.47.811.811,0,0,1-1.186-.076c-.034-.041-3.411-4.162-8.28-9.3-4.483-4.734-11.182-11.327-17.643-15.853A117.74,117.74,0,0,0,7.051,10.929C3.078,8.988.56,8.073.536,8.064A.811.811,0,0,1,.244,6.722,26.031,26.031,0,0,1,4.775,3.359a25.6,25.6,0,0,1,4.969-2.3A19.652,19.652,0,0,1,15.967,0ZM63.542,37.671,42.436,17.081A97.667,97.667,0,0,0,34.6,10.349C28.7,5.8,23.444,2.916,19.394,2a15.592,15.592,0,0,0-3.425-.379h0a18.023,18.023,0,0,0-5.684.964A23.938,23.938,0,0,0,5.643,4.73a27.12,27.12,0,0,0-3.292,2.3C3.492,7.5,5.357,8.3,7.763,9.471a119.393,119.393,0,0,1,15.831,9.355c6.576,4.606,13.363,11.285,17.9,16.076,3.769,3.982,6.654,7.358,7.8,8.729a32.651,32.651,0,0,1,7.9-5.205,11.374,11.374,0,0,1,4.493-.882A13.84,13.84,0,0,1,63.542,37.671Z" transform="translate(77.846 0)"/>
        <path id="Trazado_1034476-2" data-name="Trazado 1034476" d="M0,0V17.958s15.4-.893,22.393-5.389a17.437,17.437,0,0,0,1.7-1.487L15.416,6.635Z" transform="translate(36.536 6.572)" fill="#c3916e"/>
        <path id="Trazado_1034476_-_Contorno-2" data-name="Trazado 1034476 - Contorno" d="M.811,0a.811.811,0,0,1,.321.066L16.547,6.7l.049.023,8.677,4.447a.811.811,0,0,1,.2,1.3,17.192,17.192,0,0,1-1.83,1.591c-2.993,1.924-7.745,3.438-14.123,4.5C4.806,19.344.9,19.577.858,19.579A.811.811,0,0,1,0,18.769V.811A.811.811,0,0,1,.811,0Zm15.07,8.18L1.622,2.043V17.9c1.389-.111,4.312-.385,7.647-.94,6.065-1.009,10.732-2.482,13.5-4.26l0,0a7.265,7.265,0,0,0,.739-.606Z" transform="translate(35.725 5.761)"/>
        <path id="Trazado_1034477-2" data-name="Trazado 1034477" d="M104.149.229S98.471-1.907,88.316,6.868s-6.406,23.939-23.951,27.3S34.019,16.942,18.137,20.3,0,48.756,0,48.756,10.708,54.4,25.672,63.347c10.723,6.411,23.581,16,37.855,19.455,15.509,3.754,24.507.744,33.582,0,9.835-.8,19.543.208,36.3-1.758a285.761,285.761,0,0,0,46.8-9.651c5.44-1.613,9.855-3.938,11.369-6.28s8.293-10.8-2.755-20.507-19.044-4.179-44.191-14.814A114.658,114.658,0,0,1,104.149.229Z" transform="translate(37.817 36.866)" fill="#cea689"/>
        <path id="Trazado_1034477_-_Contorno-2" data-name="Trazado 1034477 - Contorno" d="M103.176,0h0a6.262,6.262,0,0,1,2.069.281.811.811,0,0,1,.345.248,97.31,97.31,0,0,0,10.747,10.718,119.377,119.377,0,0,0,12.644,9.586,105.667,105.667,0,0,0,16.783,9.023,108.072,108.072,0,0,0,26.094,7.505c7.148,1.259,12.312,2.169,18.316,7.447,4.652,4.089,6.816,8.483,6.432,13.061a16.825,16.825,0,0,1-3.231,8.046c-.117.173-.217.322-.3.45a12.268,12.268,0,0,1-4.505,3.685,38.439,38.439,0,0,1-7.314,2.932c-6.323,1.874-12.938,3.575-19.661,5.055-9.193,2.023-18.37,3.579-27.278,4.624A214.345,214.345,0,0,1,109.63,84.03c-4.057.044-7.889.085-11.643.392-2.054.168-4.093.453-6.252.753a86.953,86.953,0,0,1-12.6,1.1A63.043,63.043,0,0,1,64.148,84.4c-11.461-2.774-21.948-9.412-31.2-15.269-2.406-1.523-4.679-2.962-6.881-4.278C11.293,56.02.54,50.342.433,50.285A.811.811,0,0,1,0,49.5,54.915,54.915,0,0,1,3.166,36.308,32.888,32.888,0,0,1,8.8,26.441a17.573,17.573,0,0,1,13.712-6.514,24.433,24.433,0,0,1,9.69,2.26A87.987,87.987,0,0,1,41.437,27.1a87.529,87.529,0,0,0,9.678,5.125A25.856,25.856,0,0,0,61.26,34.536a20.07,20.07,0,0,0,3.763-.357,21.507,21.507,0,0,0,6.451-2.222,15.551,15.551,0,0,0,4.234-3.4c2.3-2.624,3.655-5.809,5.086-9.181,1.832-4.319,3.727-8.785,7.8-12.306a33.9,33.9,0,0,1,8.9-5.783A14.988,14.988,0,0,1,103.176,0Zm1.32,1.752a5.974,5.974,0,0,0-1.32-.13c-2.166,0-6.8.866-13.518,6.671-3.789,3.274-5.609,7.564-7.369,11.712-1.418,3.342-2.884,6.8-5.36,9.617a17.147,17.147,0,0,1-4.669,3.754,23.1,23.1,0,0,1-6.931,2.4,21.7,21.7,0,0,1-4.068.386c-7.531,0-14.2-3.891-20.641-7.655a85.474,85.474,0,0,0-9.058-4.828,22.553,22.553,0,0,0-9.048-2.128,15.952,15.952,0,0,0-12.474,5.94,31.236,31.236,0,0,0-5.345,9.364A54.966,54.966,0,0,0,1.678,49.11C3.944,50.32,13.866,55.668,26.9,63.462c2.22,1.327,4.5,2.771,6.916,4.3,9.146,5.789,19.513,12.351,30.714,15.063a61.444,61.444,0,0,0,14.607,1.823,85.641,85.641,0,0,0,12.375-1.08c2.182-.3,4.243-.591,6.344-.764,3.812-.311,7.672-.353,11.758-.4a212.962,212.962,0,0,0,24.514-1.358c8.854-1.039,17.978-2.586,27.118-4.6,6.685-1.471,13.262-3.162,19.548-5.026a36.811,36.811,0,0,0,7-2.8,10.931,10.931,0,0,0,3.92-3.142c.091-.141.2-.3.317-.476a15.379,15.379,0,0,0,2.96-7.275c.339-4.037-1.641-7.976-5.886-11.706a24.633,24.633,0,0,0-8.22-4.927,57.933,57.933,0,0,0-9.307-2.141,109.5,109.5,0,0,1-26.445-7.609,107.306,107.306,0,0,1-17.064-9.176,121.017,121.017,0,0,1-12.825-9.729A100.032,100.032,0,0,1,104.5,1.752Z" transform="translate(37.006 36.055)"/>
        <path id="Trazado_1034484" data-name="Trazado 1034484" d="M52.575,46.934a.808.808,0,0,1-.546-.211c-.121-.11-12.227-11.129-24.588-22.162C20.183,18.083,14.26,12.868,9.836,9.062,7.213,6.805,5.1,5.027,3.545,3.775A19.257,19.257,0,0,0,.585,1.59.811.811,0,0,1,1.022.028c.373.1,1.149.309,9.6,7.569,4.414,3.793,10.36,9.025,17.673,15.55C40.74,34.254,53,45.412,53.121,45.523a.811.811,0,0,1-.546,1.411Z" transform="translate(62.867 15.842)"/>
        <path id="Trazado_1034485" data-name="Trazado 1034485" d="M42.945,36.171a7.551,7.551,0,0,1-4.615-.161S31.736,29.59,21.082,20.336,0,0,0,0A193.148,193.148,0,0,1,23.314,15.634,108.253,108.253,0,0,1,42.945,36.171Z" transform="translate(98.217 1.566)" fill="#794827"/>
        <path id="Trazado_1034485_-_Contorno" data-name="Trazado 1034485 - Contorno" d="M41.542,37.986a8.484,8.484,0,0,1-2.926-.514l-.147-.06-.114-.111c-.066-.064-6.7-6.512-17.214-15.643C10.579,12.483.1,1.378,0,1.266L.982,0C1.011.016,3.93,1.628,8.253,4.356A195.059,195.059,0,0,1,24.407,15.707,107.268,107.268,0,0,1,38.762,29.568c3.42,3.959,5.359,6.733,5.44,6.85l.633.909-1.057.329A7.511,7.511,0,0,1,41.542,37.986ZM39.36,36.016a7.165,7.165,0,0,0,2.182.347q.3,0,.593-.027c-.86-1.154-2.447-3.214-4.618-5.725A105.609,105.609,0,0,0,23.4,16.982,194.984,194.984,0,0,0,5.364,4.472C9.384,8.549,15.78,14.853,22.2,20.434,31.957,28.905,38.391,35.08,39.36,36.016Z" transform="translate(97.626 0.855)"/>
        <path id="Trazado_1034472-2" data-name="Trazado 1034472" d="M3.773,13.748A96.142,96.142,0,0,1,14.462,6.893,43.575,43.575,0,0,1,22.3,3.712c.846-.3,2.35-5.158-4.828-3.283S0,10.77,0,10.77Z" transform="translate(105.954 19.301)" fill="#502929"/>
        <path id="Trazado_1034472_-_Contorno-2" data-name="Trazado 1034472 - Contorno" d="M4.584,15.37a.81.81,0,0,1-.5-.174L.309,12.218A.811.811,0,0,1,.3,10.955c.026-.021,2.642-2.168,6.1-4.512C11.081,3.271,15.01,1.256,18.076.455A12.3,12.3,0,0,1,21.109,0c2.807,0,3.386,1.628,3.505,2.328.208,1.227-.394,2.665-1.239,2.96-.153.053-.34.111-.577.185A42.048,42.048,0,0,0,15.64,8.428,95.878,95.878,0,0,0,5.066,15.211.81.81,0,0,1,4.584,15.37ZM2.116,11.578,4.6,13.54a91.275,91.275,0,0,1,10.3-6.559A43.568,43.568,0,0,1,22.32,3.923c.173-.053.318-.1.432-.136a1.674,1.674,0,0,0,.2-1.4c-.249-.629-1.141-.761-1.846-.761a10.718,10.718,0,0,0-2.624.4C12.688,3.54,4.642,9.6,2.116,11.578Z" transform="translate(105.143 18.49)"/>
        <path id="Trazado_1034473-2" data-name="Trazado 1034473" d="M3.773,13.748A96.142,96.142,0,0,1,14.462,6.893,43.575,43.575,0,0,1,22.3,3.712c.846-.3,2.35-5.158-4.828-3.283S0,10.77,0,10.77Z" transform="translate(99.83 14.273)" fill="#502929"/>
        <path id="Trazado_1034473_-_Contorno-2" data-name="Trazado 1034473 - Contorno" d="M4.584,15.37a.81.81,0,0,1-.5-.174L.309,12.218A.811.811,0,0,1,.3,10.955c.026-.021,2.642-2.168,6.1-4.512C11.081,3.271,15.01,1.256,18.076.455A12.3,12.3,0,0,1,21.109,0c2.807,0,3.386,1.628,3.505,2.328.208,1.227-.394,2.665-1.239,2.96-.153.053-.34.111-.577.185A42.048,42.048,0,0,0,15.64,8.428,95.878,95.878,0,0,0,5.066,15.211.81.81,0,0,1,4.584,15.37ZM2.116,11.578,4.6,13.54a91.275,91.275,0,0,1,10.3-6.559A43.568,43.568,0,0,1,22.32,3.923c.173-.053.318-.1.432-.136a1.674,1.674,0,0,0,.2-1.4c-.249-.629-1.141-.761-1.846-.761a10.718,10.718,0,0,0-2.624.4C12.688,3.54,4.642,9.6,2.116,11.578Z" transform="translate(99.019 13.462)"/>
        <path id="Trazado_1034474-2" data-name="Trazado 1034474" d="M3.773,13.748A96.142,96.142,0,0,1,14.462,6.893,43.575,43.575,0,0,1,22.3,3.712c.846-.3,2.35-5.158-4.828-3.283S0,10.77,0,10.77Z" transform="translate(92.435 7.766)" fill="#502929"/>
        <path id="Trazado_1034474_-_Contorno-2" data-name="Trazado 1034474 - Contorno" d="M4.584,15.37a.81.81,0,0,1-.5-.174L.309,12.218A.811.811,0,0,1,.3,10.955c.026-.021,2.642-2.168,6.1-4.512C11.081,3.271,15.01,1.256,18.076.455A12.3,12.3,0,0,1,21.109,0c2.807,0,3.386,1.628,3.505,2.328.208,1.227-.394,2.665-1.239,2.96-.153.053-.34.111-.577.185A42.048,42.048,0,0,0,15.64,8.428,95.878,95.878,0,0,0,5.066,15.211.81.81,0,0,1,4.584,15.37ZM2.116,11.578,4.6,13.54a91.275,91.275,0,0,1,10.3-6.559A43.568,43.568,0,0,1,22.32,3.923c.173-.053.318-.1.432-.136a1.674,1.674,0,0,0,.2-1.4c-.249-.629-1.141-.761-1.846-.761a10.718,10.718,0,0,0-2.624.4C12.688,3.54,4.642,9.6,2.116,11.578Z" transform="translate(91.624 6.955)"/>
        <path id="Trazado_1034475-2" data-name="Trazado 1034475" d="M3.773,13.748A96.142,96.142,0,0,1,14.462,6.893,43.575,43.575,0,0,1,22.3,3.712c.846-.3,2.35-5.158-4.828-3.283S0,10.77,0,10.77Z" transform="translate(84.639 1.036)" fill="#502929"/>
        <path id="Trazado_1034475_-_Contorno-2" data-name="Trazado 1034475 - Contorno" d="M4.584,15.37a.81.81,0,0,1-.5-.174L.309,12.218A.811.811,0,0,1,.3,10.955c.026-.021,2.642-2.168,6.1-4.512C11.081,3.271,15.01,1.256,18.076.455A12.3,12.3,0,0,1,21.109,0c2.807,0,3.386,1.628,3.505,2.328.208,1.227-.394,2.665-1.239,2.96-.153.053-.34.111-.577.185A42.048,42.048,0,0,0,15.64,8.428,95.878,95.878,0,0,0,5.066,15.211.81.81,0,0,1,4.584,15.37ZM2.116,11.578,4.6,13.54a91.275,91.275,0,0,1,10.3-6.559A43.568,43.568,0,0,1,22.32,3.923c.173-.053.318-.1.432-.136a1.674,1.674,0,0,0,.2-1.4c-.249-.629-1.141-.761-1.846-.761a10.718,10.718,0,0,0-2.624.4C12.688,3.54,4.642,9.6,2.116,11.578Z" transform="translate(83.828 0.225)"/>
        <circle id="Elipse_11668-2" data-name="Elipse 11668" cx="3.619" cy="3.619" r="3.619" transform="translate(109.711 35.195)" fill="#8b5a38"/>
        <path id="Elipse_11668_-_Contorno-2" data-name="Elipse 11668 - Contorno" d="M3.619,1.622a2,2,0,1,0,2,2,2,2,0,0,0-2-2M3.619,0A3.619,3.619,0,1,1,0,3.619,3.619,3.619,0,0,1,3.619,0Z" transform="translate(109.711 35.195)"/>
        <circle id="Elipse_11669-2" data-name="Elipse 11669" cx="3.619" cy="3.619" r="3.619" transform="translate(102.875 29.043)" fill="#8b5a38"/>
        <path id="Elipse_11669_-_Contorno-2" data-name="Elipse 11669 - Contorno" d="M3.619,1.622a2,2,0,1,0,2,2,2,2,0,0,0-2-2M3.619,0A3.619,3.619,0,1,1,0,3.619,3.619,3.619,0,0,1,3.619,0Z" transform="translate(102.875 29.043)"/>
        <circle id="Elipse_11670-2" data-name="Elipse 11670" cx="3.619" cy="3.619" r="3.619" transform="translate(96.745 23.877)" fill="#8b5a38"/>
        <path id="Elipse_11670_-_Contorno-2" data-name="Elipse 11670 - Contorno" d="M3.619,1.622a2,2,0,1,0,2,2,2,2,0,0,0-2-2M3.619,0A3.619,3.619,0,1,1,0,3.619,3.619,3.619,0,0,1,3.619,0Z" transform="translate(96.745 23.877)"/>
        <circle id="Elipse_11671-2" data-name="Elipse 11671" cx="3.619" cy="3.619" r="3.619" transform="translate(89.594 17.527)" fill="#8b5a38"/>
        <path id="Elipse_11671_-_Contorno-2" data-name="Elipse 11671 - Contorno" d="M3.619,1.622a2,2,0,1,0,2,2,2,2,0,0,0-2-2M3.619,0A3.619,3.619,0,1,1,0,3.619,3.619,3.619,0,0,1,3.619,0Z" transform="translate(89.594 17.527)"/>
        <circle id="Elipse_11672-2" data-name="Elipse 11672" cx="3.619" cy="3.619" r="3.619" transform="translate(81.541 10.862)" fill="#8b5a38"/>
        <path id="Elipse_11672_-_Contorno-2" data-name="Elipse 11672 - Contorno" d="M3.619,1.622a2,2,0,1,0,2,2,2,2,0,0,0-2-2M3.619,0A3.619,3.619,0,1,1,0,3.619,3.619,3.619,0,0,1,3.619,0Z" transform="translate(81.541 10.862)"/>
        <path id="Trazado_1034471-2" data-name="Trazado 1034471" d="M3.773,13.748A96.142,96.142,0,0,1,14.462,6.893,43.575,43.575,0,0,1,22.3,3.712c.846-.3,2.35-5.158-4.828-3.283S0,10.77,0,10.77Z" transform="translate(112.783 25.449)" fill="#502929"/>
        <path id="Trazado_1034471_-_Contorno-2" data-name="Trazado 1034471 - Contorno" d="M4.584,15.37a.81.81,0,0,1-.5-.174L.309,12.218A.811.811,0,0,1,.3,10.955c.026-.021,2.642-2.168,6.1-4.512C11.081,3.271,15.01,1.256,18.076.455A12.3,12.3,0,0,1,21.109,0c2.807,0,3.386,1.628,3.505,2.328.208,1.227-.394,2.665-1.239,2.96-.153.053-.34.111-.577.185A42.048,42.048,0,0,0,15.64,8.428,95.878,95.878,0,0,0,5.066,15.211.81.81,0,0,1,4.584,15.37ZM2.116,11.578,4.6,13.54a91.275,91.275,0,0,1,10.3-6.559A43.568,43.568,0,0,1,22.32,3.923c.173-.053.318-.1.432-.136a1.674,1.674,0,0,0,.2-1.4c-.249-.629-1.141-.761-1.846-.761a10.718,10.718,0,0,0-2.624.4C12.688,3.54,4.642,9.6,2.116,11.578Z" transform="translate(111.972 24.638)"/>
      </g>
      <path id="Trazado_1034478" data-name="Trazado 1034478" d="M-7825.364-8669.456c-.332-10.382.519-16.859,2.939-22.358a35.066,35.066,0,0,1,5.014-8,109.941,109.941,0,0,1,7.8-8.4c9.077-9.045,23.577-9.622,32.241-9.968,2.958-.118,5.753-.229,6.512-.692,1.564-.956,2.3-1.9,2.19-2.812-.149-1.22-1.756-2.663-4.526-4.064a33.9,33.9,0,0,0-4.5-1.855l.487-1.549a35.472,35.472,0,0,1,4.747,1.958c3.363,1.7,5.181,3.489,5.4,5.312.2,1.6-.8,3.077-2.955,4.4-1.069.652-3.236.768-7.293.929a87.073,87.073,0,0,0-15.613,1.668,39.125,39.125,0,0,0-8.293,2.79,26.317,26.317,0,0,0-7.255,5.037,108.653,108.653,0,0,0-7.679,8.27,33.489,33.489,0,0,0-4.792,7.632c-2.314,5.259-3.126,11.532-2.8,21.651Z" transform="translate(7956.138 8793.603)"/>
      <path id="Trazado_1034479-2" data-name="Trazado 1034479" d="M-8102.383-8699.638l-.928,23.052,33.134,12.066,28.067-6.713s-15.755-10.23-28.067-15.469-13.132-2.256-21.187-5.489S-8102.383-8699.638-8102.383-8699.638Z" transform="translate(8108.939 8777.756)" fill="#a25e2b"/>
      <path id="Trazado_1034479_-_Contorno-2" data-name="Trazado 1034479 - Contorno" d="M-8102.838-8701.13l.689.977a15,15,0,0,0,2.451,2.459,31.478,31.478,0,0,0,8.39,4.846,25.413,25.413,0,0,0,7.875,1.856c2.97.311,6.336.663,13.318,3.637a167.975,167.975,0,0,1,18.7,9.723c5.423,3.18,9.393,5.754,9.432,5.779l.792.515-.919.219-28.186,6.742-.115-.042-33.412-12.168.012-.3Zm59.609,29.442c-3.362-2.137-16.636-10.425-27.2-14.923-6.871-2.924-10.172-3.271-13.085-3.575a26.1,26.1,0,0,1-8.093-1.91,33,33,0,0,1-8.638-5,19.418,19.418,0,0,1-1.869-1.761l-.873,21.711,32.74,11.923Z" transform="translate(8109.037 8778.037)"/>
      <path id="Trazado_1034480-2" data-name="Trazado 1034480" d="M-8030.271-8670.845v22.393l28.3-6.788Z" transform="translate(8068.873 8761.961)" fill="#532c0e"/>
      <path id="Trazado_1034480_-_Contorno-2" data-name="Trazado 1034480 - Contorno" d="M-8030.771-8671.691l.6.332,29.222,16.109-1.019.244-28.8,6.909Zm27.6,16.141-26.786-14.767v21.192Z" transform="translate(8068.968 8762.12)"/>
      <path id="Trazado_1034481-2" data-name="Trazado 1034481" d="M-8046.454-8650.945l-24.135,6.464-32.775-13.188v3.646l32.775,12.981,28.8-6.97Z" transform="translate(8108.969 8754.733)" fill="url(#linear-gradient)"/>
      <path id="Trazado_1034481_-_Contorno-2" data-name="Trazado 1034481 - Contorno" d="M-8103.864-8658.41l.557.223,32.649,13.139,24.175-6.474.15.095,5.474,3.442-.934.226-28.92,7-.12-.048-33.031-13.084Zm33.155,14.215-.126-.05-32.218-12.965v2.77l32.4,12.834,27.737-6.715-3.7-2.325Z" transform="translate(8109.063 8754.873)"/>
      <path id="Trazado_1034482-2" data-name="Trazado 1034482" d="M-8030.271-8665.873s14.236,5.424,25.522,11.26c7.471,3.863,16.167,9.917,25.478,14.932,4.547,2.449,10.687,4.131,20.447,5.457,12.334,1.677,22.893-.479,36.754-1.883,18.465-1.872,33.885-3.574,33.885-3.574s26.585-4.445,39.52-9.708,12.262-11.7,12.262-11.7-9.637,8.17-34.874,13.7-37.989,6.258-66.55,8.719c-8.912.768-19.022,1.153-25.881,0-14.742-2.48-21.507-8.719-21.507-8.719l-45.056-25.235Z" transform="translate(8068.873 8762.938)" fill="#72390f"/>
      <path id="Trazado_1034482_-_Contorno-2" data-name="Trazado 1034482 - Contorno" d="M-8030.771-8673.479l.6.338,45.1,25.259.035.032a26.969,26.969,0,0,0,5.174,3.388,47.033,47.033,0,0,0,6.637,2.846,59.61,59.61,0,0,0,9.488,2.384,67.158,67.158,0,0,0,10.794.721c4.35,0,9.391-.243,14.984-.724,2.694-.233,5.23-.448,7.684-.657,23.2-1.968,35.984-3.054,58.814-8.056a141.952,141.952,0,0,0,16.016-4.446,95.5,95.5,0,0,0,10.75-4.423,42.685,42.685,0,0,0,7.933-4.742l.585-.5.08.763a6.993,6.993,0,0,1-1.342,4.135,15.548,15.548,0,0,1-3.7,3.879,32.432,32.432,0,0,1-7.467,4.1,102.7,102.7,0,0,1-11.679,3.754c-3.82,1.025-8.194,2.066-13,3.1-8.177,1.75-14.861,2.872-14.927,2.883l-.022,0c-.154.017-15.632,1.724-33.888,3.574-3.056.311-5.947.655-8.743.989a158.1,158.1,0,0,1-18.743,1.5,68.935,68.935,0,0,1-9.363-.612,99.262,99.262,0,0,1-12.23-2.319,38.6,38.6,0,0,1-8.355-3.184c-4.631-2.494-9.065-5.217-13.354-7.852-4.3-2.644-8.369-5.138-12.118-7.076-11.139-5.761-25.339-11.189-25.482-11.243l-.261-.1Zm45.224,26.259-44.413-24.874v5.779c1.994.77,14.961,5.831,25.3,11.179,3.776,1.953,7.854,4.457,12.17,7.107,4.279,2.628,8.7,5.345,13.314,7.828a37.9,37.9,0,0,0,8.18,3.115,98.769,98.769,0,0,0,12.129,2.3,68.117,68.117,0,0,0,9.253.605,157.912,157.912,0,0,0,18.647-1.5c2.8-.336,5.694-.682,8.758-.992,18.042-1.829,33.371-3.517,33.869-3.571.311-.053,6.88-1.163,14.884-2.877,7.522-1.61,17.886-4.1,24.539-6.807a31.753,31.753,0,0,0,7.223-3.951,14.935,14.935,0,0,0,3.523-3.642,7.8,7.8,0,0,0,1.2-2.856,50.255,50.255,0,0,1-7.323,4.267,96.36,96.36,0,0,1-10.852,4.47,143.233,143.233,0,0,1-16.142,4.486c-22.881,5.011-35.682,6.1-58.919,8.07-2.453.208-4.988.424-7.682.655-5.617.483-10.682.729-15.054.729a68.005,68.005,0,0,1-10.929-.733,60.39,60.39,0,0,1-9.645-2.425,47.833,47.833,0,0,1-6.76-2.907A27.7,27.7,0,0,1-7985.547-8647.22Z" transform="translate(8068.968 8763.1)"/>
    </g>
    <g id="Grupo_1177999" data-name="Grupo 1177999" transform="matrix(-0.839, 0.545, -0.545, -0.839, 1249.511, 3676.62)">
      <path id="Línea_638-3" data-name="Línea 638" d="M53.767,5.16,0,2.757.1,0,53.87,2.4Z" transform="translate(0 1.277)" fill="#f6e15c"/>
      <path id="Polígono_5-3" data-name="Polígono 5" d="M5.059,0l5.059,7.358H0Z" transform="translate(58.872 0) rotate(90)" fill="#f6e15c"/>
      <path id="Polígono_5_-_Contorno-5" data-name="Polígono 5 - Contorno" d="M5.059,1.624,1.749,6.439H8.369L5.059,1.624M5.059,0l5.059,7.358H0Z" transform="translate(58.872 0) rotate(90)" fill="#f6e15c"/>
      <path id="Polígono_5_-_Contorno-6" data-name="Polígono 5 - Contorno" d="M5.059,1.624,1.749,6.439H8.369L5.059,1.624M5.059,0l5.059,7.358H0Z" transform="translate(58.872 0) rotate(90)" fill="#f6e15c"/>
    </g>
    <g id="Grupo_1178000" data-name="Grupo 1178000" transform="matrix(-0.839, 0.545, -0.545, -0.839, 1194.626, 3650.019)">
      <path id="Línea_638-4" data-name="Línea 638" d="M53.767,5.16,0,2.757.1,0,53.87,2.4Z" transform="translate(0 1.277)" fill="#f6e15c"/>
      <path id="Polígono_5-4" data-name="Polígono 5" d="M5.059,0l5.059,7.358H0Z" transform="translate(58.872 0) rotate(90)" fill="#f6e15c"/>
      <path id="Polígono_5_-_Contorno-7" data-name="Polígono 5 - Contorno" d="M5.059,1.624,1.749,6.439H8.369L5.059,1.624M5.059,0l5.059,7.358H0Z" transform="translate(58.872 0) rotate(90)" fill="#f6e15c"/>
      <path id="Polígono_5_-_Contorno-8" data-name="Polígono 5 - Contorno" d="M5.059,1.624,1.749,6.439H8.369L5.059,1.624M5.059,0l5.059,7.358H0Z" transform="translate(58.872 0) rotate(90)" fill="#f6e15c"/>
    </g>
    <g id="Grupo_1178001" data-name="Grupo 1178001" transform="matrix(0.588, 0.809, -0.809, 0.588, 989.22, 3617.72)">
      <path id="Línea_638-5" data-name="Línea 638" d="M37.953,0,0,2.4.073,5.161l37.953-2.4Z" transform="translate(0 3.681)" fill="#f6e15c"/>
      <path id="Polígono_5-5" data-name="Polígono 5" d="M5.059,0l5.059,7.358H0Z" transform="translate(43.028 0) rotate(90)" fill="#f6e15c"/>
      <path id="Polígono_5_-_Contorno-9" data-name="Polígono 5 - Contorno" d="M5.059,5.735,1.749.92H8.369L5.059,5.735m0,1.624L10.118,0H0Z" transform="translate(35.669 10.118) rotate(-90)" fill="#f6e15c"/>
      <path id="Polígono_5_-_Contorno-10" data-name="Polígono 5 - Contorno" d="M5.059,5.735,1.749.92H8.369L5.059,5.735m0,1.624L10.118,0H0Z" transform="translate(35.669 10.118) rotate(-90)" fill="#f6e15c"/>
    </g>
  </g>
</svg>
