<svg xmlns="http://www.w3.org/2000/svg" xmlns:xlink="http://www.w3.org/1999/xlink" width="118" height="118" viewBox="0 0 118 118">
  <defs>
    <filter id="Trazado_896985" x="0" y="0" width="118" height="118" filterUnits="userSpaceOnUse">
      <feOffset dy="3" input="SourceAlpha"/>
      <feGaussianBlur stdDeviation="3" result="blur"/>
      <feFlood flood-opacity="0.161"/>
      <feComposite operator="in" in2="blur"/>
      <feComposite in="SourceGraphic"/>
    </filter>
  </defs>
  <g id="Grupo_1177187" data-name="Grupo 1177187" transform="translate(-1158.66 -3843)">
    <g id="Grupo_1111320" data-name="Grupo 1111320" transform="translate(-8.34 -3)">
      <g id="Grupo_1109828" data-name="Grupo 1109828" transform="translate(1176 3852)">
        <g id="Grupo_1098742" data-name="Grupo 1098742">
          <g transform="matrix(1, 0, 0, 1, -9, -6)" filter="url(#Trazado_896985)">
            <g id="Trazado_896985-2" data-name="Trazado 896985" transform="translate(9 6)" fill="#2f5235" opacity="0.859">
              <path d="M 49.99993896484375 98.5 C 43.45182418823242 98.5 37.10037994384766 97.21788787841797 31.12203979492188 94.68926239013672 C 25.34688186645508 92.24657440185547 20.15993881225586 88.74932861328125 15.70529651641846 84.29470062255859 C 11.25066757202148 79.84007263183594 7.753438949584961 74.65312957763672 5.310753345489502 68.87797546386719 C 2.782124757766724 62.89963150024414 1.499996066093445 56.54819107055664 1.499996066093445 50.00007629394531 C 1.499996066093445 43.45181655883789 2.782124757766724 37.10037612915039 5.310753345489502 31.12203216552734 C 7.753438949584961 25.34687614440918 11.25066757202148 20.15993309020996 15.70529651641846 15.70530414581299 C 20.15993881225586 11.25067520141602 25.34688186645508 7.753432273864746 31.12203979492188 5.310746669769287 C 37.10037994384766 2.782118082046509 43.45182418823242 1.500003814697266 49.99993896484375 1.500003814697266 C 56.54805374145508 1.500003814697266 62.89949798583984 2.782118082046509 68.87785339355469 5.310746669769287 C 74.65300750732422 7.753432273864746 79.83995056152344 11.25067520141602 84.29457855224609 15.70530414581299 C 88.74921417236328 20.15993309020996 92.24645233154297 25.34687614440918 94.68914031982422 31.12203216552734 C 97.21776580810547 37.10037612915039 98.49988555908203 43.45181655883789 98.49988555908203 49.99993133544922 C 98.49988555908203 56.54819107055664 97.21776580810547 62.89963150024414 94.68914031982422 68.87797546386719 C 92.24645233154297 74.65312957763672 88.74921417236328 79.84007263183594 84.29457855224609 84.29470062255859 C 79.83995056152344 88.74932861328125 74.65300750732422 92.24657440185547 68.87785339355469 94.68926239013672 C 62.89949798583984 97.21788787841797 56.54805374145508 98.5 49.99993896484375 98.5 Z" stroke="none"/>
              <path d="M 49.99993896484375 3.000007629394531 C 43.65366363525391 3.000007629394531 37.49881744384766 4.242263793945312 31.70636749267578 6.692268371582031 C 26.11000061035156 9.059326171875 21.08332061767578 12.44860076904297 16.76596832275391 16.76596069335938 C 12.44860076904297 21.08332824707031 9.059326171875 26.11000061035156 6.6922607421875 31.70635986328125 C 4.242263793945312 37.49881744384766 3 43.65366363525391 3 50.00006484985352 C 3 56.34634399414062 4.242263793945312 62.50119018554688 6.6922607421875 68.29363250732422 C 9.059326171875 73.88999938964844 12.44860076904297 78.91667938232422 16.76596832275391 83.23403930664062 C 21.08332061767578 87.55140686035156 26.11000061035156 90.94068145751953 31.70636749267578 93.3077392578125 C 37.49881744384766 95.75774383544922 43.65366363525391 97 49.99993896484375 97 C 56.34621429443359 97 62.50106048583984 95.75774383544922 68.29352569580078 93.3077392578125 C 73.88987731933594 90.94068145751953 78.91654968261719 87.55140686035156 83.23392486572266 83.23403930664062 C 87.55127716064453 78.91667938232422 90.9405517578125 73.88999938964844 93.3076171875 68.29363250732422 C 95.75761413574219 62.50119018554688 96.9998779296875 56.34634399414062 96.9998779296875 49.99994277954102 C 96.9998779296875 43.65366363525391 95.75761413574219 37.49881744384766 93.3076171875 31.70635986328125 C 90.94056701660156 26.11000061035156 87.55127716064453 21.08332824707031 83.23392486572266 16.76596069335938 C 78.91654968261719 12.44860076904297 73.88987731933594 9.059310913085938 68.29352569580078 6.692268371582031 C 62.50106048583984 4.242263793945312 56.34621429443359 3.000007629394531 49.99993896484375 3.000007629394531 M 49.99993896484375 7.62939453125e-06 C 77.61415100097656 7.62939453125e-06 99.9998779296875 22.38572692871094 99.9998779296875 49.99994277954102 L 99.9998779296875 50.00006484985352 C 99.9998779296875 77.61426544189453 77.61415100097656 100 49.99993896484375 100 C 22.3857421875 100 0 77.61426544189453 0 50.00006484985352 L 0 49.99994277954102 C 0 22.38572692871094 22.3857421875 7.62939453125e-06 49.99993896484375 7.62939453125e-06 Z" stroke="none" fill="#fff"/>
            </g>
          </g>
          <g id="Rectángulo_400907" data-name="Rectángulo 400907" transform="translate(0 0)" fill="none" stroke="#fff" stroke-width="3">
            <rect width="100" height="100" rx="50" stroke="none"/>
            <rect x="1.5" y="1.5" width="97" height="97" rx="48.5" fill="none"/>
          </g>
        </g>
      </g>
    </g>
    <g id="shoe_1057501" transform="translate(1184.66 3750.676)">
      <path id="Trazado_1033558" data-name="Trazado 1033558" d="M70.809,146.137a3.256,3.256,0,0,0,.989-3.9,3.469,3.469,0,0,0-4.5-1.731,27.633,27.633,0,0,1-20.483.274,3.464,3.464,0,0,0-4.454,1.85h0v0a3.752,3.752,0,0,0-4.026.94,26.49,26.49,0,0,1-19.277,8.24H16.637A9,9,0,0,0,7.5,160.671v1.265a3.857,3.857,0,0,0,3.916,3.8H70.458a28.508,28.508,0,0,0,.351-19.594Z" transform="translate(-6.551 -6.557)" fill="#ce795f"/>
      <path id="Trazado_1033559" data-name="Trazado 1033559" d="M71.247,163.968a29.16,29.16,0,0,0,1.125-7.656,32.452,32.452,0,0,0-1.564-9.981,3.429,3.429,0,0,0-3.516-5.813c-.15.065-.3.127-.452.189A2.756,2.756,0,0,1,65.1,144.44a29.339,29.339,0,0,1-19.378-.909l-3.148-1.261a3.445,3.445,0,0,0-.215.442h0l-.035-.014a3.526,3.526,0,0,0-3.926.914A26.1,26.1,0,0,1,22.967,151.9v3.957a30.152,30.152,0,0,0,9.51-2.913,29.49,29.49,0,0,0,9.809-7.877,3.42,3.42,0,0,0,1.979,2.1,33.475,33.475,0,0,0,22.927.714,28.453,28.453,0,0,1,1.265,8.427v.035a3.715,3.715,0,0,1-3.724,3.688h-7.49l-22.881,2.613H7.5a3.918,3.918,0,0,0,3.915,3.92H9.458a1.959,1.959,0,0,0-1.958,1.96h0a1.959,1.959,0,0,0,1.958,1.96H34.584l22.511-2.613h0a2.612,2.612,0,0,0,2.611,2.613h9.763a2.612,2.612,0,0,0,2.611-2.613v-2.94A.979.979,0,0,0,71.247,163.968Z" transform="translate(-6.551 -6.557)" fill="#a05a4b"/>
      <path id="Trazado_1033560" data-name="Trazado 1033560" d="M66.066,156.586a33.53,33.53,0,0,0-.723-16.509,4.4,4.4,0,0,0-5.015-6.986,25.874,25.874,0,0,1-10.19,2.092,25.518,25.518,0,0,1-9.523-1.819,4.364,4.364,0,0,0-1.63-.316h-.007a4.385,4.385,0,0,0-3.669,1.979,4.6,4.6,0,0,0-4.218,1.425q-.229.252-.465.5l-.049-.053a.978.978,0,0,0-1.437,1.327l.077.083a25.072,25.072,0,0,1-3.11,2.361l-.192-.4a.978.978,0,1,0-1.764.845l.264.552a25.215,25.215,0,0,1-3.623,1.595.977.977,0,0,0-1.954.04v.555a25.042,25.042,0,0,1-6.32.813H10.107A10.118,10.118,0,0,0,0,154.773v1.3a4.865,4.865,0,0,0,.981,2.934h0A.98.98,0,0,0,0,159.99V163.9a.98.98,0,0,0,.978.978h27.06l.112-.007,21.4-2.483V163.9a.979.979,0,0,0,.978.978H65.5a.98.98,0,0,0,.978-.978v-6.348c0-.646-.111-.689-.29-.866A.982.982,0,0,0,66.066,156.586ZM32.539,137.769a2.641,2.641,0,0,1,2.074-.859,4.29,4.29,0,0,0-.034.539,4.381,4.381,0,0,0,.081.833c-.418.489-.878,1-1.387,1.533l-1.318-1.426C32.153,138.185,32.348,137.979,32.539,137.769Zm-1.994,1.975,1.325,1.434a27.617,27.617,0,0,1-4.059,3.048l-.854-1.783A27.028,27.028,0,0,0,30.545,139.744ZM26.108,145.2A28.767,28.767,0,0,1,20.8,147.37v-2.049a27.179,27.179,0,0,0,4.466-1.892Zm38.413,17.725H51.507v-1.631a.98.98,0,0,0-1.092-.972l-22.434,2.6H1.956v-1.956H28.038l.107-.007,22.81-2.5,10.025-.072a.978.978,0,0,0-.007-1.956l-10.082.072-.1.007-22.807,2.5H4.89a2.938,2.938,0,0,1-2.934-2.934v-1.3a8.16,8.16,0,0,1,8.151-8.151h2.413a27.187,27.187,0,0,0,6.32-.752v2.007q-1.124.25-2.272.414a.979.979,0,0,0-1.114.969v.036a.978.978,0,0,0,1.107.969q1.143-.151,2.278-.389v.893a.978.978,0,0,0,1.956,0V149.4a30.641,30.641,0,0,0,6.158-2.44l.589,1.23a.978.978,0,0,0,1.764-.845L28.661,146a29.149,29.149,0,0,0,4.535-3.387l1.161,1.256a.978.978,0,0,0,1.437-1.327l-1.191-1.29q.481-.5.961-1.032a3.723,3.723,0,0,0,2.146,1.386.979.979,0,0,0,.364-1.887,2.444,2.444,0,0,1-1.365-3.172l0-.006,0-.007a2.446,2.446,0,0,1,3.176-1.355,27.818,27.818,0,0,0,21.215-.292,2.445,2.445,0,1,1,1.94,4.489,32.51,32.51,0,0,1-21.372,1.547.978.978,0,0,0-.51,1.888,34.449,34.449,0,0,0,22.483-1.566,31.432,31.432,0,0,1,1.167,8.508,33.752,33.752,0,0,1-.9,7.529.979.979,0,0,0,.608,1.012v4.631Z" transform="translate(0 0)"/>
    </g>
  </g>
</svg>
