<svg xmlns="http://www.w3.org/2000/svg" width="505" height="420" viewBox="0 0 505 420">
  <g id="Grupo_1178131" data-name="Grupo 1178131" transform="translate(-703.051 -1112)">
    <g id="Trazado_1034647" data-name="Trazado 1034647" transform="translate(703.051 1112)" fill="#fff">
      <path d="M 497 418.5 L 8 418.5 C 4.41587495803833 418.5 1.5 415.5841369628906 1.5 412 L 1.5 8 C 1.5 4.41587495803833 4.41587495803833 1.5 8 1.5 L 497 1.5 C 500.5841369628906 1.5 503.5 4.41587495803833 503.5 8 L 503.5 412 C 503.5 415.5841369628906 500.5841369628906 418.5 497 418.5 Z" stroke="none"/>
      <path d="M 8 3 C 5.243011474609375 3 3 5.243011474609375 3 8 L 3 412 C 3 414.7569885253906 5.243011474609375 417 8 417 L 497 417 C 499.7569885253906 417 502 414.7569885253906 502 412 L 502 8 C 502 5.243011474609375 499.7569885253906 3 497 3 L 8 3 M 8 0 L 497 0 C 501.4182739257812 0 505 3.58172607421875 505 8 L 505 412 C 505 416.4182739257812 501.4182739257812 420 497 420 L 8 420 C 3.58172607421875 420 0 416.4182739257812 0 412 L 0 8 C 0 3.58172607421875 3.58172607421875 0 8 0 Z" stroke="none" fill="#2f5235"/>
    </g>
    <path id="Trazado_1034648" data-name="Trazado 1034648" d="M-25.7-3.384A3.923,3.923,0,0,1-26.953-.773a4.093,4.093,0,0,1-2.794.919,3.758,3.758,0,0,1-3.029-1.355,5.451,5.451,0,0,1-1.139-3.625V-5.859a6.076,6.076,0,0,1,.531-2.615,3.966,3.966,0,0,1,1.505-1.732,4.191,4.191,0,0,1,2.256-.6,3.853,3.853,0,0,1,2.725.948A3.971,3.971,0,0,1-25.7-7.236h-1.414a3.064,3.064,0,0,0-.795-1.851,2.4,2.4,0,0,0-1.71-.573,2.516,2.516,0,0,0-2.113,1A4.577,4.577,0,0,0-32.5-5.827v1.034a4.7,4.7,0,0,0,.725,2.764A2.343,2.343,0,0,0-29.747-1a2.706,2.706,0,0,0,1.8-.531,2.947,2.947,0,0,0,.831-1.849Zm1.348-.652A4.681,4.681,0,0,1-23.9-6.13a3.415,3.415,0,0,1,1.274-1.436,3.469,3.469,0,0,1,1.864-.505,3.342,3.342,0,0,1,2.618,1.121,4.311,4.311,0,0,1,1,2.981v.1A4.722,4.722,0,0,1-17.585-1.8,3.365,3.365,0,0,1-18.853-.366a3.509,3.509,0,0,1-1.893.513A3.334,3.334,0,0,1-23.357-.974a4.29,4.29,0,0,1-1-2.966Zm1.362.161a3.39,3.39,0,0,0,.612,2.117,1.957,1.957,0,0,0,1.637.8,1.945,1.945,0,0,0,1.641-.809A3.707,3.707,0,0,0-18.5-4.036a3.384,3.384,0,0,0-.619-2.113,1.968,1.968,0,0,0-1.644-.809,1.946,1.946,0,0,0-1.619.8A3.68,3.68,0,0,0-22.994-3.875Zm11.382-2.834a4.061,4.061,0,0,0-.667-.051,1.786,1.786,0,0,0-1.809,1.135V0h-1.355V-7.925h1.318l.022.916a2.11,2.11,0,0,1,1.89-1.062,1.384,1.384,0,0,1,.6.1Zm.916,2.681a4.642,4.642,0,0,1,.864-2.933A2.733,2.733,0,0,1-7.57-8.071a2.748,2.748,0,0,1,2.2.952V-11.25H-4.01V0H-5.255l-.066-.85a2.759,2.759,0,0,1-2.263,1A2.707,2.707,0,0,1-9.829-.981,4.7,4.7,0,0,1-10.7-3.926Zm1.355.154a3.515,3.515,0,0,0,.557,2.109A1.8,1.8,0,0,0-7.247-1,1.977,1.977,0,0,0-5.365-2.161V-5.8A1.992,1.992,0,0,0-7.233-6.921a1.808,1.808,0,0,0-1.553.769A3.87,3.87,0,0,0-9.342-3.875Zm7.075-.161A4.681,4.681,0,0,1-1.809-6.13,3.415,3.415,0,0,1-.535-7.566a3.469,3.469,0,0,1,1.864-.505A3.342,3.342,0,0,1,3.948-6.951a4.311,4.311,0,0,1,1,2.981v.1A4.722,4.722,0,0,1,4.5-1.8,3.365,3.365,0,0,1,3.237-.366,3.509,3.509,0,0,1,1.344.146,3.334,3.334,0,0,1-1.267-.974a4.29,4.29,0,0,1-1-2.966ZM-.9-3.875A3.39,3.39,0,0,0-.293-1.758a1.957,1.957,0,0,0,1.637.8,1.945,1.945,0,0,0,1.641-.809,3.707,3.707,0,0,0,.608-2.267,3.384,3.384,0,0,0-.619-2.113,1.968,1.968,0,0,0-1.644-.809,1.946,1.946,0,0,0-1.619.8A3.68,3.68,0,0,0-.9-3.875Zm8.833-4.05.044,1a2.888,2.888,0,0,1,2.373-1.143q2.512,0,2.534,2.834V0H11.525V-5.244a1.824,1.824,0,0,0-.392-1.267,1.57,1.57,0,0,0-1.2-.41,1.956,1.956,0,0,0-1.157.352A2.387,2.387,0,0,0,8-5.647V0H6.647V-7.925ZM18.212.146A3.463,3.463,0,0,1,15.59-.912a3.928,3.928,0,0,1-1.011-2.831v-.249a4.756,4.756,0,0,1,.45-2.106,3.514,3.514,0,0,1,1.26-1.45,3.167,3.167,0,0,1,1.754-.524,2.968,2.968,0,0,1,2.4,1.018A4.408,4.408,0,0,1,21.3-4.138v.564H15.934a2.817,2.817,0,0,0,.685,1.893,2.153,2.153,0,0,0,1.666.721A2.36,2.36,0,0,0,19.5-1.252a3.055,3.055,0,0,0,.872-.776l.828.645A3.328,3.328,0,0,1,18.212.146Zm-.168-7.1a1.807,1.807,0,0,0-1.377.6,2.9,2.9,0,0,0-.688,1.674h3.97v-.1a2.581,2.581,0,0,0-.557-1.6A1.7,1.7,0,0,0,18.043-6.958Zm8.657.249a4.061,4.061,0,0,0-.667-.051,1.786,1.786,0,0,0-1.809,1.135V0H22.87V-7.925h1.318l.022.916A2.11,2.11,0,0,1,26.1-8.071a1.384,1.384,0,0,1,.6.1ZM32.545,0a2.846,2.846,0,0,1-.19-.835A3.023,3.023,0,0,1,30.1.146a2.8,2.8,0,0,1-1.923-.663A2.145,2.145,0,0,1,27.426-2.2a2.24,2.24,0,0,1,.941-1.923A4.437,4.437,0,0,1,31.014-4.8h1.318v-.623a1.522,1.522,0,0,0-.425-1.132,1.707,1.707,0,0,0-1.252-.421,1.976,1.976,0,0,0-1.216.366,1.079,1.079,0,0,0-.491.886H27.587a1.87,1.87,0,0,1,.421-1.146,2.874,2.874,0,0,1,1.143-.875,3.844,3.844,0,0,1,1.586-.322,3.133,3.133,0,0,1,2.146.685A2.47,2.47,0,0,1,33.688-5.5v3.647a4.459,4.459,0,0,0,.278,1.736V0ZM30.3-1.033a2.381,2.381,0,0,0,1.208-.33,1.994,1.994,0,0,0,.828-.857V-3.845H31.271q-2.49,0-2.49,1.458a1.234,1.234,0,0,0,.425,1A1.633,1.633,0,0,0,30.3-1.033Z" transform="translate(777.051 1211)" fill="#12263f"/>
    <path id="Trazado_1034649" data-name="Trazado 1034649" d="M-27.971-4.929h-4.622V-1.15h5.369V0H-34V-10.664h6.7v1.15h-5.3v3.435h4.622Zm3.567-3,.044,1a2.888,2.888,0,0,1,2.373-1.143q2.512,0,2.534,2.834V0h-1.355V-5.244A1.824,1.824,0,0,0-21.2-6.511a1.57,1.57,0,0,0-1.2-.41,1.956,1.956,0,0,0-1.157.352,2.387,2.387,0,0,0-.776.923V0h-1.355V-7.925Zm8.833-1.919v1.919h1.479v1.047h-1.479v4.921a1.1,1.1,0,0,0,.2.715A.832.832,0,0,0-14.7-1a3.281,3.281,0,0,0,.645-.088V0A3.951,3.951,0,0,1-15.1.146,1.687,1.687,0,0,1-16.465-.4a2.36,2.36,0,0,1-.461-1.56V-6.877h-1.443V-7.925h1.443V-9.844Zm6.892,3.135a4.061,4.061,0,0,0-.667-.051,1.786,1.786,0,0,0-1.809,1.135V0H-12.51V-7.925h1.318l.022.916A2.11,2.11,0,0,1-9.28-8.071a1.384,1.384,0,0,1,.6.1ZM-4.146.146A3.463,3.463,0,0,1-6.768-.912,3.928,3.928,0,0,1-7.778-3.743v-.249A4.756,4.756,0,0,1-7.328-6.1a3.514,3.514,0,0,1,1.26-1.45,3.167,3.167,0,0,1,1.754-.524,2.968,2.968,0,0,1,2.4,1.018,4.408,4.408,0,0,1,.857,2.915v.564H-6.423a2.817,2.817,0,0,0,.685,1.893,2.153,2.153,0,0,0,1.666.721,2.36,2.36,0,0,0,1.216-.293,3.055,3.055,0,0,0,.872-.776l.828.645A3.328,3.328,0,0,1-4.146.146Zm-.168-7.1a1.807,1.807,0,0,0-1.377.6,2.9,2.9,0,0,0-.688,1.674h3.97v-.1a2.581,2.581,0,0,0-.557-1.6A1.7,1.7,0,0,0-4.314-6.958ZM5.127-2.1a1,1,0,0,0-.414-.853A3.983,3.983,0,0,0,3.27-3.479a6.822,6.822,0,0,1-1.633-.527,2.324,2.324,0,0,1-.894-.732A1.752,1.752,0,0,1,.454-5.75,2.056,2.056,0,0,1,1.278-7.4a3.218,3.218,0,0,1,2.106-.674,3.311,3.311,0,0,1,2.186.7A2.21,2.21,0,0,1,6.409-5.6H5.046a1.223,1.223,0,0,0-.472-.959,1.77,1.77,0,0,0-1.19-.4,1.852,1.852,0,0,0-1.157.322,1.014,1.014,0,0,0-.417.842.822.822,0,0,0,.388.74,4.776,4.776,0,0,0,1.4.476,7.308,7.308,0,0,1,1.644.542,2.4,2.4,0,0,1,.934.758,1.864,1.864,0,0,1,.3,1.08,2.028,2.028,0,0,1-.85,1.7,3.564,3.564,0,0,1-2.2.641A3.991,3.991,0,0,1,1.743-.19,2.74,2.74,0,0,1,.6-1.132,2.268,2.268,0,0,1,.183-2.439H1.538a1.4,1.4,0,0,0,.546,1.08,2.117,2.117,0,0,0,1.344.4,2.185,2.185,0,0,0,1.234-.311A.956.956,0,0,0,5.127-2.1ZM13.14-.784a2.878,2.878,0,0,1-2.322.93A2.464,2.464,0,0,1,8.888-.59a3.186,3.186,0,0,1-.67-2.179V-7.925H9.573v5.12q0,1.8,1.465,1.8A2.028,2.028,0,0,0,13.1-2.161V-7.925h1.355V0H13.169ZM19.8.146A3.463,3.463,0,0,1,17.183-.912a3.928,3.928,0,0,1-1.011-2.831v-.249a4.756,4.756,0,0,1,.45-2.106,3.514,3.514,0,0,1,1.26-1.45,3.167,3.167,0,0,1,1.754-.524,2.968,2.968,0,0,1,2.4,1.018A4.408,4.408,0,0,1,22.9-4.138v.564H17.527a2.817,2.817,0,0,0,.685,1.893,2.153,2.153,0,0,0,1.666.721,2.36,2.36,0,0,0,1.216-.293,3.055,3.055,0,0,0,.872-.776l.828.645A3.328,3.328,0,0,1,19.8.146Zm-.168-7.1a1.807,1.807,0,0,0-1.377.6,2.9,2.9,0,0,0-.688,1.674h3.97v-.1a2.581,2.581,0,0,0-.557-1.6A1.7,1.7,0,0,0,19.636-6.958ZM25.935,0H24.58V-11.25h1.355ZM33,0a2.846,2.846,0,0,1-.19-.835,3.023,3.023,0,0,1-2.256.981,2.8,2.8,0,0,1-1.923-.663A2.145,2.145,0,0,1,27.876-2.2a2.24,2.24,0,0,1,.941-1.923A4.437,4.437,0,0,1,31.465-4.8h1.318v-.623a1.522,1.522,0,0,0-.425-1.132,1.707,1.707,0,0,0-1.252-.421,1.976,1.976,0,0,0-1.216.366,1.079,1.079,0,0,0-.491.886H28.037a1.87,1.87,0,0,1,.421-1.146A2.874,2.874,0,0,1,29.6-7.749a3.844,3.844,0,0,1,1.586-.322,3.133,3.133,0,0,1,2.146.685A2.47,2.47,0,0,1,34.138-5.5v3.647a4.459,4.459,0,0,0,.278,1.736V0ZM30.747-1.033a2.381,2.381,0,0,0,1.208-.33,1.994,1.994,0,0,0,.828-.857V-3.845H31.721q-2.49,0-2.49,1.458a1.234,1.234,0,0,0,.425,1A1.633,1.633,0,0,0,30.747-1.033Z" transform="translate(776.051 1274)" fill="#12263f"/>
    <path id="Trazado_1034650" data-name="Trazado 1034650" d="M-23.434-3.384A3.923,3.923,0,0,1-24.683-.773a4.093,4.093,0,0,1-2.794.919,3.758,3.758,0,0,1-3.029-1.355,5.451,5.451,0,0,1-1.139-3.625V-5.859a6.076,6.076,0,0,1,.531-2.615,3.966,3.966,0,0,1,1.505-1.732,4.191,4.191,0,0,1,2.256-.6,3.853,3.853,0,0,1,2.725.948,3.971,3.971,0,0,1,1.194,2.626h-1.414a3.064,3.064,0,0,0-.795-1.851,2.4,2.4,0,0,0-1.71-.573,2.516,2.516,0,0,0-2.113,1,4.577,4.577,0,0,0-.765,2.837v1.034a4.7,4.7,0,0,0,.725,2.764A2.343,2.343,0,0,0-27.477-1a2.706,2.706,0,0,0,1.8-.531,2.947,2.947,0,0,0,.831-1.849ZM-16.835,0a2.846,2.846,0,0,1-.19-.835,3.023,3.023,0,0,1-2.256.981A2.8,2.8,0,0,1-21.2-.516,2.145,2.145,0,0,1-21.954-2.2a2.24,2.24,0,0,1,.941-1.923A4.437,4.437,0,0,1-18.365-4.8h1.318v-.623a1.522,1.522,0,0,0-.425-1.132,1.707,1.707,0,0,0-1.252-.421,1.976,1.976,0,0,0-1.216.366,1.079,1.079,0,0,0-.491.886h-1.362a1.87,1.87,0,0,1,.421-1.146,2.874,2.874,0,0,1,1.143-.875,3.844,3.844,0,0,1,1.586-.322,3.133,3.133,0,0,1,2.146.685A2.47,2.47,0,0,1-15.692-5.5v3.647a4.459,4.459,0,0,0,.278,1.736V0Zm-2.249-1.033a2.381,2.381,0,0,0,1.208-.33,1.994,1.994,0,0,0,.828-.857V-3.845h-1.062q-2.49,0-2.49,1.458a1.234,1.234,0,0,0,.425,1A1.633,1.633,0,0,0-19.083-1.033Zm6.79-6.892.037.879A2.927,2.927,0,0,1-9.906-8.071,2.266,2.266,0,0,1-7.643-6.8,3,3,0,0,1-6.614-7.72a3.039,3.039,0,0,1,1.5-.352q2.607,0,2.651,2.761V0H-3.82V-5.229A1.82,1.82,0,0,0-4.208-6.5a1.71,1.71,0,0,0-1.3-.421,1.8,1.8,0,0,0-1.252.45,1.827,1.827,0,0,0-.579,1.212V0H-8.7V-5.193A1.512,1.512,0,0,0-10.4-6.921,1.813,1.813,0,0,0-12.22-5.786V0h-1.355V-7.925ZM6.288-3.875A4.712,4.712,0,0,1,5.453-.956,2.668,2.668,0,0,1,3.212.146,2.763,2.763,0,0,1,.89-.916L.824,0H-.421V-11.25H.934v4.2A2.747,2.747,0,0,1,3.2-8.071,2.684,2.684,0,0,1,5.464-6.98a4.853,4.853,0,0,1,.824,2.988ZM4.933-4.028A3.662,3.662,0,0,0,4.4-6.167,1.77,1.77,0,0,0,2.86-6.921,1.989,1.989,0,0,0,.934-5.676v3.428A2.045,2.045,0,0,0,2.875-1a1.76,1.76,0,0,0,1.516-.754A3.894,3.894,0,0,0,4.933-4.028Zm6.892-2.681a4.061,4.061,0,0,0-.667-.051A1.786,1.786,0,0,0,9.349-5.625V0H7.994V-7.925H9.313l.022.916a2.11,2.11,0,0,1,1.89-1.062,1.384,1.384,0,0,1,.6.1ZM14.542,0H13.187V-7.925h1.355ZM13.077-10.027a.809.809,0,0,1,.2-.557.756.756,0,0,1,.6-.227.768.768,0,0,1,.6.227.8.8,0,0,1,.205.557.774.774,0,0,1-.205.549.782.782,0,0,1-.6.22.77.77,0,0,1-.6-.22A.782.782,0,0,1,13.077-10.027Zm3.274,5.991a4.681,4.681,0,0,1,.458-2.095,3.415,3.415,0,0,1,1.274-1.436,3.469,3.469,0,0,1,1.864-.505,3.342,3.342,0,0,1,2.618,1.121,4.311,4.311,0,0,1,1,2.981v.1A4.722,4.722,0,0,1,23.123-1.8,3.365,3.365,0,0,1,21.855-.366a3.509,3.509,0,0,1-1.893.513A3.334,3.334,0,0,1,17.351-.974a4.29,4.29,0,0,1-1-2.966Zm1.362.161a3.39,3.39,0,0,0,.612,2.117,1.957,1.957,0,0,0,1.637.8A1.945,1.945,0,0,0,21.6-1.769a3.707,3.707,0,0,0,.608-2.267,3.384,3.384,0,0,0-.619-2.113,1.968,1.968,0,0,0-1.644-.809,1.946,1.946,0,0,0-1.619.8A3.68,3.68,0,0,0,17.714-3.875Zm2.849-7.375H22.2L20.24-9.1l-1.091,0Zm5.984,3.325.044,1a2.888,2.888,0,0,1,2.373-1.143q2.512,0,2.534,2.834V0H30.143V-5.244a1.824,1.824,0,0,0-.392-1.267,1.57,1.57,0,0,0-1.2-.41A1.956,1.956,0,0,0,27.4-6.57a2.387,2.387,0,0,0-.776.923V0H25.265V-7.925Z" transform="translate(788.051 1377)" fill="#12263f"/>
    <path id="Trazado_1034651" data-name="Trazado 1034651" d="M-11.876-9.514H-15.3V0h-1.4V-9.514h-3.42v-1.15h8.247ZM-6.442,0a2.846,2.846,0,0,1-.19-.835A3.023,3.023,0,0,1-8.888.146a2.8,2.8,0,0,1-1.923-.663A2.145,2.145,0,0,1-11.561-2.2,2.24,2.24,0,0,1-10.62-4.12,4.437,4.437,0,0,1-7.972-4.8h1.318v-.623a1.522,1.522,0,0,0-.425-1.132A1.707,1.707,0,0,0-8.331-6.98a1.976,1.976,0,0,0-1.216.366,1.079,1.079,0,0,0-.491.886H-11.4a1.87,1.87,0,0,1,.421-1.146,2.874,2.874,0,0,1,1.143-.875,3.844,3.844,0,0,1,1.586-.322A3.133,3.133,0,0,1-6.1-7.386,2.47,2.47,0,0,1-5.3-5.5v3.647A4.459,4.459,0,0,0-5.021-.117V0ZM-8.69-1.033a2.381,2.381,0,0,0,1.208-.33,1.994,1.994,0,0,0,.828-.857V-3.845H-7.716q-2.49,0-2.49,1.458a1.234,1.234,0,0,0,.425,1A1.633,1.633,0,0,0-8.69-1.033ZM0-.959A1.952,1.952,0,0,0,1.271-1.4a1.546,1.546,0,0,0,.6-1.1H3.153a2.457,2.457,0,0,1-.469,1.3A3.087,3.087,0,0,1,1.531-.22,3.329,3.329,0,0,1,0,.146,3.265,3.265,0,0,1-2.571-.934a4.3,4.3,0,0,1-.956-2.955v-.227A4.771,4.771,0,0,1-3.1-6.174a3.236,3.236,0,0,1,1.219-1.4A3.464,3.464,0,0,1,0-8.071a3.178,3.178,0,0,1,2.216.8A2.853,2.853,0,0,1,3.153-5.2H1.871a1.867,1.867,0,0,0-.582-1.263A1.811,1.811,0,0,0,0-6.958a1.9,1.9,0,0,0-1.6.743,3.491,3.491,0,0,0-.568,2.15v.256A3.422,3.422,0,0,0-1.608-1.7,1.906,1.906,0,0,0,0-.959ZM4.318-4.036A4.681,4.681,0,0,1,4.775-6.13,3.415,3.415,0,0,1,6.05-7.566a3.469,3.469,0,0,1,1.864-.505,3.342,3.342,0,0,1,2.618,1.121,4.311,4.311,0,0,1,1,2.981v.1A4.722,4.722,0,0,1,11.089-1.8,3.365,3.365,0,0,1,9.822-.366,3.509,3.509,0,0,1,7.928.146,3.334,3.334,0,0,1,5.317-.974a4.29,4.29,0,0,1-1-2.966Zm1.362.161a3.39,3.39,0,0,0,.612,2.117,1.957,1.957,0,0,0,1.637.8,1.945,1.945,0,0,0,1.641-.809,3.707,3.707,0,0,0,.608-2.267,3.384,3.384,0,0,0-.619-2.113,1.968,1.968,0,0,0-1.644-.809,1.946,1.946,0,0,0-1.619.8A3.68,3.68,0,0,0,5.68-3.875ZM8.529-11.25H10.17L8.207-9.1l-1.091,0Zm5.984,3.325.044,1A2.888,2.888,0,0,1,16.93-8.071q2.512,0,2.534,2.834V0H18.109V-5.244a1.824,1.824,0,0,0-.392-1.267,1.57,1.57,0,0,0-1.2-.41,1.956,1.956,0,0,0-1.157.352,2.387,2.387,0,0,0-.776.923V0H13.231V-7.925Z" transform="translate(790.051 1424)" fill="#12263f"/>
    <path id="Trazado_1034652" data-name="Trazado 1034652" d="M-7.822-9.514H-11.25V0h-1.4V-9.514h-3.42v-1.15h8.247ZM-2.388,0a2.846,2.846,0,0,1-.19-.835A3.023,3.023,0,0,1-4.834.146,2.8,2.8,0,0,1-6.757-.516,2.145,2.145,0,0,1-7.507-2.2,2.24,2.24,0,0,1-6.566-4.12,4.437,4.437,0,0,1-3.918-4.8H-2.6v-.623a1.522,1.522,0,0,0-.425-1.132A1.707,1.707,0,0,0-4.277-6.98a1.976,1.976,0,0,0-1.216.366,1.079,1.079,0,0,0-.491.886H-7.346a1.87,1.87,0,0,1,.421-1.146,2.874,2.874,0,0,1,1.143-.875A3.844,3.844,0,0,1-4.2-8.071a3.133,3.133,0,0,1,2.146.685A2.47,2.47,0,0,1-1.245-5.5v3.647A4.459,4.459,0,0,0-.967-.117V0ZM-4.636-1.033a2.381,2.381,0,0,0,1.208-.33A1.994,1.994,0,0,0-2.6-2.219V-3.845H-3.662q-2.49,0-2.49,1.458a1.234,1.234,0,0,0,.425,1A1.633,1.633,0,0,0-4.636-1.033ZM7.573-3.875A4.745,4.745,0,0,1,6.746-.959,2.653,2.653,0,0,1,4.5.146,2.906,2.906,0,0,1,2.234-.769V3.047H.879V-7.925H2.117l.066.879a2.791,2.791,0,0,1,2.3-1.025,2.7,2.7,0,0,1,2.26,1.077,4.8,4.8,0,0,1,.831,3ZM6.218-4.028a3.5,3.5,0,0,0-.571-2.117A1.84,1.84,0,0,0,4.08-6.921,1.992,1.992,0,0,0,2.234-5.83v3.787A2,2,0,0,0,4.094-.959a1.832,1.832,0,0,0,1.549-.773A3.822,3.822,0,0,0,6.218-4.028ZM14.187,0A2.846,2.846,0,0,1,14-.835a3.023,3.023,0,0,1-2.256.981A2.8,2.8,0,0,1,9.818-.516,2.145,2.145,0,0,1,9.067-2.2a2.24,2.24,0,0,1,.941-1.923A4.437,4.437,0,0,1,12.656-4.8h1.318v-.623a1.522,1.522,0,0,0-.425-1.132A1.707,1.707,0,0,0,12.3-6.98a1.976,1.976,0,0,0-1.216.366,1.079,1.079,0,0,0-.491.886H9.229A1.87,1.87,0,0,1,9.65-6.874a2.874,2.874,0,0,1,1.143-.875,3.844,3.844,0,0,1,1.586-.322,3.133,3.133,0,0,1,2.146.685A2.47,2.47,0,0,1,15.33-5.5v3.647a4.459,4.459,0,0,0,.278,1.736V0ZM11.938-1.033a2.381,2.381,0,0,0,1.208-.33,1.994,1.994,0,0,0,.828-.857V-3.845H12.913q-2.49,0-2.49,1.458a1.234,1.234,0,0,0,.425,1A1.633,1.633,0,0,0,11.938-1.033Z" transform="translate(895.051 1507)" fill="#12263f"/>
    <path id="Trazado_1034653" data-name="Trazado 1034653" d="M-14.077-4.753A6.612,6.612,0,0,1-16.71-6.031,2.442,2.442,0,0,1-17.534-7.9a2.58,2.58,0,0,1,1.007-2.084,4,4,0,0,1,2.618-.824,4.369,4.369,0,0,1,1.959.425,3.222,3.222,0,0,1,1.333,1.172,3,3,0,0,1,.472,1.633h-1.414a1.95,1.95,0,0,0-.615-1.525,2.5,2.5,0,0,0-1.736-.555,2.561,2.561,0,0,0-1.622.459,1.53,1.53,0,0,0-.582,1.273,1.376,1.376,0,0,0,.553,1.1A5.424,5.424,0,0,0-13.678-6a8.734,8.734,0,0,1,2.08.825,3.157,3.157,0,0,1,1.113,1.051,2.683,2.683,0,0,1,.363,1.414A2.492,2.492,0,0,1-11.133-.634a4.31,4.31,0,0,1-2.7.78,5.013,5.013,0,0,1-2.051-.421,3.451,3.451,0,0,1-1.469-1.154,2.815,2.815,0,0,1-.516-1.663h1.414a1.837,1.837,0,0,0,.714,1.527A3.007,3.007,0,0,0-13.835-1a2.764,2.764,0,0,0,1.707-.454A1.475,1.475,0,0,0-11.536-2.7a1.448,1.448,0,0,0-.549-1.212A6.333,6.333,0,0,0-14.077-4.753ZM-3.64-.784a2.878,2.878,0,0,1-2.322.93A2.464,2.464,0,0,1-7.892-.59a3.186,3.186,0,0,1-.67-2.179V-7.925h1.355v5.12q0,1.8,1.465,1.8A2.028,2.028,0,0,0-3.677-2.161V-7.925h1.355V0H-3.611Zm6.665.93A3.463,3.463,0,0,1,.4-.912,3.928,3.928,0,0,1-.608-3.743v-.249A4.756,4.756,0,0,1-.157-6.1,3.514,3.514,0,0,1,1.1-7.548a3.167,3.167,0,0,1,1.754-.524,2.968,2.968,0,0,1,2.4,1.018,4.408,4.408,0,0,1,.857,2.915v.564H.747a2.817,2.817,0,0,0,.685,1.893A2.153,2.153,0,0,0,3.1-.959a2.36,2.36,0,0,0,1.216-.293,3.055,3.055,0,0,0,.872-.776l.828.645A3.328,3.328,0,0,1,3.025.146Zm-.168-7.1a1.807,1.807,0,0,0-1.377.6A2.9,2.9,0,0,0,.791-4.687h3.97v-.1A2.581,2.581,0,0,0,4.2-6.39,1.7,1.7,0,0,0,2.856-6.958ZM9.155,0H7.8V-11.25H9.155Zm7.061,0a2.846,2.846,0,0,1-.19-.835A3.023,3.023,0,0,1,13.77.146a2.8,2.8,0,0,1-1.923-.663A2.145,2.145,0,0,1,11.1-2.2a2.24,2.24,0,0,1,.941-1.923A4.437,4.437,0,0,1,14.685-4.8H16v-.623a1.522,1.522,0,0,0-.425-1.132,1.707,1.707,0,0,0-1.252-.421,1.976,1.976,0,0,0-1.216.366,1.079,1.079,0,0,0-.491.886H11.257a1.87,1.87,0,0,1,.421-1.146,2.874,2.874,0,0,1,1.143-.875,3.844,3.844,0,0,1,1.586-.322,3.133,3.133,0,0,1,2.146.685A2.47,2.47,0,0,1,17.358-5.5v3.647a4.459,4.459,0,0,0,.278,1.736V0ZM13.967-1.033a2.381,2.381,0,0,0,1.208-.33A1.994,1.994,0,0,0,16-2.219V-3.845H14.941q-2.49,0-2.49,1.458a1.234,1.234,0,0,0,.425,1A1.633,1.633,0,0,0,13.967-1.033Z" transform="translate(1089.051 1408)" fill="#12263f"/>
    <path id="Trazado_1034654" data-name="Trazado 1034654" d="M-61.736-4.175V0h-1.406V-10.664h3.933a3.952,3.952,0,0,1,2.743.894A3.029,3.029,0,0,1-55.474-7.4a2.989,2.989,0,0,1-.97,2.391,4.128,4.128,0,0,1-2.78.839Zm0-1.15h2.527a2.526,2.526,0,0,0,1.729-.532,1.945,1.945,0,0,0,.6-1.537,2.009,2.009,0,0,0-.6-1.526,2.367,2.367,0,0,0-1.648-.594h-2.607ZM-52.419,0h-1.355V-11.25h1.355Zm7.061,0a2.846,2.846,0,0,1-.19-.835,3.023,3.023,0,0,1-2.256.981,2.8,2.8,0,0,1-1.923-.663A2.145,2.145,0,0,1-50.479-2.2a2.24,2.24,0,0,1,.941-1.923A4.437,4.437,0,0,1-46.89-4.8h1.318v-.623A1.522,1.522,0,0,0-46-6.559a1.707,1.707,0,0,0-1.252-.421,1.976,1.976,0,0,0-1.216.366,1.079,1.079,0,0,0-.491.886h-1.362A1.87,1.87,0,0,1-49.9-6.874a2.874,2.874,0,0,1,1.143-.875,3.844,3.844,0,0,1,1.586-.322,3.133,3.133,0,0,1,2.146.685A2.47,2.47,0,0,1-44.216-5.5v3.647a4.459,4.459,0,0,0,.278,1.736V0Zm-2.249-1.033a2.381,2.381,0,0,0,1.208-.33,1.994,1.994,0,0,0,.828-.857V-3.845h-1.062q-2.49,0-2.49,1.458a1.234,1.234,0,0,0,.425,1A1.633,1.633,0,0,0-47.607-1.033Zm6.8-6.892.044,1a2.888,2.888,0,0,1,2.373-1.143q2.512,0,2.534,2.834V0h-1.355V-5.244a1.824,1.824,0,0,0-.392-1.267,1.57,1.57,0,0,0-1.2-.41,1.956,1.956,0,0,0-1.157.352,2.387,2.387,0,0,0-.776.923V0h-1.355V-7.925Zm8.833-1.919v1.919H-30.5v1.047h-1.479v4.921a1.1,1.1,0,0,0,.2.715A.832.832,0,0,0-31.106-1a3.281,3.281,0,0,0,.645-.088V0A3.951,3.951,0,0,1-31.5.146,1.687,1.687,0,0,1-32.871-.4a2.36,2.36,0,0,1-.461-1.56V-6.877h-1.443V-7.925h1.443V-9.844ZM-27.444,0H-28.8V-7.925h1.355Zm-1.465-10.027a.809.809,0,0,1,.2-.557.756.756,0,0,1,.6-.227.768.768,0,0,1,.6.227.8.8,0,0,1,.205.557.774.774,0,0,1-.205.549.782.782,0,0,1-.6.22.77.77,0,0,1-.6-.22A.782.782,0,0,1-28.909-10.027ZM-23.8,0h-1.355V-11.25H-23.8Zm3.64,0h-1.355V-11.25h1.355ZM-13.1,0a2.846,2.846,0,0,1-.19-.835,3.023,3.023,0,0,1-2.256.981,2.8,2.8,0,0,1-1.923-.663A2.145,2.145,0,0,1-18.223-2.2a2.24,2.24,0,0,1,.941-1.923A4.437,4.437,0,0,1-14.634-4.8h1.318v-.623a1.522,1.522,0,0,0-.425-1.132,1.707,1.707,0,0,0-1.252-.421,1.976,1.976,0,0,0-1.216.366,1.079,1.079,0,0,0-.491.886h-1.362a1.87,1.87,0,0,1,.421-1.146A2.874,2.874,0,0,1-16.5-7.749a3.844,3.844,0,0,1,1.586-.322,3.133,3.133,0,0,1,2.146.685A2.47,2.47,0,0,1-11.96-5.5v3.647a4.459,4.459,0,0,0,.278,1.736V0Zm-2.249-1.033a2.381,2.381,0,0,0,1.208-.33,1.994,1.994,0,0,0,.828-.857V-3.845h-1.062q-2.49,0-2.49,1.458a1.234,1.234,0,0,0,.425,1A1.633,1.633,0,0,0-15.352-1.033ZM-2.834.146A3.463,3.463,0,0,1-5.457-.912,3.928,3.928,0,0,1-6.467-3.743v-.249A4.756,4.756,0,0,1-6.017-6.1a3.514,3.514,0,0,1,1.26-1.45A3.167,3.167,0,0,1-3-8.071,2.968,2.968,0,0,1-.6-7.053,4.408,4.408,0,0,1,.256-4.138v.564H-5.112a2.817,2.817,0,0,0,.685,1.893,2.153,2.153,0,0,0,1.666.721,2.36,2.36,0,0,0,1.216-.293,3.055,3.055,0,0,0,.872-.776l.828.645A3.328,3.328,0,0,1-2.834.146ZM-3-6.958a1.807,1.807,0,0,0-1.377.6,2.9,2.9,0,0,0-.688,1.674H-1.1v-.1a2.581,2.581,0,0,0-.557-1.6A1.7,1.7,0,0,0-3-6.958ZM6.438-2.1a1,1,0,0,0-.414-.853,3.983,3.983,0,0,0-1.443-.524,6.822,6.822,0,0,1-1.633-.527,2.324,2.324,0,0,1-.894-.732A1.752,1.752,0,0,1,1.765-5.75,2.056,2.056,0,0,1,2.589-7.4a3.218,3.218,0,0,1,2.106-.674,3.311,3.311,0,0,1,2.186.7A2.21,2.21,0,0,1,7.72-5.6H6.357a1.223,1.223,0,0,0-.472-.959,1.77,1.77,0,0,0-1.19-.4,1.852,1.852,0,0,0-1.157.322,1.014,1.014,0,0,0-.417.842.822.822,0,0,0,.388.74,4.776,4.776,0,0,0,1.4.476,7.308,7.308,0,0,1,1.644.542,2.4,2.4,0,0,1,.934.758,1.864,1.864,0,0,1,.3,1.08,2.028,2.028,0,0,1-.85,1.7,3.564,3.564,0,0,1-2.2.641A3.991,3.991,0,0,1,3.054-.19a2.74,2.74,0,0,1-1.146-.941,2.268,2.268,0,0,1-.414-1.307H2.849a1.4,1.4,0,0,0,.546,1.08,2.117,2.117,0,0,0,1.344.4,2.185,2.185,0,0,0,1.234-.311A.956.956,0,0,0,6.438-2.1ZM11.4-9.844v1.919h1.479v1.047H11.4v4.921a1.1,1.1,0,0,0,.2.715A.832.832,0,0,0,12.268-1a3.281,3.281,0,0,0,.645-.088V0a3.951,3.951,0,0,1-1.04.146A1.687,1.687,0,0,1,10.5-.4a2.36,2.36,0,0,1-.461-1.56V-6.877H8.6V-7.925h1.443V-9.844Zm6.892,3.135a4.061,4.061,0,0,0-.667-.051,1.786,1.786,0,0,0-1.809,1.135V0H14.458V-7.925h1.318l.022.916a2.11,2.11,0,0,1,1.89-1.062,1.384,1.384,0,0,1,.6.1ZM24.426-.784A2.878,2.878,0,0,1,22.1.146a2.464,2.464,0,0,1-1.93-.736,3.186,3.186,0,0,1-.67-2.179V-7.925h1.355v5.12q0,1.8,1.465,1.8A2.028,2.028,0,0,0,24.39-2.161V-7.925h1.355V0H24.456Zm6.555-.176A1.952,1.952,0,0,0,32.249-1.4a1.546,1.546,0,0,0,.6-1.1h1.282a2.457,2.457,0,0,1-.469,1.3,3.087,3.087,0,0,1-1.154.981,3.329,3.329,0,0,1-1.527.366,3.265,3.265,0,0,1-2.574-1.08,4.3,4.3,0,0,1-.956-2.955v-.227a4.771,4.771,0,0,1,.425-2.058,3.236,3.236,0,0,1,1.219-1.4,3.464,3.464,0,0,1,1.879-.5,3.178,3.178,0,0,1,2.216.8A2.853,2.853,0,0,1,34.131-5.2H32.849a1.867,1.867,0,0,0-.582-1.263,1.811,1.811,0,0,0-1.293-.494,1.9,1.9,0,0,0-1.6.743,3.491,3.491,0,0,0-.568,2.15v.256A3.422,3.422,0,0,0,29.37-1.7,1.906,1.906,0,0,0,30.981-.959Zm6.511-8.884v1.919h1.479v1.047H37.493v4.921a1.1,1.1,0,0,0,.2.715A.832.832,0,0,0,38.364-1a3.281,3.281,0,0,0,.645-.088V0a3.951,3.951,0,0,1-1.04.146A1.687,1.687,0,0,1,36.6-.4a2.36,2.36,0,0,1-.461-1.56V-6.877H34.695V-7.925h1.443V-9.844Zm7.954,9.06a2.878,2.878,0,0,1-2.322.93A2.464,2.464,0,0,1,41.2-.59a3.186,3.186,0,0,1-.67-2.179V-7.925H41.88v5.12q0,1.8,1.465,1.8A2.028,2.028,0,0,0,45.41-2.161V-7.925h1.355V0H45.476Zm7.207-5.925a4.061,4.061,0,0,0-.667-.051,1.786,1.786,0,0,0-1.809,1.135V0H48.823V-7.925h1.318l.022.916a2.11,2.11,0,0,1,1.89-1.062,1.384,1.384,0,0,1,.6.1ZM58.5,0a2.846,2.846,0,0,1-.19-.835,3.023,3.023,0,0,1-2.256.981A2.8,2.8,0,0,1,54.13-.516,2.145,2.145,0,0,1,53.379-2.2,2.24,2.24,0,0,1,54.32-4.12,4.437,4.437,0,0,1,56.968-4.8h1.318v-.623a1.522,1.522,0,0,0-.425-1.132,1.707,1.707,0,0,0-1.252-.421,1.976,1.976,0,0,0-1.216.366,1.079,1.079,0,0,0-.491.886H53.54a1.87,1.87,0,0,1,.421-1.146A2.874,2.874,0,0,1,55.1-7.749a3.844,3.844,0,0,1,1.586-.322,3.133,3.133,0,0,1,2.146.685A2.47,2.47,0,0,1,59.641-5.5v3.647a4.459,4.459,0,0,0,.278,1.736V0ZM56.25-1.033a2.381,2.381,0,0,0,1.208-.33,1.994,1.994,0,0,0,.828-.857V-3.845H57.224q-2.49,0-2.49,1.458a1.234,1.234,0,0,0,.425,1A1.633,1.633,0,0,0,56.25-1.033ZM63.237,0H61.882V-11.25h1.355Z" transform="translate(1110.051 1345)" fill="#12263f"/>
    <path id="Trazado_1034655" data-name="Trazado 1034655" d="M-24.089-3.384A3.923,3.923,0,0,1-25.338-.773a4.093,4.093,0,0,1-2.794.919,3.758,3.758,0,0,1-3.029-1.355A5.451,5.451,0,0,1-32.3-4.834V-5.859a6.076,6.076,0,0,1,.531-2.615,3.966,3.966,0,0,1,1.505-1.732,4.191,4.191,0,0,1,2.256-.6,3.853,3.853,0,0,1,2.725.948,3.971,3.971,0,0,1,1.194,2.626H-25.5A3.064,3.064,0,0,0-26.3-9.088a2.4,2.4,0,0,0-1.71-.573,2.516,2.516,0,0,0-2.113,1,4.577,4.577,0,0,0-.765,2.837v1.034a4.7,4.7,0,0,0,.725,2.764A2.343,2.343,0,0,0-28.132-1a2.706,2.706,0,0,0,1.8-.531A2.947,2.947,0,0,0-25.5-3.384ZM-17.49,0a2.846,2.846,0,0,1-.19-.835,3.023,3.023,0,0,1-2.256.981,2.8,2.8,0,0,1-1.923-.663A2.145,2.145,0,0,1-22.61-2.2a2.24,2.24,0,0,1,.941-1.923A4.437,4.437,0,0,1-19.021-4.8H-17.7v-.623a1.522,1.522,0,0,0-.425-1.132A1.707,1.707,0,0,0-19.38-6.98a1.976,1.976,0,0,0-1.216.366,1.079,1.079,0,0,0-.491.886h-1.362a1.87,1.87,0,0,1,.421-1.146,2.874,2.874,0,0,1,1.143-.875A3.844,3.844,0,0,1-19.3-8.071a3.133,3.133,0,0,1,2.146.685A2.47,2.47,0,0,1-16.348-5.5v3.647a4.459,4.459,0,0,0,.278,1.736V0Zm-2.249-1.033a2.381,2.381,0,0,0,1.208-.33,1.994,1.994,0,0,0,.828-.857V-3.845h-1.062q-2.49,0-2.49,1.458a1.234,1.234,0,0,0,.425,1A1.633,1.633,0,0,0-19.739-1.033ZM-7.529-3.875A4.745,4.745,0,0,1-8.357-.959,2.653,2.653,0,0,1-10.6.146a2.906,2.906,0,0,1-2.271-.916V3.047h-1.355V-7.925h1.238l.066.879a2.791,2.791,0,0,1,2.3-1.025,2.7,2.7,0,0,1,2.26,1.077,4.8,4.8,0,0,1,.831,3Zm-1.355-.154a3.5,3.5,0,0,0-.571-2.117,1.84,1.84,0,0,0-1.567-.776A1.992,1.992,0,0,0-12.869-5.83v3.787a2,2,0,0,0,1.86,1.084,1.832,1.832,0,0,0,1.549-.773A3.822,3.822,0,0,0-8.884-4.028ZM-2.52.146A3.463,3.463,0,0,1-5.142-.912,3.928,3.928,0,0,1-6.152-3.743v-.249A4.756,4.756,0,0,1-5.7-6.1a3.514,3.514,0,0,1,1.26-1.45,3.167,3.167,0,0,1,1.754-.524,2.968,2.968,0,0,1,2.4,1.018A4.408,4.408,0,0,1,.571-4.138v.564H-4.8a2.817,2.817,0,0,0,.685,1.893,2.153,2.153,0,0,0,1.666.721A2.36,2.36,0,0,0-1.23-1.252a3.055,3.055,0,0,0,.872-.776l.828.645A3.328,3.328,0,0,1-2.52.146Zm-.168-7.1a1.807,1.807,0,0,0-1.377.6,2.9,2.9,0,0,0-.688,1.674h3.97v-.1a2.581,2.581,0,0,0-.557-1.6A1.7,1.7,0,0,0-2.688-6.958ZM3.611,0H2.256V-11.25H3.611Zm3.64,0H5.9V-11.25H7.251Zm7.061,0a2.846,2.846,0,0,1-.19-.835,3.023,3.023,0,0,1-2.256.981A2.8,2.8,0,0,1,9.943-.516,2.145,2.145,0,0,1,9.192-2.2a2.24,2.24,0,0,1,.941-1.923A4.437,4.437,0,0,1,12.781-4.8H14.1v-.623a1.522,1.522,0,0,0-.425-1.132,1.707,1.707,0,0,0-1.252-.421,1.976,1.976,0,0,0-1.216.366,1.079,1.079,0,0,0-.491.886H9.353a1.87,1.87,0,0,1,.421-1.146,2.874,2.874,0,0,1,1.143-.875A3.844,3.844,0,0,1,12.5-8.071a3.133,3.133,0,0,1,2.146.685A2.47,2.47,0,0,1,15.454-5.5v3.647a4.459,4.459,0,0,0,.278,1.736V0ZM12.063-1.033a2.381,2.381,0,0,0,1.208-.33,1.994,1.994,0,0,0,.828-.857V-3.845H13.037q-2.49,0-2.49,1.458a1.234,1.234,0,0,0,.425,1A1.633,1.633,0,0,0,12.063-1.033Zm5.186-3a4.642,4.642,0,0,1,.864-2.933,2.733,2.733,0,0,1,2.263-1.11,2.748,2.748,0,0,1,2.2.952V-11.25h1.355V0H22.69l-.066-.85a2.759,2.759,0,0,1-2.263,1A2.707,2.707,0,0,1,18.116-.981a4.7,4.7,0,0,1-.868-2.944Zm1.355.154a3.515,3.515,0,0,0,.557,2.109A1.8,1.8,0,0,0,20.7-1a1.977,1.977,0,0,0,1.882-1.157V-5.8a1.992,1.992,0,0,0-1.868-1.121,1.808,1.808,0,0,0-1.553.769A3.87,3.87,0,0,0,18.6-3.875ZM30.93,0a2.846,2.846,0,0,1-.19-.835,3.023,3.023,0,0,1-2.256.981,2.8,2.8,0,0,1-1.923-.663A2.145,2.145,0,0,1,25.811-2.2a2.24,2.24,0,0,1,.941-1.923A4.437,4.437,0,0,1,29.4-4.8h1.318v-.623a1.522,1.522,0,0,0-.425-1.132,1.707,1.707,0,0,0-1.252-.421,1.976,1.976,0,0,0-1.216.366,1.079,1.079,0,0,0-.491.886H25.972a1.87,1.87,0,0,1,.421-1.146,2.874,2.874,0,0,1,1.143-.875,3.844,3.844,0,0,1,1.586-.322,3.133,3.133,0,0,1,2.146.685A2.47,2.47,0,0,1,32.073-5.5v3.647a4.459,4.459,0,0,0,.278,1.736V0ZM28.682-1.033a2.381,2.381,0,0,0,1.208-.33,1.994,1.994,0,0,0,.828-.857V-3.845H29.656q-2.49,0-2.49,1.458a1.234,1.234,0,0,0,.425,1A1.633,1.633,0,0,0,28.682-1.033Z" transform="translate(1089.051 1211)" fill="#12263f"/>
    <path id="Trazado_1034656" data-name="Trazado 1034656" d="M-28.341-1.15h5.054V0h-6.467V-10.664h1.414Zm9.734,1.3A3.463,3.463,0,0,1-21.229-.912,3.928,3.928,0,0,1-22.24-3.743v-.249A4.756,4.756,0,0,1-21.79-6.1a3.514,3.514,0,0,1,1.26-1.45,3.167,3.167,0,0,1,1.754-.524,2.968,2.968,0,0,1,2.4,1.018,4.408,4.408,0,0,1,.857,2.915v.564h-5.369A2.817,2.817,0,0,0-20.2-1.681a2.153,2.153,0,0,0,1.666.721,2.36,2.36,0,0,0,1.216-.293,3.055,3.055,0,0,0,.872-.776l.828.645A3.328,3.328,0,0,1-18.607.146Zm-.168-7.1a1.807,1.807,0,0,0-1.377.6,2.9,2.9,0,0,0-.688,1.674h3.97v-.1a2.581,2.581,0,0,0-.557-1.6A1.7,1.7,0,0,0-18.776-6.958Zm6.108-.967.044,1A2.888,2.888,0,0,1-10.25-8.071q2.512,0,2.534,2.834V0H-9.071V-5.244a1.824,1.824,0,0,0-.392-1.267,1.57,1.57,0,0,0-1.2-.41,1.956,1.956,0,0,0-1.157.352,2.387,2.387,0,0,0-.776.923V0h-1.355V-7.925Zm6.672,3.9a4.658,4.658,0,0,1,.857-2.948A2.741,2.741,0,0,1-2.867-8.071,2.726,2.726,0,0,1-.6-7.046l.066-.879H.7V-.19A3.224,3.224,0,0,1-.212,2.234a3.365,3.365,0,0,1-2.45.886A4.076,4.076,0,0,1-4.34,2.754a2.887,2.887,0,0,1-1.252-1l.7-.813A2.65,2.65,0,0,0-2.758,2.014a2.076,2.076,0,0,0,1.542-.557A2.128,2.128,0,0,0-.663-.11V-.791A2.785,2.785,0,0,1-2.882.146,2.707,2.707,0,0,1-5.134-.974,4.9,4.9,0,0,1-5.995-4.028Zm1.362.154a3.553,3.553,0,0,0,.549,2.106A1.785,1.785,0,0,0-2.545-1,1.985,1.985,0,0,0-.663-2.168V-5.786A2.008,2.008,0,0,0-2.531-6.921a1.8,1.8,0,0,0-1.545.769A3.87,3.87,0,0,0-4.633-3.875ZM7.635-.784a2.878,2.878,0,0,1-2.322.93A2.464,2.464,0,0,1,3.384-.59a3.186,3.186,0,0,1-.67-2.179V-7.925H4.069v5.12Q4.069-1,5.533-1A2.028,2.028,0,0,0,7.6-2.161V-7.925H8.954V0H7.665ZM3.512-10.045a.8.8,0,0,1,.2-.556.761.761,0,0,1,.6-.224.773.773,0,0,1,.6.224.793.793,0,0,1,.205.556.78.78,0,0,1-.205.552.78.78,0,0,1-.6.221.768.768,0,0,1-.6-.221A.788.788,0,0,1,3.512-10.045Zm3.149.015a.815.815,0,0,1,.2-.559.754.754,0,0,1,.6-.228.766.766,0,0,1,.6.228.806.806,0,0,1,.205.559.78.78,0,0,1-.205.552.78.78,0,0,1-.6.221.768.768,0,0,1-.6-.221A.788.788,0,0,1,6.661-10.031ZM14.3.146A3.463,3.463,0,0,1,11.678-.912a3.928,3.928,0,0,1-1.011-2.831v-.249a4.756,4.756,0,0,1,.45-2.106,3.514,3.514,0,0,1,1.26-1.45,3.167,3.167,0,0,1,1.754-.524,2.968,2.968,0,0,1,2.4,1.018,4.408,4.408,0,0,1,.857,2.915v.564H12.023a2.817,2.817,0,0,0,.685,1.893,2.153,2.153,0,0,0,1.666.721,2.36,2.36,0,0,0,1.216-.293,3.055,3.055,0,0,0,.872-.776l.828.645A3.328,3.328,0,0,1,14.3.146Zm-.168-7.1a1.807,1.807,0,0,0-1.377.6,2.9,2.9,0,0,0-.688,1.674h3.97v-.1a2.581,2.581,0,0,0-.557-1.6A1.7,1.7,0,0,0,14.132-6.958ZM20.8-9.844v1.919h1.479v1.047H20.8v4.921a1.1,1.1,0,0,0,.2.715A.832.832,0,0,0,21.669-1a3.281,3.281,0,0,0,.645-.088V0a3.951,3.951,0,0,1-1.04.146A1.687,1.687,0,0,1,19.9-.4a2.36,2.36,0,0,1-.461-1.56V-6.877H18V-7.925h1.443V-9.844ZM28.751,0a2.846,2.846,0,0,1-.19-.835A3.023,3.023,0,0,1,26.3.146a2.8,2.8,0,0,1-1.923-.663A2.145,2.145,0,0,1,23.632-2.2a2.24,2.24,0,0,1,.941-1.923A4.437,4.437,0,0,1,27.22-4.8h1.318v-.623a1.522,1.522,0,0,0-.425-1.132,1.707,1.707,0,0,0-1.252-.421,1.976,1.976,0,0,0-1.216.366,1.079,1.079,0,0,0-.491.886H23.793a1.87,1.87,0,0,1,.421-1.146,2.874,2.874,0,0,1,1.143-.875,3.844,3.844,0,0,1,1.586-.322,3.133,3.133,0,0,1,2.146.685A2.47,2.47,0,0,1,29.894-5.5v3.647a4.459,4.459,0,0,0,.278,1.736V0ZM26.5-1.033a2.381,2.381,0,0,0,1.208-.33,1.994,1.994,0,0,0,.828-.857V-3.845H27.477q-2.49,0-2.49,1.458a1.234,1.234,0,0,0,.425,1A1.633,1.633,0,0,0,26.5-1.033Z" transform="translate(1059.051 1151)" fill="#12263f"/>
    <path id="Trazado_1034445" data-name="Trazado 1034445" d="M-7740.1-10422.548s-29.656-15.076-38.017-14.433-10.689,13.252,3.984,19.243S-7740.1-10422.548-7740.1-10422.548Z" transform="translate(8651.051 11609)" fill="#cea689" stroke="#12263f" stroke-linecap="round" stroke-width="2"/>
    <path id="Trazado_1034446" data-name="Trazado 1034446" d="M-7724.726-10431.8c-11.261,2.857-7.753,8.28-28.077,14.758-8.435,2.688-18.622,1.471-24.182-2.054a18.768,18.768,0,0,1-8.126-12.7s-14.074,33.573-13.474,43.08.425,21.322,18.1,25.672,20.237,7.411,20.237,7.411,2.2-27.693,21.8-27.83,39.681,14.705,39.681,14.705l24.217-27.55s-9.392-18.522-21.937-27.395S-7713.465-10434.657-7724.726-10431.8Z" transform="translate(8651.051 11609)" fill="#c3916e" stroke="#12263f" stroke-linecap="round" stroke-width="2"/>
    <path id="Trazado_1034448" data-name="Trazado 1034448" d="M-7703.931-10438.185c-9.858-2.225-18.144,5.89-18.144,5.89s14.333.655,26.1,8.9c12.206,8.549,20.708,27.366,20.708,27.366a32.276,32.276,0,0,1,8.032-5.441,11.954,11.954,0,0,1,8.436,0l-22.476-21.925S-7694.072-10435.96-7703.931-10438.185Z" transform="translate(8651.051 11609)" fill="#8b5a38" stroke="#12263f" stroke-linecap="round" stroke-width="2"/>
    <path id="Trazado_1034449" data-name="Trazado 1034449" d="M-7685.243-10401.207a92.935,92.935,0,0,1,10.336-6.629,42.094,42.094,0,0,1,7.578-3.076c.818-.286,2.273-4.988-4.668-3.175s-16.894,10-16.894,10Z" transform="translate(8651.051 11609)" fill="#fff" stroke="#12263f" stroke-linecap="round" stroke-width="2"/>
    <path id="Trazado_1034450" data-name="Trazado 1034450" d="M-7685.243-10401.207a92.935,92.935,0,0,1,10.336-6.629,42.094,42.094,0,0,1,7.578-3.076c.818-.286,2.273-4.988-4.668-3.175s-16.894,10-16.894,10Z" transform="translate(8644.359 11602.994)" fill="#fff" stroke="#12263f" stroke-linecap="round" stroke-width="2"/>
    <path id="Trazado_1034451" data-name="Trazado 1034451" d="M-7685.243-10401.207a92.935,92.935,0,0,1,10.336-6.629,42.094,42.094,0,0,1,7.578-3.076c.818-.286,2.273-4.988-4.668-3.175s-16.894,10-16.894,10Z" transform="translate(8638.359 11597.95)" fill="#fff" stroke="#12263f" stroke-linecap="round" stroke-width="2"/>
    <path id="Trazado_1034452" data-name="Trazado 1034452" d="M-7685.243-10401.207a92.935,92.935,0,0,1,10.336-6.629,42.094,42.094,0,0,1,7.578-3.076c.818-.286,2.273-4.988-4.668-3.175s-16.894,10-16.894,10Z" transform="translate(8631.113 11591.657)" fill="#fff" stroke="#12263f" stroke-linecap="round" stroke-width="2"/>
    <path id="Trazado_1034453" data-name="Trazado 1034453" d="M-7685.243-10401.207a92.935,92.935,0,0,1,10.336-6.629,42.094,42.094,0,0,1,7.578-3.076c.818-.286,2.273-4.988-4.668-3.175s-16.894,10-16.894,10Z" transform="translate(8623.475 11585.149)" fill="#fff" stroke="#12263f" stroke-linecap="round" stroke-width="2"/>
    <g id="Trazado_1034657" data-name="Trazado 1034657" transform="translate(959.051 1204)" fill="#fff" stroke-linecap="round">
      <path d="M 3.5 6 C 2.121500015258789 6 1 4.878499984741211 1 3.5 C 1 2.121500015258789 2.121500015258789 1 3.5 1 C 4.878499984741211 1 6 2.121500015258789 6 3.5 C 6 4.878499984741211 4.878499984741211 6 3.5 6 Z" stroke="none"/>
      <path d="M 3.5 2 C 2.672900199890137 2 2 2.672900199890137 2 3.5 C 2 4.327099800109863 2.672900199890137 5 3.5 5 C 4.327099800109863 5 5 4.327099800109863 5 3.5 C 5 2.672900199890137 4.327099800109863 2 3.5 2 M 3.5 0 C 5.433000087738037 0 7 1.566999912261963 7 3.5 C 7 5.433000087738037 5.433000087738037 7 3.5 7 C 1.566999912261963 7 0 5.433000087738037 0 3.5 C 0 1.566999912261963 1.566999912261963 0 3.5 0 Z" stroke="none" fill="#12263f"/>
    </g>
    <g id="Trazado_1034658" data-name="Trazado 1034658" transform="translate(952.359 1197.994)" fill="#fff" stroke-linecap="round">
      <path d="M 3.5 6 C 2.121500015258789 6 1 4.878499984741211 1 3.5 C 1 2.121500015258789 2.121500015258789 1 3.5 1 C 4.878499984741211 1 6 2.121500015258789 6 3.5 C 6 4.878499984741211 4.878499984741211 6 3.5 6 Z" stroke="none"/>
      <path d="M 3.5 2 C 2.672900199890137 2 2 2.672900199890137 2 3.5 C 2 4.327099800109863 2.672900199890137 5 3.5 5 C 4.327099800109863 5 5 4.327099800109863 5 3.5 C 5 2.672900199890137 4.327099800109863 2 3.5 2 M 3.5 0 C 5.433000087738037 0 7 1.566999912261963 7 3.5 C 7 5.433000087738037 5.433000087738037 7 3.5 7 C 1.566999912261963 7 0 5.433000087738037 0 3.5 C 0 1.566999912261963 1.566999912261963 0 3.5 0 Z" stroke="none" fill="#12263f"/>
    </g>
    <g id="Trazado_1034659" data-name="Trazado 1034659" transform="translate(946.358 1192.95)" fill="#fff" stroke-linecap="round">
      <path d="M 3.5 6 C 2.121500015258789 6 1 4.878499984741211 1 3.5 C 1 2.121500015258789 2.121500015258789 1 3.5 1 C 4.878499984741211 1 6 2.121500015258789 6 3.5 C 6 4.878499984741211 4.878499984741211 6 3.5 6 Z" stroke="none"/>
      <path d="M 3.5 2 C 2.672900199890137 2 2 2.672900199890137 2 3.5 C 2 4.327099800109863 2.672900199890137 5 3.5 5 C 4.327099800109863 5 5 4.327099800109863 5 3.5 C 5 2.672900199890137 4.327099800109863 2 3.5 2 M 3.5 0 C 5.433000087738037 0 7 1.566999912261963 7 3.5 C 7 5.433000087738037 5.433000087738037 7 3.5 7 C 1.566999912261963 7 0 5.433000087738037 0 3.5 C 0 1.566999912261963 1.566999912261963 0 3.5 0 Z" stroke="none" fill="#12263f"/>
    </g>
    <g id="Trazado_1034660" data-name="Trazado 1034660" transform="translate(939.358 1186.596)" fill="#fff" stroke-linecap="round">
      <path d="M 3.5 6 C 2.121500015258789 6 1 4.878499984741211 1 3.5 C 1 2.121500015258789 2.121500015258789 1 3.5 1 C 4.878499984741211 1 6 2.121500015258789 6 3.5 C 6 4.878499984741211 4.878499984741211 6 3.5 6 Z" stroke="none"/>
      <path d="M 3.5 2 C 2.672900199890137 2 2 2.672900199890137 2 3.5 C 2 4.327099800109863 2.672900199890137 5 3.5 5 C 4.327099800109863 5 5 4.327099800109863 5 3.5 C 5 2.672900199890137 4.327099800109863 2 3.5 2 M 3.5 0 C 5.433000087738037 0 7 1.566999912261963 7 3.5 C 7 5.433000087738037 5.433000087738037 7 3.5 7 C 1.566999912261963 7 0 5.433000087738037 0 3.5 C 0 1.566999912261963 1.566999912261963 0 3.5 0 Z" stroke="none" fill="#12263f"/>
    </g>
    <g id="Trazado_1034661" data-name="Trazado 1034661" transform="translate(931.475 1180.149)" fill="#fff" stroke-linecap="round">
      <path d="M 3.5 6 C 2.121500015258789 6 1 4.878499984741211 1 3.5 C 1 2.121500015258789 2.121500015258789 1 3.5 1 C 4.878499984741211 1 6 2.121500015258789 6 3.5 C 6 4.878499984741211 4.878499984741211 6 3.5 6 Z" stroke="none"/>
      <path d="M 3.5 2 C 2.672900199890137 2 2 2.672900199890137 2 3.5 C 2 4.327099800109863 2.672900199890137 5 3.5 5 C 4.327099800109863 5 5 4.327099800109863 5 3.5 C 5 2.672900199890137 4.327099800109863 2 3.5 2 M 3.5 0 C 5.433000087738037 0 7 1.566999912261963 7 3.5 C 7 5.433000087738037 5.433000087738037 7 3.5 7 C 1.566999912261963 7 0 5.433000087738037 0 3.5 C 0 1.566999912261963 1.566999912261963 0 3.5 0 Z" stroke="none" fill="#12263f"/>
    </g>
    <path id="Trazado_1034454" data-name="Trazado 1034454" d="M-7763.6-10433v17.366s14.894-.863,21.655-5.212a16.756,16.756,0,0,0,1.643-1.438l-8.39-4.3Z" transform="translate(8651.051 11609)" fill="#c3916e" stroke="#12263f" stroke-linecap="round" stroke-width="2"/>
    <path id="Trazado_1034447" data-name="Trazado 1034447" d="M-7659.452-10402.43s-5.491-2.065-15.312,6.421-23.972,27.524-23.972,27.524-28.537-17.783-43.9-14.537-17.54,27.521-17.54,27.521,10.356,5.457,24.827,14.109c10.37,6.2,22.8,15.474,36.608,18.814,15,3.63,23.7.719,32.477,0,9.511-.777,18.9.2,35.105-1.7a264.884,264.884,0,0,0,53.592-12.007s10.684-13.842,0-23.231-18.417-4.041-42.735-14.326A110.872,110.872,0,0,1-7659.452-10402.43Z" transform="translate(8651.051 11609)" fill="#cea689" stroke="#12263f" stroke-linecap="round" stroke-width="2"/>
    <path id="Trazado_1034456" data-name="Trazado 1034456" d="M-7719.576-10319.188s19.838,9.746,41.423,13.649,44.914,1.964,44.914,1.964,41.8,1.249,42.7,8.073-7.535,13.521-39.08,19.223c-16.656,3.011-30.909,3.925-45.871,5.22-12.905,1.117-26.5,2.971-41.3,0-14.018-2.813-20.323-10.046-27.509-14.405-8.351-5.063-16.912-7.709-30.257-16.154-3.547-2.245-22.454-7.76-25.742-10.077-17.49-12.326-11.228-19.276-11.228-19.276Z" transform="translate(8651.051 11609)" fill="#b46a35" stroke="#12263f" stroke-linecap="round" stroke-width="2"/>
    <path id="Trazado_1034455" data-name="Trazado 1034455" d="M-7809.46-10334.61c5.878-8.176,12.677-21.785,94.429,18.253,32.21,15.775,37.777,16.108,72.1,17.107,28.814-1.952,44.961-.393,46.6,3.361,2.71,6.194-1.564,10.436-33.492,16.01-19.029,3.322-34.477,4.045-51.313,4.671-10.911.407-30.394-.265-40.777-3.046-14.933-4-18.335-10.7-30.926-17.635-8.4-7.417-22.554-9.693-32.7-15.1C-7808.624-10319.439-7815.338-10326.435-7809.46-10334.61Z" transform="translate(8651.051 11609)" fill="#e3b696" stroke="#12263f" stroke-linecap="round" stroke-width="2"/>
    <path id="Trazado_1034457" data-name="Trazado 1034457" d="M-7809.46-10334.61c5.878-8.176,12.677-21.785,94.429,18.253,32.21,15.775,37.61,14.094,71.932,15.093,28.814-1.952,45.128,1.622,46.771,5.376,2.71,6.194-1.564,10.436-33.492,16.01-19.029,3.322-32.06,5.6-48.9,6.228-10.911.407-25.93,1.225-36.313-1.557-14.933-4-25.216-13.747-37.807-20.681-8.4-7.417-22.554-9.693-32.7-15.1C-7808.624-10319.439-7815.338-10326.435-7809.46-10334.61Z" transform="translate(8653.068 11673)" fill="#b46a35" stroke="#12263f" stroke-linecap="round" stroke-width="2"/>
    <path id="Trazado_1034465" data-name="Trazado 1034465" d="M-7823.4-10150.255l18.217-10.235,48.674,13.525-27.391,9.268Z" transform="translate(8651.051 11609)" fill="#b46a35" stroke="#12263f" stroke-linejoin="bevel" stroke-width="2"/>
    <path id="Trazado_1034466" data-name="Trazado 1034466" d="M-7755.865-10140.36l-28.232,8.989v-6.075l28.232-9.429Z" transform="translate(8651.051 11609)" fill="#6a3b1b" stroke="#12263f" stroke-linecap="round" stroke-linejoin="round" stroke-width="2"/>
    <path id="Trazado_1034467" data-name="Trazado 1034467" d="M-7824.848-10142.835v-7.534l39.868,13.045v6.463Z" transform="translate(8652.498 11609)" fill="#8b5a38" stroke="#12263f" stroke-linejoin="bevel" stroke-width="2"/>
    <path id="Trazado_1034462" data-name="Trazado 1034462" d="M-7752.351-10160.517l-31.2,9.924v-21.673l8.1-4.9Z" transform="translate(8651.051 11609)" fill="#6a3b1b" stroke="#12263f" stroke-linecap="round" stroke-width="2"/>
    <path id="Trazado_1034463" data-name="Trazado 1034463" d="M-7823.525-10184.559c1.923.238,39.855,12.638,39.855,12.638v21.666l-41.039-11.528S-7825.448-10184.8-7823.525-10184.559Z" transform="translate(8651.051 11609)" fill="#8b5a38" stroke="#12263f" stroke-linejoin="bevel" stroke-width="2"/>
    <path id="Trazado_1034464" data-name="Trazado 1034464" d="M-7815.3-10191.767l-8.1,6.771,39.473,13.565,8.572-5.7Z" transform="translate(8651.051 11609)" fill="#b46a35" stroke="#12263f" stroke-linecap="round" stroke-width="2"/>
    <path id="Trazado_1034459" data-name="Trazado 1034459" d="M-7807.606-10330.6c6.462-9.808,15.619-30.686,105.493,17.341,35.411,18.921,39.744,12.589,77.476,13.786,31.677-2.341,46.446,4.694,48.251,9.2,2.979,7.431-.19,15.262-35.29,21.949-20.92,3.986-34.521,5.692-53.031,6.442-12,.489-29.326.662-40.742-2.674-16.417-4.8-27.722-13.49-41.563-21.808-9.236-8.9-26-9.263-37.15-15.749C-7809.541-10312.254-7814.068-10320.8-7807.606-10330.6Z" transform="translate(8635.274 11727.785)" fill="#b46a35" stroke="#12263f" stroke-linejoin="bevel" stroke-width="2"/>
    <path id="Trazado_1034458" data-name="Trazado 1034458" d="M-7809.386-10334.081c6.091-8.656,13.138-23.065,97.862,19.325,33.382,16.7,38.979,14.922,74.548,15.979,29.862-2.066,46.273,1.718,47.975,5.691,2.809,6.559-1.125,11.049-34.213,16.951-19.721,3.518-32.453,4-49.9,4.658-11.308.432-27.646.584-38.407-2.36-15.476-4.235-26.133-11.907-39.181-19.249-8.707-7.853-23.374-10.263-33.891-15.987C-7808.52-10318.019-7815.478-10325.425-7809.386-10334.081Z" transform="translate(8642.059 11731.864)" fill="#e3b696" stroke="#12263f" stroke-linejoin="bevel" stroke-width="2"/>
    <path id="Trazado_1034461" data-name="Trazado 1034461" d="M-7738.757-10188.761c-27.649-11.041-52.661-34.038-63.066-22.031s26.893,22.595,54.542,33.636,48.068,18.617,57.64,9.24c6.011-5.889-4.258-5.5-19.653-9.24C-7717.981-10179.267-7728.471-10184.653-7738.757-10188.761Z" transform="translate(8651.051 11609)" fill="#cea689" stroke="#12263f" stroke-width="2"/>
    <path id="Trazado_1034460" data-name="Trazado 1034460" d="M-7797.108-10207.262c.7-10.039,27.543,13.872,52.972,23.468s52.041,9.48,48.743,14.914-55.29-12.321-55.29-12.321S-7797.809-10197.223-7797.108-10207.262Z" transform="translate(8651.051 11609)" fill="#b46a35" stroke="#12263f" stroke-width="2"/>
    <g id="Grupo_1177978" data-name="Grupo 1177978" transform="translate(15 37.994)">
      <path id="Línea_638" data-name="Línea 638" d="M65,1.5H0v-3H65Z" transform="translate(799.551 1165.5)" fill="#f6e15c"/>
      <path id="Polígono_5" data-name="Polígono 5" d="M5.5,0,11,8H0Z" transform="translate(870.051 1160) rotate(90)" fill="#f6e15c"/>
      <path id="Polígono_5_-_Contorno" data-name="Polígono 5 - Contorno" d="M5.5,1.765,1.9,7H9.1L5.5,1.765M5.5,0,11,8H0Z" transform="translate(870.051 1160) rotate(90)" fill="#f6e15c"/>
      <path id="Polígono_5_-_Contorno-2" data-name="Polígono 5 - Contorno" d="M5.5,1.765,1.9,7H9.1L5.5,1.765M5.5,0,11,8H0Z" transform="translate(870.051 1160) rotate(90)" fill="#f6e15c"/>
    </g>
    <g id="Grupo_1177979" data-name="Grupo 1177979" transform="translate(2316.729 1764.704) rotate(150)">
      <path id="Línea_638-2" data-name="Línea 638" d="M65,1.5H0v-3H65Z" transform="translate(799.551 1165.5)" fill="#f6e15c"/>
      <path id="Polígono_5-2" data-name="Polígono 5" d="M5.5,0,11,8H0Z" transform="translate(870.051 1160) rotate(90)" fill="#f6e15c"/>
      <path id="Polígono_5_-_Contorno-3" data-name="Polígono 5 - Contorno" d="M5.5,1.765,1.9,7H9.1L5.5,1.765M5.5,0,11,8H0Z" transform="translate(870.051 1160) rotate(90)" fill="#f6e15c"/>
      <path id="Polígono_5_-_Contorno-4" data-name="Polígono 5 - Contorno" d="M5.5,1.765,1.9,7H9.1L5.5,1.765M5.5,0,11,8H0Z" transform="translate(870.051 1160) rotate(90)" fill="#f6e15c"/>
    </g>
    <g id="Grupo_1177980" data-name="Grupo 1177980" transform="translate(2350.668 1823.335) rotate(150)">
      <path id="Línea_638-3" data-name="Línea 638" d="M65,1.5H0v-3H65Z" transform="translate(799.551 1165.5)" fill="#f6e15c"/>
      <path id="Polígono_5-3" data-name="Polígono 5" d="M5.5,0,11,8H0Z" transform="translate(870.051 1160) rotate(90)" fill="#f6e15c"/>
      <path id="Polígono_5_-_Contorno-5" data-name="Polígono 5 - Contorno" d="M5.5,1.765,1.9,7H9.1L5.5,1.765M5.5,0,11,8H0Z" transform="translate(870.051 1160) rotate(90)" fill="#f6e15c"/>
      <path id="Polígono_5_-_Contorno-6" data-name="Polígono 5 - Contorno" d="M5.5,1.765,1.9,7H9.1L5.5,1.765M5.5,0,11,8H0Z" transform="translate(870.051 1160) rotate(90)" fill="#f6e15c"/>
    </g>
    <g id="Grupo_1177981" data-name="Grupo 1177981" transform="translate(790.393 1265.393) rotate(5)">
      <path id="Línea_638-4" data-name="Línea 638" d="M38.235,1.5H0v-3H38.235Z" transform="translate(26.765 5.5)" fill="#f6e15c"/>
      <path id="Polígono_5-4" data-name="Polígono 5" d="M5.5,0,11,8H0Z" transform="translate(70.5 0) rotate(90)" fill="#f6e15c"/>
      <path id="Polígono_5_-_Contorno-7" data-name="Polígono 5 - Contorno" d="M5.5,1.765,1.9,7H9.1L5.5,1.765M5.5,0,11,8H0Z" transform="translate(70.5 0) rotate(90)" fill="#f6e15c"/>
      <path id="Polígono_5_-_Contorno-8" data-name="Polígono 5 - Contorno" d="M5.5,1.765,1.9,7H9.1L5.5,1.765M5.5,0,11,8H0Z" transform="translate(70.5 0) rotate(90)" fill="#f6e15c"/>
    </g>
    <g id="Grupo_1177986" data-name="Grupo 1177986" transform="matrix(-0.839, 0.545, -0.545, -0.839, 1066.326, 1352.55)">
      <path id="Línea_638-5" data-name="Línea 638" d="M63.693,4.112-.061,1.5l.123-3L63.816,1.114Z" transform="translate(0 2.887)" fill="#f6e15c"/>
      <path id="Polígono_5-5" data-name="Polígono 5" d="M5.5,0,11,8H0Z" transform="translate(69.254 0) rotate(90)" fill="#f6e15c"/>
      <path id="Polígono_5_-_Contorno-9" data-name="Polígono 5 - Contorno" d="M5.5,1.765,1.9,7H9.1L5.5,1.765M5.5,0,11,8H0Z" transform="translate(69.254 0) rotate(90)" fill="#f6e15c"/>
      <path id="Polígono_5_-_Contorno-10" data-name="Polígono 5 - Contorno" d="M5.5,1.765,1.9,7H9.1L5.5,1.765M5.5,0,11,8H0Z" transform="translate(69.254 0) rotate(90)" fill="#f6e15c"/>
    </g>
    <g id="Grupo_1177983" data-name="Grupo 1177983" transform="matrix(0.839, 0.545, -0.545, 0.839, 754.543, -6.98)">
      <path id="Línea_638-6" data-name="Línea 638" d="M.016,1.887l-.031-3L37.041-1.5l.031,3Z" transform="translate(827.494 1165.499)" fill="#f6e15c"/>
      <path id="Polígono_5-6" data-name="Polígono 5" d="M5.5,0,11,8H0Z" transform="translate(870.051 1160) rotate(90)" fill="#f6e15c"/>
      <path id="Polígono_5_-_Contorno-11" data-name="Polígono 5 - Contorno" d="M5.5,1.765,1.9,7H9.1L5.5,1.765M5.5,0,11,8H0Z" transform="translate(870.051 1160) rotate(90)" fill="#f6e15c"/>
      <path id="Polígono_5_-_Contorno-12" data-name="Polígono 5 - Contorno" d="M5.5,1.765,1.9,7H9.1L5.5,1.765M5.5,0,11,8H0Z" transform="translate(870.051 1160) rotate(90)" fill="#f6e15c"/>
    </g>
    <g id="Grupo_1177985" data-name="Grupo 1177985" transform="matrix(-0.839, 0.545, -0.545, -0.839, 1068.326, 1408.55)">
      <path id="Línea_638-7" data-name="Línea 638" d="M63.693,4.112-.061,1.5l.123-3L63.816,1.114Z" transform="translate(0 2.887)" fill="#f6e15c"/>
      <path id="Polígono_5-7" data-name="Polígono 5" d="M5.5,0,11,8H0Z" transform="translate(69.254 0) rotate(90)" fill="#f6e15c"/>
      <path id="Polígono_5_-_Contorno-13" data-name="Polígono 5 - Contorno" d="M5.5,1.765,1.9,7H9.1L5.5,1.765M5.5,0,11,8H0Z" transform="translate(69.254 0) rotate(90)" fill="#f6e15c"/>
      <path id="Polígono_5_-_Contorno-14" data-name="Polígono 5 - Contorno" d="M5.5,1.765,1.9,7H9.1L5.5,1.765M5.5,0,11,8H0Z" transform="translate(69.254 0) rotate(90)" fill="#f6e15c"/>
    </g>
    <g id="Grupo_1177982" data-name="Grupo 1177982" transform="matrix(0.839, 0.545, -0.545, 0.839, 787.146, -37.308)">
      <path id="Línea_638-8" data-name="Línea 638" d="M.061,4.112l-.123-3L63.693-1.5l.123,3Z" transform="translate(800.797 1165.5)" fill="#f6e15c"/>
      <path id="Polígono_5-8" data-name="Polígono 5" d="M5.5,0,11,8H0Z" transform="translate(870.051 1160) rotate(90)" fill="#f6e15c"/>
      <path id="Polígono_5_-_Contorno-15" data-name="Polígono 5 - Contorno" d="M5.5,1.765,1.9,7H9.1L5.5,1.765M5.5,0,11,8H0Z" transform="translate(870.051 1160) rotate(90)" fill="#f6e15c"/>
      <path id="Polígono_5_-_Contorno-16" data-name="Polígono 5 - Contorno" d="M5.5,1.765,1.9,7H9.1L5.5,1.765M5.5,0,11,8H0Z" transform="translate(870.051 1160) rotate(90)" fill="#f6e15c"/>
    </g>
    <g id="Grupo_1177984" data-name="Grupo 1177984" transform="translate(870.479 1502.387) rotate(-139)">
      <path id="Línea_638-9" data-name="Línea 638" d="M37.041,1.887-.016,1.5l.031-3,37.057.388Z" transform="translate(0 5.113)" fill="#f6e15c"/>
      <path id="Polígono_5-9" data-name="Polígono 5" d="M5.5,0,11,8H0Z" transform="translate(42.557 0) rotate(90)" fill="#f6e15c"/>
      <path id="Polígono_5_-_Contorno-17" data-name="Polígono 5 - Contorno" d="M5.5,1.765,1.9,7H9.1L5.5,1.765M5.5,0,11,8H0Z" transform="translate(42.557 0) rotate(90)" fill="#f6e15c"/>
      <path id="Polígono_5_-_Contorno-18" data-name="Polígono 5 - Contorno" d="M5.5,1.765,1.9,7H9.1L5.5,1.765M5.5,0,11,8H0Z" transform="translate(42.557 0) rotate(90)" fill="#f6e15c"/>
    </g>
  </g>
</svg>
