<svg xmlns="http://www.w3.org/2000/svg" xmlns:xlink="http://www.w3.org/1999/xlink" width="483.949" height="267.6" viewBox="0 0 483.949 267.6">
  <defs>
    <linearGradient id="linear-gradient" x1="0.096" y1="0.116" x2="0.868" y2="0.84" gradientUnits="objectBoundingBox">
      <stop offset="0" stop-color="#72390f"/>
      <stop offset="1" stop-color="#391d08"/>
    </linearGradient>
  </defs>
  <g id="Grupo_1178131" data-name="Grupo 1178131" transform="translate(-349.025 -2678.814)">
    <g id="Trazado_1034647" data-name="Trazado 1034647" transform="translate(349.025 2678.814)" fill="#fff">
      <path d="M 475.9492492675781 266.099853515625 L 7.999984264373779 266.099853515625 C 4.415859222412109 266.099853515625 1.499984383583069 263.1839904785156 1.499984383583069 259.599853515625 L 1.499984383583069 7.999989032745361 C 1.499984383583069 4.41586446762085 4.415859222412109 1.49998927116394 7.999984264373779 1.49998927116394 L 475.9492492675781 1.49998927116394 C 479.5333557128906 1.49998927116394 482.4492492675781 4.41586446762085 482.4492492675781 7.999989032745361 L 482.4492492675781 259.599853515625 C 482.4492492675781 263.1839904785156 479.5333557128906 266.099853515625 475.9492492675781 266.099853515625 Z" stroke="none"/>
      <path d="M 7.999969482421875 3 C 5.24298095703125 3 2.999969482421875 5.24298095703125 2.999969482421875 8 L 2.999969482421875 259.599853515625 C 2.999969482421875 262.3568725585938 5.24298095703125 264.599853515625 7.999969482421875 264.599853515625 L 475.9492492675781 264.599853515625 C 478.7062377929688 264.599853515625 480.9492492675781 262.3568725585938 480.9492492675781 259.599853515625 L 480.9492492675781 8 C 480.9492492675781 5.24298095703125 478.7062377929688 3 475.9492492675781 3 L 7.999969482421875 3 M 7.999969482421875 0 L 475.9492492675781 0 C 480.3674926757812 0 483.9492492675781 3.58172607421875 483.9492492675781 8 L 483.9492492675781 259.599853515625 C 483.9492492675781 264.0181274414062 480.3674926757812 267.599853515625 475.9492492675781 267.599853515625 L 7.999969482421875 267.599853515625 C 3.58172607421875 267.599853515625 -3.0517578125e-05 264.0181274414062 -3.0517578125e-05 259.599853515625 L -3.0517578125e-05 8 C -3.0517578125e-05 3.58172607421875 3.58172607421875 0 7.999969482421875 0 Z" stroke="none" fill="#2f5235"/>
    </g>
    <path id="Trazado_1034648" data-name="Trazado 1034648" d="M-24.089-3.384A3.923,3.923,0,0,1-25.338-.773a4.093,4.093,0,0,1-2.794.919,3.758,3.758,0,0,1-3.029-1.355A5.451,5.451,0,0,1-32.3-4.834V-5.859a6.076,6.076,0,0,1,.531-2.615,3.966,3.966,0,0,1,1.505-1.732,4.191,4.191,0,0,1,2.256-.6,3.853,3.853,0,0,1,2.725.948,3.971,3.971,0,0,1,1.194,2.626H-25.5A3.064,3.064,0,0,0-26.3-9.088a2.4,2.4,0,0,0-1.71-.573,2.516,2.516,0,0,0-2.113,1,4.577,4.577,0,0,0-.765,2.837v1.034a4.7,4.7,0,0,0,.725,2.764A2.343,2.343,0,0,0-28.132-1a2.706,2.706,0,0,0,1.8-.531A2.947,2.947,0,0,0-25.5-3.384ZM-17.49,0a2.846,2.846,0,0,1-.19-.835,3.023,3.023,0,0,1-2.256.981,2.8,2.8,0,0,1-1.923-.663A2.145,2.145,0,0,1-22.61-2.2a2.24,2.24,0,0,1,.941-1.923A4.437,4.437,0,0,1-19.021-4.8H-17.7v-.623a1.522,1.522,0,0,0-.425-1.132A1.707,1.707,0,0,0-19.38-6.98a1.976,1.976,0,0,0-1.216.366,1.079,1.079,0,0,0-.491.886h-1.362a1.87,1.87,0,0,1,.421-1.146,2.874,2.874,0,0,1,1.143-.875A3.844,3.844,0,0,1-19.3-8.071a3.133,3.133,0,0,1,2.146.685A2.47,2.47,0,0,1-16.348-5.5v3.647a4.459,4.459,0,0,0,.278,1.736V0Zm-2.249-1.033a2.381,2.381,0,0,0,1.208-.33,1.994,1.994,0,0,0,.828-.857V-3.845h-1.062q-2.49,0-2.49,1.458a1.234,1.234,0,0,0,.425,1A1.633,1.633,0,0,0-19.739-1.033ZM-7.529-3.875A4.745,4.745,0,0,1-8.357-.959,2.653,2.653,0,0,1-10.6.146a2.906,2.906,0,0,1-2.271-.916V3.047h-1.355V-7.925h1.238l.066.879a2.791,2.791,0,0,1,2.3-1.025,2.7,2.7,0,0,1,2.26,1.077,4.8,4.8,0,0,1,.831,3Zm-1.355-.154a3.5,3.5,0,0,0-.571-2.117,1.84,1.84,0,0,0-1.567-.776A1.992,1.992,0,0,0-12.869-5.83v3.787a2,2,0,0,0,1.86,1.084,1.832,1.832,0,0,0,1.549-.773A3.822,3.822,0,0,0-8.884-4.028ZM-2.52.146A3.463,3.463,0,0,1-5.142-.912,3.928,3.928,0,0,1-6.152-3.743v-.249A4.756,4.756,0,0,1-5.7-6.1a3.514,3.514,0,0,1,1.26-1.45,3.167,3.167,0,0,1,1.754-.524,2.968,2.968,0,0,1,2.4,1.018A4.408,4.408,0,0,1,.571-4.138v.564H-4.8a2.817,2.817,0,0,0,.685,1.893,2.153,2.153,0,0,0,1.666.721A2.36,2.36,0,0,0-1.23-1.252a3.055,3.055,0,0,0,.872-.776l.828.645A3.328,3.328,0,0,1-2.52.146Zm-.168-7.1a1.807,1.807,0,0,0-1.377.6,2.9,2.9,0,0,0-.688,1.674h3.97v-.1a2.581,2.581,0,0,0-.557-1.6A1.7,1.7,0,0,0-2.688-6.958ZM3.611,0H2.256V-11.25H3.611Zm3.64,0H5.9V-11.25H7.251Zm7.061,0a2.846,2.846,0,0,1-.19-.835,3.023,3.023,0,0,1-2.256.981A2.8,2.8,0,0,1,9.943-.516,2.145,2.145,0,0,1,9.192-2.2a2.24,2.24,0,0,1,.941-1.923A4.437,4.437,0,0,1,12.781-4.8H14.1v-.623a1.522,1.522,0,0,0-.425-1.132,1.707,1.707,0,0,0-1.252-.421,1.976,1.976,0,0,0-1.216.366,1.079,1.079,0,0,0-.491.886H9.353a1.87,1.87,0,0,1,.421-1.146,2.874,2.874,0,0,1,1.143-.875A3.844,3.844,0,0,1,12.5-8.071a3.133,3.133,0,0,1,2.146.685A2.47,2.47,0,0,1,15.454-5.5v3.647a4.459,4.459,0,0,0,.278,1.736V0ZM12.063-1.033a2.381,2.381,0,0,0,1.208-.33,1.994,1.994,0,0,0,.828-.857V-3.845H13.037q-2.49,0-2.49,1.458a1.234,1.234,0,0,0,.425,1A1.633,1.633,0,0,0,12.063-1.033Zm5.186-3a4.642,4.642,0,0,1,.864-2.933,2.733,2.733,0,0,1,2.263-1.11,2.748,2.748,0,0,1,2.2.952V-11.25h1.355V0H22.69l-.066-.85a2.759,2.759,0,0,1-2.263,1A2.707,2.707,0,0,1,18.116-.981a4.7,4.7,0,0,1-.868-2.944Zm1.355.154a3.515,3.515,0,0,0,.557,2.109A1.8,1.8,0,0,0,20.7-1a1.977,1.977,0,0,0,1.882-1.157V-5.8a1.992,1.992,0,0,0-1.868-1.121,1.808,1.808,0,0,0-1.553.769A3.87,3.87,0,0,0,18.6-3.875ZM30.93,0a2.846,2.846,0,0,1-.19-.835,3.023,3.023,0,0,1-2.256.981,2.8,2.8,0,0,1-1.923-.663A2.145,2.145,0,0,1,25.811-2.2a2.24,2.24,0,0,1,.941-1.923A4.437,4.437,0,0,1,29.4-4.8h1.318v-.623a1.522,1.522,0,0,0-.425-1.132,1.707,1.707,0,0,0-1.252-.421,1.976,1.976,0,0,0-1.216.366,1.079,1.079,0,0,0-.491.886H25.972a1.87,1.87,0,0,1,.421-1.146,2.874,2.874,0,0,1,1.143-.875,3.844,3.844,0,0,1,1.586-.322,3.133,3.133,0,0,1,2.146.685A2.47,2.47,0,0,1,32.073-5.5v3.647a4.459,4.459,0,0,0,.278,1.736V0ZM28.682-1.033a2.381,2.381,0,0,0,1.208-.33,1.994,1.994,0,0,0,.828-.857V-3.845H29.656q-2.49,0-2.49,1.458a1.234,1.234,0,0,0,.425,1A1.633,1.633,0,0,0,28.682-1.033Z" transform="translate(713.779 2799.474)" fill="#12263f"/>
    <path id="Trazado_1034649" data-name="Trazado 1034649" d="M-23.254-4.175V0h-1.406V-10.664h3.933a3.952,3.952,0,0,1,2.743.894A3.029,3.029,0,0,1-16.992-7.4a2.989,2.989,0,0,1-.97,2.391,4.128,4.128,0,0,1-2.78.839Zm0-1.15h2.527A2.526,2.526,0,0,0-19-5.857a1.945,1.945,0,0,0,.6-1.537A2.009,2.009,0,0,0-19-8.92a2.367,2.367,0,0,0-1.648-.594h-2.607ZM-10.518-.784a2.878,2.878,0,0,1-2.322.93,2.464,2.464,0,0,1-1.93-.736,3.186,3.186,0,0,1-.67-2.179V-7.925h1.355v5.12q0,1.8,1.465,1.8a2.028,2.028,0,0,0,2.065-1.157V-7.925H-9.2V0h-1.289Zm4.658-7.141.044,1A2.888,2.888,0,0,1-3.442-8.071q2.512,0,2.534,2.834V0H-2.263V-5.244a1.824,1.824,0,0,0-.392-1.267,1.57,1.57,0,0,0-1.2-.41A1.956,1.956,0,0,0-5.01-6.57a2.387,2.387,0,0,0-.776.923V0H-7.141V-7.925ZM2.974-9.844v1.919H4.453v1.047H2.974v4.921a1.1,1.1,0,0,0,.2.715A.832.832,0,0,0,3.845-1a3.281,3.281,0,0,0,.645-.088V0A3.951,3.951,0,0,1,3.45.146,1.687,1.687,0,0,1,2.08-.4a2.36,2.36,0,0,1-.461-1.56V-6.877H.176V-7.925H1.619V-9.844ZM9.324.146A3.463,3.463,0,0,1,6.7-.912,3.928,3.928,0,0,1,5.691-3.743v-.249A4.756,4.756,0,0,1,6.141-6.1,3.514,3.514,0,0,1,7.4-7.548a3.167,3.167,0,0,1,1.754-.524,2.968,2.968,0,0,1,2.4,1.018,4.408,4.408,0,0,1,.857,2.915v.564H7.046a2.817,2.817,0,0,0,.685,1.893A2.153,2.153,0,0,0,9.4-.959a2.36,2.36,0,0,0,1.216-.293,3.055,3.055,0,0,0,.872-.776l.828.645A3.328,3.328,0,0,1,9.324.146Zm-.168-7.1a1.807,1.807,0,0,0-1.377.6A2.9,2.9,0,0,0,7.09-4.687h3.97v-.1a2.581,2.581,0,0,0-.557-1.6A1.7,1.7,0,0,0,9.155-6.958Zm8.657.249a4.061,4.061,0,0,0-.667-.051,1.786,1.786,0,0,0-1.809,1.135V0H13.982V-7.925H15.3l.022.916a2.11,2.11,0,0,1,1.89-1.062,1.384,1.384,0,0,1,.6.1ZM23.657,0a2.846,2.846,0,0,1-.19-.835,3.023,3.023,0,0,1-2.256.981,2.8,2.8,0,0,1-1.923-.663A2.145,2.145,0,0,1,18.538-2.2a2.24,2.24,0,0,1,.941-1.923A4.437,4.437,0,0,1,22.126-4.8h1.318v-.623a1.522,1.522,0,0,0-.425-1.132,1.707,1.707,0,0,0-1.252-.421,1.976,1.976,0,0,0-1.216.366,1.079,1.079,0,0,0-.491.886H18.7a1.87,1.87,0,0,1,.421-1.146,2.874,2.874,0,0,1,1.143-.875,3.844,3.844,0,0,1,1.586-.322,3.133,3.133,0,0,1,2.146.685A2.47,2.47,0,0,1,24.8-5.5v3.647a4.459,4.459,0,0,0,.278,1.736V0ZM21.409-1.033a2.381,2.381,0,0,0,1.208-.33,1.994,1.994,0,0,0,.828-.857V-3.845H22.383q-2.49,0-2.49,1.458a1.234,1.234,0,0,0,.425,1A1.633,1.633,0,0,0,21.409-1.033Z" transform="translate(794.79 2827.986)" fill="#12263f"/>
    <path id="Trazado_1034650" data-name="Trazado 1034650" d="M-25.7-3.384A3.923,3.923,0,0,1-26.953-.773a4.093,4.093,0,0,1-2.794.919,3.758,3.758,0,0,1-3.029-1.355,5.451,5.451,0,0,1-1.139-3.625V-5.859a6.076,6.076,0,0,1,.531-2.615,3.966,3.966,0,0,1,1.505-1.732,4.191,4.191,0,0,1,2.256-.6,3.853,3.853,0,0,1,2.725.948A3.971,3.971,0,0,1-25.7-7.236h-1.414a3.064,3.064,0,0,0-.795-1.851,2.4,2.4,0,0,0-1.71-.573,2.516,2.516,0,0,0-2.113,1A4.577,4.577,0,0,0-32.5-5.827v1.034a4.7,4.7,0,0,0,.725,2.764A2.343,2.343,0,0,0-29.747-1a2.706,2.706,0,0,0,1.8-.531,2.947,2.947,0,0,0,.831-1.849Zm1.348-.652A4.681,4.681,0,0,1-23.9-6.13a3.415,3.415,0,0,1,1.274-1.436,3.469,3.469,0,0,1,1.864-.505,3.342,3.342,0,0,1,2.618,1.121,4.311,4.311,0,0,1,1,2.981v.1A4.722,4.722,0,0,1-17.585-1.8,3.365,3.365,0,0,1-18.853-.366a3.509,3.509,0,0,1-1.893.513A3.334,3.334,0,0,1-23.357-.974a4.29,4.29,0,0,1-1-2.966Zm1.362.161a3.39,3.39,0,0,0,.612,2.117,1.957,1.957,0,0,0,1.637.8,1.945,1.945,0,0,0,1.641-.809A3.707,3.707,0,0,0-18.5-4.036a3.384,3.384,0,0,0-.619-2.113,1.968,1.968,0,0,0-1.644-.809,1.946,1.946,0,0,0-1.619.8A3.68,3.68,0,0,0-22.994-3.875Zm11.382-2.834a4.061,4.061,0,0,0-.667-.051,1.786,1.786,0,0,0-1.809,1.135V0h-1.355V-7.925h1.318l.022.916a2.11,2.11,0,0,1,1.89-1.062,1.384,1.384,0,0,1,.6.1Zm.916,2.681a4.642,4.642,0,0,1,.864-2.933A2.733,2.733,0,0,1-7.57-8.071a2.748,2.748,0,0,1,2.2.952V-11.25H-4.01V0H-5.255l-.066-.85a2.759,2.759,0,0,1-2.263,1A2.707,2.707,0,0,1-9.829-.981,4.7,4.7,0,0,1-10.7-3.926Zm1.355.154a3.515,3.515,0,0,0,.557,2.109A1.8,1.8,0,0,0-7.247-1,1.977,1.977,0,0,0-5.365-2.161V-5.8A1.992,1.992,0,0,0-7.233-6.921a1.808,1.808,0,0,0-1.553.769A3.87,3.87,0,0,0-9.342-3.875Zm7.075-.161A4.681,4.681,0,0,1-1.809-6.13,3.415,3.415,0,0,1-.535-7.566a3.469,3.469,0,0,1,1.864-.505A3.342,3.342,0,0,1,3.948-6.951a4.311,4.311,0,0,1,1,2.981v.1A4.722,4.722,0,0,1,4.5-1.8,3.365,3.365,0,0,1,3.237-.366,3.509,3.509,0,0,1,1.344.146,3.334,3.334,0,0,1-1.267-.974a4.29,4.29,0,0,1-1-2.966ZM-.9-3.875A3.39,3.39,0,0,0-.293-1.758a1.957,1.957,0,0,0,1.637.8,1.945,1.945,0,0,0,1.641-.809,3.707,3.707,0,0,0,.608-2.267,3.384,3.384,0,0,0-.619-2.113,1.968,1.968,0,0,0-1.644-.809,1.946,1.946,0,0,0-1.619.8A3.68,3.68,0,0,0-.9-3.875Zm8.833-4.05.044,1a2.888,2.888,0,0,1,2.373-1.143q2.512,0,2.534,2.834V0H11.525V-5.244a1.824,1.824,0,0,0-.392-1.267,1.57,1.57,0,0,0-1.2-.41,1.956,1.956,0,0,0-1.157.352A2.387,2.387,0,0,0,8-5.647V0H6.647V-7.925ZM18.212.146A3.463,3.463,0,0,1,15.59-.912a3.928,3.928,0,0,1-1.011-2.831v-.249a4.756,4.756,0,0,1,.45-2.106,3.514,3.514,0,0,1,1.26-1.45,3.167,3.167,0,0,1,1.754-.524,2.968,2.968,0,0,1,2.4,1.018A4.408,4.408,0,0,1,21.3-4.138v.564H15.934a2.817,2.817,0,0,0,.685,1.893,2.153,2.153,0,0,0,1.666.721A2.36,2.36,0,0,0,19.5-1.252a3.055,3.055,0,0,0,.872-.776l.828.645A3.328,3.328,0,0,1,18.212.146Zm-.168-7.1a1.807,1.807,0,0,0-1.377.6,2.9,2.9,0,0,0-.688,1.674h3.97v-.1a2.581,2.581,0,0,0-.557-1.6A1.7,1.7,0,0,0,18.043-6.958Zm8.657.249a4.061,4.061,0,0,0-.667-.051,1.786,1.786,0,0,0-1.809,1.135V0H22.87V-7.925h1.318l.022.916A2.11,2.11,0,0,1,26.1-8.071a1.384,1.384,0,0,1,.6.1ZM32.545,0a2.846,2.846,0,0,1-.19-.835A3.023,3.023,0,0,1,30.1.146a2.8,2.8,0,0,1-1.923-.663A2.145,2.145,0,0,1,27.426-2.2a2.24,2.24,0,0,1,.941-1.923A4.437,4.437,0,0,1,31.014-4.8h1.318v-.623a1.522,1.522,0,0,0-.425-1.132,1.707,1.707,0,0,0-1.252-.421,1.976,1.976,0,0,0-1.216.366,1.079,1.079,0,0,0-.491.886H27.587a1.87,1.87,0,0,1,.421-1.146,2.874,2.874,0,0,1,1.143-.875,3.844,3.844,0,0,1,1.586-.322,3.133,3.133,0,0,1,2.146.685A2.47,2.47,0,0,1,33.688-5.5v3.647a4.459,4.459,0,0,0,.278,1.736V0ZM30.3-1.033a2.381,2.381,0,0,0,1.208-.33,1.994,1.994,0,0,0,.828-.857V-3.845H31.271q-2.49,0-2.49,1.458a1.234,1.234,0,0,0,.425,1A1.633,1.633,0,0,0,30.3-1.033Z" transform="translate(446.942 2711.317)" fill="#12263f"/>
    <path id="Trazado_1034651" data-name="Trazado 1034651" d="M-9.771-9.514H-13.2V0h-1.4V-9.514h-3.42v-1.15h8.247ZM-4.336,0a2.846,2.846,0,0,1-.19-.835A3.023,3.023,0,0,1-6.782.146,2.8,2.8,0,0,1-8.7-.516,2.145,2.145,0,0,1-9.456-2.2,2.24,2.24,0,0,1-8.514-4.12,4.437,4.437,0,0,1-5.867-4.8h1.318v-.623a1.522,1.522,0,0,0-.425-1.132A1.707,1.707,0,0,0-6.226-6.98a1.976,1.976,0,0,0-1.216.366,1.079,1.079,0,0,0-.491.886H-9.294a1.87,1.87,0,0,1,.421-1.146,2.874,2.874,0,0,1,1.143-.875,3.844,3.844,0,0,1,1.586-.322A3.133,3.133,0,0,1-4-7.386,2.47,2.47,0,0,1-3.193-5.5v3.647A4.459,4.459,0,0,0-2.915-.117V0ZM-6.584-1.033a2.381,2.381,0,0,0,1.208-.33,1.994,1.994,0,0,0,.828-.857V-3.845H-5.61q-2.49,0-2.49,1.458a1.234,1.234,0,0,0,.425,1A1.633,1.633,0,0,0-6.584-1.033ZM.4,0H-.952V-11.25H.4ZM2.212-4.036A4.681,4.681,0,0,1,2.67-6.13,3.415,3.415,0,0,1,3.944-7.566a3.469,3.469,0,0,1,1.864-.505A3.342,3.342,0,0,1,8.427-6.951a4.311,4.311,0,0,1,1,2.981v.1A4.722,4.722,0,0,1,8.983-1.8,3.365,3.365,0,0,1,7.716-.366,3.509,3.509,0,0,1,5.823.146,3.334,3.334,0,0,1,3.212-.974a4.29,4.29,0,0,1-1-2.966Zm1.362.161a3.39,3.39,0,0,0,.612,2.117,1.957,1.957,0,0,0,1.637.8,1.945,1.945,0,0,0,1.641-.809,3.707,3.707,0,0,0,.608-2.267,3.384,3.384,0,0,0-.619-2.113,1.968,1.968,0,0,0-1.644-.809,1.946,1.946,0,0,0-1.619.8A3.68,3.68,0,0,0,3.574-3.875ZM6.423-11.25H8.064L6.1-9.1,5.01-9.1Zm5.984,3.325.044,1a2.888,2.888,0,0,1,2.373-1.143q2.512,0,2.534,2.834V0H16V-5.244a1.824,1.824,0,0,0-.392-1.267,1.57,1.57,0,0,0-1.2-.41,1.956,1.956,0,0,0-1.157.352,2.387,2.387,0,0,0-.776.923V0H11.125V-7.925Z" transform="translate(377.481 2757.767)" fill="#12263f"/>
    <g id="Grupo_1177989" data-name="Grupo 1177989" transform="translate(430.118 2727.854)">
      <g id="Grupo_1177988" data-name="Grupo 1177988" transform="matrix(0.999, -0.035, 0.035, 0.999, 0, 12.436)">
        <path id="Trazado_1034468" data-name="Trazado 1034468" d="M70.941,22.95S23.848-.991,10.571.032-6.4,21.076,16.9,30.589,70.941,22.95,70.941,22.95Z" transform="translate(21.961 2.492)" fill="#cea689" stroke="#000" stroke-linecap="round" stroke-linejoin="round" stroke-width="2"/>
        <path id="Trazado_1034469" data-name="Trazado 1034469" d="M117.314,1.9C99.433,6.441,105,15.053,72.73,25.339c-13.394,4.269-29.572,2.335-38.4-3.262C22.873,14.821,21.425,1.9,21.425,1.9S-.924,55.217.03,70.314s.675,33.859,28.748,40.767,32.137,11.768,32.137,11.768S64.4,78.871,95.533,78.655s63.012,23.351,63.012,23.351L197,58.258s-14.913-29.412-34.834-43.5S135.2-2.634,117.314,1.9Z" transform="translate(0 8.846)" fill="#c3916e" stroke="#000" stroke-linecap="round" stroke-linejoin="round" stroke-width="2"/>
        <path id="Trazado_1034470" data-name="Trazado 1034470" d="M28.811.613C13.156-2.919,0,9.966,0,9.966s22.761,1.04,41.447,14.128C60.83,37.671,74.333,67.552,74.333,67.552s6.145-5.818,12.753-8.641,13.4,0,13.4,0L64.792,24.094S44.466,4.147,28.811.613Z" transform="translate(119.546 0)" fill="#8b5a38" stroke="#000" stroke-linecap="round" stroke-linejoin="round" stroke-width="2"/>
        <path id="Trazado_1034471" data-name="Trazado 1034471" d="M5.794,21.112s9.439-6.983,16.415-10.526A66.917,66.917,0,0,1,34.241,5.7c1.3-.454,3.609-7.921-7.414-5.041S0,16.54,0,16.54Z" transform="translate(171.954 37.835)" fill="#502929" stroke="#000" stroke-linecap="round" stroke-linejoin="round" stroke-width="2"/>
        <path id="Trazado_1034472" data-name="Trazado 1034472" d="M5.794,21.112s9.439-6.983,16.415-10.526A66.917,66.917,0,0,1,34.241,5.7c1.3-.454,3.609-7.921-7.414-5.041S0,16.54,0,16.54Z" transform="translate(161.467 28.394)" fill="#502929" stroke="#000" stroke-linecap="round" stroke-linejoin="round" stroke-width="2"/>
        <path id="Trazado_1034473" data-name="Trazado 1034473" d="M5.794,21.112s9.439-6.983,16.415-10.526A66.917,66.917,0,0,1,34.241,5.7c1.3-.454,3.609-7.921-7.414-5.041S0,16.54,0,16.54Z" transform="translate(152.062 20.673)" fill="#502929" stroke="#000" stroke-linecap="round" stroke-linejoin="round" stroke-width="2"/>
        <path id="Trazado_1034474" data-name="Trazado 1034474" d="M5.794,21.112s9.439-6.983,16.415-10.526A66.917,66.917,0,0,1,34.241,5.7c1.3-.454,3.609-7.921-7.414-5.041S0,16.54,0,16.54Z" transform="translate(140.706 10.68)" fill="#502929" stroke="#000" stroke-linecap="round" stroke-linejoin="round" stroke-width="2"/>
        <path id="Trazado_1034475" data-name="Trazado 1034475" d="M5.794,21.112s9.439-6.983,16.415-10.526A66.917,66.917,0,0,1,34.241,5.7c1.3-.454,3.609-7.921-7.414-5.041S0,16.54,0,16.54Z" transform="translate(128.733 0.345)" fill="#502929" stroke="#000" stroke-linecap="round" stroke-linejoin="round" stroke-width="2"/>
        <g id="Elipse_11668" data-name="Elipse 11668" transform="translate(167.236 52.802)" fill="#8b5a38" stroke="#000" stroke-linecap="round" stroke-linejoin="round" stroke-width="2">
          <circle cx="5.558" cy="5.558" r="5.558" stroke="none"/>
          <circle cx="5.558" cy="5.558" r="4.558" fill="none"/>
        </g>
        <g id="Elipse_11669" data-name="Elipse 11669" transform="translate(156.737 43.355)" fill="#8b5a38" stroke="#000" stroke-linecap="round" stroke-linejoin="round" stroke-width="2">
          <circle cx="5.558" cy="5.558" r="5.558" stroke="none"/>
          <circle cx="5.558" cy="5.558" r="4.558" fill="none"/>
        </g>
        <g id="Elipse_11670" data-name="Elipse 11670" transform="translate(147.324 35.422)" fill="#8b5a38" stroke="#000" stroke-linecap="round" stroke-linejoin="round" stroke-width="2">
          <circle cx="5.558" cy="5.558" r="5.558" stroke="none"/>
          <circle cx="5.558" cy="5.558" r="4.558" fill="none"/>
        </g>
        <g id="Elipse_11671" data-name="Elipse 11671" transform="translate(136.343 25.671)" fill="#8b5a38" stroke="#000" stroke-linecap="round" stroke-linejoin="round" stroke-width="2">
          <circle cx="5.558" cy="5.558" r="5.558" stroke="none"/>
          <circle cx="5.558" cy="5.558" r="4.558" fill="none"/>
        </g>
        <g id="Elipse_11672" data-name="Elipse 11672" transform="translate(123.975 15.434)" fill="#8b5a38" stroke="#000" stroke-linecap="round" stroke-linejoin="round" stroke-width="2">
          <circle cx="5.558" cy="5.558" r="5.558" stroke="none"/>
          <circle cx="5.558" cy="5.558" r="4.558" fill="none"/>
        </g>
        <path id="Trazado_1034476" data-name="Trazado 1034476" d="M0,0V27.578S23.651,26.207,34.389,19.3A26.778,26.778,0,0,0,37,17.018L23.673,10.189Z" transform="translate(54.862 8.847)" fill="#c3916e" stroke="#000" stroke-linecap="round" stroke-linejoin="round" stroke-width="2"/>
        <path id="Trazado_1034477" data-name="Trazado 1034477" d="M159.939.352s-8.719-3.28-24.314,10.2S98.843,52.466,98.843,52.466s-46.6-26.449-70.991-21.295S0,74.874,0,74.874,16.445,83.539,39.424,97.28c16.467,9.846,36.213,24.57,58.134,29.876,23.816,5.764,37.635,1.142,51.571,0,15.1-1.234,30.011.32,55.746-2.7a438.835,438.835,0,0,0,71.874-14.821c8.354-2.477,15.134-6.047,17.46-9.644s12.735-16.583-4.23-31.492-29.246-6.418-67.863-22.749S159.939.352,159.939.352Z" transform="translate(56.83 55.368)" fill="#cea689" stroke="#000" stroke-linecap="round" stroke-linejoin="round" stroke-width="2"/>
      </g>
      <path id="Trazado_1034478" data-name="Trazado 1034478" d="M-7752-8728.2s-74.411,25.438-72.325,90.441" transform="translate(8025.107 8827.073)" fill="none" stroke="#000" stroke-width="2"/>
      <path id="Trazado_1034479" data-name="Trazado 1034479" d="M-8101.886-8699.638l-1.424,35.4,50.882,18.53,43.1-10.308s-24.193-15.712-43.1-23.758-20.167-3.463-32.533-8.428S-8101.886-8699.638-8101.886-8699.638Z" transform="translate(8110.667 8818.313)" fill="#a25e2b" stroke="#000" stroke-width="1"/>
      <path id="Trazado_1034480" data-name="Trazado 1034480" d="M-8030.271-8670.844v34.389l43.467-10.427Z" transform="translate(8088.265 8809.48)" fill="#532c0e" stroke="#000" stroke-width="1"/>
      <path id="Trazado_1034481" data-name="Trazado 1034481" d="M-8015.967-8647.341l-37.064,9.923-50.331-20.252v5.6l50.331,19.938,44.222-10.705Z" transform="translate(8110.683 8805.44)" stroke="#000" stroke-width="1" fill="url(#linear-gradient)"/>
      <path id="Trazado_1034482" data-name="Trazado 1034482" d="M-8030.271-8662.257s23.506,6.61,40.84,15.575,17.025,26.377,61.38,32.405c18.94,2.574,42.656-.113,63.942-2.271,28.357-2.874,52.035-5.487,52.035-5.487s40.827-6.825,60.69-14.908,18.831-17.966,18.831-17.966-14.8,12.549-53.556,21.039-58.34,9.611-102.2,13.39c-13.685,1.178-29.212,1.772-39.743,0-22.642-3.812-33.029-13.39-33.029-13.39l-69.191-38.755Z" transform="translate(8088.265 8810.026)" fill="#72390f" stroke="#000" stroke-width="1"/>
    </g>
    <g id="Grupo_1177990" data-name="Grupo 1177990" transform="matrix(-0.839, 0.545, -0.545, -0.839, 814.57, 2839.726)">
      <path id="Línea_638" data-name="Línea 638" d="M41.555,7.925,0,4.234.08,0,41.635,3.691Z" transform="matrix(0.998, -0.07, 0.07, 0.998, 0, 4.635)" fill="#f6e15c"/>
      <path id="Polígono_5" data-name="Polígono 5" d="M7.769,0l7.769,11.3H0Z" transform="translate(48.949 0) rotate(90)" fill="#f6e15c"/>
      <path id="Polígono_5_-_Contorno" data-name="Polígono 5 - Contorno" d="M7.769,2.493,2.685,9.888H12.853L7.769,2.493M7.769,0l7.769,11.3H0Z" transform="translate(48.949 0) rotate(90)" fill="#f6e15c"/>
      <path id="Polígono_5_-_Contorno-2" data-name="Polígono 5 - Contorno" d="M7.769,2.493,2.685,9.888H12.853L7.769,2.493M7.769,0l7.769,11.3H0Z" transform="translate(48.949 0) rotate(90)" fill="#f6e15c"/>
    </g>
    <g id="Grupo_1177992" data-name="Grupo 1177992" transform="translate(390.357 2758.918) rotate(43)">
      <path id="Línea_638-2" data-name="Línea 638" d="M74.891,0,0,3.691.144,7.925,75.036,4.234Z" transform="translate(0 5.652)" fill="#f6e15c"/>
      <path id="Polígono_5-2" data-name="Polígono 5" d="M7.769,0l7.769,11.3H0Z" transform="translate(82.717 0) rotate(90)" fill="#f6e15c"/>
      <path id="Polígono_5_-_Contorno-3" data-name="Polígono 5 - Contorno" d="M7.769,8.807,2.685,1.413H12.853L7.769,8.807m0,2.493L15.538,0H0Z" transform="translate(71.417 15.538) rotate(-90)" fill="#f6e15c"/>
      <path id="Polígono_5_-_Contorno-4" data-name="Polígono 5 - Contorno" d="M7.769,8.807,2.685,1.413H12.853L7.769,8.807m0,2.493L15.538,0H0Z" transform="translate(71.417 15.538) rotate(-90)" fill="#f6e15c"/>
    </g>
    <g id="Grupo_1177991" data-name="Grupo 1177991" transform="matrix(-0.839, 0.545, -0.545, -0.839, 717.62, 2810.214)">
      <path id="Línea_638-3" data-name="Línea 638" d="M82.569,7.925,0,4.234.159,0,82.728,3.691Z" transform="translate(0 1.961)" fill="#f6e15c"/>
      <path id="Polígono_5-3" data-name="Polígono 5" d="M7.769,0l7.769,11.3H0Z" transform="translate(90.409 0) rotate(90)" fill="#f6e15c"/>
      <path id="Polígono_5_-_Contorno-5" data-name="Polígono 5 - Contorno" d="M7.769,2.493,2.685,9.888H12.853L7.769,2.493M7.769,0l7.769,11.3H0Z" transform="translate(90.409 0) rotate(90)" fill="#f6e15c"/>
      <path id="Polígono_5_-_Contorno-6" data-name="Polígono 5 - Contorno" d="M7.769,2.493,2.685,9.888H12.853L7.769,2.493M7.769,0l7.769,11.3H0Z" transform="translate(90.409 0) rotate(90)" fill="#f6e15c"/>
    </g>
    <path id="Trazado_1034483" data-name="Trazado 1034483" d="M-8048.1-8718.142s4.189-21.751-14.635-47.078-15.221-43.241-13.161-55.685" transform="translate(8532.902 11583.362)" fill="none" stroke="#000" stroke-width="2"/>
    <path id="Línea_638-4" data-name="Línea 638" d="M93.143,0,0,3.691.179,7.925,93.323,4.234Z" transform="matrix(0.616, 0.788, -0.788, 0.616, 458.56, 2711.504)" fill="#f6e15c"/>
    <path id="Trazado_1034652" data-name="Trazado 1034652" d="M7.769,0l7.769,11.3H0Z" transform="matrix(-0.788, 0.616, -0.616, -0.788, 525.198, 2787.616)" fill="#f6e15c"/>
  </g>
</svg>
