<svg xmlns="http://www.w3.org/2000/svg" xmlns:xlink="http://www.w3.org/1999/xlink" width="108.914" height="108.914" viewBox="0 0 108.914 108.914"><defs><filter id="a" x="0" y="0" width="108.914" height="108.914" filterUnits="userSpaceOnUse"><feOffset dy="3" input="SourceAlpha"/><feGaussianBlur stdDeviation="3" result="b"/><feFlood flood-opacity="0.161"/><feComposite operator="in" in2="b"/><feComposite in="SourceGraphic"/></filter><clipPath id="c"><rect width="59" height="59" fill="none"/></clipPath></defs><g transform="translate(-799.5 -2534.157)"><g transform="translate(0 587.946)"><g transform="translate(808.5 1952.211)"><g transform="matrix(1, 0, 0, 1, -9, -6)" filter="url(#a)"><g transform="translate(9 6)" fill="#d8cabd" opacity="0.859"><path d="M 45.45676803588867 89.41407012939453 C 39.52198028564453 89.41407012939453 33.76551818847656 88.25206756591797 28.34726715087891 85.96034240722656 C 23.11311721801758 83.74648284912109 18.41204261779785 80.57682800292969 14.37464332580566 76.5394287109375 C 10.33724308013916 72.50202941894531 7.167593002319336 67.80095672607422 4.953730583190918 62.56679534912109 C 2.662005424499512 57.14855575561523 1.500005483627319 51.39208221435547 1.500005483627319 45.45729446411133 C 1.500005483627319 39.52198028564453 2.662005424499512 33.76551818847656 4.953730583190918 28.34726905822754 C 7.167593002319336 23.11310577392578 10.33724308013916 18.41203117370605 14.37464332580566 14.37464332580566 C 18.41204261779785 10.33724403381348 23.11311721801758 7.167593955993652 28.34726715087891 4.953731060028076 C 33.76551818847656 2.662006139755249 39.52198028564453 1.500006198883057 45.45676803588867 1.500006198883057 C 51.39155578613281 1.500006198883057 57.14802932739258 2.662006139755249 62.56626892089844 4.953731060028076 C 67.80043029785156 7.167593955993652 72.50150299072266 10.33724403381348 76.53890228271484 14.37464332580566 C 80.57630920410156 18.41203117370605 83.74595642089844 23.11310577392578 85.95981597900391 28.34726905822754 C 88.25154113769531 33.76551818847656 89.41354370117188 39.52198028564453 89.41354370117188 45.45676803588867 C 89.41354370117188 51.39208221435547 88.25154113769531 57.14855575561523 85.95981597900391 62.56679534912109 C 83.74595642089844 67.80095672607422 80.57630920410156 72.50202941894531 76.53890228271484 76.5394287109375 C 72.50150299072266 80.57682800292969 67.80043029785156 83.74648284912109 62.56626892089844 85.96034240722656 C 57.14802932739258 88.25206756591797 51.39155578613281 89.41407012939453 45.45676803588867 89.41407012939453 Z" stroke="none"/><path d="M 45.45676803588867 3 C 39.72381210327148 3 34.1639404296875 4.12213134765625 28.93159484863281 6.335227966308594 C 23.87622833251953 8.473472595214844 19.33542633056641 11.53517150878906 15.43529510498047 15.435302734375 C 11.53517150878906 19.33543395996094 8.473464965820312 23.87622833251953 6.335227966308594 28.93160247802734 C 4.122123718261719 34.16394424438477 3 39.72381591796875 3 45.4572868347168 C 3 51.19024658203125 4.122123718261719 56.75011825561523 6.335227966308594 61.98246002197266 C 8.473464965820312 67.03782653808594 11.53517150878906 71.57862854003906 15.43529510498047 75.478759765625 C 19.33542633056641 79.37889099121094 23.87622833251953 82.44058990478516 28.93159484863281 84.57883453369141 C 34.1639404296875 86.79193115234375 39.72381210327148 87.9140625 45.45676803588867 87.9140625 C 51.18972396850586 87.9140625 56.74959564208984 86.79193115234375 61.98194122314453 84.57883453369141 C 67.03730773925781 82.44058990478516 71.57810974121094 79.37889099121094 75.47824096679688 75.478759765625 C 79.37837219238281 71.57862854003906 82.44007110595703 67.03782653808594 84.57830810546875 61.98246002197266 C 86.79141235351562 56.75011825561523 87.91353607177734 51.19024658203125 87.91353607177734 45.4567756652832 C 87.91353607177734 39.72381591796875 86.79141235351562 34.16394424438477 84.57830810546875 28.93160247802734 C 82.44007110595703 23.87622833251953 79.37837219238281 19.33543395996094 75.47824096679688 15.435302734375 C 71.57810974121094 11.53517150878906 67.03730773925781 8.473472595214844 61.98194122314453 6.335227966308594 C 56.74959564208984 4.12213134765625 51.18972396850586 3 45.45676803588867 3 M 45.45676803588867 0 C 70.56185150146484 0 90.91353607177734 20.35169219970703 90.91353607177734 45.4567756652832 L 90.91353607177734 45.4572868347168 C 90.91353607177734 70.5623779296875 70.56185150146484 90.9140625 45.45676803588867 90.9140625 C 20.3516845703125 90.9140625 0 70.5623779296875 0 45.4572868347168 L 0 45.4567756652832 C 0 20.35169219970703 20.3516845703125 0 45.45676803588867 0 Z" stroke="none" fill="#fff"/></g></g><g transform="translate(0 0)" fill="none"><path d="M45.457,0A45.457,45.457,0,0,1,90.914,45.457h0A45.457,45.457,0,0,1,0,45.457H0A45.457,45.457,0,0,1,45.457,0Z" stroke="none"/><path d="M 45.45676803588867 3 C 39.72381210327148 3 34.1639404296875 4.12213134765625 28.93159484863281 6.335227966308594 C 23.87622833251953 8.473472595214844 19.33542633056641 11.53517150878906 15.43529510498047 15.435302734375 C 11.53517150878906 19.33543395996094 8.473464965820312 23.87622833251953 6.335227966308594 28.93160247802734 C 4.122123718261719 34.16394424438477 3 39.72381591796875 3 45.4572868347168 C 3 51.19024658203125 4.122123718261719 56.75011825561523 6.335227966308594 61.98246002197266 C 8.473464965820312 67.03782653808594 11.53517150878906 71.57862854003906 15.43529510498047 75.478759765625 C 19.33542633056641 79.37889099121094 23.87622833251953 82.44058990478516 28.93159484863281 84.57883453369141 C 34.1639404296875 86.79193115234375 39.72381210327148 87.9140625 45.45676803588867 87.9140625 C 51.18972396850586 87.9140625 56.74959564208984 86.79193115234375 61.98194122314453 84.57883453369141 C 67.03730773925781 82.44058990478516 71.57810974121094 79.37889099121094 75.47824096679688 75.478759765625 C 79.37837219238281 71.57862854003906 82.44007110595703 67.03782653808594 84.57830810546875 61.98246002197266 C 86.79141235351562 56.75011825561523 87.91353607177734 51.19024658203125 87.91353607177734 45.4567756652832 C 87.91353607177734 39.72381591796875 86.79141235351562 34.16394424438477 84.57830810546875 28.93160247802734 C 82.44007110595703 23.87622833251953 79.37837219238281 19.33543395996094 75.47824096679688 15.435302734375 C 71.57810974121094 11.53517150878906 67.03730773925781 8.473472595214844 61.98194122314453 6.335227966308594 C 56.74959564208984 4.12213134765625 51.18972396850586 3 45.45676803588867 3 M 45.45676803588867 0 C 70.56185150146484 0 90.91353607177734 20.35169219970703 90.91353607177734 45.4567756652832 L 90.91353607177734 45.4572868347168 C 90.91353607177734 70.5623779296875 70.56185150146484 90.9140625 45.45676803588867 90.9140625 C 20.3516845703125 90.9140625 0 70.5623779296875 0 45.4572868347168 L 0 45.4567756652832 C 0 20.35169219970703 20.3516845703125 0 45.45676803588867 0 Z" stroke="none" fill="#fff"/></g></g></g><g transform="translate(824.843 2555.897)"><g clip-path="url(#c)"><path d="M59,0V26.108c-.155-.271-.3-.545-.466-.81a2.3,2.3,0,0,0-3.557-.747c-.562.395-1.128.783-1.68,1.192a2.231,2.231,0,0,0-.75,2.793,2.19,2.19,0,0,0,2.672,1.428c1.433-.561,3.019-1.007,3.781-2.591M3.228,14.851l.135,1.668a.872.872,0,0,0-.732,1.053c.075.8.108,1.606.215,2.4a11.458,11.458,0,0,1-.9,6.708A13.952,13.952,0,0,0,.681,32,16.773,16.773,0,0,0,1.518,38.2a.626.626,0,0,1-.207.778A3.693,3.693,0,0,0,1.3,44.437a1.2,1.2,0,0,1,.334.766c.034,1.283,0,2.568.019,3.851a3.111,3.111,0,0,0,3.222,3.284q6.353.028,12.706-.01a3.025,3.025,0,0,0,3.016-3.046c.021-.861,0-1.724.011-2.587,0-.448-.122-.972.41-1.217.568-.261.875.217,1.215.53C24.059,47.7,25.9,49.38,27.7,51.1a4.308,4.308,0,0,0,3.145,1.261c7.033-.024,14.067-.01,21.1-.015a4.814,4.814,0,0,0,1.141-.079,3.561,3.561,0,0,0,2.867-3,3.514,3.514,0,0,0-1.585-3.677.585.585,0,0,1-.306-.693c.218-1.006.44-2.012.633-3.023a34.008,34.008,0,0,0,.7-4,7.954,7.954,0,0,0-5.22-7.966c-2.989-1.183-5.986-2.344-9.017-3.529a2.716,2.716,0,0,0-1.651-3.192,2.767,2.767,0,0,0-3.472,1.157l-.9-1.28c1.352-.77,1.989-1.833,1.746-2.992A2.827,2.827,0,0,0,33.633,17.7c-.143-.511-.275-.982-.407-1.455a2.776,2.776,0,0,0-1.193-5.2.613.613,0,0,1-.392-.359c-.185-.519-.315-1.058-.47-1.588a3,3,0,0,0-5.1-1.413c-1.119,1.019-2.255,2.021-3.357,3.059a1.476,1.476,0,0,1-1.112.432q-9.141-.03-18.284-.025c-.956,0-1.24.312-1.148,1.25.047.476.112.953.124,1.43a.937.937,0,0,0,.937,1.014M46.9,20.376a2.371,2.371,0,0,0-2.01-2.844c-1.927-.249-3.21.94-3.031,2.616.083.779.125,1.562.235,2.336a2.289,2.289,0,0,0,2.386,1.876,2.333,2.333,0,0,0,2.318-2.1c.044-.648.071-1.3.1-1.88m6.923,1.376c.042-1.353-1-2.151-2.266-2.5a2.248,2.248,0,0,0-2.54,1.316c-.331.685-.653,1.376-.948,2.077a2.233,2.233,0,0,0,.5,2.526,2.521,2.521,0,0,0,2.7.548,7.406,7.406,0,0,0,2.551-3.853c0-.038,0-.077,0-.115" fill="#fffefe"/><path d="M59,27.372c-.762,1.584-2.348,2.03-3.781,2.591a2.189,2.189,0,0,1-2.672-1.428,2.229,2.229,0,0,1,.75-2.793c.551-.409,1.118-.8,1.68-1.192a2.3,2.3,0,0,1,3.556.747c.163.266.311.54.467.81Zm-4.435.93a1.161,1.161,0,0,0,.253-.016A24.068,24.068,0,0,0,57.087,27.1c.432-.282.078-.684-.118-1-.179-.29-.433-.47-.762-.253-.651.432-1.3.874-1.912,1.356a.662.662,0,0,0-.136.592,1.7,1.7,0,0,0,.406.51" fill="#0b0b0b"/><path d="M3.228,14.851a.937.937,0,0,1-.937-1.014c-.012-.477-.077-.954-.124-1.43-.092-.938.192-1.251,1.148-1.25q9.142.008,18.284.025a1.473,1.473,0,0,0,1.112-.433c1.1-1.037,2.238-2.039,3.357-3.058a3,3,0,0,1,5.1,1.413c.155.53.286,1.069.47,1.588a.613.613,0,0,0,.392.359,2.776,2.776,0,0,1,1.193,5.2c.132.473.264.944.407,1.455a2.827,2.827,0,0,1,3.253,2.368c.243,1.159-.394,2.222-1.746,2.992l.9,1.28a2.767,2.767,0,0,1,3.472-1.157,2.716,2.716,0,0,1,1.651,3.192c3.031,1.185,6.028,2.346,9.017,3.529a7.954,7.954,0,0,1,5.22,7.966,34.008,34.008,0,0,1-.7,4c-.193,1.011-.415,2.017-.633,3.023a.585.585,0,0,0,.306.693,3.514,3.514,0,0,1,1.585,3.677,3.561,3.561,0,0,1-2.867,3,4.814,4.814,0,0,1-1.141.079c-7.034.005-14.067-.009-21.1.015A4.308,4.308,0,0,1,27.7,51.1c-1.805-1.717-3.643-3.4-5.473-5.089-.34-.313-.647-.791-1.215-.53-.532.245-.406.769-.41,1.217-.01.863.01,1.725-.011,2.587a3.025,3.025,0,0,1-3.016,3.046q-6.352.043-12.706.01a3.111,3.111,0,0,1-3.222-3.284c-.017-1.283.015-2.568-.019-3.851a1.2,1.2,0,0,0-.334-.766,3.694,3.694,0,0,1,.015-5.456.624.624,0,0,0,.207-.777,16.776,16.776,0,0,1-.837-6.21,13.951,13.951,0,0,1,1.261-5.313,11.458,11.458,0,0,0,.9-6.708c-.107-.8-.14-1.6-.215-2.4a.872.872,0,0,1,.732-1.053c.731.087.953.329,1.01,1.048.082,1.028.192,2.053.269,3.08a.7.7,0,0,0,.573.716c.967.286,1.924.611,2.873.953,2.285.823,4.7,1.325,6.745,2.744.088.073.174.149.264.219a10.392,10.392,0,0,1,4.14,6.847,46.18,46.18,0,0,1,.2,5.1c.007.241,0,.482,0,.751,1.225,0,2.373.012,3.52,0a4.182,4.182,0,0,1,3.056,1.213q2.9,2.745,5.863,5.423a1.466,1.466,0,0,0,.9.342q9.453.028,18.907.014h.6c.086-.467.157-.849.235-1.273h-.7q-7.068,0-14.137,0a2.445,2.445,0,0,1-2.667-2.58,31.845,31.845,0,0,1,.546-3.848.869.869,0,0,1,1.1-.738c.588.247.666.7.563,1.271-.178.994-.347,1.991-.448,2.994-.1.949.139,1.16,1.083,1.16q7.238,0,14.474,0a3.365,3.365,0,0,0,.532-.085c.193-.873.376-1.748.582-2.617a6.251,6.251,0,0,0-3.189-7.367c-1.522-.724-3.136-1.252-4.709-1.868a1.84,1.84,0,0,0-2.141-.024A13.3,13.3,0,0,0,38.7,34.458a1.057,1.057,0,0,1-1.322.587c-.559-.533-.61-.809-.191-1.442.369-.558.756-1.106,1.173-1.628a14.546,14.546,0,0,1,3.863-3.293c-.548-.219-1.056-.39-1.534-.622-.355-.173-.533-.066-.75.226-.832,1.123-1.685,2.23-2.543,3.333A2.6,2.6,0,0,1,34.935,32.7a2.707,2.707,0,0,1-1.893-4.391c.643-.876,1.315-1.731,1.925-2.532l-1.576-2.129c-1.141.392-2.325.82-3.522,1.2a2.726,2.726,0,0,1-1.736-5.167c1.263-.478,2.548-.9,3.856-1.357a8.246,8.246,0,0,1-.313-1.13c-.072-.537-.357-.55-.8-.483-1.379.208-2.761.428-4.15.541A2.68,2.68,0,0,1,23.832,14.7a2.769,2.769,0,0,1,2.438-2.854c1.209-.166,2.416-.343,3.708-.527-.17-.6-.319-1.167-.49-1.725A1.239,1.239,0,0,0,27.3,8.95c-1.245,1.107-2.487,2.219-3.7,3.364a2.167,2.167,0,0,1-1.64.632c-2.528-.03-5.056-.009-7.584-.007a2.73,2.73,0,0,0-.284-.028q-4.82-.01-9.639-.016c-.146,0-.291.026-.446.04-.045.754.324,1.646-.78,1.916m10.923,11.94a21.882,21.882,0,0,0-2.691-1.47c-1.9-.73-3.86-1.327-5.8-1.978-.3-.1-.6-.192-.925-.3a12.82,12.82,0,0,1-1.118,4.124,14.007,14.007,0,0,0-.666,9.69c.313,1.112.316,1.114,1.484,1.111l9.133-.024h4.021a48.39,48.39,0,0,0-.037-5.272,8.374,8.374,0,0,0-3.406-5.885M11.276,50.584c2.069.007,4.139.027,6.209.013a1.408,1.408,0,0,0,1.374-1.474c.01-1.035-.026-2.071.012-3.1a2.315,2.315,0,0,1,1.4-2.138,2.261,2.261,0,0,1,2.618.365q3.049,2.75,6.031,5.572a2.674,2.674,0,0,0,1.951.795q10.551-.02,21.1-.007c.134,0,.269.006.4,0a1.959,1.959,0,0,0,1.78-2.558A1.98,1.98,0,0,0,52.108,46.7c-6.651,0-13.3.005-19.952-.018a1.866,1.866,0,0,1-1.074-.4c-.683-.552-1.3-1.189-1.943-1.788-1.53-1.418-3.048-2.851-4.608-4.236A1.868,1.868,0,0,0,23.4,39.8c-4.466-.028-8.932-.014-13.4-.012-2.069,0-4.138-.008-6.207,0a1.9,1.9,0,0,0-1.039,3.518,1.373,1.373,0,0,1,.692,1.335c-.018,1.494-.01,2.988,0,4.482A1.325,1.325,0,0,0,4.84,50.6c2.145.013,4.291-.007,6.436-.014M34.135,19.477a.451.451,0,0,0-.087.017c-1.8.628-3.612,1.237-5.4,1.9a.872.872,0,0,0-.477,1.194.96.96,0,0,0,1.207.6c.656-.2,1.3-.446,1.948-.674,1.062-.374,2.127-.742,3.185-1.129a.932.932,0,0,0,.625-1.094.978.978,0,0,0-1-.815m1.018,11.61a3.908,3.908,0,0,0,.775-.484,14.494,14.494,0,0,0,.931-1.16c.779-1.015,1.565-2.024,2.325-3.053a.974.974,0,0,0-.092-1.436.928.928,0,0,0-1.341.1c-1.135,1.438-2.258,2.888-3.33,4.374a1.241,1.241,0,0,0-.052,1.019c.1.257.481.4.784.636m-8.41-15.558c.049-.005.182-.012.314-.031,1.525-.217,3.047-.452,4.574-.65.88-.114,1.329-.492,1.261-1.148-.066-.628-.551-.9-1.449-.817-.038,0-.076,0-.114.01q-2.4.339-4.8.678a.929.929,0,0,0-.894,1.045c.027.575.4.911,1.109.913" fill="#0b0908"/><path d="M14.833,25.06c-2.043-1.419-4.46-1.921-6.745-2.744-.949-.342-1.906-.667-2.873-.953a.7.7,0,0,1-.573-.716c-.077-1.027-.187-2.052-.269-3.08-.057-.719-.279-.961-1.011-1.048q-.066-.834-.134-1.668c1.1-.27.735-1.162.78-1.916.154-.014.3-.04.446-.04q4.819,0,9.639.016a2.757,2.757,0,0,1,.284.028c.118,1.609.224,3.22.361,4.828.082.962.248,1.918.315,2.882a19.518,19.518,0,0,1,.006,2.32c-.035.7-.148,1.394-.226,2.091" fill="#de8030"/><path d="M46.9,20.376c-.031.582-.058,1.232-.1,1.88a2.332,2.332,0,0,1-2.317,2.1A2.288,2.288,0,0,1,42.1,22.484c-.111-.774-.152-1.557-.236-2.336-.179-1.676,1.1-2.865,3.031-2.616a2.371,2.371,0,0,1,2.01,2.844m-2.537-1.091c-.671.017-.823.176-.763.832.055.609.142,1.216.182,1.825.029.453.233.665.685.645.473-.021.6-.312.614-.73.017-.593.058-1.185.085-1.777.03-.644-.14-.812-.8-.8" fill="#0d0d0c"/><path d="M53.827,21.752c0,.038,0,.077,0,.115a7.4,7.4,0,0,1-2.551,3.853,2.521,2.521,0,0,1-2.7-.548,2.233,2.233,0,0,1-.5-2.526c.295-.7.617-1.392.948-2.077a2.248,2.248,0,0,1,2.54-1.316c1.264.348,2.308,1.146,2.265,2.5m-4.27,1.8c.181.187.332.465.549.534a.763.763,0,0,0,.676-.188c.444-.592.818-1.236,1.216-1.862a.5.5,0,0,0-.207-.77c-.329-.19-.753-.583-1.047-.117a24.823,24.823,0,0,0-1.187,2.4" fill="#0c0c0b"/><path d="M54.565,28.3a1.7,1.7,0,0,1-.406-.51.662.662,0,0,1,.136-.592c.614-.482,1.261-.924,1.912-1.356.329-.217.583-.037.762.253.2.316.55.718.118,1a24.068,24.068,0,0,1-2.269,1.189,1.161,1.161,0,0,1-.253.016" fill="#ffd265"/><path d="M14.833,25.06c.078-.7.191-1.392.226-2.091a19.518,19.518,0,0,0-.006-2.32c-.067-.964-.233-1.92-.315-2.882-.137-1.608-.243-3.219-.361-4.828,2.528,0,5.056-.023,7.584.007a2.167,2.167,0,0,0,1.64-.632c1.21-1.145,2.453-2.257,3.7-3.364a1.239,1.239,0,0,1,2.189.642c.17.558.319,1.123.49,1.725-1.292.184-2.5.361-3.708.527A2.769,2.769,0,0,0,23.832,14.7a2.679,2.679,0,0,0,2.893,2.558c1.389-.113,2.77-.333,4.15-.541.444-.067.728-.054.8.483a8.106,8.106,0,0,0,.313,1.13c-1.309.458-2.594.879-3.857,1.357a2.726,2.726,0,0,0,1.737,5.167c1.2-.384,2.381-.812,3.522-1.2.53.717,1.035,1.4,1.576,2.129-.611.8-1.282,1.656-1.925,2.532A2.707,2.707,0,0,0,34.935,32.7a2.6,2.6,0,0,0,2.457-1.081c.857-1.1,1.711-2.211,2.543-3.333.216-.292.4-.4.75-.226.478.232.986.4,1.534.622a14.53,14.53,0,0,0-3.863,3.293c-.417.522-.805,1.07-1.174,1.628-.418.633-.367.909.192,1.442q-.353.738-.7,1.477a.869.869,0,0,0-1.1.738,31.647,31.647,0,0,0-.546,3.848,2.444,2.444,0,0,0,2.667,2.58q7.068.008,14.137,0h.7l-.234,1.273h-.6q-9.453,0-18.906-.014a1.466,1.466,0,0,1-.9-.342q-2.958-2.683-5.864-5.423a4.179,4.179,0,0,0-3.055-1.213c-1.148.015-2.3,0-3.52,0,0-.269.006-.51,0-.751a46.18,46.18,0,0,0-.2-5.1,10.4,10.4,0,0,0-4.14-6.847c-.09-.07-.176-.146-.264-.219" fill="#e3924c"/><path d="M10.005,39.79c4.466,0,8.931-.016,13.4.012a1.871,1.871,0,0,1,1.13.449c1.559,1.385,3.077,2.818,4.607,4.236.646.6,1.26,1.236,1.943,1.788a1.866,1.866,0,0,0,1.074.4c6.65.023,13.3.016,19.952.017a1.982,1.982,0,0,1,2.047,1.349,1.959,1.959,0,0,1-1.78,2.558c-.134.009-.269,0-.4,0q-10.551,0-21.1.007a2.678,2.678,0,0,1-1.951-.795Q25.931,47,22.888,44.245a2.261,2.261,0,0,0-2.618-.365,2.315,2.315,0,0,0-1.4,2.138c-.037,1.033,0,2.07-.012,3.1A1.408,1.408,0,0,1,17.485,50.6c-2.07.013-4.139-.006-6.209-.013a17.021,17.021,0,0,1-.334-2.064c-.056-1.2-.048-2.413,0-3.618a1.193,1.193,0,0,0-.56-1.081,2.373,2.373,0,0,1-.955-2.4,11.416,11.416,0,0,1,.579-1.632" fill="#3e4847"/><path d="M13.573,37.948q-4.568.012-9.134.024c-1.168,0-1.17,0-1.484-1.111a14.019,14.019,0,0,1,.666-9.69A12.8,12.8,0,0,0,4.74,23.047c.325.1.627.2.925.3,1.935.651,3.891,1.248,5.8,1.978a21.882,21.882,0,0,1,2.691,1.47c-.273.684-.6,1.352-.808,2.056a13.813,13.813,0,0,0-.356,6.489c.165.876.389,1.742.586,2.612" fill="#df8030"/><path d="M45.558,30.011c1.573.616,3.187,1.144,4.709,1.868a6.251,6.251,0,0,1,3.189,7.367c-.206.869-.389,1.744-.582,2.617H39.65a13.351,13.351,0,0,1,5.908-11.852" fill="#eae7eb"/><path d="M10.005,39.79a11.416,11.416,0,0,0-.579,1.632,2.373,2.373,0,0,0,.955,2.4,1.193,1.193,0,0,1,.56,1.081c-.047,1.2-.055,2.414,0,3.618a17.021,17.021,0,0,0,.334,2.064c-2.145.007-4.29.026-6.435.013a1.324,1.324,0,0,1-1.395-1.475c0-1.494-.013-2.989,0-4.483a1.372,1.372,0,0,0-.692-1.334A1.905,1.905,0,0,1,3.8,39.786c2.068-.005,4.137,0,6.206,0" fill="#363b3b"/><path d="M13.573,37.948c-.2-.87-.421-1.736-.586-2.612a13.813,13.813,0,0,1,.356-6.489c.2-.7.535-1.372.808-2.056a8.381,8.381,0,0,1,3.406,5.885,48.39,48.39,0,0,1,.037,5.272Z" fill="#e3924c"/><path d="M45.558,30.011A13.351,13.351,0,0,0,39.65,41.863H52.874a3.4,3.4,0,0,1-.532.085q-7.236,0-14.474,0c-.944,0-1.178-.211-1.083-1.16.1-1,.27-2,.448-2.994.1-.575.025-1.024-.563-1.271q.351-.738.7-1.477a1.058,1.058,0,0,0,1.322-.587,13.288,13.288,0,0,1,4.721-4.471,1.84,1.84,0,0,1,2.141.024" fill="#cecce2"/><path d="M34.135,19.477a.977.977,0,0,1,1,.815.932.932,0,0,1-.625,1.094c-1.058.386-2.123.754-3.185,1.128-.648.228-1.292.473-1.948.675a.96.96,0,0,1-1.207-.6.872.872,0,0,1,.477-1.194c1.789-.665,3.6-1.273,5.4-1.9a.429.429,0,0,1,.087-.016" fill="#3d4747"/><path d="M35.153,31.086c-.3-.232-.681-.379-.784-.636a1.245,1.245,0,0,1,.051-1.019c1.073-1.485,2.2-2.935,3.331-4.374a.928.928,0,0,1,1.341-.1.975.975,0,0,1,.092,1.436c-.761,1.028-1.546,2.038-2.325,3.052a14.538,14.538,0,0,1-.931,1.16,3.907,3.907,0,0,1-.775.484" fill="#3d4747"/><path d="M26.743,15.529c-.7,0-1.082-.338-1.109-.913a.929.929,0,0,1,.894-1.045q2.4-.338,4.8-.678c.038-.005.076-.006.114-.01.9-.084,1.383.189,1.449.817.068.656-.381,1.034-1.261,1.148-1.527.2-3.049.433-4.574.65-.132.019-.265.026-.314.031" fill="#3d4747"/><path d="M44.368,19.285c.663-.017.833.151.8.8-.027.592-.068,1.184-.085,1.777-.011.418-.141.709-.614.73-.452.02-.656-.192-.685-.645-.04-.609-.127-1.216-.182-1.825-.06-.656.092-.815.763-.832" fill="#ffd365"/><path d="M49.557,23.549a24.823,24.823,0,0,1,1.187-2.4c.294-.466.718-.073,1.047.117a.5.5,0,0,1,.207.77c-.4.626-.772,1.27-1.216,1.862a.763.763,0,0,1-.676.188c-.217-.069-.368-.347-.549-.534" fill="#ffd365"/></g></g></g></svg>