<svg xmlns="http://www.w3.org/2000/svg" xmlns:xlink="http://www.w3.org/1999/xlink" width="108.914" height="108.914" viewBox="0 0 108.914 108.914"><defs><filter id="a" x="0" y="0" width="108.914" height="108.914" filterUnits="userSpaceOnUse"><feOffset dy="3" input="SourceAlpha"/><feGaussianBlur stdDeviation="3" result="b"/><feFlood flood-opacity="0.161"/><feComposite operator="in" in2="b"/><feComposite in="SourceGraphic"/></filter><clipPath id="c"><rect width="60" height="60" fill="none"/></clipPath></defs><g transform="translate(-799.5 -2534.157)"><g transform="translate(0 587.946)"><g transform="translate(808.5 1952.211)"><g transform="matrix(1, 0, 0, 1, -9, -6)" filter="url(#a)"><g transform="translate(9 6)" fill="#d8cabd" opacity="0.859"><path d="M 45.45676803588867 89.41407012939453 C 39.52198028564453 89.41407012939453 33.76551818847656 88.25206756591797 28.34726715087891 85.96034240722656 C 23.11311721801758 83.74648284912109 18.41204261779785 80.57682800292969 14.37464332580566 76.5394287109375 C 10.33724308013916 72.50202941894531 7.167593002319336 67.80095672607422 4.953730583190918 62.56679534912109 C 2.662005424499512 57.14855575561523 1.500005483627319 51.39208221435547 1.500005483627319 45.45729446411133 C 1.500005483627319 39.52198028564453 2.662005424499512 33.76551818847656 4.953730583190918 28.34726905822754 C 7.167593002319336 23.11310577392578 10.33724308013916 18.41203117370605 14.37464332580566 14.37464332580566 C 18.41204261779785 10.33724403381348 23.11311721801758 7.167593955993652 28.34726715087891 4.953731060028076 C 33.76551818847656 2.662006139755249 39.52198028564453 1.500006198883057 45.45676803588867 1.500006198883057 C 51.39155578613281 1.500006198883057 57.14802932739258 2.662006139755249 62.56626892089844 4.953731060028076 C 67.80043029785156 7.167593955993652 72.50150299072266 10.33724403381348 76.53890228271484 14.37464332580566 C 80.57630920410156 18.41203117370605 83.74595642089844 23.11310577392578 85.95981597900391 28.34726905822754 C 88.25154113769531 33.76551818847656 89.41354370117188 39.52198028564453 89.41354370117188 45.45676803588867 C 89.41354370117188 51.39208221435547 88.25154113769531 57.14855575561523 85.95981597900391 62.56679534912109 C 83.74595642089844 67.80095672607422 80.57630920410156 72.50202941894531 76.53890228271484 76.5394287109375 C 72.50150299072266 80.57682800292969 67.80043029785156 83.74648284912109 62.56626892089844 85.96034240722656 C 57.14802932739258 88.25206756591797 51.39155578613281 89.41407012939453 45.45676803588867 89.41407012939453 Z" stroke="none"/><path d="M 45.45676803588867 3 C 39.72381210327148 3 34.1639404296875 4.12213134765625 28.93159484863281 6.335227966308594 C 23.87622833251953 8.473472595214844 19.33542633056641 11.53517150878906 15.43529510498047 15.435302734375 C 11.53517150878906 19.33543395996094 8.473464965820312 23.87622833251953 6.335227966308594 28.93160247802734 C 4.122123718261719 34.16394424438477 3 39.72381591796875 3 45.4572868347168 C 3 51.19024658203125 4.122123718261719 56.75011825561523 6.335227966308594 61.98246002197266 C 8.473464965820312 67.03782653808594 11.53517150878906 71.57862854003906 15.43529510498047 75.478759765625 C 19.33542633056641 79.37889099121094 23.87622833251953 82.44058990478516 28.93159484863281 84.57883453369141 C 34.1639404296875 86.79193115234375 39.72381210327148 87.9140625 45.45676803588867 87.9140625 C 51.18972396850586 87.9140625 56.74959564208984 86.79193115234375 61.98194122314453 84.57883453369141 C 67.03730773925781 82.44058990478516 71.57810974121094 79.37889099121094 75.47824096679688 75.478759765625 C 79.37837219238281 71.57862854003906 82.44007110595703 67.03782653808594 84.57830810546875 61.98246002197266 C 86.79141235351562 56.75011825561523 87.91353607177734 51.19024658203125 87.91353607177734 45.4567756652832 C 87.91353607177734 39.72381591796875 86.79141235351562 34.16394424438477 84.57830810546875 28.93160247802734 C 82.44007110595703 23.87622833251953 79.37837219238281 19.33543395996094 75.47824096679688 15.435302734375 C 71.57810974121094 11.53517150878906 67.03730773925781 8.473472595214844 61.98194122314453 6.335227966308594 C 56.74959564208984 4.12213134765625 51.18972396850586 3 45.45676803588867 3 M 45.45676803588867 0 C 70.56185150146484 0 90.91353607177734 20.35169219970703 90.91353607177734 45.4567756652832 L 90.91353607177734 45.4572868347168 C 90.91353607177734 70.5623779296875 70.56185150146484 90.9140625 45.45676803588867 90.9140625 C 20.3516845703125 90.9140625 0 70.5623779296875 0 45.4572868347168 L 0 45.4567756652832 C 0 20.35169219970703 20.3516845703125 0 45.45676803588867 0 Z" stroke="none" fill="#fff"/></g></g><g transform="translate(0 0)" fill="none"><path d="M45.457,0A45.457,45.457,0,0,1,90.914,45.457h0A45.457,45.457,0,0,1,0,45.457H0A45.457,45.457,0,0,1,45.457,0Z" stroke="none"/><path d="M 45.45676803588867 3 C 39.72381210327148 3 34.1639404296875 4.12213134765625 28.93159484863281 6.335227966308594 C 23.87622833251953 8.473472595214844 19.33542633056641 11.53517150878906 15.43529510498047 15.435302734375 C 11.53517150878906 19.33543395996094 8.473464965820312 23.87622833251953 6.335227966308594 28.93160247802734 C 4.122123718261719 34.16394424438477 3 39.72381591796875 3 45.4572868347168 C 3 51.19024658203125 4.122123718261719 56.75011825561523 6.335227966308594 61.98246002197266 C 8.473464965820312 67.03782653808594 11.53517150878906 71.57862854003906 15.43529510498047 75.478759765625 C 19.33542633056641 79.37889099121094 23.87622833251953 82.44058990478516 28.93159484863281 84.57883453369141 C 34.1639404296875 86.79193115234375 39.72381210327148 87.9140625 45.45676803588867 87.9140625 C 51.18972396850586 87.9140625 56.74959564208984 86.79193115234375 61.98194122314453 84.57883453369141 C 67.03730773925781 82.44058990478516 71.57810974121094 79.37889099121094 75.47824096679688 75.478759765625 C 79.37837219238281 71.57862854003906 82.44007110595703 67.03782653808594 84.57830810546875 61.98246002197266 C 86.79141235351562 56.75011825561523 87.91353607177734 51.19024658203125 87.91353607177734 45.4567756652832 C 87.91353607177734 39.72381591796875 86.79141235351562 34.16394424438477 84.57830810546875 28.93160247802734 C 82.44007110595703 23.87622833251953 79.37837219238281 19.33543395996094 75.47824096679688 15.435302734375 C 71.57810974121094 11.53517150878906 67.03730773925781 8.473472595214844 61.98194122314453 6.335227966308594 C 56.74959564208984 4.12213134765625 51.18972396850586 3 45.45676803588867 3 M 45.45676803588867 0 C 70.56185150146484 0 90.91353607177734 20.35169219970703 90.91353607177734 45.4567756652832 L 90.91353607177734 45.4572868347168 C 90.91353607177734 70.5623779296875 70.56185150146484 90.9140625 45.45676803588867 90.9140625 C 20.3516845703125 90.9140625 0 70.5623779296875 0 45.4572868347168 L 0 45.4567756652832 C 0 20.35169219970703 20.3516845703125 0 45.45676803588867 0 Z" stroke="none" fill="#fff"/></g></g></g><g transform="translate(823.635 2556.897)"><g clip-path="url(#c)"><path d="M60,60h0ZM9.771,44.432c.117-2.251.157-3.889.3-5.518a23.292,23.292,0,0,1,1.384-6.487,2.1,2.1,0,0,1,3.1-1.383,9.426,9.426,0,0,1,3.5,2.475,27.492,27.492,0,0,1,5,8.107c1.072,2.478,2.079,4.995,3.321,7.388a11.012,11.012,0,0,0,7.236,5.922,18.921,18.921,0,0,0,7.89.091,63.538,63.538,0,0,0,14.5-4.7,2.191,2.191,0,0,0,1.344-1.71c.383-1.987.8-3.966,1.206-5.949a3.327,3.327,0,0,0-2.015-4.011,10.128,10.128,0,0,0-1.42-.527c-3.008-.863-6.022-1.708-9.032-2.568a7.878,7.878,0,0,1-2.951-1.606,13.352,13.352,0,0,1-3.817-6.05A35.67,35.67,0,0,1,37.539,16.82c-.026-1.284-.349-1.578-1.648-1.632-2.1-.087-4.2-.211-6.3-.333a14.02,14.02,0,0,1-9.751-4.547c-1.093-1.162-2.262-2.26-3.457-3.319A10.108,10.108,0,0,0,12.46,4.627a2.349,2.349,0,0,0-2.031.163,25.433,25.433,0,0,0-5.685,5C1.35,13.942.347,18.558,2.118,23.669A80.526,80.526,0,0,1,6.075,45.424c.154,2.606.163,5.22.237,7.831a1.262,1.262,0,0,0,1.352,1.351c.428.01.857,0,1.286,0,1.238,0,1.668-.569,1.547-1.817-.288-2.985-.522-5.974-.726-8.359" fill="#fff"/><path d="M9.771,44.432c.2,2.384.437,5.374.726,8.359.12,1.248-.309,1.813-1.547,1.816-.429,0-.858.009-1.287,0a1.264,1.264,0,0,1-1.352-1.352c-.073-2.61-.082-5.224-.237-7.83A80.486,80.486,0,0,0,2.118,23.669C.347,18.557,1.349,13.942,4.743,9.786a25.442,25.442,0,0,1,5.686-5,2.356,2.356,0,0,1,2.031-.163,10.094,10.094,0,0,1,3.918,2.363c1.195,1.059,2.365,2.156,3.457,3.319a14.028,14.028,0,0,0,9.751,4.547c2.1.122,4.2.246,6.3.333,1.3.054,1.622.348,1.648,1.632A35.675,35.675,0,0,0,39.315,27.9a13.355,13.355,0,0,0,3.816,6.05,7.882,7.882,0,0,0,2.952,1.606c3.009.86,6.023,1.7,9.032,2.568a10.124,10.124,0,0,1,1.42.526,3.329,3.329,0,0,1,2.015,4.012c-.4,1.983-.823,3.962-1.207,5.949A2.188,2.188,0,0,1,56,50.322a63.447,63.447,0,0,1-14.5,4.7,18.926,18.926,0,0,1-7.891-.091,11.006,11.006,0,0,1-7.235-5.922c-1.243-2.392-2.249-4.909-3.321-7.388a27.529,27.529,0,0,0-5-8.106,9.43,9.43,0,0,0-3.5-2.475,2.1,2.1,0,0,0-3.095,1.383,23.323,23.323,0,0,0-1.385,6.486c-.141,1.63-.181,3.268-.3,5.519m1.212-36.49-.771-1.554A21.417,21.417,0,0,0,5.649,10.56l2.071,1,2.129,1.557,2.615-2.731L10.983,7.942m9.846,9.466-.113-.08.063.142c1.17,1.275,2.27,2.623,3.525,3.808a17.056,17.056,0,0,0,7.668,4.4,11.05,11.05,0,0,0,5.274.036c-.359-3.107-.709-6.146-1.06-9.185a18.863,18.863,0,0,1-6.047,1.77,15.347,15.347,0,0,1-5.92.156c-1.149-.262-2.261-.69-3.39-1.043M25.968,45.38a.242.242,0,0,0-.021-.039c-.005-.005-.019,0-.029,0l.057.034a1.837,1.837,0,0,0,.1.439c.583,1.144,1.11,2.323,1.783,3.412A9.725,9.725,0,0,0,34.7,53.95a20.06,20.06,0,0,0,7.14-.2,63.7,63.7,0,0,0,13.607-4.481,1.238,1.238,0,0,0,.67-.664c.26-.991.423-2.007.623-3.016-.736.4-1.421.849-2.159,1.175a26.425,26.425,0,0,1-10.134,1.972c-2.136.055-4.282-.071-6.418-.208a30.639,30.639,0,0,1-7.495-1.4c-1.549-.5-3.047-1.161-4.567-1.75M9.242,35.9c.078-.318.142-.64.237-.953.338-1.114.623-2.251,1.047-3.332a2.987,2.987,0,0,1,3.846-1.839,11.134,11.134,0,0,1,2.88,1.487,18.36,18.36,0,0,1,4.9,5.88c.145.247.307.484.461.726a4.574,4.574,0,0,0-.07-1.439,30.775,30.775,0,0,0-3.66-9.914C17.1,23.472,15.351,20.4,12.5,18.149c-.928-.732-1.726-1.63-2.585-2.451-.421-.4-.9-.768-.836-1.456a.411.411,0,0,0-.173-.285c-.623-.46-1.254-.908-1.883-1.36l-2.113-1.06c-.163.225-.259.346-.343.475A12.015,12.015,0,0,0,3.109,22.888a75.606,75.606,0,0,1,3,12.035A98.912,98.912,0,0,1,7.385,48.2c.023.87.089,1.739.136,2.628H9c-.09-1.691-.233-3.338-.252-4.986q-.035-3.177.1-6.354c.05-1.2.254-2.393.389-3.589m8.147-20.871c-.9.948-1.734,1.852-2.606,2.712-.323.319-.263.521-.005.818a41.254,41.254,0,0,1,6.7,10.5,29.919,29.919,0,0,1,2.65,11.288A3.824,3.824,0,0,0,26.4,44.146c.054.023.105.052.157.078a34.174,34.174,0,0,0,14.554,3.342,54.91,54.91,0,0,0,5.774-.2,22.678,22.678,0,0,0,6.32-1.3A7.572,7.572,0,0,0,56.8,43.753a2.542,2.542,0,0,0-1.122-4.192,11.049,11.049,0,0,0-1.1-.378c-2.826-.8-5.655-1.581-8.482-2.376a9.677,9.677,0,0,1-4.509-2.694,16.49,16.49,0,0,1-3.631-6.593c-.142-.455-.338-.559-.789-.493a14.031,14.031,0,0,1-6.175-.4,20.526,20.526,0,0,1-8.364-5.285A32.889,32.889,0,0,1,18.1,15.847a8.189,8.189,0,0,0-.71-.816M11.3,5.624l-.093.163c.931,1.615,1.574,3.4,3.039,4.692,1.429,1.265,2.742,2.664,4.2,3.9a11.527,11.527,0,0,0,7.531,3.061,44.006,44.006,0,0,0,5.444-.579,19.422,19.422,0,0,0,1.933-.443c-1.7-.22-3.369-.339-5.029-.527a13.433,13.433,0,0,1-7.8-3.369c-1.537-1.409-2.961-2.943-4.539-4.3a25.156,25.156,0,0,0-3.365-2.284A4.33,4.33,0,0,0,11.3,5.624m-1.133,8.7,3.051,2.909,3.073-2.71-2.719-3.2-3.4,3M7.507,53.409H9.358c-.06-.47-.114-.9-.168-1.322H7.507ZM22.736,38.066l-.015.048.056.008a.2.2,0,0,0-.009-.05c0-.006-.021,0-.032-.006" fill="#1c3557"/><path d="M17.389,15.031a8.189,8.189,0,0,1,.71.816,32.889,32.889,0,0,0,4.521,5.495,20.541,20.541,0,0,0,8.363,5.286,14.055,14.055,0,0,0,6.177.4c.451-.066.646.038.788.494a16.491,16.491,0,0,0,3.631,6.592,9.682,9.682,0,0,0,4.509,2.694c2.827.8,5.656,1.58,8.482,2.376a11.056,11.056,0,0,1,1.1.379A2.542,2.542,0,0,1,56.8,43.754a7.577,7.577,0,0,1-3.588,2.307,22.68,22.68,0,0,1-6.32,1.305,54.631,54.631,0,0,1-5.774.2,34.188,34.188,0,0,1-14.554-3.341c-.052-.027-.1-.056-.157-.079a3.823,3.823,0,0,1-2.278-3.795,29.919,29.919,0,0,0-2.65-11.288,41.3,41.3,0,0,0-6.7-10.5c-.259-.3-.318-.5.005-.817.872-.861,1.7-1.765,2.606-2.713" fill="#5c639e"/><path d="M7.024,12.6c.629.452,1.26.9,1.883,1.361a.411.411,0,0,1,.173.284c-.062.688.415,1.054.836,1.457.859.821,1.657,1.718,2.585,2.451,2.85,2.248,4.6,5.322,6.379,8.368a30.775,30.775,0,0,1,3.66,9.914,4.58,4.58,0,0,1,.07,1.44c-.154-.242-.316-.48-.461-.727a18.371,18.371,0,0,0-4.9-5.88,11.131,11.131,0,0,0-2.88-1.486,2.985,2.985,0,0,0-3.846,1.838c-.424,1.081-.708,2.218-1.047,3.332-.1.313-.159.635-.237.953a.72.72,0,0,1-.109-.2c-.281-1.543-.466-3.109-.854-4.624-.7-2.722-1.551-5.405-2.27-8.122a18.357,18.357,0,0,1-.61-3.481A12.365,12.365,0,0,1,7.024,12.6" fill="#b3523d"/><path d="M25.968,45.381c1.521.589,3.019,1.248,4.567,1.75a30.638,30.638,0,0,0,7.5,1.4c2.135.137,4.281.263,6.417.207a26.424,26.424,0,0,0,10.134-1.971c.738-.326,1.423-.771,2.159-1.176-.2,1.01-.363,2.026-.623,3.017a1.236,1.236,0,0,1-.669.664,63.762,63.762,0,0,1-13.608,4.481,20.06,20.06,0,0,1-7.14.2,9.725,9.725,0,0,1-6.842-4.727c-.672-1.089-1.2-2.269-1.783-3.412a1.834,1.834,0,0,1-.1-.44l-.008.009" fill="#b3523d"/><path d="M7.024,12.6A12.365,12.365,0,0,0,5.4,19.479a18.357,18.357,0,0,0,.61,3.481c.719,2.717,1.572,5.4,2.27,8.122.388,1.515.573,3.081.854,4.624a.72.72,0,0,0,.109.2c-.135,1.2-.339,2.39-.389,3.589q-.132,3.174-.1,6.355c.018,1.647.161,3.294.251,4.986H7.521c-.047-.89-.113-1.759-.136-2.628A98.911,98.911,0,0,0,6.107,34.923a75.633,75.633,0,0,0-3-12.035A12.016,12.016,0,0,1,4.568,12.012c.084-.129.18-.25.343-.475L7.024,12.6" fill="#863e30"/><path d="M20.83,17.408c1.129.353,2.24.781,3.39,1.043a15.347,15.347,0,0,0,5.92-.156,18.878,18.878,0,0,0,6.047-1.77c.351,3.04.7,6.078,1.059,9.185a11.062,11.062,0,0,1-5.274-.035,17.063,17.063,0,0,1-7.668-4.4c-1.254-1.185-2.354-2.533-3.524-3.808.016-.021.033-.041.05-.062" fill="#eb7f26"/><path d="M11.3,5.624a4.316,4.316,0,0,1,1.314.309,25.326,25.326,0,0,1,3.366,2.284c1.578,1.359,3,2.893,4.538,4.3a13.43,13.43,0,0,0,7.8,3.369c1.66.188,3.328.308,5.029.527a19.486,19.486,0,0,1-1.933.443,44.2,44.2,0,0,1-5.444.58,11.521,11.521,0,0,1-7.531-3.062c-1.455-1.233-2.768-2.632-4.2-3.9-1.464-1.3-2.108-3.077-3.039-4.691l.094-.164" fill="#facba6"/><path d="M10.168,14.322l3.4-3,2.719,3.2-3.073,2.709-3.051-2.909" fill="#e56881"/><path d="M10.983,7.942c.484.8.967,1.6,1.481,2.448L9.85,13.121,7.721,11.564c.574-.749,1.112-1.53,1.734-2.237a17.378,17.378,0,0,1,1.528-1.385" fill="#ea7f26"/><path d="M10.983,7.942A17.378,17.378,0,0,0,9.455,9.327c-.622.707-1.16,1.488-1.734,2.237l-2.072-1a21.441,21.441,0,0,1,4.563-4.172l.771,1.554" fill="#ba5f1d"/><path d="M7.508,53.409V52.087H9.191c.054.424.108.852.168,1.322Z" fill="#5a629c"/><path d="M20.78,17.47l-.063-.142.113.08c-.017.02-.034.041-.05.062" fill="#eb7f26"/><path d="M22.736,38.066c.011,0,.03,0,.032.006a.2.2,0,0,1,.009.05l-.056-.008.015-.048" fill="#b3523d"/><path d="M25.976,45.372l-.057-.033c.01,0,.024,0,.029,0a.143.143,0,0,1,.02.039l.008-.009" fill="#b3523d"/></g></g></g></svg>