<svg xmlns="http://www.w3.org/2000/svg" xmlns:xlink="http://www.w3.org/1999/xlink" width="108.914" height="108.914" viewBox="0 0 108.914 108.914"><defs><filter id="a" x="0" y="0" width="108.914" height="108.914" filterUnits="userSpaceOnUse"><feOffset dy="3" input="SourceAlpha"/><feGaussianBlur stdDeviation="3" result="b"/><feFlood flood-opacity="0.161"/><feComposite operator="in" in2="b"/><feComposite in="SourceGraphic"/></filter><clipPath id="c"><rect width="58" height="58" fill="none"/></clipPath></defs><g transform="translate(-799.5 -2534.157)"><g transform="translate(0 587.946)"><g transform="translate(808.5 1952.211)"><g transform="matrix(1, 0, 0, 1, -9, -6)" filter="url(#a)"><g transform="translate(9 6)" fill="#d8cabd" opacity="0.859"><path d="M 45.45676803588867 89.41407012939453 C 39.52198028564453 89.41407012939453 33.76551818847656 88.25206756591797 28.34726715087891 85.96034240722656 C 23.11311721801758 83.74648284912109 18.41204261779785 80.57682800292969 14.37464332580566 76.5394287109375 C 10.33724308013916 72.50202941894531 7.167593002319336 67.80095672607422 4.953730583190918 62.56679534912109 C 2.662005424499512 57.14855575561523 1.500005483627319 51.39208221435547 1.500005483627319 45.45729446411133 C 1.500005483627319 39.52198028564453 2.662005424499512 33.76551818847656 4.953730583190918 28.34726905822754 C 7.167593002319336 23.11310577392578 10.33724308013916 18.41203117370605 14.37464332580566 14.37464332580566 C 18.41204261779785 10.33724403381348 23.11311721801758 7.167593955993652 28.34726715087891 4.953731060028076 C 33.76551818847656 2.662006139755249 39.52198028564453 1.500006198883057 45.45676803588867 1.500006198883057 C 51.39155578613281 1.500006198883057 57.14802932739258 2.662006139755249 62.56626892089844 4.953731060028076 C 67.80043029785156 7.167593955993652 72.50150299072266 10.33724403381348 76.53890228271484 14.37464332580566 C 80.57630920410156 18.41203117370605 83.74595642089844 23.11310577392578 85.95981597900391 28.34726905822754 C 88.25154113769531 33.76551818847656 89.41354370117188 39.52198028564453 89.41354370117188 45.45676803588867 C 89.41354370117188 51.39208221435547 88.25154113769531 57.14855575561523 85.95981597900391 62.56679534912109 C 83.74595642089844 67.80095672607422 80.57630920410156 72.50202941894531 76.53890228271484 76.5394287109375 C 72.50150299072266 80.57682800292969 67.80043029785156 83.74648284912109 62.56626892089844 85.96034240722656 C 57.14802932739258 88.25206756591797 51.39155578613281 89.41407012939453 45.45676803588867 89.41407012939453 Z" stroke="none"/><path d="M 45.45676803588867 3 C 39.72381210327148 3 34.1639404296875 4.12213134765625 28.93159484863281 6.335227966308594 C 23.87622833251953 8.473472595214844 19.33542633056641 11.53517150878906 15.43529510498047 15.435302734375 C 11.53517150878906 19.33543395996094 8.473464965820312 23.87622833251953 6.335227966308594 28.93160247802734 C 4.122123718261719 34.16394424438477 3 39.72381591796875 3 45.4572868347168 C 3 51.19024658203125 4.122123718261719 56.75011825561523 6.335227966308594 61.98246002197266 C 8.473464965820312 67.03782653808594 11.53517150878906 71.57862854003906 15.43529510498047 75.478759765625 C 19.33542633056641 79.37889099121094 23.87622833251953 82.44058990478516 28.93159484863281 84.57883453369141 C 34.1639404296875 86.79193115234375 39.72381210327148 87.9140625 45.45676803588867 87.9140625 C 51.18972396850586 87.9140625 56.74959564208984 86.79193115234375 61.98194122314453 84.57883453369141 C 67.03730773925781 82.44058990478516 71.57810974121094 79.37889099121094 75.47824096679688 75.478759765625 C 79.37837219238281 71.57862854003906 82.44007110595703 67.03782653808594 84.57830810546875 61.98246002197266 C 86.79141235351562 56.75011825561523 87.91353607177734 51.19024658203125 87.91353607177734 45.4567756652832 C 87.91353607177734 39.72381591796875 86.79141235351562 34.16394424438477 84.57830810546875 28.93160247802734 C 82.44007110595703 23.87622833251953 79.37837219238281 19.33543395996094 75.47824096679688 15.435302734375 C 71.57810974121094 11.53517150878906 67.03730773925781 8.473472595214844 61.98194122314453 6.335227966308594 C 56.74959564208984 4.12213134765625 51.18972396850586 3 45.45676803588867 3 M 45.45676803588867 0 C 70.56185150146484 0 90.91353607177734 20.35169219970703 90.91353607177734 45.4567756652832 L 90.91353607177734 45.4572868347168 C 90.91353607177734 70.5623779296875 70.56185150146484 90.9140625 45.45676803588867 90.9140625 C 20.3516845703125 90.9140625 0 70.5623779296875 0 45.4572868347168 L 0 45.4567756652832 C 0 20.35169219970703 20.3516845703125 0 45.45676803588867 0 Z" stroke="none" fill="#fff"/></g></g><g transform="translate(0 0)" fill="none"><path d="M45.457,0A45.457,45.457,0,0,1,90.914,45.457h0A45.457,45.457,0,0,1,0,45.457H0A45.457,45.457,0,0,1,45.457,0Z" stroke="none"/><path d="M 45.45676803588867 3 C 39.72381210327148 3 34.1639404296875 4.12213134765625 28.93159484863281 6.335227966308594 C 23.87622833251953 8.473472595214844 19.33542633056641 11.53517150878906 15.43529510498047 15.435302734375 C 11.53517150878906 19.33543395996094 8.473464965820312 23.87622833251953 6.335227966308594 28.93160247802734 C 4.122123718261719 34.16394424438477 3 39.72381591796875 3 45.4572868347168 C 3 51.19024658203125 4.122123718261719 56.75011825561523 6.335227966308594 61.98246002197266 C 8.473464965820312 67.03782653808594 11.53517150878906 71.57862854003906 15.43529510498047 75.478759765625 C 19.33542633056641 79.37889099121094 23.87622833251953 82.44058990478516 28.93159484863281 84.57883453369141 C 34.1639404296875 86.79193115234375 39.72381210327148 87.9140625 45.45676803588867 87.9140625 C 51.18972396850586 87.9140625 56.74959564208984 86.79193115234375 61.98194122314453 84.57883453369141 C 67.03730773925781 82.44058990478516 71.57810974121094 79.37889099121094 75.47824096679688 75.478759765625 C 79.37837219238281 71.57862854003906 82.44007110595703 67.03782653808594 84.57830810546875 61.98246002197266 C 86.79141235351562 56.75011825561523 87.91353607177734 51.19024658203125 87.91353607177734 45.4567756652832 C 87.91353607177734 39.72381591796875 86.79141235351562 34.16394424438477 84.57830810546875 28.93160247802734 C 82.44007110595703 23.87622833251953 79.37837219238281 19.33543395996094 75.47824096679688 15.435302734375 C 71.57810974121094 11.53517150878906 67.03730773925781 8.473472595214844 61.98194122314453 6.335227966308594 C 56.74959564208984 4.12213134765625 51.18972396850586 3 45.45676803588867 3 M 45.45676803588867 0 C 70.56185150146484 0 90.91353607177734 20.35169219970703 90.91353607177734 45.4567756652832 L 90.91353607177734 45.4572868347168 C 90.91353607177734 70.5623779296875 70.56185150146484 90.9140625 45.45676803588867 90.9140625 C 20.3516845703125 90.9140625 0 70.5623779296875 0 45.4572868347168 L 0 45.4567756652832 C 0 20.35169219970703 20.3516845703125 0 45.45676803588867 0 Z" stroke="none" fill="#fff"/></g></g></g><g transform="translate(825.051 2557.015)"><g clip-path="url(#c)"><path d="M57.658,0V47.774a1.659,1.659,0,0,1-.6-1.6,14.3,14.3,0,0,0,.007-1.741A7.3,7.3,0,0,0,52.441,37.5a19.872,19.872,0,0,0-2.8-.742,11.192,11.192,0,0,1-6.389-4.416c.134-.183.254-.327.351-.485a2.2,2.2,0,0,0-1.6-3.382,1.263,1.263,0,0,1-1.362-.964,4.775,4.775,0,0,0-.276-.554,2.288,2.288,0,0,0-2.041-3.936,9.108,9.108,0,0,0-.473-.915.666.666,0,0,1,.044-.926,2.183,2.183,0,0,0-.109-2.83,2.271,2.271,0,0,0-2.235-.712c-.187-.361-.35-.717-.549-1.051a.512.512,0,0,1,.063-.725,1.981,1.981,0,0,0,.5-1.665c-.2-1.381-1.21-2.09-2.792-1.962l-.816-1.561A5.2,5.2,0,0,0,24.8,8.229c-.872.4-.944.517-.913,1.42l-2.113.623a1.036,1.036,0,0,0-1.263-.625,15.229,15.229,0,0,1-8.738-.911c-2.01-.839-3.964-1.81-5.95-2.7a3.079,3.079,0,0,0-4.477,2.3C1.138,9.337.918,10.338.7,11.34A24.163,24.163,0,0,0,.683,22.13c.357,1.5.922,2.943,1.339,4.427.591,2.1,1.134,4.206,1.7,6.311.217.809.394.956,1.183.982q.276,1.079.553,2.16c-.629.373-.717.578-.53,1.281q1.7,6.4,3.407,12.791c.2.762.441.944,1.221.944q2.528,0,5.057,0c1.124,0,1.343-.218,1.343-1.335q0-5.169,0-10.339c0-.936.739-1.544,1.538-1.223a2.174,2.174,0,0,1,.783.689c2.059,2.547,4.123,5.09,6.146,7.665a13.411,13.411,0,0,0,11.11,5.4q10.285-.016,20.568,0a1.63,1.63,0,0,0,1.558-.74" transform="translate(0.007)" fill="#fff"/><path d="M57.273,50.527a1.63,1.63,0,0,1-1.558.74q-10.283-.018-20.568,0a13.411,13.411,0,0,1-11.11-5.4c-2.024-2.575-4.088-5.117-6.146-7.665a2.174,2.174,0,0,0-.783-.689c-.8-.321-1.537.288-1.538,1.223q-.007,5.17,0,10.341c0,1.116-.219,1.334-1.343,1.335H9.167c-.78,0-1.017-.182-1.221-.944Q6.241,43.069,4.54,36.673c-.187-.7-.1-.909.53-1.282.73-.005.94.175,1.162,1q1.436,5.34,2.873,10.679c.139.536.279,1.073.415,1.592h4.35v-.636c0-3.026.022-6.053-.012-9.077a3.377,3.377,0,0,1,.945-2.538c1.789-1.142,3.115-.923,4.44.73q3.2,3.985,6.4,7.966a10.4,10.4,0,0,0,3.732,3.069,9.531,9.531,0,0,0,4.854,1.33c6.982.033,13.964.018,20.947.02.124,0,.249-.018.38-.029V48.163c-.688,0-1.339-.01-1.991,0a.93.93,0,0,1-1.059-.782c.12-.75.3-.91,1.067-.916.441,0,.881,0,1.36,0,0-.989.007-1.886,0-2.782a5.588,5.588,0,0,0-4.4-5.494c-.182-.046-.36-.1-.544-.137a12.857,12.857,0,0,1-8.343-5.12.456.456,0,0,0-.7-.159c-.971.523-1.946,1.041-2.939,1.521a2.253,2.253,0,0,1-2.016-4.03c1.05-.567,2.115-1.105,3.207-1.676l-.717-1.395c-.222.11-.388.191-.553.275-.934.474-1.852.98-2.8,1.418a2.222,2.222,0,0,1-3.159-2.048A2.166,2.166,0,0,1,33.21,24.8c1.05-.555,2.11-1.093,3.191-1.654-.256-.482-.479-.9-.71-1.34-.23.111-.4.189-.561.273-.9.46-1.782.953-2.7,1.379a2.245,2.245,0,0,1-3.255-2.192,2.2,2.2,0,0,1,1.309-1.889c1.028-.527,2.056-1.056,3.126-1.607-.243-.471-.46-.9-.7-1.355-.211.1-.378.175-.541.259-.931.477-1.853.977-2.8,1.429a2.242,2.242,0,0,1-2.652-.578,2.133,2.133,0,0,1-.212-2.6,3.307,3.307,0,0,1,1.07-.948c.98-.567,2-1.063,3.054-1.612-.28-.537-.52-1.022-.778-1.495a3.465,3.465,0,0,0-4.946-1.676A1.271,1.271,0,0,1,23.5,9.03c-.032-.9.041-1.016.913-1.42a5.2,5.2,0,0,1,7.159,2.448l.816,1.562c1.582-.129,2.587.58,2.792,1.961a1.978,1.978,0,0,1-.5,1.665.514.514,0,0,0-.063.726c.2.333.362.689.549,1.051a2.271,2.271,0,0,1,2.235.71,2.183,2.183,0,0,1,.109,2.83.666.666,0,0,0-.044.926,9.227,9.227,0,0,1,.473.915,2.288,2.288,0,0,1,2.041,3.936,4.763,4.763,0,0,1,.275.554,1.264,1.264,0,0,0,1.362.964,2.2,2.2,0,0,1,1.6,3.382c-.1.158-.219.3-.351.485a11.187,11.187,0,0,0,6.389,4.416,19.872,19.872,0,0,1,2.8.742,7.3,7.3,0,0,1,4.627,6.929,14.517,14.517,0,0,1-.007,1.741,1.657,1.657,0,0,0,.6,1.6ZM31.363,22.044c.228-.089.372-.131.5-.2,1.307-.67,2.611-1.348,3.918-2.018.349-.18.625-.422.421-.832-.222-.446-.6-.339-.962-.152q-1.931,1-3.865,2c-.114.06-.275.11-.32.208a.943.943,0,0,0-.122.6c.054.168.289.276.428.395m2.757,5.4c.235-.092.378-.136.507-.2Q36.615,26.227,38.6,25.2c.321-.165.589-.391.4-.792-.2-.42-.534-.393-.9-.206-.777.4-1.557.8-2.335,1.2-.6.306-1.207.589-1.772.942a.8.8,0,0,0-.3.631c.012.17.276.321.42.472m2.789,5.405a2.7,2.7,0,0,0,.417-.116c1.39-.714,2.781-1.427,4.165-2.154.309-.162.5-.418.288-.781a.54.54,0,0,0-.813-.2c-.659.345-1.322.683-1.983,1.024-.728.375-1.472.722-2.173,1.144a.9.9,0,0,0-.295.682c0,.141.274.285.394.4M28.559,16.629a2.059,2.059,0,0,0,.336-.079c1.436-.741,2.88-1.47,4.294-2.249.16-.088.159-.467.233-.71-.258-.076-.556-.275-.765-.206a10.3,10.3,0,0,0-1.392.694c-.941.486-1.894.951-2.814,1.476a.838.838,0,0,0-.3.664c.008.158.291.3.4.41" transform="translate(0.392 0.618)" fill="#0d0b0b"/><path d="M23.745,9.049a1.269,1.269,0,0,0,1.614.163A3.464,3.464,0,0,1,30.3,10.889c.26.473.5.956.778,1.495-1.05.548-2.073,1.046-3.053,1.612a3.322,3.322,0,0,0-1.071.948,2.133,2.133,0,0,0,.214,2.6,2.24,2.24,0,0,0,2.652.579c.942-.453,1.864-.952,2.8-1.43.163-.083.331-.158.541-.258.237.459.456.883.7,1.355-1.07.549-2.1,1.079-3.127,1.606a2.2,2.2,0,0,0-1.308,1.89,2.245,2.245,0,0,0,3.256,2.191c.914-.425,1.8-.917,2.7-1.377.164-.085.332-.163.56-.274l.713,1.342c-1.084.559-2.141,1.1-3.193,1.654a2.164,2.164,0,0,0-1.245,2.037,2.221,2.221,0,0,0,3.156,2.048c.951-.438,1.869-.943,2.8-1.419.165-.084.331-.164.553-.274.243.473.47.914.717,1.395-1.093.569-2.156,1.109-3.206,1.674a2.253,2.253,0,0,0,2.014,4.03c.994-.48,1.969-1,2.94-1.521a.454.454,0,0,1,.694.16,12.87,12.87,0,0,0,8.345,5.12c.183.033.362.09.542.137a2.387,2.387,0,0,0,.125.424,6.585,6.585,0,0,1,.672,3.131,3.332,3.332,0,0,1-3.288,3.274q-8.527,0-17.053.007a3.976,3.976,0,0,0-.688.12,13.553,13.553,0,0,1-1.912-1.616q-4.447-5.425-8.794-10.931a15.771,15.771,0,0,0-8.537-5.747q-3.814-1.009-7.617-2.057a.9.9,0,0,1-.531-.466,23.059,23.059,0,0,1-1.491-7.886A36.834,36.834,0,0,1,2.871,8.169,1.418,1.418,0,0,1,5.1,7.042c1.6.733,3.2,1.457,4.784,2.21a17.555,17.555,0,0,0,10.646,1.5c.82-.136.976-.282,1.1-1.084l2.114-.623M40.186,38.2v-.015c-.26,0-.521-.017-.781,0a.776.776,0,0,0-.772.734.752.752,0,0,0,.626.914,9.52,9.52,0,0,0,1.888.086A.847.847,0,0,0,42,39.063a.9.9,0,0,0-.92-.862c-.3-.021-.6,0-.893,0M6.711,11.214a1.908,1.908,0,0,0-.479-.557,11.7,11.7,0,0,0-1.563-.733.822.822,0,0,0-1.115.442.782.782,0,0,0,.4,1.079,15.035,15.035,0,0,0,1.568.727c.6.232,1.192-.169,1.194-.957m7.348,4.037c.634.01.976-.217,1.066-.7a.78.78,0,0,0-.589-.951,14.457,14.457,0,0,0-1.8-.358.831.831,0,0,0-.936.7.776.776,0,0,0,.547.926c.6.184,1.228.284,1.713.391m10.71,1.488c-.7.011-1.153.574-.945,1.1a10.357,10.357,0,0,0,.923,1.778.733.733,0,0,0,1.084.209.769.769,0,0,0,.334-1.059,14.016,14.016,0,0,0-.8-1.533,2.26,2.26,0,0,0-.6-.5m10.52,19.6c-.2.173-.567.333-.631.572a1.13,1.13,0,0,0,.185.956,8.747,8.747,0,0,0,1.611,1.1.732.732,0,0,0,1.051-.341.772.772,0,0,0-.208-1.1c-.482-.355-.988-.676-1.491-1a3.006,3.006,0,0,0-.518-.194m-4.317-7.6c-.787.026-1.183.632-.934,1.212a14.829,14.829,0,0,0,.786,1.538.827.827,0,0,0,1.149.353.856.856,0,0,0,.351-1.151,12.27,12.27,0,0,0-.782-1.478,2.108,2.108,0,0,0-.57-.474M23.907,15.106c-.064-.095-.16-.378-.355-.492a12.42,12.42,0,0,0-1.741-.857.8.8,0,0,0-1.036.51.866.866,0,0,0,.481,1.073c.486.234.967.475,1.454.707.589.281,1.216-.131,1.2-.941M10.824,13.1c-.084-.12-.186-.432-.4-.545a11.043,11.043,0,0,0-1.793-.776.743.743,0,0,0-.993.494.787.787,0,0,0,.392,1.051,16.638,16.638,0,0,0,1.7.725c.522.185,1.079-.249,1.095-.949m16.084,7.663c-.813-.021-1.251.572-1.005,1.142a15.956,15.956,0,0,0,.815,1.6.84.84,0,0,0,1.162.324.808.808,0,0,0,.32-1.115,12.2,12.2,0,0,0-.744-1.443,2.356,2.356,0,0,0-.547-.5m1.973,3.971a.885.885,0,0,0-.9,1.224c.215.5.477.973.737,1.448a.84.84,0,0,0,1.161.453.857.857,0,0,0,.358-1.2,10.943,10.943,0,0,0-.749-1.441,2.221,2.221,0,0,0-.607-.482m5.768,10.383a21.905,21.905,0,0,0-1.3-2.176c-.121-.163-.718-.158-.942,0a1,1,0,0,0-.327.89,6.483,6.483,0,0,0,.9,1.729,1.061,1.061,0,0,0,.91.3c.269-.063.466-.434.763-.74m9.2,4.823c.777-.238,1.427-.4,2.048-.64a.735.735,0,0,0,.445-.967.768.768,0,0,0-.938-.6,14.351,14.351,0,0,0-1.776.469.724.724,0,0,0-.462,1c.115.3.456.5.683.737M17.9,15.485v-.015a8.168,8.168,0,0,0,.952-.007.8.8,0,0,0,.767-.816A.755.755,0,0,0,18.9,13.8a13.531,13.531,0,0,0-1.9.007.793.793,0,0,0-.729.9.776.776,0,0,0,.8.772c.277.018.558,0,.84,0" transform="translate(0.146 0.6)" fill="#8a5658"/><path d="M21.771,9.811c-.122.8-.277.948-1.1,1.085A17.567,17.567,0,0,1,10.025,9.39C8.439,8.637,6.839,7.913,5.242,7.18A1.419,1.419,0,0,0,3.009,8.307,36.842,36.842,0,0,0,1.795,16.6a23.058,23.058,0,0,0,1.491,7.885.9.9,0,0,0,.53.466q3.8,1.054,7.617,2.057a15.756,15.756,0,0,1,8.537,5.748q4.338,5.513,8.8,10.931A13.415,13.415,0,0,0,30.676,45.3a.89.89,0,0,0,.123.109,8.414,8.414,0,0,0,4.482,1.208c4.768.015,9.536,0,14.305.007.754,0,.953.172,1.092.9l-.607.782q-6.615,0-13.229,0c-1.008,0-2.014-.051-3.021-.078a10.067,10.067,0,0,1-6.66-3.767C24.368,41,21.553,37.555,18.816,34.045a14.257,14.257,0,0,0-7.35-5.249c-1.845-.533-3.709-1-5.564-1.5-.6-.161-1.207-.318-1.9-.5.486,1.833.927,3.562,1.412,5.279a.993.993,0,0,1-.516,1.31c-.789-.026-.966-.173-1.183-.982-.564-2.1-1.107-4.214-1.7-6.311-.418-1.484-.982-2.93-1.339-4.427A24.163,24.163,0,0,1,.7,10.879c.214-1,.435-2,.639-3.008a3.079,3.079,0,0,1,4.477-2.3c1.987.893,3.941,1.865,5.95,2.7a15.229,15.229,0,0,0,8.738.911,1.036,1.036,0,0,1,1.263.625" transform="translate(0.007 0.461)" fill="#0b0808"/><path d="M4.585,31.644A.989.989,0,0,0,5.1,30.335c-.485-1.717-.925-3.446-1.412-5.278.691.182,1.294.338,1.9.5,1.856.5,3.719.963,5.564,1.5A14.26,14.26,0,0,1,18.5,32.3c2.736,3.51,5.551,6.959,8.344,10.423A10.069,10.069,0,0,0,33.5,46.491a4.3,4.3,0,0,1-.593.084c-1.158.011-2.315.011-3.472.014a10.388,10.388,0,0,1-3.732-3.069q-3.2-3.977-6.4-7.965c-1.324-1.653-2.652-1.872-4.44-.73-.379-.481-.721-1-1.144-1.438a1.957,1.957,0,0,0-3.228.473,3.035,3.035,0,0,0-.246,1.3c-.021,2.864-.014,5.725-.009,8.588a1.74,1.74,0,0,1-1.071,1.74Q7.736,40.143,6.3,34.806c-.222-.827-.432-1.006-1.161-1l-.554-2.161" transform="translate(0.325 2.206)" fill="#dc6635"/><path d="M48.2,44.85c-.139-.731-.338-.9-1.092-.9-4.769,0-9.538.009-14.306-.008a8.4,8.4,0,0,1-4.48-1.207.967.967,0,0,1-.123-.109,3.88,3.88,0,0,1,.687-.12q8.527-.01,17.054-.007a3.334,3.334,0,0,0,3.288-3.274,6.572,6.572,0,0,0-.672-3.131,2.3,2.3,0,0,1-.124-.424,5.586,5.586,0,0,1,4.4,5.494c.009.9,0,1.793,0,2.782-.479,0-.919,0-1.36,0-.765.007-.948.165-1.067.916l-.615-.008-1.593,0" transform="translate(2.482 3.139)" fill="#784b4c"/><path d="M8.729,44.862A1.739,1.739,0,0,0,9.8,43.124c-.007-2.863-.013-5.725.009-8.588a3.012,3.012,0,0,1,.245-1.3,1.957,1.957,0,0,1,3.228-.474c.422.441.765.957,1.144,1.439a3.379,3.379,0,0,0-.945,2.537c.035,3.025.013,6.052.013,9.077v.638H9.142l-.413-1.593" transform="translate(0.768 2.827)" fill="#d35227"/><path d="M49.87,44.111l.615.008a.931.931,0,0,0,1.059.782c.652-.013,1.3,0,1.991,0v1.335c-.131.011-.255.029-.38.029-6.983,0-13.965.013-20.947-.02a9.521,9.521,0,0,1-4.854-1.331c1.158,0,2.315,0,3.472-.014a4.25,4.25,0,0,0,.593-.084c1.008.028,2.014.078,3.021.079q6.615.01,13.229,0c.43,0,.86.029,1.287.008a.837.837,0,0,0,.913-.786" transform="translate(2.408 3.883)" fill="#d45227"/><path d="M29.222,21.1c-.137-.119-.372-.227-.428-.395a.95.95,0,0,1,.122-.6c.045-.1.206-.149.321-.209q1.931-1,3.865-2c.361-.187.739-.294.962.152.2.409-.073.653-.421.832-1.308.67-2.611,1.347-3.919,2.018-.129.066-.272.109-.5.2" transform="translate(2.533 1.561)" fill="#f3e4cb"/><path d="M31.754,26.067c-.145-.151-.408-.3-.42-.472a.8.8,0,0,1,.295-.631c.567-.354,1.177-.635,1.773-.942.777-.4,1.557-.8,2.335-1.2.361-.187.7-.213.9.206.188.4-.079.627-.4.792q-1.983,1.027-3.971,2.043c-.129.067-.272.11-.507.2" transform="translate(2.758 1.998)" fill="#f3e5cc"/><path d="M34.315,31.032c-.12-.113-.395-.256-.395-.4a.9.9,0,0,1,.3-.682c.7-.421,1.445-.768,2.173-1.142.662-.342,1.323-.68,1.983-1.025a.54.54,0,0,1,.813.2c.21.363.021.619-.288.781-1.384.727-2.774,1.441-4.165,2.154a2.579,2.579,0,0,1-.417.116" transform="translate(2.986 2.436)" fill="#f3e5cc"/><path d="M26.642,16.116c-.114-.108-.4-.252-.4-.41a.838.838,0,0,1,.3-.664c.919-.526,1.872-.99,2.814-1.476a10.3,10.3,0,0,1,1.392-.694c.209-.07.507.129.765.206-.074.244-.073.622-.233.71-1.414.779-2.858,1.508-4.294,2.249a2.059,2.059,0,0,1-.336.079" transform="translate(2.309 1.132)" fill="#f3e5cc"/><path d="M37.2,35.66c.3,0,.6-.017.893,0a.9.9,0,0,1,.92.863.848.848,0,0,1-.854.856,9.6,9.6,0,0,1-1.888-.086.753.753,0,0,1-.626-.915.774.774,0,0,1,.772-.733c.259-.022.521,0,.781,0v.016" transform="translate(3.136 3.137)" fill="#0e0909"/><path d="M6.563,10.968c0,.79-.591,1.189-1.194.957A14.7,14.7,0,0,1,3.8,11.2a.78.78,0,0,1-.4-1.078.822.822,0,0,1,1.115-.443,11.9,11.9,0,0,1,1.563.733,1.918,1.918,0,0,1,.478.557" transform="translate(0.292 0.845)" fill="#0c0808"/><path d="M13.24,14.731c-.484-.107-1.111-.207-1.713-.391a.774.774,0,0,1-.546-.925.829.829,0,0,1,.935-.7,14.224,14.224,0,0,1,1.8.358.779.779,0,0,1,.589.95c-.09.487-.432.715-1.066.7" transform="translate(0.965 1.119)" fill="#0c0808"/><path d="M22.981,15.936a2.243,2.243,0,0,1,.6.5,14.016,14.016,0,0,1,.8,1.533.769.769,0,0,1-.333,1.059.734.734,0,0,1-1.085-.208,10.4,10.4,0,0,1-.922-1.779c-.208-.528.242-1.091.944-1.1" transform="translate(1.935 1.403)" fill="#0c0808"/><path d="M32.623,33.949a2.97,2.97,0,0,1,.518.194c.5.323,1.01.644,1.491,1a.773.773,0,0,1,.209,1.1.732.732,0,0,1-1.051.341,8.755,8.755,0,0,1-1.612-1.1,1.134,1.134,0,0,1-.185-.956c.064-.239.427-.4.631-.572" transform="translate(2.813 2.988)" fill="#0c0808"/><path d="M28.683,26.963a2.124,2.124,0,0,1,.57.474,12.263,12.263,0,0,1,.781,1.478.855.855,0,0,1-.35,1.151.829.829,0,0,1-1.15-.351,14.943,14.943,0,0,1-.784-1.54c-.249-.58.146-1.186.934-1.212" transform="translate(2.436 2.373)" fill="#0c0808"/><path d="M22.364,14.548c.018.811-.608,1.222-1.2.941-.486-.233-.968-.473-1.454-.707a.863.863,0,0,1-.481-1.073.8.8,0,0,1,1.035-.51,12.374,12.374,0,0,1,1.742.857c.195.113.289.4.354.492" transform="translate(1.689 1.157)" fill="#0c0808"/><path d="M10.344,12.7c-.015.7-.572,1.134-1.095.948a16.39,16.39,0,0,1-1.7-.724.788.788,0,0,1-.392-1.051.743.743,0,0,1,.994-.494,10.989,10.989,0,0,1,1.793.776c.21.113.313.425.4.545" transform="translate(0.625 0.998)" fill="#0c0808"/><path d="M24.951,19.635a2.358,2.358,0,0,1,.548.5,12.2,12.2,0,0,1,.744,1.443.809.809,0,0,1-.319,1.115.842.842,0,0,1-1.164-.324,15.721,15.721,0,0,1-.814-1.6c-.246-.569.194-1.163,1-1.142" transform="translate(2.102 1.728)" fill="#0c0808"/><path d="M26.757,23.285a2.182,2.182,0,0,1,.606.482,10.82,10.82,0,0,1,.75,1.441.855.855,0,0,1-.359,1.2.838.838,0,0,1-1.16-.452c-.26-.475-.522-.953-.738-1.448a.885.885,0,0,1,.9-1.224" transform="translate(2.269 2.05)" fill="#0c0808"/><path d="M32.188,33.014c-.3.306-.494.677-.764.74a1.06,1.06,0,0,1-.909-.3,6.4,6.4,0,0,1-.9-1.729,1,1,0,0,1,.325-.89c.224-.154.821-.16.943,0a22.117,22.117,0,0,1,1.3,2.176" transform="translate(2.605 2.704)" fill="#0b0808"/><path d="M40.493,37.44c-.228-.233-.568-.44-.685-.734a.728.728,0,0,1,.462-1,14.65,14.65,0,0,1,1.776-.469.77.77,0,0,1,.94.6.736.736,0,0,1-.445.967c-.62.239-1.271.4-2.048.639" transform="translate(3.498 3.1)" fill="#0c0808"/><path d="M16.723,14.921c-.282,0-.563.015-.84,0a.776.776,0,0,1-.8-.772.793.793,0,0,1,.729-.9,13.531,13.531,0,0,1,1.9-.007.755.755,0,0,1,.726.842.8.8,0,0,1-.767.816,8.168,8.168,0,0,1-.952.007v.015" transform="translate(1.327 1.163)" fill="#090707"/><path d="M48.227,44.111a.837.837,0,0,1-.913.786c-.428.022-.857,0-1.287-.008l.607-.782,1.593,0" transform="translate(4.051 3.882)" fill="#da6534"/></g></g></g></svg>