<svg xmlns="http://www.w3.org/2000/svg" xmlns:xlink="http://www.w3.org/1999/xlink" width="108.914" height="108.914" viewBox="0 0 108.914 108.914"><defs><filter id="a" x="0" y="0" width="108.914" height="108.914" filterUnits="userSpaceOnUse"><feOffset dy="3" input="SourceAlpha"/><feGaussianBlur stdDeviation="3" result="b"/><feFlood flood-opacity="0.161"/><feComposite operator="in" in2="b"/><feComposite in="SourceGraphic"/></filter><clipPath id="c"><rect width="59" height="59" fill="none"/></clipPath></defs><g transform="translate(-799.5 -2534.157)"><g transform="translate(0 587.946)"><g transform="translate(808.5 1952.211)"><g transform="matrix(1, 0, 0, 1, -9, -6)" filter="url(#a)"><g transform="translate(9 6)" fill="#d8cabd" opacity="0.859"><path d="M 45.45676803588867 89.41407012939453 C 39.52198028564453 89.41407012939453 33.76551818847656 88.25206756591797 28.34726715087891 85.96034240722656 C 23.11311721801758 83.74648284912109 18.41204261779785 80.57682800292969 14.37464332580566 76.5394287109375 C 10.33724308013916 72.50202941894531 7.167593002319336 67.80095672607422 4.953730583190918 62.56679534912109 C 2.662005424499512 57.14855575561523 1.500005483627319 51.39208221435547 1.500005483627319 45.45729446411133 C 1.500005483627319 39.52198028564453 2.662005424499512 33.76551818847656 4.953730583190918 28.34726905822754 C 7.167593002319336 23.11310577392578 10.33724308013916 18.41203117370605 14.37464332580566 14.37464332580566 C 18.41204261779785 10.33724403381348 23.11311721801758 7.167593955993652 28.34726715087891 4.953731060028076 C 33.76551818847656 2.662006139755249 39.52198028564453 1.500006198883057 45.45676803588867 1.500006198883057 C 51.39155578613281 1.500006198883057 57.14802932739258 2.662006139755249 62.56626892089844 4.953731060028076 C 67.80043029785156 7.167593955993652 72.50150299072266 10.33724403381348 76.53890228271484 14.37464332580566 C 80.57630920410156 18.41203117370605 83.74595642089844 23.11310577392578 85.95981597900391 28.34726905822754 C 88.25154113769531 33.76551818847656 89.41354370117188 39.52198028564453 89.41354370117188 45.45676803588867 C 89.41354370117188 51.39208221435547 88.25154113769531 57.14855575561523 85.95981597900391 62.56679534912109 C 83.74595642089844 67.80095672607422 80.57630920410156 72.50202941894531 76.53890228271484 76.5394287109375 C 72.50150299072266 80.57682800292969 67.80043029785156 83.74648284912109 62.56626892089844 85.96034240722656 C 57.14802932739258 88.25206756591797 51.39155578613281 89.41407012939453 45.45676803588867 89.41407012939453 Z" stroke="none"/><path d="M 45.45676803588867 3 C 39.72381210327148 3 34.1639404296875 4.12213134765625 28.93159484863281 6.335227966308594 C 23.87622833251953 8.473472595214844 19.33542633056641 11.53517150878906 15.43529510498047 15.435302734375 C 11.53517150878906 19.33543395996094 8.473464965820312 23.87622833251953 6.335227966308594 28.93160247802734 C 4.122123718261719 34.16394424438477 3 39.72381591796875 3 45.4572868347168 C 3 51.19024658203125 4.122123718261719 56.75011825561523 6.335227966308594 61.98246002197266 C 8.473464965820312 67.03782653808594 11.53517150878906 71.57862854003906 15.43529510498047 75.478759765625 C 19.33542633056641 79.37889099121094 23.87622833251953 82.44058990478516 28.93159484863281 84.57883453369141 C 34.1639404296875 86.79193115234375 39.72381210327148 87.9140625 45.45676803588867 87.9140625 C 51.18972396850586 87.9140625 56.74959564208984 86.79193115234375 61.98194122314453 84.57883453369141 C 67.03730773925781 82.44058990478516 71.57810974121094 79.37889099121094 75.47824096679688 75.478759765625 C 79.37837219238281 71.57862854003906 82.44007110595703 67.03782653808594 84.57830810546875 61.98246002197266 C 86.79141235351562 56.75011825561523 87.91353607177734 51.19024658203125 87.91353607177734 45.4567756652832 C 87.91353607177734 39.72381591796875 86.79141235351562 34.16394424438477 84.57830810546875 28.93160247802734 C 82.44007110595703 23.87622833251953 79.37837219238281 19.33543395996094 75.47824096679688 15.435302734375 C 71.57810974121094 11.53517150878906 67.03730773925781 8.473472595214844 61.98194122314453 6.335227966308594 C 56.74959564208984 4.12213134765625 51.18972396850586 3 45.45676803588867 3 M 45.45676803588867 0 C 70.56185150146484 0 90.91353607177734 20.35169219970703 90.91353607177734 45.4567756652832 L 90.91353607177734 45.4572868347168 C 90.91353607177734 70.5623779296875 70.56185150146484 90.9140625 45.45676803588867 90.9140625 C 20.3516845703125 90.9140625 0 70.5623779296875 0 45.4572868347168 L 0 45.4567756652832 C 0 20.35169219970703 20.3516845703125 0 45.45676803588867 0 Z" stroke="none" fill="#fff"/></g></g><g transform="translate(0 0)" fill="none"><path d="M45.457,0A45.457,45.457,0,0,1,90.914,45.457h0A45.457,45.457,0,0,1,0,45.457H0A45.457,45.457,0,0,1,45.457,0Z" stroke="none"/><path d="M 45.45676803588867 3 C 39.72381210327148 3 34.1639404296875 4.12213134765625 28.93159484863281 6.335227966308594 C 23.87622833251953 8.473472595214844 19.33542633056641 11.53517150878906 15.43529510498047 15.435302734375 C 11.53517150878906 19.33543395996094 8.473464965820312 23.87622833251953 6.335227966308594 28.93160247802734 C 4.122123718261719 34.16394424438477 3 39.72381591796875 3 45.4572868347168 C 3 51.19024658203125 4.122123718261719 56.75011825561523 6.335227966308594 61.98246002197266 C 8.473464965820312 67.03782653808594 11.53517150878906 71.57862854003906 15.43529510498047 75.478759765625 C 19.33542633056641 79.37889099121094 23.87622833251953 82.44058990478516 28.93159484863281 84.57883453369141 C 34.1639404296875 86.79193115234375 39.72381210327148 87.9140625 45.45676803588867 87.9140625 C 51.18972396850586 87.9140625 56.74959564208984 86.79193115234375 61.98194122314453 84.57883453369141 C 67.03730773925781 82.44058990478516 71.57810974121094 79.37889099121094 75.47824096679688 75.478759765625 C 79.37837219238281 71.57862854003906 82.44007110595703 67.03782653808594 84.57830810546875 61.98246002197266 C 86.79141235351562 56.75011825561523 87.91353607177734 51.19024658203125 87.91353607177734 45.4567756652832 C 87.91353607177734 39.72381591796875 86.79141235351562 34.16394424438477 84.57830810546875 28.93160247802734 C 82.44007110595703 23.87622833251953 79.37837219238281 19.33543395996094 75.47824096679688 15.435302734375 C 71.57810974121094 11.53517150878906 67.03730773925781 8.473472595214844 61.98194122314453 6.335227966308594 C 56.74959564208984 4.12213134765625 51.18972396850586 3 45.45676803588867 3 M 45.45676803588867 0 C 70.56185150146484 0 90.91353607177734 20.35169219970703 90.91353607177734 45.4567756652832 L 90.91353607177734 45.4572868347168 C 90.91353607177734 70.5623779296875 70.56185150146484 90.9140625 45.45676803588867 90.9140625 C 20.3516845703125 90.9140625 0 70.5623779296875 0 45.4572868347168 L 0 45.4567756652832 C 0 20.35169219970703 20.3516845703125 0 45.45676803588867 0 Z" stroke="none" fill="#fff"/></g></g></g><g transform="translate(824.051 2555.897)"><g clip-path="url(#c)"><path d="M59,0V30.7a4.787,4.787,0,0,0-3.2-2.932,12.448,12.448,0,0,0-2.638-.724c-2.941-.359-5.886-.737-8.84-.9A23.449,23.449,0,0,1,35.3,23.631a32.478,32.478,0,0,1-8.884-6.519,1.1,1.1,0,0,0-1.778-.07A18.184,18.184,0,0,1,9.107,21.318,26.475,26.475,0,0,1,2.785,19.38a1,1,0,0,0-1.512.7A33.942,33.942,0,0,0,.2,30.985,19.884,19.884,0,0,1,.263,33.5a30.21,30.21,0,0,0,.074,6.363c.141.826.438,1.093,1.259,1.093q6.842,0,13.683,0c.883,0,1.162-.368,1.3-1.248a15.7,15.7,0,0,1,.7-2.691,1,1,0,0,1,.755-.534c1.32.025,2.642.1,3.956.23a44.253,44.253,0,0,1,9.035,1.982,31.947,31.947,0,0,0,6.617,1.541A21.215,21.215,0,0,0,47.127,38.8a54.437,54.437,0,0,0,10.924-5.847A7.857,7.857,0,0,0,59,32.081M40.927,44.337c.863-.146,2.6-.345,4.281-.743a43.968,43.968,0,0,0,12.91-5.875.974.974,0,0,0,.4-1.426,1.006,1.006,0,0,0-1.487-.311c-.2.111-.4.233-.591.353a46.64,46.64,0,0,1-9.977,4.8,20.307,20.307,0,0,1-10.516.842c-2.178-.455-4.333-1.044-6.469-1.673a35.607,35.607,0,0,0-9.887-1.773c-.775,0-1.176.337-1.191,1-.015.7.383,1.015,1.183,1.075a28.7,28.7,0,0,1,4.1.427c2.637.591,5.248,1.31,7.851,2.045a30.092,30.092,0,0,0,9.394,1.264M12.541,19.652l.024.139c1.465-.242,2.956-.383,4.389-.749a14.025,14.025,0,0,0,6.231-3.36,1.018,1.018,0,1,0-1.362-1.5A14.144,14.144,0,0,1,9.557,17.294a21.951,21.951,0,0,1-5.105-1.617,1.03,1.03,0,0,0-1.44.52.979.979,0,0,0,.567,1.366,22.9,22.9,0,0,0,8.962,2.089M26.68,9.646c0,.641-.027,1.214.008,1.783a.912.912,0,0,0,.9.982.88.88,0,0,0,1.04-.886c.08-.6.088-1.209.131-1.88.568,0,1.141.038,1.706-.009a1,1,0,0,0,.9-1.442,1.175,1.175,0,0,0-1.156-.6c-.491-.028-.985-.007-1.455-.007-.035-.634-.036-1.208-.107-1.773-.084-.664-.441-.988-.984-.982a.984.984,0,0,0-.978,1.056c-.032.549-.007,1.1-.007,1.693-.357,0-.659-.008-.96,0a5.537,5.537,0,0,0-.913.06c-.688.139-.934.467-.887,1.111a.937.937,0,0,0,1.01.885c.552.034,1.109.007,1.753.007M6.543,11.7c.462,0,.847.03,1.226-.006.7-.067,1.081-.463,1.059-1.046a1.031,1.031,0,0,0-1.116-1c-.376-.021-.754,0-1.171,0,0-.417.017-.778,0-1.136-.043-.745-.408-1.152-1.008-1.158s-.976.38-1.033,1.132c-.028.374,0,.752,0,1.162-.422,0-.784-.016-1.144,0-.723.039-1.127.425-1.121,1.042.007.592.382.951,1.1,1.006.375.029.754.005,1.164.005,0,.4-.016.745,0,1.085.044.787.407,1.2,1.026,1.2s.987-.43,1.023-1.208c.016-.34,0-.681,0-1.086m42.441,9.074c.27,0,.478.01.686,0a6.548,6.548,0,0,0,.683-.078.978.978,0,0,0-.083-1.954c-.414-.027-.831-.005-1.315-.005a11.044,11.044,0,0,0-.012-1.429.906.906,0,0,0-.963-.869.9.9,0,0,0-.978.845c-.068.465-.076.938-.114,1.457-.454,0-.893-.03-1.327.007a.934.934,0,0,0-.9.936.917.917,0,0,0,.827,1c.464.072.937.088,1.468.135a9.351,9.351,0,0,0,.009,1.2c.093.732.434,1.018,1.08.989.578-.025.894-.374.939-1.078.024-.377,0-.756,0-1.149" fill="#fffefe"/><path d="M59,32.081a7.857,7.857,0,0,1-.949.871A54.487,54.487,0,0,1,47.127,38.8a21.215,21.215,0,0,1-9.491,1.435,31.932,31.932,0,0,1-6.617-1.541,44.253,44.253,0,0,0-9.035-1.982c-1.314-.128-2.636-.2-3.956-.23a1,1,0,0,0-.755.534,15.608,15.608,0,0,0-.7,2.691c-.135.88-.413,1.247-1.3,1.248q-6.841,0-13.683,0c-.821,0-1.118-.267-1.26-1.093A30.21,30.21,0,0,1,.263,33.5,19.884,19.884,0,0,0,.2,30.985a33.914,33.914,0,0,1,1.075-10.91,1,1,0,0,1,1.512-.7,26.475,26.475,0,0,0,6.322,1.938,18.184,18.184,0,0,0,15.527-4.276,1.094,1.094,0,0,1,1.777.07A32.5,32.5,0,0,0,35.3,23.631a23.445,23.445,0,0,0,9.025,2.511c2.955.165,5.9.543,8.84.9a12.5,12.5,0,0,1,2.639.723A4.79,4.79,0,0,1,59,30.7ZM14.589,38.865c.226-.872.451-1.744.686-2.651A72.925,72.925,0,0,1,2.289,33.843c-.043.4-.1.714-.107,1.034-.013,1.091-.012,2.182,0,3.273a5.943,5.943,0,0,0,.088.723,2.344,2.344,0,0,0,.484.1q5.684.009,11.368,0a2.115,2.115,0,0,0,.47-.113m-.045-4.7c2.131.154,4.166.277,6.2.456a35.17,35.17,0,0,1,4.536.543c2.485.552,4.936,1.263,7.391,1.945a27.741,27.741,0,0,0,5.866,1.18,19,19,0,0,0,7.462-1.208,50.349,50.349,0,0,0,10.523-5.518c.511-.333.6-.59.114-.955a6.815,6.815,0,0,0-2.072-1.145c-3.17-.941-6.47-1.018-9.735-1.279a22.415,22.415,0,0,1-6.666-1.2c-.368-.146-.475-.072-.574.319a8.725,8.725,0,0,1-2.264,4.115,1.365,1.365,0,0,1-1.594.354,29.464,29.464,0,0,0-9.159-1.8,13.679,13.679,0,0,0-6.983,1.408,8.121,8.121,0,0,0-3.041,2.776M3.059,21.693a1.985,1.985,0,0,0-.171.383,31.635,31.635,0,0,0-.709,9.044.774.774,0,0,0,.611.76,53.365,53.365,0,0,0,9.09,1.926.714.714,0,0,0,.747-.356,18.72,18.72,0,0,1,2.218-2.607c2.338-2.075,5.22-2.738,8.252-2.9.685-.036,1.373-.005,2.082-.005.067-.429.122-.8.185-1.179a24.2,24.2,0,0,1,1.772-5.772c.051-.114.068-.329,0-.4-.544-.528-1.113-1.033-1.647-1.52-6.99,5.39-14.514,5.638-22.43,2.62m25.809.32a19.145,19.145,0,0,0-1.669,6.1l2.572.424c.475-1.589.937-3.112,1.374-4.641a.5.5,0,0,0-.179-.417c-.66-.483-1.339-.939-2.1-1.464m4.011,2.663c-.348,1.387-.693,2.723-1,4.068-.026.116.167.366.31.422.494.195,1.025.3,1.514.5a.531.531,0,0,0,.723-.217,6.977,6.977,0,0,0,1.316-3.008.532.532,0,0,0-.183-.458c-.841-.437-1.7-.837-2.679-1.309" fill="#090809"/><path d="M59,53.593a1.521,1.521,0,0,1-1.421.641Q29.543,54.225,1.5,54.228c-1.1,0-1.4-.3-1.4-1.39q0-2.358,0-4.717a1.023,1.023,0,0,1,1.06-1.155c.152-.014.307-.006.46-.006q27.922,0,55.844,0a1.606,1.606,0,0,1,1.53.656Zm-2.059-1.5v-3.1H2.921c-.249,0-.5.008-.747.013a9.28,9.28,0,0,0-.1,1.085c.012.7.067,1.4.1,2.106.191,0,.383.015.574.015h53.5c.191,0,.382-.01.574-.015l.12-.107" fill="#101011"/><path d="M40.927,44.336a30.124,30.124,0,0,1-9.394-1.263c-2.6-.736-5.214-1.454-7.851-2.046a28.7,28.7,0,0,0-4.1-.426c-.8-.061-1.2-.376-1.183-1.075.015-.663.416-1,1.191-1A35.571,35.571,0,0,1,29.473,40.3c2.136.629,4.291,1.217,6.469,1.672a20.317,20.317,0,0,0,10.516-.841,46.691,46.691,0,0,0,9.977-4.8c.2-.119.391-.241.591-.353a1.006,1.006,0,0,1,1.487.312.974.974,0,0,1-.4,1.426,43.968,43.968,0,0,1-12.91,5.875c-1.686.4-3.418.6-4.281.742" fill="#0c0b0d"/><path d="M12.541,19.652a22.9,22.9,0,0,1-8.962-2.089A.979.979,0,0,1,3.012,16.2a1.03,1.03,0,0,1,1.44-.52,21.958,21.958,0,0,0,5.1,1.617,14.142,14.142,0,0,0,12.266-3.116,1.018,1.018,0,1,1,1.363,1.5,14.025,14.025,0,0,1-6.231,3.36c-1.433.366-2.924.507-4.389.749l-.024-.139" fill="#0c0b0d"/><path d="M26.68,9.646c-.644,0-1.2.027-1.754-.007a.937.937,0,0,1-1.009-.885c-.047-.644.2-.973.887-1.111a5.537,5.537,0,0,1,.913-.061c.3-.009.6,0,.96,0,0-.592-.025-1.144.007-1.693a.984.984,0,0,1,.978-1.055c.543-.007.9.317.984.981.071.566.072,1.14.107,1.774.47,0,.964-.022,1.455.006a1.179,1.179,0,0,1,1.156.6,1,1,0,0,1-.9,1.442c-.566.047-1.139.009-1.706.009-.044.672-.051,1.281-.131,1.881a.881.881,0,0,1-1.04.886.913.913,0,0,1-.9-.983c-.035-.569-.007-1.142-.007-1.782" fill="#0c0b0d"/><path d="M6.543,11.7c0,.4.012.746,0,1.086C6.5,13.567,6.13,14,5.516,14s-.981-.418-1.026-1.2c-.019-.34,0-.682,0-1.085-.41,0-.789.024-1.164-.005-.715-.055-1.09-.414-1.1-1.006-.007-.617.4-1,1.121-1.042.359-.019.721,0,1.142,0,0-.41-.023-.788.006-1.162.056-.752.422-1.138,1.032-1.132s.965.413,1.009,1.158c.02.358,0,.719,0,1.136.417,0,.8-.017,1.172,0a1.03,1.03,0,0,1,1.115,1c.022.583-.359.979-1.059,1.046-.379.035-.764.006-1.225.006" fill="#0b0b0d"/><path d="M48.984,20.777c0,.393.02.772,0,1.149-.045.7-.361,1.053-.939,1.078-.646.029-.987-.257-1.08-.989a9.351,9.351,0,0,1-.009-1.2c-.531-.047-1-.063-1.468-.135a.917.917,0,0,1-.827-1,.934.934,0,0,1,.9-.936c.434-.037.873-.007,1.327-.007.038-.519.046-.992.114-1.457a.9.9,0,0,1,.978-.845.906.906,0,0,1,.963.869,11.044,11.044,0,0,1,.012,1.429c.484,0,.9-.022,1.315.005a.978.978,0,0,1,.083,1.954,6.548,6.548,0,0,1-.683.078c-.208.013-.416,0-.686,0" fill="#0c0c0d"/><path d="M14.544,34.164a8.121,8.121,0,0,1,3.041-2.776,13.679,13.679,0,0,1,6.983-1.408,29.452,29.452,0,0,1,9.158,1.8,1.366,1.366,0,0,0,1.595-.354,8.721,8.721,0,0,0,2.264-4.115c.1-.39.206-.465.574-.319a22.414,22.414,0,0,0,6.665,1.2c3.266.261,6.566.338,9.736,1.279a6.837,6.837,0,0,1,2.072,1.145c.485.365.4.622-.114.955A50.374,50.374,0,0,1,45.995,37.08a19,19,0,0,1-7.462,1.208,27.688,27.688,0,0,1-5.867-1.18c-2.454-.682-4.905-1.393-7.391-1.945a35.128,35.128,0,0,0-4.536-.543c-2.029-.179-4.064-.3-6.2-.456" fill="#b34c0e"/><path d="M3.059,21.693c7.916,3.018,15.44,2.77,22.43-2.62.534.487,1.1.991,1.647,1.52.067.065.051.281,0,.4a24.188,24.188,0,0,0-1.772,5.771c-.063.375-.118.751-.186,1.179-.709,0-1.4-.031-2.081.006-3.032.161-5.914.823-8.252,2.9a18.663,18.663,0,0,0-2.218,2.607.715.715,0,0,1-.747.356A53.365,53.365,0,0,1,2.79,31.88a.774.774,0,0,1-.611-.76,31.632,31.632,0,0,1,.709-9.044,1.958,1.958,0,0,1,.171-.383" fill="#b34c0e"/><path d="M2.267,38.873a6.151,6.151,0,0,1-.089-.723c-.008-1.091-.009-2.182,0-3.273,0-.319.064-.638.106-1.034a72.846,72.846,0,0,0,12.987,2.371c-.235.907-.46,1.779-.686,2.651l-12.322.008" fill="#7a350f"/><path d="M28.868,22.013c.759.525,1.438.981,2.1,1.464a.5.5,0,0,1,.18.417c-.437,1.529-.9,3.052-1.374,4.641L27.2,28.111a19.147,19.147,0,0,1,1.67-6.1" fill="#b34c0f"/><path d="M32.879,24.676c.979.472,1.838.872,2.679,1.309a.532.532,0,0,1,.183.458,6.977,6.977,0,0,1-1.316,3.008.531.531,0,0,1-.723.217c-.489-.2-1.02-.307-1.514-.5-.143-.056-.336-.306-.31-.422.308-1.345.653-2.681,1-4.068" fill="#b24d10"/><path d="M2.267,38.873l12.322-.008a2.123,2.123,0,0,1-.471.113q-5.683.009-11.367,0a2.268,2.268,0,0,1-.484-.1" fill="#654029"/><path d="M56.821,52.2c-.191,0-.383.016-.574.016H2.748c-.191,0-.382-.01-.574-.015V49.008c.249-.005.5-.013.747-.013h54.02v3.1l-.12.107" fill="#464249"/><path d="M2.174,49.008V52.2c-.037-.7-.092-1.4-.1-2.106a9.28,9.28,0,0,1,.1-1.085" fill="#504b51"/><path d="M56.821,52.2l.12-.107-.12.107" fill="#504b51"/></g></g></g></svg>