<svg xmlns="http://www.w3.org/2000/svg" xmlns:xlink="http://www.w3.org/1999/xlink" width="108.914" height="108.914" viewBox="0 0 108.914 108.914"><defs><filter id="a" x="0" y="0" width="108.914" height="108.914" filterUnits="userSpaceOnUse"><feOffset dy="3" input="SourceAlpha"/><feGaussianBlur stdDeviation="3" result="b"/><feFlood flood-opacity="0.161"/><feComposite operator="in" in2="b"/><feComposite in="SourceGraphic"/></filter><clipPath id="c"><rect width="54" height="54" fill="none"/></clipPath></defs><g transform="translate(-799.5 -2534.157)"><g transform="translate(0 587.946)"><g transform="translate(808.5 1952.211)"><g transform="matrix(1, 0, 0, 1, -9, -6)" filter="url(#a)"><g transform="translate(9 6)" fill="#d8cabd" opacity="0.859"><path d="M 45.45676803588867 89.41407012939453 C 39.52198028564453 89.41407012939453 33.76551818847656 88.25206756591797 28.34726715087891 85.96034240722656 C 23.11311721801758 83.74648284912109 18.41204261779785 80.57682800292969 14.37464332580566 76.5394287109375 C 10.33724308013916 72.50202941894531 7.167593002319336 67.80095672607422 4.953730583190918 62.56679534912109 C 2.662005424499512 57.14855575561523 1.500005483627319 51.39208221435547 1.500005483627319 45.45729446411133 C 1.500005483627319 39.52198028564453 2.662005424499512 33.76551818847656 4.953730583190918 28.34726905822754 C 7.167593002319336 23.11310577392578 10.33724308013916 18.41203117370605 14.37464332580566 14.37464332580566 C 18.41204261779785 10.33724403381348 23.11311721801758 7.167593955993652 28.34726715087891 4.953731060028076 C 33.76551818847656 2.662006139755249 39.52198028564453 1.500006198883057 45.45676803588867 1.500006198883057 C 51.39155578613281 1.500006198883057 57.14802932739258 2.662006139755249 62.56626892089844 4.953731060028076 C 67.80043029785156 7.167593955993652 72.50150299072266 10.33724403381348 76.53890228271484 14.37464332580566 C 80.57630920410156 18.41203117370605 83.74595642089844 23.11310577392578 85.95981597900391 28.34726905822754 C 88.25154113769531 33.76551818847656 89.41354370117188 39.52198028564453 89.41354370117188 45.45676803588867 C 89.41354370117188 51.39208221435547 88.25154113769531 57.14855575561523 85.95981597900391 62.56679534912109 C 83.74595642089844 67.80095672607422 80.57630920410156 72.50202941894531 76.53890228271484 76.5394287109375 C 72.50150299072266 80.57682800292969 67.80043029785156 83.74648284912109 62.56626892089844 85.96034240722656 C 57.14802932739258 88.25206756591797 51.39155578613281 89.41407012939453 45.45676803588867 89.41407012939453 Z" stroke="none"/><path d="M 45.45676803588867 3 C 39.72381210327148 3 34.1639404296875 4.12213134765625 28.93159484863281 6.335227966308594 C 23.87622833251953 8.473472595214844 19.33542633056641 11.53517150878906 15.43529510498047 15.435302734375 C 11.53517150878906 19.33543395996094 8.473464965820312 23.87622833251953 6.335227966308594 28.93160247802734 C 4.122123718261719 34.16394424438477 3 39.72381591796875 3 45.4572868347168 C 3 51.19024658203125 4.122123718261719 56.75011825561523 6.335227966308594 61.98246002197266 C 8.473464965820312 67.03782653808594 11.53517150878906 71.57862854003906 15.43529510498047 75.478759765625 C 19.33542633056641 79.37889099121094 23.87622833251953 82.44058990478516 28.93159484863281 84.57883453369141 C 34.1639404296875 86.79193115234375 39.72381210327148 87.9140625 45.45676803588867 87.9140625 C 51.18972396850586 87.9140625 56.74959564208984 86.79193115234375 61.98194122314453 84.57883453369141 C 67.03730773925781 82.44058990478516 71.57810974121094 79.37889099121094 75.47824096679688 75.478759765625 C 79.37837219238281 71.57862854003906 82.44007110595703 67.03782653808594 84.57830810546875 61.98246002197266 C 86.79141235351562 56.75011825561523 87.91353607177734 51.19024658203125 87.91353607177734 45.4567756652832 C 87.91353607177734 39.72381591796875 86.79141235351562 34.16394424438477 84.57830810546875 28.93160247802734 C 82.44007110595703 23.87622833251953 79.37837219238281 19.33543395996094 75.47824096679688 15.435302734375 C 71.57810974121094 11.53517150878906 67.03730773925781 8.473472595214844 61.98194122314453 6.335227966308594 C 56.74959564208984 4.12213134765625 51.18972396850586 3 45.45676803588867 3 M 45.45676803588867 0 C 70.56185150146484 0 90.91353607177734 20.35169219970703 90.91353607177734 45.4567756652832 L 90.91353607177734 45.4572868347168 C 90.91353607177734 70.5623779296875 70.56185150146484 90.9140625 45.45676803588867 90.9140625 C 20.3516845703125 90.9140625 0 70.5623779296875 0 45.4572868347168 L 0 45.4567756652832 C 0 20.35169219970703 20.3516845703125 0 45.45676803588867 0 Z" stroke="none" fill="#fff"/></g></g><g transform="translate(0 0)" fill="none"><path d="M45.457,0A45.457,45.457,0,0,1,90.914,45.457h0A45.457,45.457,0,0,1,0,45.457H0A45.457,45.457,0,0,1,45.457,0Z" stroke="none"/><path d="M 45.45676803588867 3 C 39.72381210327148 3 34.1639404296875 4.12213134765625 28.93159484863281 6.335227966308594 C 23.87622833251953 8.473472595214844 19.33542633056641 11.53517150878906 15.43529510498047 15.435302734375 C 11.53517150878906 19.33543395996094 8.473464965820312 23.87622833251953 6.335227966308594 28.93160247802734 C 4.122123718261719 34.16394424438477 3 39.72381591796875 3 45.4572868347168 C 3 51.19024658203125 4.122123718261719 56.75011825561523 6.335227966308594 61.98246002197266 C 8.473464965820312 67.03782653808594 11.53517150878906 71.57862854003906 15.43529510498047 75.478759765625 C 19.33542633056641 79.37889099121094 23.87622833251953 82.44058990478516 28.93159484863281 84.57883453369141 C 34.1639404296875 86.79193115234375 39.72381210327148 87.9140625 45.45676803588867 87.9140625 C 51.18972396850586 87.9140625 56.74959564208984 86.79193115234375 61.98194122314453 84.57883453369141 C 67.03730773925781 82.44058990478516 71.57810974121094 79.37889099121094 75.47824096679688 75.478759765625 C 79.37837219238281 71.57862854003906 82.44007110595703 67.03782653808594 84.57830810546875 61.98246002197266 C 86.79141235351562 56.75011825561523 87.91353607177734 51.19024658203125 87.91353607177734 45.4567756652832 C 87.91353607177734 39.72381591796875 86.79141235351562 34.16394424438477 84.57830810546875 28.93160247802734 C 82.44007110595703 23.87622833251953 79.37837219238281 19.33543395996094 75.47824096679688 15.435302734375 C 71.57810974121094 11.53517150878906 67.03730773925781 8.473472595214844 61.98194122314453 6.335227966308594 C 56.74959564208984 4.12213134765625 51.18972396850586 3 45.45676803588867 3 M 45.45676803588867 0 C 70.56185150146484 0 90.91353607177734 20.35169219970703 90.91353607177734 45.4567756652832 L 90.91353607177734 45.4572868347168 C 90.91353607177734 70.5623779296875 70.56185150146484 90.9140625 45.45676803588867 90.9140625 C 20.3516845703125 90.9140625 0 70.5623779296875 0 45.4572868347168 L 0 45.4567756652832 C 0 20.35169219970703 20.3516845703125 0 45.45676803588867 0 Z" stroke="none" fill="#fff"/></g></g></g><g transform="translate(826.843 2559.015)"><g clip-path="url(#c)"><path d="M54,21.158c-.115-.587-.216-1.175-.346-1.758A16.12,16.12,0,0,0,46.1,8.476a1.223,1.223,0,0,1-.506-.658,30.75,30.75,0,0,1-1.075-6.61C44.473.355,44.212.1,43.35.1h-14c-.807,0-1.071.24-1.131,1.033a76.336,76.336,0,0,1-1.485,10.217,29.3,29.3,0,0,1-3.367,9.02c-1.763,2.954-3.4,5.982-5.088,8.98-.38.674-.354.87.145,1.383l-.858,1.51a.941.941,0,0,0-1.193.573q-1.74,3.254-3.526,6.483a1.684,1.684,0,0,1-.72.679c-3.3,1.5-6.615,2.962-9.924,4.44A3.332,3.332,0,0,0,1,49.812a12.637,12.637,0,0,0,5.956,3.654c.724.208,1.465.357,2.2.534M4.011,28.095A1.578,1.578,0,0,0,6.19,29.709c.641-.27,1.232-.657,1.869-.941a.977.977,0,0,1,.708,0c.621.275,1.208.625,1.82.923a1.466,1.466,0,0,0,1.627-.171,1.577,1.577,0,0,0,.6-1.586c-.1-.638-.244-1.271-.318-1.912a.882.882,0,0,1,.2-.619c.436-.478.928-.906,1.382-1.369a1.548,1.548,0,0,0,.4-1.73,1.6,1.6,0,0,0-1.4-1.033c-.589-.081-1.178-.165-1.767-.245a.676.676,0,0,1-.618-.452c-.222-.548-.529-1.061-.779-1.6a1.6,1.6,0,0,0-2.98-.013c-.236.506-.509.995-.724,1.508a.839.839,0,0,1-.764.576c-.539.054-1.073.159-1.612.218a1.615,1.615,0,0,0-1.481,1.071,1.589,1.589,0,0,0,.473,1.763c.452.441.922.865,1.349,1.33A.8.8,0,0,1,4.346,26c-.09.727-.228,1.449-.335,2.095M19.653,5.924a1.218,1.218,0,0,0-1.077.818A1.927,1.927,0,0,1,16.552,8.2a1.22,1.22,0,0,0-1.17.9,1.217,1.217,0,0,0,.438,1.454,1.766,1.766,0,0,1,.738,2.235,1.219,1.219,0,0,0,.511,1.434,1.255,1.255,0,0,0,1.521.031,1.845,1.845,0,0,1,2.4,0,1.253,1.253,0,0,0,1.522-.035,1.228,1.228,0,0,0,.5-1.438,1.764,1.764,0,0,1,.744-2.231A1.224,1.224,0,0,0,24.2,9.1,1.215,1.215,0,0,0,23.024,8.2a1.909,1.909,0,0,1-2.018-1.465c-.16-.513-.641-.762-1.353-.813" fill="#fffefe"/><path d="M9.157,54c-.733-.177-1.474-.326-2.2-.533A12.653,12.653,0,0,1,1,49.813a3.331,3.331,0,0,1,1.2-5.389c3.309-1.478,6.623-2.945,9.924-4.44a1.684,1.684,0,0,0,.72-.679q1.792-3.225,3.526-6.483a.941.941,0,0,1,1.192-.573c.521.5.557.713.2,1.375-1.179,2.182-2.363,4.361-3.562,6.572a7.264,7.264,0,0,0,5.9,1.43,7.351,7.351,0,0,0,5.389-4.182c.961-1.923,1.932-3.84,2.933-5.743A127.892,127.892,0,0,1,39.46,13.923c.445-.589.642-.654,1.285-.426.431.561.433.794-.021,1.392a119.949,119.949,0,0,0-9.77,15.467c-1.511,2.793-2.86,5.678-4.413,8.448a8.615,8.615,0,0,1-7.663,4.541,8.463,8.463,0,0,1-5.434-1.75.693.693,0,0,0-.8-.09c-3.245,1.465-6.5,2.913-9.747,4.368a1.755,1.755,0,0,0-.577,3.019,11.684,11.684,0,0,0,8.488,3.523c3.892.021,7.785.007,11.677,0a9.462,9.462,0,0,0,.989-.1,6.75,6.75,0,0,0,4.912-2.463,40.9,40.9,0,0,0,2.244-3.46A7.525,7.525,0,0,0,31.887,42.8c.027-.3.035-.559-.282-.7-.305-.313-.612-.622-.914-.938a1.409,1.409,0,0,1,.8-2.4c.565-.106,1.255-.012,1.673-.311s.548-.978.83-1.478A1.391,1.391,0,0,1,36.04,36.4a3.707,3.707,0,0,1,.411.362c2.056-2.5,4.032-5.046,6.157-7.456a29.509,29.509,0,0,1,7.4-6.137c.7-.315,1.406-.616,2.095-.954a.521.521,0,0,0,.249-.4A15.843,15.843,0,0,0,49.2,13.289a13.083,13.083,0,0,0-4.073-3.5l-.7.748c-.418.445-.851.877-1.25,1.339a.952.952,0,0,1-1.289.312c-.4-.587-.385-.831.093-1.37.149-.168.291-.341.436-.512.5-.515,1.009-1.02,1.487-1.553a.644.644,0,0,0,.112-.49c-.166-.821-.4-1.629-.541-2.454-.23-1.356-.4-2.721-.6-4.1H29.96c-.557,3.365-1.031,6.672-1.667,9.949a27.131,27.131,0,0,1-2.879,8.337q-2.9,5.114-5.78,10.239a.906.906,0,0,1-1.206.512c-.5-.512-.525-.708-.145-1.382,1.689-3,3.325-6.026,5.088-8.981a29.287,29.287,0,0,0,3.367-9.019A76.36,76.36,0,0,0,28.223,1.139c.06-.793.324-1.033,1.131-1.033q7,0,14,0c.862,0,1.123.249,1.166,1.1a30.77,30.77,0,0,0,1.075,6.61,1.22,1.22,0,0,0,.506.657A16.125,16.125,0,0,1,53.654,19.4c.13.582.231,1.171.346,1.757v2.315c-.071.311-.166.617-.21.93q-.464,3.323-.909,6.646c-.3,2.2-.6,4.4-.879,6.6-.3,2.374-.608,4.749-.877,7.128-.291,2.57-.562,5.144-.8,7.719A1.585,1.585,0,0,1,49.368,54H47.157a1.634,1.634,0,0,1-.885-1.418c-.041-.589-.14-1.175-.223-1.761q-.342-2.428-.694-4.856a.817.817,0,0,1,.62-1.041c.7.074.827.2.987.961.011.1.018.208.032.31.264,1.833.546,3.663.786,5.5.1.756.131.815.777.683,1.2-9.475,2.4-18.912,3.613-28.519l-2.6,1.507a.409.409,0,0,0-.049.018,32.513,32.513,0,0,0-6.018,5.305.671.671,0,0,0-.044.562A73.063,73.063,0,0,1,46.234,41.9c.145.752.082.913-.566,1.273-.688-.072-.852-.264-1.028-1.028-.59-2.545-1.183-5.09-1.806-7.628-.182-.743-.468-1.459-.755-2.338-1.635,2.175-3.173,4.223-4.743,6.314.6.093,1.077.185,1.562.242a1.424,1.424,0,0,1,1.28.933,1.325,1.325,0,0,1-.457,1.6,2,2,0,0,0-.886,2.576,1.14,1.14,0,0,1,.034.259,1.323,1.323,0,0,1-.522,1.345,1.386,1.386,0,0,1-1.528.134,9.108,9.108,0,0,1-1.066-.554.849.849,0,0,0-1,.006c-.517.279-1.082.468-1.617.715a1.109,1.109,0,0,0-.5.349c-.559.947-1.086,1.911-1.624,2.87a9.429,9.429,0,0,1-6.09,4.767c-.376.1-.755.179-1.133.269Zm28-10.108a.15.15,0,0,0,.022.035s.017,0,.025,0l-.054-.018a3.776,3.776,0,0,0-.063-.718A1.966,1.966,0,0,1,37.8,40.9a5.924,5.924,0,0,0,.564-.557c.006-.057.011-.115.017-.171A2.543,2.543,0,0,1,35.335,38l-.127.073-.286.646c-.44,1.319-1.581,1.472-2.869,1.522.4.4.675.665.948.931a1.547,1.547,0,0,1,.5,1.555,9.579,9.579,0,0,0-.129,1.178l-.057.015c.009,0,.021.011.025.008a.419.419,0,0,0,.026-.033.81.81,0,0,0,.24-.071,2.479,2.479,0,0,1,3.116-.126l.433.194" fill="#0c0809"/><path d="M42.42,10.3c-.145.171-.287.345-.436.512-.478.54-.5.784-.093,1.371L40.746,13.5c-.644-.229-.84-.163-1.285.425A127.925,127.925,0,0,0,28.427,31.7c-1,1.9-1.973,3.821-2.934,5.743A7.348,7.348,0,0,1,20.1,41.625a7.264,7.264,0,0,1-5.9-1.428c1.2-2.213,2.383-4.392,3.562-6.573.358-.662.321-.875-.2-1.376l.858-1.51a.908.908,0,0,0,1.207-.513q2.879-5.125,5.78-10.238a27.161,27.161,0,0,0,2.878-8.338C28.929,8.373,29.4,5.065,29.96,1.7H40.525c.106.948.166,1.9.327,2.843A16.473,16.473,0,0,0,42.29,9.751a2.16,2.16,0,0,1,.13.549" fill="#e79c74"/><path d="M4.011,28.095c.107-.646.245-1.368.335-2.095a.8.8,0,0,0-.171-.576c-.427-.464-.9-.888-1.349-1.329a1.589,1.589,0,0,1-.473-1.763A1.616,1.616,0,0,1,3.834,21.26c.539-.059,1.073-.164,1.612-.218a.839.839,0,0,0,.764-.575c.215-.514.488-1,.724-1.509a1.6,1.6,0,0,1,2.98.013c.25.537.557,1.051.779,1.6a.676.676,0,0,0,.618.452c.589.079,1.178.163,1.767.245a1.6,1.6,0,0,1,1.4,1.033,1.546,1.546,0,0,1-.4,1.729c-.454.463-.946.891-1.382,1.37a.88.88,0,0,0-.2.618c.074.641.216,1.274.318,1.912a1.577,1.577,0,0,1-.6,1.586,1.462,1.462,0,0,1-1.627.171c-.612-.3-1.2-.648-1.82-.922a.97.97,0,0,0-.709,0c-.636.284-1.227.671-1.868.94a1.578,1.578,0,0,1-2.179-1.614m3.868-7.372a4.971,4.971,0,0,0-.3.545,1.939,1.939,0,0,1-1.728,1.324c-.635.064-1.265.178-1.9.27.489.512.936,1.026,1.432,1.489a1.856,1.856,0,0,1,.585,1.807c-.114.642-.232,1.283-.361,2a5.347,5.347,0,0,0,.522-.192c.452-.229.907-.457,1.345-.71a1.752,1.752,0,0,1,1.89,0c.3.175.623.314.935.47l.926.517c-.129-.746-.235-1.4-.354-2.046a1.844,1.844,0,0,1,.546-1.812c.505-.475.966-1,1.463-1.516-.7-.109-1.394-.235-2.095-.32a1.723,1.723,0,0,1-1.409-1.033c-.306-.617-.608-1.236-.967-1.966-.212.463-.374.819-.536,1.174" fill="#0c0b0a"/><path d="M19.654,5.924c.711.051,1.193.3,1.352.814A1.91,1.91,0,0,0,23.025,8.2,1.214,1.214,0,0,1,24.2,9.1a1.221,1.221,0,0,1-.433,1.457,1.763,1.763,0,0,0-.743,2.231,1.231,1.231,0,0,1-.5,1.439A1.254,1.254,0,0,1,21,14.257a1.845,1.845,0,0,0-2.4,0,1.255,1.255,0,0,1-1.521-.031,1.218,1.218,0,0,1-.511-1.433,1.768,1.768,0,0,0-.738-2.235A1.219,1.219,0,0,1,15.382,9.1a1.22,1.22,0,0,1,1.17-.9,1.928,1.928,0,0,0,2.025-1.461,1.218,1.218,0,0,1,1.077-.818m-.219,2.7c-.41.932-1.294.971-2.29,1.1a2.175,2.175,0,0,1,.976,3.017c.934-.562,1.719-1.014,2.627-.423l.565.326.148-.008A2.161,2.161,0,0,1,22.327,9.7a2.292,2.292,0,0,1-2.517-1.9c-.177.391-.276.608-.375.826" fill="#0d0c0b"/><path d="M40.746,13.5l1.145-1.314a.954.954,0,0,0,1.29-.312c.4-.462.832-.894,1.25-1.339a12.727,12.727,0,0,1,3.62,4.426,16.337,16.337,0,0,1,1.955,8.216,29.53,29.53,0,0,0-7.4,6.136c-2.126,2.411-4.1,4.954-6.157,7.457a4.054,4.054,0,0,0-.412-.363,1.39,1.39,0,0,0-2.045.559c-.281.5-.413,1.182-.829,1.479s-1.108.2-1.673.31a1.409,1.409,0,0,0-.8,2.4c.3.316.609.625.914.937a1.721,1.721,0,0,0-.355.3c-1.315,1.967-2.655,3.918-3.918,5.917A10.082,10.082,0,0,1,24.056,51.9c-.206.12-.39.279-.584.419a9.714,9.714,0,0,1-.989.1c-3.892.007-7.784.02-11.677,0a11.685,11.685,0,0,1-8.487-3.524A1.755,1.755,0,0,1,2.9,45.873c3.249-1.455,6.5-2.9,9.746-4.368a.7.7,0,0,1,.8.09,8.472,8.472,0,0,0,5.434,1.751A8.616,8.616,0,0,0,26.541,38.8c1.553-2.77,2.9-5.654,4.414-8.448a119.517,119.517,0,0,1,9.77-15.466c.454-.6.451-.832.021-1.393" fill="#dd1d4d"/><path d="M49.574,25.365l2.6-1.506c-1.217,9.606-2.413,19.043-3.613,28.519-.646.132-.679.073-.778-.685-.24-1.835-.521-3.665-.785-5.5-.015-.1-.022-.207-.032-.311.027-.044.073-.085.078-.131.216-1.743.419-3.487.641-5.228q.462-3.621.946-7.238c.308-2.309.633-4.615.937-6.923a7.936,7.936,0,0,0,.009-1" fill="#453e57"/><path d="M49.574,25.365a7.936,7.936,0,0,1-.009,1c-.3,2.308-.629,4.614-.937,6.923q-.483,3.618-.946,7.238c-.222,1.741-.425,3.485-.641,5.228-.005.046-.051.087-.078.131-.16-.762-.288-.887-.988-.962q-.153-.876-.307-1.753c.649-.36.711-.521.567-1.274A72.959,72.959,0,0,0,43.462,31.25a.669.669,0,0,1,.044-.561,32.377,32.377,0,0,1,6.019-5.3.208.208,0,0,1,.049-.019" fill="#534b67"/><path d="M50.006,23.174a16.324,16.324,0,0,0-1.955-8.216,12.728,12.728,0,0,0-3.62-4.427l.7-.748A13.093,13.093,0,0,1,49.2,13.288a15.85,15.85,0,0,1,3.148,8.53.527.527,0,0,1-.25.4c-.688.337-1.394.639-2.094.953" fill="#db1042"/><path d="M23.472,52.316c.194-.141.378-.3.583-.42a10.073,10.073,0,0,0,3.278-3.584c1.262-2,2.6-3.951,3.918-5.917a1.71,1.71,0,0,1,.354-.3c.318.147.309.407.282.705a7.54,7.54,0,0,1-1.259,3.6,40.8,40.8,0,0,1-2.244,3.459,6.746,6.746,0,0,1-4.912,2.463" fill="#db1042"/><path d="M42.42,10.3a2.16,2.16,0,0,0-.13-.549,16.473,16.473,0,0,1-1.438-5.206c-.161-.939-.221-1.895-.327-2.843h2.348c.2,1.381.375,2.746.6,4.1.14.824.375,1.632.541,2.453a.646.646,0,0,1-.111.491c-.479.532-.989,1.037-1.488,1.552" fill="#e27b5a"/><path d="M33.376,43.9a9.579,9.579,0,0,1,.128-1.178,1.546,1.546,0,0,0-.5-1.555c-.273-.266-.544-.534-.948-.932,1.288-.05,2.429-.2,2.869-1.522.149.29.325.569.444.871q.719,1.812,1.4,3.638c.05.133-.023.312-.04.47a2.481,2.481,0,0,0-3.115.126.769.769,0,0,1-.241.071l.007.011" fill="#ffca42"/><path d="M36.725,43.7c.016-.158.09-.337.04-.471q-.678-1.827-1.4-3.638c-.12-.3-.3-.581-.445-.87.1-.215.191-.431.286-.646L35.335,38A2.544,2.544,0,0,0,38.38,40.17c-.005.057-.011.114-.017.171a6.058,6.058,0,0,1-.564.558,1.965,1.965,0,0,0-.711,2.286,3.776,3.776,0,0,1,.063.718l.007-.011-.433-.195" fill="#faa93e"/><path d="M33.369,43.894a.18.18,0,0,1-.026.034l-.024-.008.057-.015-.007-.011" fill="#ffca42"/><path d="M37.151,43.9l.055.019-.025,0a.212.212,0,0,1-.023-.035l-.007.011" fill="#faa93e"/><path d="M10.306,27.725c-.313-.156-.635-.3-.936-.47a1.75,1.75,0,0,0-1.889,0c-.439.253-.893.481-1.345.71a5.279,5.279,0,0,1-.523.192c.13-.713.248-1.354.362-2a1.858,1.858,0,0,0-.585-1.807c-.5-.463-.944-.977-1.433-1.489.633-.092,1.263-.206,1.9-.27a1.938,1.938,0,0,0,1.727-1.324,4.816,4.816,0,0,1,.3-.545,1.913,1.913,0,0,1,.2.3c.372.9.7,1.823,1.112,2.7a11.387,11.387,0,0,1,1.117,4" fill="#ffca42"/><path d="M10.306,27.725a11.387,11.387,0,0,0-1.117-4c-.414-.881-.74-1.8-1.112-2.7a1.913,1.913,0,0,0-.2-.3c.162-.355.324-.711.536-1.174.358.73.66,1.349.966,1.966a1.726,1.726,0,0,0,1.409,1.033c.7.085,1.4.211,2.1.32-.5.519-.959,1.041-1.464,1.516a1.846,1.846,0,0,0-.545,1.812c.118.649.225,1.3.353,2.046l-.925-.517" fill="#fbaa3e"/><path d="M20.748,12.315c-.908-.591-1.693-.139-2.627.423a2.176,2.176,0,0,0-.976-3.017c1-.131,1.88-.171,2.29-1.1a5.526,5.526,0,0,0,.2.64c.254.57.559,1.12.779,1.7a10.881,10.881,0,0,1,.334,1.354" fill="#ffca42"/><path d="M20.748,12.315a10.881,10.881,0,0,0-.334-1.354c-.22-.582-.525-1.132-.779-1.7a5.526,5.526,0,0,1-.2-.64l.375-.826a2.292,2.292,0,0,0,2.517,1.9,2.16,2.16,0,0,0-.866,2.937l-.148.008-.565-.326" fill="#faa93e"/></g></g></g></svg>