<svg xmlns="http://www.w3.org/2000/svg" width="396" height="300.23" viewBox="0 0 396 300.23">
  <g id="Grupo_1178034" data-name="Grupo 1178034" transform="translate(6919 4423)">
    <rect id="Rectángulo_405192" data-name="Rectángulo 405192" width="396" height="300.23" rx="8" transform="translate(-6919 -4423)" fill="#d8cabd"/>
    <g id="Grupo_1178033" data-name="Grupo 1178033" transform="translate(-8.408 491.123)">
      <path id="Trazado_1033885" data-name="Trazado 1033885" d="M308.4,109.147c.446,1.348,1.362,2.762,2.964,2.667a3.609,3.609,0,0,0,1.141-.266c3.193-1.176,6.512-1.973,9.68-3.221a9.129,9.129,0,0,0,3.835-2.459,8.689,8.689,0,0,0,1.714-3.8,28.325,28.325,0,0,0,.467-4.345,24.178,24.178,0,0,0-.105-4.8,9.021,9.021,0,0,0-1.556-4.053,8.207,8.207,0,0,0-2.693-2.337,10.253,10.253,0,0,0-7.151-.917,10.916,10.916,0,0,0-6.3,4.488,15,15,0,0,0-2.606,7.725c-.107,1.864-.152,3.744-.117,5.61a19.426,19.426,0,0,0,.727,5.7" transform="translate(-7004.263 -4960.47)" fill="#2f5235"/>
      <path id="Trazado_1033886" data-name="Trazado 1033886" d="M352.534,101.431a.344.344,0,0,0,.045.115c0,.013,0,.026,0,.04.206.942.376,1.891.595,2.83a8.583,8.583,0,0,0,.725,2.1,5.489,5.489,0,0,0,3.614,2.68,8.569,8.569,0,0,0,5.278-.46,5.055,5.055,0,0,0,2.053-1.609A8.215,8.215,0,0,0,366.1,104.3c.31-1.14.558-2.3.788-3.461a23.248,23.248,0,0,0,.484-3.83,10.812,10.812,0,0,0-1.493-6.112,6.762,6.762,0,0,0-4.575-3.165,8.136,8.136,0,0,0-8.9,5.573,14.667,14.667,0,0,0-.14,6.478c.081.551.175,1.1.272,1.648" transform="translate(-7023.186 -4961.449)" fill="#2f5235"/>
      <path id="Trazado_1033887" data-name="Trazado 1033887" d="M388.844,116.193c2.789,1.164,6.432.091,7.7-2.767a9.506,9.506,0,0,0,.681-2.695,28.147,28.147,0,0,0,.213-2.838,12.979,12.979,0,0,0-.947-5.637,7.4,7.4,0,0,0-3.288-3.534,5.32,5.32,0,0,0-4.686-.176,6.911,6.911,0,0,0-3.256,3.406,13.775,13.775,0,0,0-1.041,5.617c-.008.476-.006.951,0,1.426a.528.528,0,0,0-.011.07,7.033,7.033,0,0,0,1.251,4.451,7.924,7.924,0,0,0,3.388,2.676" transform="translate(-7036.947 -4965.909)" fill="#2f5235"/>
      <path id="Trazado_1033888" data-name="Trazado 1033888" d="M413.3,130.116a5.613,5.613,0,0,0,3.836.5,4.728,4.728,0,0,0,3.137-2.343,8.694,8.694,0,0,0,.783-2.192q.291-1.242.461-2.508a10.432,10.432,0,0,0-.362-4.968c-.951-2.57-3.673-4.717-6.5-3.723a6.182,6.182,0,0,0-3.173,2.724,12.188,12.188,0,0,0-1.384,4.668c-.048.361-.089.723-.13,1.084a.237.237,0,0,0-.011.034,6.207,6.207,0,0,0,.645,4.088,6.768,6.768,0,0,0,2.694,2.638" transform="translate(-7047.909 -4972.976)" fill="#2f5235"/>
      <path id="Trazado_1033889" data-name="Trazado 1033889" d="M442.548,143.56a6.286,6.286,0,0,0-2.441-3.183,3.977,3.977,0,0,0-3.773-.341,5.881,5.881,0,0,0-2.788,2.857,13.133,13.133,0,0,0-1.1,4.752c-.032.39-.057.78-.08,1.17a.6.6,0,0,0-.013.071,6.482,6.482,0,0,0,.776,3.954,6.344,6.344,0,0,0,2.545,2.455,4.8,4.8,0,0,0,3.594.3,4.547,4.547,0,0,0,2.825-2.579,9.667,9.667,0,0,0,.615-2.247c.135-.809.245-1.625.311-2.443a11.474,11.474,0,0,0-.474-4.77" transform="translate(-7057.495 -4983.686)" fill="#2f5235"/>
      <path id="Trazado_1033890" data-name="Trazado 1033890" d="M378.759,155.777a42.307,42.307,0,0,0-10.669-11.137,53.421,53.421,0,0,0-13.673-7.329,54.44,54.44,0,0,0-15.267-3.17,50.688,50.688,0,0,0-15.537,1.431c-7.8,1.986-15.121,4.279-17.255,13.007-.934,3.819-.753,7.809-.565,11.736.606,12.677,1.785,25.274,1.054,37.907q-.873,15.084-1.748,30.168c-1.066,18.4,4.387,36.316,9.291,53.826,3.714,13.262,4.213,37.049,18.371,43.971a19.571,19.571,0,0,0,18.131-.667c8.785-5.127,12.077-16.166,13.084-26.289,1.332-13.386,2.83-26.972,5.842-40.1,3.173-13.828,7.984-27.21,11.507-40.945,4.852-18.919,8.523-44.84-2.567-62.413" transform="translate(-7003.113 -4981.266)" fill="#2f5235"/>
      <path id="Trazado_1033891" data-name="Trazado 1033891" d="M234.316,109.147c-.446,1.348-1.362,2.762-2.964,2.667a3.61,3.61,0,0,1-1.141-.266c-3.193-1.176-6.512-1.973-9.68-3.221a9.129,9.129,0,0,1-3.835-2.459,8.69,8.69,0,0,1-1.714-3.8,28.329,28.329,0,0,1-.467-4.345,24.185,24.185,0,0,1,.105-4.8,9.021,9.021,0,0,1,1.556-4.053,8.207,8.207,0,0,1,2.694-2.337,10.253,10.253,0,0,1,7.151-.917,10.916,10.916,0,0,1,6.3,4.488,15,15,0,0,1,2.606,7.725c.107,1.864.152,3.744.117,5.61a19.423,19.423,0,0,1-.727,5.7" transform="translate(-6964.458 -4960.47)" fill="#2f5235"/>
      <path id="Trazado_1033892" data-name="Trazado 1033892" d="M194.053,101.431a.346.346,0,0,1-.045.115c0,.013,0,.026,0,.04-.206.942-.376,1.891-.595,2.83a8.584,8.584,0,0,1-.725,2.1,5.489,5.489,0,0,1-3.614,2.68,8.567,8.567,0,0,1-5.278-.46,5.055,5.055,0,0,1-2.053-1.609,8.215,8.215,0,0,1-1.252-2.824c-.31-1.14-.558-2.3-.788-3.461a23.238,23.238,0,0,1-.484-3.83,10.812,10.812,0,0,1,1.493-6.112,6.761,6.761,0,0,1,4.575-3.165,8.135,8.135,0,0,1,8.9,5.573,14.667,14.667,0,0,1,.14,6.478c-.081.551-.175,1.1-.272,1.648" transform="translate(-6949.409 -4961.449)" fill="#2f5235"/>
      <path id="Trazado_1033893" data-name="Trazado 1033893" d="M159.355,116.193c-2.789,1.164-6.431.091-7.7-2.767a9.5,9.5,0,0,1-.681-2.695,28.17,28.17,0,0,1-.213-2.838,12.979,12.979,0,0,1,.947-5.637A7.4,7.4,0,0,1,155,98.722a5.319,5.319,0,0,1,4.686-.176,6.911,6.911,0,0,1,3.256,3.406,13.774,13.774,0,0,1,1.04,5.617c.008.476.006.951,0,1.426a.531.531,0,0,1,.011.07,7.032,7.032,0,0,1-1.251,4.451,7.923,7.923,0,0,1-3.388,2.676" transform="translate(-6937.259 -4965.909)" fill="#2f5235"/>
      <path id="Trazado_1033894" data-name="Trazado 1033894" d="M135.985,130.116a5.613,5.613,0,0,1-3.836.5,4.728,4.728,0,0,1-3.137-2.343,8.7,8.7,0,0,1-.783-2.192q-.291-1.242-.461-2.508a10.429,10.429,0,0,1,.362-4.968c.951-2.57,3.673-4.717,6.5-3.723A6.181,6.181,0,0,1,137.8,117.6a12.189,12.189,0,0,1,1.384,4.668c.048.361.089.723.13,1.084a.241.241,0,0,1,.011.034,6.208,6.208,0,0,1-.645,4.088,6.767,6.767,0,0,1-2.693,2.638" transform="translate(-6927.385 -4972.976)" fill="#2f5235"/>
      <path id="Trazado_1033895" data-name="Trazado 1033895" d="M107.5,143.56a6.286,6.286,0,0,1,2.441-3.183,3.977,3.977,0,0,1,3.773-.341,5.881,5.881,0,0,1,2.788,2.857,13.135,13.135,0,0,1,1.1,4.752c.032.39.057.78.08,1.17a.588.588,0,0,1,.013.071,6.479,6.479,0,0,1-.777,3.954,6.338,6.338,0,0,1-2.544,2.455,4.8,4.8,0,0,1-3.594.3,4.547,4.547,0,0,1-2.825-2.579,9.663,9.663,0,0,1-.615-2.247c-.135-.809-.245-1.625-.311-2.443a11.464,11.464,0,0,1,.474-4.77" transform="translate(-6918.56 -4983.686)" fill="#2f5235"/>
      <path id="Trazado_1033896" data-name="Trazado 1033896" d="M118.9,155.777a42.306,42.306,0,0,1,10.669-11.137,53.421,53.421,0,0,1,13.673-7.329,54.44,54.44,0,0,1,15.267-3.17,50.687,50.687,0,0,1,15.537,1.431c7.8,1.986,15.121,4.279,17.255,13.007.934,3.819.752,7.809.564,11.736-.605,12.677-1.785,25.274-1.053,37.907q.873,15.084,1.748,30.168c1.066,18.4-4.387,36.316-9.291,53.826-3.714,13.262-4.213,37.049-18.371,43.971a19.571,19.571,0,0,1-18.131-.667c-8.785-5.127-12.077-16.166-13.084-26.289-1.332-13.386-2.83-26.972-5.842-40.1-3.173-13.828-7.984-27.21-11.507-40.945-4.852-18.919-8.523-44.84,2.567-62.413" transform="translate(-6920.55 -4981.266)" fill="#2f5235"/>
    </g>
  </g>
</svg>
