<svg xmlns="http://www.w3.org/2000/svg" width="493" height="330" viewBox="0 0 493 330">
  <g id="Grupo_1178132" data-name="Grupo 1178132" transform="translate(6329 7981)">
    <g id="Trazado_1034653" data-name="Trazado 1034653" transform="translate(-6329 -7981)" fill="#f7f4f2">
      <path d="M 485 329 L 8 329 C 4.14018726348877 329 1 325.8598022460938 1 322 L 1 8 C 1 4.14018726348877 4.14018726348877 1 8 1 L 485 1 C 488.8598022460938 1 492 4.14018726348877 492 8 L 492 322 C 492 325.8598022460938 488.8598022460938 329 485 329 Z" stroke="none"/>
      <path d="M 8 2 C 4.691558837890625 2 2 4.691558837890625 2 8 L 2 322 C 2 325.3084411621094 4.691558837890625 328 8 328 L 485 328 C 488.3084411621094 328 491 325.3084411621094 491 322 L 491 8 C 491 4.691558837890625 488.3084411621094 2 485 2 L 8 2 M 8 0 L 485 0 C 489.4182434082031 0 493 3.581695556640625 493 8 L 493 322 C 493 326.4182434082031 489.4182434082031 330 485 330 L 8 330 C 3.581695556640625 330 0 326.4182434082031 0 322 L 0 8 C 0 3.581695556640625 3.581695556640625 0 8 0 Z" stroke="none" fill="#2f5235"/>
    </g>
    <path id="Trazado_1034654" data-name="Trazado 1034654" d="M-8.1-3.384A3.923,3.923,0,0,1-9.346-.773,4.093,4.093,0,0,1-12.14.146a3.758,3.758,0,0,1-3.029-1.355,5.451,5.451,0,0,1-1.139-3.625V-5.859a6.076,6.076,0,0,1,.531-2.615,3.966,3.966,0,0,1,1.505-1.732,4.191,4.191,0,0,1,2.256-.6,3.853,3.853,0,0,1,2.725.948A3.971,3.971,0,0,1-8.1-7.236H-9.51a3.064,3.064,0,0,0-.795-1.851,2.4,2.4,0,0,0-1.71-.573,2.516,2.516,0,0,0-2.113,1,4.577,4.577,0,0,0-.765,2.837v1.034a4.7,4.7,0,0,0,.725,2.764A2.343,2.343,0,0,0-12.14-1a2.706,2.706,0,0,0,1.8-.531A2.947,2.947,0,0,0-9.51-3.384ZM-1.5,0a2.846,2.846,0,0,1-.19-.835A3.023,3.023,0,0,1-3.944.146,2.8,2.8,0,0,1-5.867-.516,2.145,2.145,0,0,1-6.617-2.2,2.24,2.24,0,0,1-5.676-4.12,4.437,4.437,0,0,1-3.029-4.8H-1.71v-.623a1.522,1.522,0,0,0-.425-1.132A1.707,1.707,0,0,0-3.387-6.98,1.976,1.976,0,0,0-4.6-6.614a1.079,1.079,0,0,0-.491.886H-6.456a1.87,1.87,0,0,1,.421-1.146,2.874,2.874,0,0,1,1.143-.875,3.844,3.844,0,0,1,1.586-.322,3.133,3.133,0,0,1,2.146.685A2.47,2.47,0,0,1-.355-5.5v3.647A4.459,4.459,0,0,0-.077-.117V0ZM-3.746-1.033a2.381,2.381,0,0,0,1.208-.33,1.994,1.994,0,0,0,.828-.857V-3.845H-2.772q-2.49,0-2.49,1.458a1.234,1.234,0,0,0,.425,1A1.633,1.633,0,0,0-3.746-1.033Zm6.8-6.892.044,1A2.888,2.888,0,0,1,5.468-8.071Q7.98-8.071,8-5.237V0H6.647V-5.244a1.824,1.824,0,0,0-.392-1.267,1.57,1.57,0,0,0-1.2-.41A1.956,1.956,0,0,0,3.9-6.57a2.387,2.387,0,0,0-.776.923V0H1.769V-7.925Zm4.482-3.091a1.821,1.821,0,0,1-.45,1.282,1.463,1.463,0,0,1-1.124.491,1.65,1.65,0,0,1-.52-.073,2.806,2.806,0,0,1-.575-.3,2.49,2.49,0,0,0-.513-.275,1.255,1.255,0,0,0-.363-.048.672.672,0,0,0-.513.231.836.836,0,0,0-.212.59L2.355-9.17a1.912,1.912,0,0,1,.443-1.3,1.421,1.421,0,0,1,1.124-.513,1.366,1.366,0,0,1,.461.073,3.363,3.363,0,0,1,.557.286,3.276,3.276,0,0,0,.538.278,1.236,1.236,0,0,0,.414.066.655.655,0,0,0,.524-.249.874.874,0,0,0,.209-.579ZM14.938,0a2.846,2.846,0,0,1-.19-.835,3.023,3.023,0,0,1-2.256.981,2.8,2.8,0,0,1-1.923-.663A2.145,2.145,0,0,1,9.818-2.2a2.24,2.24,0,0,1,.941-1.923A4.437,4.437,0,0,1,13.407-4.8h1.318v-.623A1.522,1.522,0,0,0,14.3-6.559a1.707,1.707,0,0,0-1.252-.421,1.976,1.976,0,0,0-1.216.366,1.079,1.079,0,0,0-.491.886H9.979A1.87,1.87,0,0,1,10.4-6.874a2.874,2.874,0,0,1,1.143-.875,3.844,3.844,0,0,1,1.586-.322,3.133,3.133,0,0,1,2.146.685A2.47,2.47,0,0,1,16.08-5.5v3.647a4.459,4.459,0,0,0,.278,1.736V0ZM12.689-1.033a2.381,2.381,0,0,0,1.208-.33,1.994,1.994,0,0,0,.828-.857V-3.845H13.663q-2.49,0-2.49,1.458a1.234,1.234,0,0,0,.425,1A1.633,1.633,0,0,0,12.689-1.033Z" transform="translate(-6027.996 -7907.782)" fill="#12263f"/>
    <path id="Trazado_1034655" data-name="Trazado 1034655" d="M-9.771-9.514H-13.2V0h-1.4V-9.514h-3.42v-1.15h8.247ZM-4.336,0a2.846,2.846,0,0,1-.19-.835A3.023,3.023,0,0,1-6.782.146,2.8,2.8,0,0,1-8.7-.516,2.145,2.145,0,0,1-9.456-2.2,2.24,2.24,0,0,1-8.514-4.12,4.437,4.437,0,0,1-5.867-4.8h1.318v-.623a1.522,1.522,0,0,0-.425-1.132A1.707,1.707,0,0,0-6.226-6.98a1.976,1.976,0,0,0-1.216.366,1.079,1.079,0,0,0-.491.886H-9.294a1.87,1.87,0,0,1,.421-1.146,2.874,2.874,0,0,1,1.143-.875,3.844,3.844,0,0,1,1.586-.322A3.133,3.133,0,0,1-4-7.386,2.47,2.47,0,0,1-3.193-5.5v3.647A4.459,4.459,0,0,0-2.915-.117V0ZM-6.584-1.033a2.381,2.381,0,0,0,1.208-.33,1.994,1.994,0,0,0,.828-.857V-3.845H-5.61q-2.49,0-2.49,1.458a1.234,1.234,0,0,0,.425,1A1.633,1.633,0,0,0-6.584-1.033ZM.4,0H-.952V-11.25H.4ZM2.212-4.036A4.681,4.681,0,0,1,2.67-6.13,3.415,3.415,0,0,1,3.944-7.566a3.469,3.469,0,0,1,1.864-.505A3.342,3.342,0,0,1,8.427-6.951a4.311,4.311,0,0,1,1,2.981v.1A4.722,4.722,0,0,1,8.983-1.8,3.365,3.365,0,0,1,7.716-.366,3.509,3.509,0,0,1,5.823.146,3.334,3.334,0,0,1,3.212-.974a4.29,4.29,0,0,1-1-2.966Zm1.362.161a3.39,3.39,0,0,0,.612,2.117,1.957,1.957,0,0,0,1.637.8,1.945,1.945,0,0,0,1.641-.809,3.707,3.707,0,0,0,.608-2.267,3.384,3.384,0,0,0-.619-2.113,1.968,1.968,0,0,0-1.644-.809,1.946,1.946,0,0,0-1.619.8A3.68,3.68,0,0,0,3.574-3.875ZM6.423-11.25H8.064L6.1-9.1,5.01-9.1Zm5.984,3.325.044,1a2.888,2.888,0,0,1,2.373-1.143q2.512,0,2.534,2.834V0H16V-5.244a1.824,1.824,0,0,0-.392-1.267,1.57,1.57,0,0,0-1.2-.41,1.956,1.956,0,0,0-1.157.352,2.387,2.387,0,0,0-.776.923V0H11.125V-7.925Z" transform="translate(-6163.196 -7768.524)" fill="#12263f"/>
    <path id="Trazado_1034489" data-name="Trazado 1034489" d="M-8285.755-7034.014s-2.139,43.228,3.953,86.465,16.513,48.887,19.8,79.545-4.122,28.987-6.646,43.086-2.843,20.247-2.843,20.247v30.5l36.915,4.157,17.271-6.264s11.764,9.054,26.835,11.6,32.313-.054,55.393-2.427,22.987-1.995,32.22-5.39,4.71-8.189,4.71-8.189-.792-7.288-12.442-13.285-25.715-1.53-44.379-17.7-30.276-46.985-30.276-46.985l3.482-175.361Z" transform="translate(2130.104 -916.986)" fill="#a2663a" stroke="#000" stroke-width="2"/>
    <path id="Trazado_1034490" data-name="Trazado 1034490" d="M-8124.473-6713.185s-13.026-.1-13.019,8.433,10.047,37.006,10.047,37.006,2.071,8.337,0,10.311-8.281-2.417-8.281-2.417-8.142-1.291-12.591,4.011-5.208,17.2-5.208,17.2" transform="translate(2069.989 -1062.445)" fill="none" stroke="#000" stroke-width="2"/>
    <path id="Trazado_1034491" data-name="Trazado 1034491" d="M-8241.786-6684.389s19.09,8.024,28.331,20.936,8.635,30.708,8.635,30.708" transform="translate(2110.004 -1075.501)" fill="none" stroke="#000" stroke-width="2"/>
    <path id="Trazado_1034492" data-name="Trazado 1034492" d="M-8259.289-6614.182s20.774.978,40.46,10.891,33.788,19.238,43.61,21.439,12.014,1.666,36.356,0,52.6-8.125,52.6-8.125,2.676,3.388,0,6.274c-1.176,1.271-5.366,2.08-8.755,3.077-10.087,2.967-46.671,7.658-54.826,7.588s-22.219,2.136-38.3-3.881-33.579-20.437-33.579-20.437v18.216l-37.57-4.563Z" transform="translate(2117.94 -1107.332)" fill="#643511" stroke="#000" stroke-linejoin="round" stroke-width="2"/>
    <path id="Trazado_1034493" data-name="Trazado 1034493" d="M-8193.771-7034.014l19.2,224.285h2.364l-17.466-224.285Z" transform="translate(2088.235 -916.986)" fill="#93682c" stroke="#000" stroke-width="1"/>
    <path id="Trazado_1034494" data-name="Trazado 1034494" d="M-8190.763-6582.961v17.33l16.978-6.293Z" transform="translate(2086.872 -1121.487)" fill="#4b2509" stroke="#000" stroke-width="2"/>
    <path id="Trazado_1034495" data-name="Trazado 1034495" d="M-8259.289-6565.109l37.76,4.443,13.821-4.443" transform="translate(2117.94 -1129.581)" fill="none" stroke="#000" stroke-width="2"/>
    <path id="Trazado_1034656" data-name="Trazado 1034656" d="M-24.089-3.384A3.923,3.923,0,0,1-25.338-.773a4.093,4.093,0,0,1-2.794.919,3.758,3.758,0,0,1-3.029-1.355A5.451,5.451,0,0,1-32.3-4.834V-5.859a6.076,6.076,0,0,1,.531-2.615,3.966,3.966,0,0,1,1.505-1.732,4.191,4.191,0,0,1,2.256-.6,3.853,3.853,0,0,1,2.725.948,3.971,3.971,0,0,1,1.194,2.626H-25.5A3.064,3.064,0,0,0-26.3-9.088a2.4,2.4,0,0,0-1.71-.573,2.516,2.516,0,0,0-2.113,1,4.577,4.577,0,0,0-.765,2.837v1.034a4.7,4.7,0,0,0,.725,2.764A2.343,2.343,0,0,0-28.132-1a2.706,2.706,0,0,0,1.8-.531A2.947,2.947,0,0,0-25.5-3.384ZM-17.49,0a2.846,2.846,0,0,1-.19-.835,3.023,3.023,0,0,1-2.256.981,2.8,2.8,0,0,1-1.923-.663A2.145,2.145,0,0,1-22.61-2.2a2.24,2.24,0,0,1,.941-1.923A4.437,4.437,0,0,1-19.021-4.8H-17.7v-.623a1.522,1.522,0,0,0-.425-1.132A1.707,1.707,0,0,0-19.38-6.98a1.976,1.976,0,0,0-1.216.366,1.079,1.079,0,0,0-.491.886h-1.362a1.87,1.87,0,0,1,.421-1.146,2.874,2.874,0,0,1,1.143-.875A3.844,3.844,0,0,1-19.3-8.071a3.133,3.133,0,0,1,2.146.685A2.47,2.47,0,0,1-16.348-5.5v3.647a4.459,4.459,0,0,0,.278,1.736V0Zm-2.249-1.033a2.381,2.381,0,0,0,1.208-.33,1.994,1.994,0,0,0,.828-.857V-3.845h-1.062q-2.49,0-2.49,1.458a1.234,1.234,0,0,0,.425,1A1.633,1.633,0,0,0-19.739-1.033ZM-7.529-3.875A4.745,4.745,0,0,1-8.357-.959,2.653,2.653,0,0,1-10.6.146a2.906,2.906,0,0,1-2.271-.916V3.047h-1.355V-7.925h1.238l.066.879a2.791,2.791,0,0,1,2.3-1.025,2.7,2.7,0,0,1,2.26,1.077,4.8,4.8,0,0,1,.831,3Zm-1.355-.154a3.5,3.5,0,0,0-.571-2.117,1.84,1.84,0,0,0-1.567-.776A1.992,1.992,0,0,0-12.869-5.83v3.787a2,2,0,0,0,1.86,1.084,1.832,1.832,0,0,0,1.549-.773A3.822,3.822,0,0,0-8.884-4.028ZM-2.52.146A3.463,3.463,0,0,1-5.142-.912,3.928,3.928,0,0,1-6.152-3.743v-.249A4.756,4.756,0,0,1-5.7-6.1a3.514,3.514,0,0,1,1.26-1.45,3.167,3.167,0,0,1,1.754-.524,2.968,2.968,0,0,1,2.4,1.018A4.408,4.408,0,0,1,.571-4.138v.564H-4.8a2.817,2.817,0,0,0,.685,1.893,2.153,2.153,0,0,0,1.666.721A2.36,2.36,0,0,0-1.23-1.252a3.055,3.055,0,0,0,.872-.776l.828.645A3.328,3.328,0,0,1-2.52.146Zm-.168-7.1a1.807,1.807,0,0,0-1.377.6,2.9,2.9,0,0,0-.688,1.674h3.97v-.1a2.581,2.581,0,0,0-.557-1.6A1.7,1.7,0,0,0-2.688-6.958ZM3.611,0H2.256V-11.25H3.611Zm3.64,0H5.9V-11.25H7.251Zm7.061,0a2.846,2.846,0,0,1-.19-.835,3.023,3.023,0,0,1-2.256.981A2.8,2.8,0,0,1,9.943-.516,2.145,2.145,0,0,1,9.192-2.2a2.24,2.24,0,0,1,.941-1.923A4.437,4.437,0,0,1,12.781-4.8H14.1v-.623a1.522,1.522,0,0,0-.425-1.132,1.707,1.707,0,0,0-1.252-.421,1.976,1.976,0,0,0-1.216.366,1.079,1.079,0,0,0-.491.886H9.353a1.87,1.87,0,0,1,.421-1.146,2.874,2.874,0,0,1,1.143-.875A3.844,3.844,0,0,1,12.5-8.071a3.133,3.133,0,0,1,2.146.685A2.47,2.47,0,0,1,15.454-5.5v3.647a4.459,4.459,0,0,0,.278,1.736V0ZM12.063-1.033a2.381,2.381,0,0,0,1.208-.33,1.994,1.994,0,0,0,.828-.857V-3.845H13.037q-2.49,0-2.49,1.458a1.234,1.234,0,0,0,.425,1A1.633,1.633,0,0,0,12.063-1.033Zm5.186-3a4.642,4.642,0,0,1,.864-2.933,2.733,2.733,0,0,1,2.263-1.11,2.748,2.748,0,0,1,2.2.952V-11.25h1.355V0H22.69l-.066-.85a2.759,2.759,0,0,1-2.263,1A2.707,2.707,0,0,1,18.116-.981a4.7,4.7,0,0,1-.868-2.944Zm1.355.154a3.515,3.515,0,0,0,.557,2.109A1.8,1.8,0,0,0,20.7-1a1.977,1.977,0,0,0,1.882-1.157V-5.8a1.992,1.992,0,0,0-1.868-1.121,1.808,1.808,0,0,0-1.553.769A3.87,3.87,0,0,0,18.6-3.875ZM30.93,0a2.846,2.846,0,0,1-.19-.835,3.023,3.023,0,0,1-2.256.981,2.8,2.8,0,0,1-1.923-.663A2.145,2.145,0,0,1,25.811-2.2a2.24,2.24,0,0,1,.941-1.923A4.437,4.437,0,0,1,29.4-4.8h1.318v-.623a1.522,1.522,0,0,0-.425-1.132,1.707,1.707,0,0,0-1.252-.421,1.976,1.976,0,0,0-1.216.366,1.079,1.079,0,0,0-.491.886H25.972a1.87,1.87,0,0,1,.421-1.146,2.874,2.874,0,0,1,1.143-.875,3.844,3.844,0,0,1,1.586-.322,3.133,3.133,0,0,1,2.146.685A2.47,2.47,0,0,1,32.073-5.5v3.647a4.459,4.459,0,0,0,.278,1.736V0ZM28.682-1.033a2.381,2.381,0,0,0,1.208-.33,1.994,1.994,0,0,0,.828-.857V-3.845H29.656q-2.49,0-2.49,1.458a1.234,1.234,0,0,0,.425,1A1.633,1.633,0,0,0,28.682-1.033Z" transform="translate(-5991.845 -7746.65)" fill="#12263f"/>
    <g id="Grupo_1178012" data-name="Grupo 1178012" transform="matrix(-0.839, 0.545, -0.545, -0.839, -5993.841, -7737.092)">
      <path id="Línea_638" data-name="Línea 638" d="M36.231,3.477,0,1.858.07,0,36.3,1.619Z" transform="translate(0 0.86)" fill="#f6e15c"/>
      <path id="Polígono_5" data-name="Polígono 5" d="M3.409,0,6.818,4.958H0Z" transform="translate(39.671 0) rotate(90)" fill="#f6e15c"/>
      <path id="Polígono_5_-_Contorno" data-name="Polígono 5 - Contorno" d="M3.409,1.094,1.178,4.339H5.64L3.409,1.094M3.409,0,6.818,4.958H0Z" transform="translate(39.671 0) rotate(90)" fill="#f6e15c"/>
      <path id="Polígono_5_-_Contorno-2" data-name="Polígono 5 - Contorno" d="M3.409,1.094,1.178,4.339H5.64L3.409,1.094M3.409,0,6.818,4.958H0Z" transform="translate(39.671 0) rotate(90)" fill="#f6e15c"/>
    </g>
    <g id="Grupo_1178014" data-name="Grupo 1178014" transform="matrix(-0.839, 0.545, -0.545, -0.839, -6030.825, -7898.225)">
      <path id="Línea_638-2" data-name="Línea 638" d="M36.231,3.477,0,1.858.07,0,36.3,1.619Z" transform="translate(0 0.86)" fill="#f6e15c"/>
      <path id="Polígono_5-2" data-name="Polígono 5" d="M3.409,0,6.818,4.958H0Z" transform="translate(39.671 0) rotate(90)" fill="#f6e15c"/>
      <path id="Polígono_5_-_Contorno-3" data-name="Polígono 5 - Contorno" d="M3.409,1.094,1.178,4.339H5.64L3.409,1.094M3.409,0,6.818,4.958H0Z" transform="translate(39.671 0) rotate(90)" fill="#f6e15c"/>
      <path id="Polígono_5_-_Contorno-4" data-name="Polígono 5 - Contorno" d="M3.409,1.094,1.178,4.339H5.64L3.409,1.094M3.409,0,6.818,4.958H0Z" transform="translate(39.671 0) rotate(90)" fill="#f6e15c"/>
    </g>
    <g id="Grupo_1178013" data-name="Grupo 1178013" transform="matrix(0.839, 0.545, -0.545, 0.839, -6162.466, -7765.685)">
      <path id="Línea_638-3" data-name="Línea 638" d="M36.23,0,0,1.619.07,3.477,36.3,1.858Z" transform="translate(0 2.48)" fill="#f6e15c"/>
      <path id="Polígono_5-3" data-name="Polígono 5" d="M3.409,0,6.818,4.958H0Z" transform="translate(39.671 0) rotate(90)" fill="#f6e15c"/>
      <path id="Polígono_5_-_Contorno-5" data-name="Polígono 5 - Contorno" d="M3.409,3.864,1.178.62H5.64L3.409,3.864m0,1.094L6.818,0H0Z" transform="translate(34.712 6.818) rotate(-90)" fill="#f6e15c"/>
      <path id="Polígono_5_-_Contorno-6" data-name="Polígono 5 - Contorno" d="M3.409,3.864,1.178.62H5.64L3.409,3.864m0,1.094L6.818,0H0Z" transform="translate(34.712 6.818) rotate(-90)" fill="#f6e15c"/>
    </g>
  </g>
</svg>
