<svg xmlns="http://www.w3.org/2000/svg" xmlns:xlink="http://www.w3.org/1999/xlink" width="106.211" height="106.211" viewBox="0 0 106.211 106.211">
  <defs>
    <filter id="Trazado_896985" x="0" y="0" width="106.211" height="106.211" filterUnits="userSpaceOnUse">
      <feOffset dy="3" input="SourceAlpha"/>
      <feGaussianBlur stdDeviation="3" result="blur"/>
      <feFlood flood-opacity="0.161"/>
      <feComposite operator="in" in2="blur"/>
      <feComposite in="SourceGraphic"/>
    </filter>
  </defs>
  <g id="Grupo_1178126" data-name="Grupo 1178126" transform="translate(-326.995 -4755)">
    <g id="Grupo_1178071" data-name="Grupo 1178071" transform="translate(335.994 4761)">
      <g transform="matrix(1, 0, 0, 1, -9, -6)" filter="url(#Trazado_896985)">
        <g id="Trazado_896985-2" data-name="Trazado 896985" transform="translate(9 6)" fill="#d8cabd" opacity="0.859">
          <path d="M 44.10559844970703 86.71131896972656 C 38.35321044921875 86.71131896972656 32.77369689941406 85.58504486083984 27.52203559875488 83.36377716064453 C 22.44876098632812 81.21797180175781 17.89219856262207 78.14572906494141 13.97888565063477 74.23242950439453 C 10.06557369232178 70.31911468505859 6.993348598480225 65.76254272460938 4.847536087036133 60.68928146362305 C 2.626273393630981 55.43761825561523 1.499998450279236 49.85809326171875 1.499998450279236 44.10571670532227 C 1.499998450279236 38.35321807861328 2.626273393630981 32.7736930847168 4.847536087036133 27.52202987670898 C 6.993348598480225 22.44876861572266 10.06557369232178 17.89219284057617 13.97888565063477 13.9788932800293 C 17.89219856262207 10.06558036804199 22.44876098632812 6.993355751037598 27.52203559875488 4.847543239593506 C 32.77369689941406 2.626280784606934 38.35321044921875 1.500005722045898 44.10559844970703 1.500005722045898 C 49.85797500610352 1.500005722045898 55.4375 2.626280784606934 60.68915939331055 4.847543239593506 C 65.76242065429688 6.993355751037598 70.31900024414062 10.06558036804199 74.23230743408203 13.9788932800293 C 78.14561462402344 17.89219284057617 81.21784973144531 22.44876861572266 83.36366271972656 27.52202987670898 C 85.58492279052734 32.7736930847168 86.71119689941406 38.35321807861328 86.71119689941406 44.10559463500977 C 86.71119689941406 49.85809326171875 85.58492279052734 55.43761825561523 83.36366271972656 60.68928146362305 C 81.21784973144531 65.76254272460938 78.14561462402344 70.31911468505859 74.23230743408203 74.23242950439453 C 70.31900024414062 78.14572906494141 65.76242065429688 81.21797180175781 60.68915939331055 83.36377716064453 C 55.4375 85.58504486083984 49.85797500610352 86.71131896972656 44.10559844970703 86.71131896972656 Z" stroke="none"/>
          <path d="M 44.10559844970703 3 C 38.5550537109375 3 33.17212677001953 4.086410522460938 28.10635375976562 6.229057312011719 C 23.21188354492188 8.299240112304688 18.81556701660156 11.26351165771484 15.03954315185547 15.03955841064453 C 11.26351165771484 18.81558227539062 8.299224853515625 23.21189880371094 6.229042053222656 28.10636901855469 C 4.086410522460938 33.17214202880859 3 38.55505752563477 3 44.105712890625 C 3 49.65625381469727 4.086410522460938 55.03916931152344 6.229042053222656 60.10494232177734 C 8.299224853515625 64.99941253662109 11.26351165771484 69.39572906494141 15.03954315185547 73.1717529296875 C 18.81556701660156 76.94779968261719 23.21188354492188 79.91207122802734 28.10635375976562 81.98225402832031 C 33.17212677001953 84.12490081787109 38.5550537109375 85.21131134033203 44.10559844970703 85.21131134033203 C 49.65614318847656 85.21131134033203 55.03905487060547 84.12490081787109 60.10482788085938 81.98225402832031 C 64.99929809570312 79.91207122802734 69.39561462402344 76.94779968261719 73.17163848876953 73.1717529296875 C 76.94768524169922 69.39572906494141 79.91195678710938 64.99941253662109 81.98213958740234 60.10494232177734 C 84.12478637695312 55.03916931152344 85.21119689941406 49.65625381469727 85.21119689941406 44.10559844970703 C 85.21119689941406 38.55505752563477 84.12478637695312 33.17214202880859 81.98213958740234 28.10636901855469 C 79.91195678710938 23.21189880371094 76.94768524169922 18.81558227539062 73.17163848876953 15.03955841064453 C 69.39561462402344 11.26351165771484 64.99929809570312 8.299240112304688 60.10482788085938 6.229057312011719 C 55.03905487060547 4.086410522460938 49.65614318847656 3 44.10559844970703 3 M 44.10559844970703 0 C 68.46443939208984 0 88.21119689941406 19.74675750732422 88.21119689941406 44.10559844970703 L 88.21119689941406 44.105712890625 C 88.21119689941406 68.46455383300781 68.46443939208984 88.21131134033203 44.10559844970703 88.21131134033203 C 19.74672698974609 88.21131134033203 0 68.46455383300781 0 44.105712890625 L 0 44.10559844970703 C 0 19.74675750732422 19.74672698974609 0 44.10559844970703 0 Z" stroke="none" fill="#fff"/>
        </g>
      </g>
      <g id="Rectángulo_400907" data-name="Rectángulo 400907" transform="translate(0)" fill="none" stroke="#fff" stroke-width="3">
        <rect width="88.211" height="88.211" rx="44.106" stroke="none"/>
        <rect x="1.5" y="1.5" width="85.211" height="85.211" rx="42.606" fill="none"/>
      </g>
    </g>
    <g id="Grupo_1178125" data-name="Grupo 1178125" transform="translate(345.973 4754.75)">
      <g id="Grupo_1178123" data-name="Grupo 1178123" transform="translate(11.813 32.042)">
        <path id="Trazado_1034621" data-name="Trazado 1034621" d="M59.781,72H15.022V57.629a22.379,22.379,0,1,1,44.759,0Z" transform="translate(-15.022 -35.25)" fill="#b76c6c"/>
        <path id="Trazado_1034622" data-name="Trazado 1034622" d="M38.885,35.3A22.375,22.375,0,0,0,17.991,57.63V72H15.02V57.63A22.379,22.379,0,0,1,37.4,35.25c.5,0,.994.016,1.486.052Z" transform="translate(-15.02 -35.25)" fill="#c98585"/>
        <path id="Trazado_1034623" data-name="Trazado 1034623" d="M144.365,57.63V72h-2.971V57.63A22.375,22.375,0,0,0,120.5,35.3c.491-.036.986-.052,1.486-.052a22.379,22.379,0,0,1,22.38,22.38Z" transform="translate(-99.606 -35.25)" fill="#965959"/>
      </g>
      <g id="Grupo_1178124" data-name="Grupo 1178124" transform="translate(11.021 31.25)">
        <path id="Trazado_1034624" data-name="Trazado 1034624" d="M34.193,31.25A23.2,23.2,0,0,0,11.021,54.422V68.787a.792.792,0,0,0,.792.792H56.572a.792.792,0,0,0,.792-.792V54.422A23.2,23.2,0,0,0,34.193,31.25ZM55.78,68H12.606V54.422a21.587,21.587,0,0,1,43.175,0Z" transform="translate(-11.021 -31.25)"/>
        <path id="Trazado_1034625" data-name="Trazado 1034625" d="M33.1,191.538h-.5v-.5a.792.792,0,0,0-1.585,0v1.288a.792.792,0,0,0,.792.792H33.1a.792.792,0,1,0,0-1.585Z" transform="translate(-27.059 -158.754)"/>
        <path id="Trazado_1034626" data-name="Trazado 1034626" d="M121.557,52.142a.792.792,0,0,0-.735-.846,19.442,19.442,0,0,0-2.718,0,.792.792,0,0,0,.112,1.581,17.844,17.844,0,0,1,2.5,0,.791.791,0,0,0,.846-.735Z" transform="translate(-96.301 -47.288)"/>
        <path id="Trazado_1034627" data-name="Trazado 1034627" d="M31.812,137.715a.792.792,0,0,0,.792-.792,19.682,19.682,0,0,1,.116-2.514.792.792,0,1,0-1.574-.181,21.188,21.188,0,0,0-.127,2.695A.792.792,0,0,0,31.812,137.715Z" transform="translate(-27.058 -113.266)"/>
        <path id="Trazado_1034628" data-name="Trazado 1034628" d="M66.744,67.393a17.757,17.757,0,0,1,2.042-1.433.792.792,0,1,0-.817-1.358,19.358,19.358,0,0,0-2.225,1.561.792.792,0,0,0,1,1.23Z" transform="translate(-54.67 -57.904)"/>
        <path id="Trazado_1034629" data-name="Trazado 1034629" d="M36.613,106.342a.792.792,0,0,0-1.047.4,19.116,19.116,0,0,0-.935,2.556.792.792,0,0,0,1.523.437,17.543,17.543,0,0,1,.857-2.344A.792.792,0,0,0,36.613,106.342Z" transform="translate(-29.93 -91.411)"/>
        <path id="Trazado_1034630" data-name="Trazado 1034630" d="M47.91,85.842a17.754,17.754,0,0,1,1.522-1.978.792.792,0,0,0-1.185-1.053,19.364,19.364,0,0,0-1.658,2.155.792.792,0,1,0,1.32.876Z" transform="translate(-39.438 -72.385)"/>
        <path id="Trazado_1034631" data-name="Trazado 1034631" d="M31.813,166.069a.792.792,0,0,0,.792-.792v-2.61a.792.792,0,0,0-1.585,0v2.61A.792.792,0,0,0,31.813,166.069Z" transform="translate(-27.059 -136)"/>
        <path id="Trazado_1034632" data-name="Trazado 1034632" d="M146.14,55.327a17.544,17.544,0,0,1,2.38.75A.792.792,0,0,0,149.1,54.6a19.126,19.126,0,0,0-2.6-.818.792.792,0,0,0-.367,1.542Z" transform="translate(-118.886 -49.304)"/>
        <path id="Trazado_1034633" data-name="Trazado 1034633" d="M208.907,107.308a17.523,17.523,0,0,1,.859,2.341.792.792,0,0,0,1.523-.438,19.14,19.14,0,0,0-.937-2.553.792.792,0,0,0-1.445.651Z" transform="translate(-169.653 -91.346)"/>
        <path id="Trazado_1034634" data-name="Trazado 1034634" d="M217.055,133.431a.792.792,0,0,0-.7.879,19.551,19.551,0,0,1,.118,2.513.792.792,0,1,0,1.585,0,21.039,21.039,0,0,0-.129-2.7A.791.791,0,0,0,217.055,133.431Z" transform="translate(-175.68 -113.186)"/>
        <path id="Trazado_1034635" data-name="Trazado 1034635" d="M90.9,56.106a17.537,17.537,0,0,1,2.378-.752.792.792,0,0,0-.369-1.541,19.148,19.148,0,0,0-2.593.82.792.792,0,1,0,.584,1.473Z" transform="translate(-74.208 -49.326)"/>
        <path id="Trazado_1034636" data-name="Trazado 1034636" d="M193.731,82.689a.792.792,0,0,0-.065,1.119,17.788,17.788,0,0,1,1.523,1.976.792.792,0,0,0,1.32-.877,19.378,19.378,0,0,0-1.66-2.152A.793.793,0,0,0,193.731,82.689Z" transform="translate(-157.326 -72.339)"/>
        <path id="Trazado_1034637" data-name="Trazado 1034637" d="M217.771,161.774a.792.792,0,0,0-.792.792v2.61a.792.792,0,1,0,1.585,0v-2.61A.793.793,0,0,0,217.771,161.774Z" transform="translate(-176.181 -135.919)"/>
        <path id="Trazado_1034638" data-name="Trazado 1034638" d="M175.252,67.235a.792.792,0,0,0-.116-1.114,19.4,19.4,0,0,0-2.227-1.56.792.792,0,0,0-.816,1.359,17.777,17.777,0,0,1,2.044,1.432A.792.792,0,0,0,175.252,67.235Z" transform="translate(-139.878 -57.871)"/>
        <path id="Trazado_1034639" data-name="Trazado 1034639" d="M212.559,190.25a.792.792,0,0,0-.792.792v.5h-.5a.792.792,0,0,0,0,1.585h1.288a.792.792,0,0,0,.792-.792v-1.288A.793.793,0,0,0,212.559,190.25Z" transform="translate(-170.969 -158.754)"/>
        <path id="Trazado_1034640" data-name="Trazado 1034640" d="M107.851,196.75h-2.434a.792.792,0,1,0,0,1.585h2.434a.792.792,0,1,0,0-1.585Z" transform="translate(-86.083 -163.967)"/>
        <path id="Trazado_1034641" data-name="Trazado 1034641" d="M187.241,196.75h-2.434a.792.792,0,1,0,0,1.585h2.434a.792.792,0,0,0,0-1.585Z" transform="translate(-149.747 -163.967)"/>
        <path id="Trazado_1034642" data-name="Trazado 1034642" d="M160.777,196.75h-2.434a.792.792,0,0,0,0,1.585h2.434a.792.792,0,1,0,0-1.585Z" transform="translate(-128.525 -163.967)"/>
        <path id="Trazado_1034643" data-name="Trazado 1034643" d="M81.388,196.75H78.954a.792.792,0,1,0,0,1.585h2.434a.792.792,0,1,0,0-1.585Z" transform="translate(-64.862 -163.967)"/>
        <path id="Trazado_1034644" data-name="Trazado 1034644" d="M54.924,196.75H52.49a.792.792,0,1,0,0,1.585h2.434a.792.792,0,1,0,0-1.585Z" transform="translate(-43.64 -163.967)"/>
        <path id="Trazado_1034645" data-name="Trazado 1034645" d="M134.314,196.75H131.88a.792.792,0,1,0,0,1.585h2.434a.792.792,0,0,0,0-1.585Z" transform="translate(-107.304 -163.967)"/>
      </g>
    </g>
  </g>
</svg>
