<svg xmlns="http://www.w3.org/2000/svg" xmlns:xlink="http://www.w3.org/1999/xlink" width="118" height="118" viewBox="0 0 118 118">
  <defs>
    <filter id="Trazado_896985" x="0" y="0" width="118" height="118" filterUnits="userSpaceOnUse">
      <feOffset dy="3" input="SourceAlpha"/>
      <feGaussianBlur stdDeviation="3" result="blur"/>
      <feFlood flood-opacity="0.161"/>
      <feComposite operator="in" in2="blur"/>
      <feComposite in="SourceGraphic"/>
    </filter>
  </defs>
  <g id="Grupo_1177186" data-name="Grupo 1177186" transform="translate(-1158.609 -3843)">
    <g id="Grupo_1111320" data-name="Grupo 1111320" transform="translate(-8.391 -3)">
      <g id="Grupo_1109828" data-name="Grupo 1109828" transform="translate(1176 3852)">
        <g id="Grupo_1098742" data-name="Grupo 1098742">
          <g transform="matrix(1, 0, 0, 1, -9, -6)" filter="url(#Trazado_896985)">
            <g id="Trazado_896985-2" data-name="Trazado 896985" transform="translate(9 6)" fill="#2f5235" opacity="0.859">
              <path d="M 49.99993896484375 98.5 C 43.45182418823242 98.5 37.10037994384766 97.21788787841797 31.12203979492188 94.68926239013672 C 25.34688186645508 92.24657440185547 20.15993881225586 88.74932861328125 15.70529651641846 84.29470062255859 C 11.25066757202148 79.84007263183594 7.753438949584961 74.65312957763672 5.310753345489502 68.87797546386719 C 2.782124757766724 62.89963150024414 1.499996066093445 56.54819107055664 1.499996066093445 50.00007629394531 C 1.499996066093445 43.45181655883789 2.782124757766724 37.10037612915039 5.310753345489502 31.12203216552734 C 7.753438949584961 25.34687614440918 11.25066757202148 20.15993309020996 15.70529651641846 15.70530414581299 C 20.15993881225586 11.25067520141602 25.34688186645508 7.753432273864746 31.12203979492188 5.310746669769287 C 37.10037994384766 2.782118082046509 43.45182418823242 1.500003814697266 49.99993896484375 1.500003814697266 C 56.54805374145508 1.500003814697266 62.89949798583984 2.782118082046509 68.87785339355469 5.310746669769287 C 74.65300750732422 7.753432273864746 79.83995056152344 11.25067520141602 84.29457855224609 15.70530414581299 C 88.74921417236328 20.15993309020996 92.24645233154297 25.34687614440918 94.68914031982422 31.12203216552734 C 97.21776580810547 37.10037612915039 98.49988555908203 43.45181655883789 98.49988555908203 49.99993133544922 C 98.49988555908203 56.54819107055664 97.21776580810547 62.89963150024414 94.68914031982422 68.87797546386719 C 92.24645233154297 74.65312957763672 88.74921417236328 79.84007263183594 84.29457855224609 84.29470062255859 C 79.83995056152344 88.74932861328125 74.65300750732422 92.24657440185547 68.87785339355469 94.68926239013672 C 62.89949798583984 97.21788787841797 56.54805374145508 98.5 49.99993896484375 98.5 Z" stroke="none"/>
              <path d="M 49.99993896484375 3.000007629394531 C 43.65366363525391 3.000007629394531 37.49881744384766 4.242263793945312 31.70636749267578 6.692268371582031 C 26.11000061035156 9.059326171875 21.08332061767578 12.44860076904297 16.76596832275391 16.76596069335938 C 12.44860076904297 21.08332824707031 9.059326171875 26.11000061035156 6.6922607421875 31.70635986328125 C 4.242263793945312 37.49881744384766 3 43.65366363525391 3 50.00006484985352 C 3 56.34634399414062 4.242263793945312 62.50119018554688 6.6922607421875 68.29363250732422 C 9.059326171875 73.88999938964844 12.44860076904297 78.91667938232422 16.76596832275391 83.23403930664062 C 21.08332061767578 87.55140686035156 26.11000061035156 90.94068145751953 31.70636749267578 93.3077392578125 C 37.49881744384766 95.75774383544922 43.65366363525391 97 49.99993896484375 97 C 56.34621429443359 97 62.50106048583984 95.75774383544922 68.29352569580078 93.3077392578125 C 73.88987731933594 90.94068145751953 78.91654968261719 87.55140686035156 83.23392486572266 83.23403930664062 C 87.55127716064453 78.91667938232422 90.9405517578125 73.88999938964844 93.3076171875 68.29363250732422 C 95.75761413574219 62.50119018554688 96.9998779296875 56.34634399414062 96.9998779296875 49.99994277954102 C 96.9998779296875 43.65366363525391 95.75761413574219 37.49881744384766 93.3076171875 31.70635986328125 C 90.94056701660156 26.11000061035156 87.55127716064453 21.08332824707031 83.23392486572266 16.76596069335938 C 78.91654968261719 12.44860076904297 73.88987731933594 9.059310913085938 68.29352569580078 6.692268371582031 C 62.50106048583984 4.242263793945312 56.34621429443359 3.000007629394531 49.99993896484375 3.000007629394531 M 49.99993896484375 7.62939453125e-06 C 77.61415100097656 7.62939453125e-06 99.9998779296875 22.38572692871094 99.9998779296875 49.99994277954102 L 99.9998779296875 50.00006484985352 C 99.9998779296875 77.61426544189453 77.61415100097656 100 49.99993896484375 100 C 22.3857421875 100 0 77.61426544189453 0 50.00006484985352 L 0 49.99994277954102 C 0 22.38572692871094 22.3857421875 7.62939453125e-06 49.99993896484375 7.62939453125e-06 Z" stroke="none" fill="#fff"/>
            </g>
          </g>
          <g id="Rectángulo_400907" data-name="Rectángulo 400907" transform="translate(0 0)" fill="none" stroke="#fff" stroke-width="3">
            <rect width="100" height="100" rx="50" stroke="none"/>
            <rect x="1.5" y="1.5" width="97" height="97" rx="48.5" fill="none"/>
          </g>
        </g>
      </g>
    </g>
    <g id="_03-shoes" data-name="03-shoes" transform="translate(1184.609 3867.001)">
      <path id="Trazado_1033519" data-name="Trazado 1033519" d="M41,13s9.54-.8,11.61,1.16c-.11.03-.23.06-.34.1A26.174,26.174,0,0,1,43,16c-7,0-5-3-10-3l4-4S41,9,41,13Z" fill="#edd7c0"/>
      <path id="Trazado_1033520" data-name="Trazado 1033520" d="M55,28v5H48S48,28,55,28Z" fill="#ded8ca"/>
      <path id="Trazado_1033521" data-name="Trazado 1033521" d="M15,23.76V26a3.655,3.655,0,0,1-.13.99A3.037,3.037,0,0,1,12,29H1c0-2,5-5,11-5a19.246,19.246,0,0,0,3-.24Z" fill="#c6c2b6"/>
      <path id="Trazado_1033522" data-name="Trazado 1033522" d="M27.55,17.55,30,20c0,4-12,7-15,7l-.13-.01A3.655,3.655,0,0,0,15,26V23.76C19.89,23.04,24.9,20.64,27.55,17.55Z" fill="#ded8ca"/>
      <path id="Trazado_1033523" data-name="Trazado 1033523" d="M55,33v4H42a2.849,2.849,0,0,0-4,0H1V33Z" fill="#e3cdb6"/>
      <path id="Trazado_1033524" data-name="Trazado 1033524" d="M52.61,14.16A2,2,0,0,1,55,16.12V28c-7,0-7,5-7,5H1V29H12a3.037,3.037,0,0,0,2.87-2.01L15,27c3,0,15-3,15-7l-2.45-2.45c.16-.18.31-.36.45-.55,3-4,5-4,5-4,5,0,3,3,10,3a26.174,26.174,0,0,0,9.27-1.74C52.38,14.22,52.5,14.19,52.61,14.16Z" fill="#e2ac62"/>
      <path id="Trazado_1033525" data-name="Trazado 1033525" d="M52.61,14.16c-.11.03-.23.06-.34.1A26.174,26.174,0,0,1,43,16c-7,0-5-3-10-3,0,0-1.16.005-3.035,1.767A8.027,8.027,0,0,1,34,16c3,2,15,4,21,1v-.88a2,2,0,0,0-2.39-1.96Z" fill="#967d66"/>
      <path id="Trazado_1033526" data-name="Trazado 1033526" d="M51,33v4h4V33Z" fill="#e3cdb6"/>
      <path id="Trazado_1033527" data-name="Trazado 1033527" d="M51,18.2V28.763A9.358,9.358,0,0,1,55,28V17a14.114,14.114,0,0,1-4,1.2Z" fill="#ffc26f"/>
      <path id="Trazado_1033528" data-name="Trazado 1033528" d="M52.61,14.16c-.11.03-.23.06-.34.1-.513.2-1.093.4-1.727.592A1.959,1.959,0,0,1,51,16.12V18.2A14.114,14.114,0,0,0,55,17v-.88a2,2,0,0,0-2.39-1.96Z" fill="#ab8e74"/>
      <path id="Trazado_1033529" data-name="Trazado 1033529" d="M15,25V23.76A19.246,19.246,0,0,1,12,24C6,24,1,27,1,29H2.4A20.949,20.949,0,0,1,15,25Z" fill="#e3ded1"/>
      <path id="Trazado_1033530" data-name="Trazado 1033530" d="M18,24.76a22.589,22.589,0,0,0,11.561-5.2L27.55,17.55C24.9,20.64,19.89,23.04,15,23.76V25a19.246,19.246,0,0,0,3-.24Z" fill="#fff8e8"/>
      <path id="Trazado_1033531" data-name="Trazado 1033531" d="M30.55,18.55c.16-.18.31-.36.45-.55,3-4,5-4,5-4,.224,0,.42.013.617.024A5.417,5.417,0,0,0,33,13s-2,0-5,4c-.14.19-.29.37-.45.55l2.011,2.011a12.514,12.514,0,0,0,.989-1.011Z" fill="#968364"/>
      <path id="Trazado_1033532" data-name="Trazado 1033532" d="M51,25.833c-3.546.859-7.053,2.244-10.589,3.182a70.809,70.809,0,0,1-11.826,1.873c-5.468.493-10.955.741-16.44.988A105.939,105.939,0,0,1,1,31.793V33H48a4.966,4.966,0,0,1,3-4.237Z" fill="#d69656"/>
      <path id="Trazado_1033533" data-name="Trazado 1033533" d="M40,14c.591,1.772,7.863-.112,10.246-.782A43.1,43.1,0,0,0,41,13l-1.083.812C39.943,13.876,39.978,13.933,40,14Z" fill="#c9b6a2"/>
      <path id="Trazado_1033534" data-name="Trazado 1033534" d="M50.246,13.218c-2.383.67-9.655,2.554-10.246.782-.022-.067-.057-.124-.083-.188l-1.726,1.3A9.83,9.83,0,0,0,43,16a26.174,26.174,0,0,0,9.27-1.74c.11-.04.23-.07.34-.1A4.978,4.978,0,0,0,50.246,13.218Z" fill="#b09f8d"/>
      <path id="Trazado_1033535" data-name="Trazado 1033535" d="M34.937,11.063,33,13c3.194,0,3.539,1.223,5.191,2.107l1.726-1.3c-.828-2.023-3.53-2.592-4.98-2.749Z" fill="#b09f8d"/>
      <path id="Trazado_1033536" data-name="Trazado 1033536" d="M49,31s9.54-.8,11.61,1.16c-.11.03-.23.06-.34.1A26.174,26.174,0,0,1,51,34c-7,0-5-3-10-3l4-4S49,27,49,31Z" fill="#c9b6a2"/>
      <path id="Trazado_1033537" data-name="Trazado 1033537" d="M63,46v5H56S56,46,63,46Z" fill="#c6c2b6"/>
      <path id="Trazado_1033538" data-name="Trazado 1033538" d="M23,41.76V44a3.655,3.655,0,0,1-.13.99A3.037,3.037,0,0,1,20,47H9c0-2,5-5,11-5a19.246,19.246,0,0,0,3-.24Z" fill="#a6a395"/>
      <path id="Trazado_1033539" data-name="Trazado 1033539" d="M35.55,35.55,38,38c0,4-12,7-15,7l-.13-.01A3.655,3.655,0,0,0,23,44V41.76C27.89,41.04,32.9,38.64,35.55,35.55Z" fill="#c6c2b6"/>
      <path id="Trazado_1033540" data-name="Trazado 1033540" d="M63,51v4H50a2.849,2.849,0,0,0-4,0H9V51Z" fill="#c9b6a2"/>
      <path id="Trazado_1033541" data-name="Trazado 1033541" d="M60.61,32.16A2,2,0,0,1,63,34.12V46c-7,0-7,5-7,5H9V47H20a3.037,3.037,0,0,0,2.87-2.01L23,45c3,0,15-3,15-7l-2.45-2.45c.16-.18.31-.36.45-.55,3-4,5-4,5-4,5,0,3,3,10,3a26.174,26.174,0,0,0,9.27-1.74C60.38,32.22,60.5,32.19,60.61,32.16Z" fill="#cf8a46"/>
      <path id="Trazado_1033542" data-name="Trazado 1033542" d="M60.61,32.16c-.11.03-.23.06-.34.1A26.174,26.174,0,0,1,51,34c-7,0-5-3-10-3,0,0-1.16,0-3.035,1.767A8.027,8.027,0,0,1,42,34c3,2,15,4,21,1v-.88a2,2,0,0,0-2.39-1.96Z" fill="#605041"/>
      <path id="Trazado_1033543" data-name="Trazado 1033543" d="M59,51h4V46a9.358,9.358,0,0,0-4,.763Z" fill="#ded8ca"/>
      <path id="Trazado_1033544" data-name="Trazado 1033544" d="M59,51v4h4V51Z" fill="#e3cdb6"/>
      <path id="Trazado_1033545" data-name="Trazado 1033545" d="M59,36.205V46.763A9.358,9.358,0,0,1,63,46V35a14.114,14.114,0,0,1-4,1.2Z" fill="#d69656"/>
      <path id="Trazado_1033546" data-name="Trazado 1033546" d="M60.61,32.16c-.11.03-.23.06-.34.1-.513.2-1.093.4-1.727.592A1.959,1.959,0,0,1,59,34.12V36.2A14.114,14.114,0,0,0,63,35v-.88a2,2,0,0,0-2.39-1.96Z" fill="#967d66"/>
      <path id="Trazado_1033547" data-name="Trazado 1033547" d="M23,43V41.76A19.246,19.246,0,0,1,20,42c-6,0-11,3-11,5h1.4A20.949,20.949,0,0,1,23,43Z" fill="#c6c2b6"/>
      <path id="Trazado_1033548" data-name="Trazado 1033548" d="M26,42.76a22.589,22.589,0,0,0,11.561-5.2L35.55,35.55C32.9,38.64,27.89,41.04,23,41.76V43A19.246,19.246,0,0,0,26,42.76Z" fill="#ded8ca"/>
      <path id="Trazado_1033549" data-name="Trazado 1033549" d="M38.55,36.55c.16-.18.31-.36.45-.55,3-4,5-4,5-4,.224,0,.42.013.617.024A5.417,5.417,0,0,0,41,31s-2,0-5,4c-.14.19-.29.37-.45.55l2.011,2.011a12.513,12.513,0,0,0,.989-1.011Z" fill="#7b6b52"/>
      <path id="Trazado_1033550" data-name="Trazado 1033550" d="M59,43.833c-3.546.859-7.053,2.244-10.589,3.182a70.808,70.808,0,0,1-11.826,1.873c-5.468.493-10.955.741-16.44.988A105.942,105.942,0,0,1,9,49.793V51H56a4.966,4.966,0,0,1,3-4.237Z" fill="#ac6e47"/>
      <path id="Trazado_1033551" data-name="Trazado 1033551" d="M48,32c.591,1.772,7.863-.112,10.246-.782A43.1,43.1,0,0,0,49,31l-1.083.812C47.943,31.876,47.978,31.933,48,32Z" fill="#ad9d8b"/>
      <path id="Trazado_1033552" data-name="Trazado 1033552" d="M58.246,31.218c-2.383.67-9.655,2.554-10.246.782-.022-.067-.057-.124-.083-.188l-1.726,1.295A9.83,9.83,0,0,0,51,34a26.174,26.174,0,0,0,9.27-1.74c.11-.04.23-.07.34-.1A4.978,4.978,0,0,0,58.246,31.218Z" fill="#948677"/>
      <path id="Trazado_1033553" data-name="Trazado 1033553" d="M42.937,29.063,41,31c3.194,0,3.539,1.223,5.191,2.107l1.726-1.3c-.828-2.023-3.53-2.592-4.98-2.749Z" fill="#948677"/>
      <path id="Trazado_1033554" data-name="Trazado 1033554" d="M62.705,31.659a3,3,0,0,0-1.777-.508c-2.312-1.561-8.358-1.384-11.015-1.219A4.844,4.844,0,0,0,45,26a1,1,0,0,0-.707.293l-3.767,3.766c-.891.192-2.821,1-5.326,4.341C32.424,38.1,25.748,41,20,41c-5.944,0-12,3.028-12,6v8a1,1,0,0,0,1,1h3V54H10V52H62v2H50.379a3.834,3.834,0,0,0-4.758,0H18v2H46a1,1,0,0,0,.707-.293,1.874,1.874,0,0,1,2.586,0A1,1,0,0,0,50,56H63a1,1,0,0,0,1-1V34.125a2.992,2.992,0,0,0-1.295-2.466ZM45.387,28.027A2.768,2.768,0,0,1,48,31a1,1,0,0,0,.323.736.984.984,0,0,0,.76.261,42.012,42.012,0,0,1,8.452.1A24.789,24.789,0,0,1,51,33c-3.455,0-4.438-.753-5.39-1.482a6.241,6.241,0,0,0-2.442-1.272Zm-9.815,8.959,1.372,1.373c-.756,2.482-9.027,5.129-12.944,5.57V42.612a23.084,23.084,0,0,0,11.572-5.626ZM22,42.893V44a1.882,1.882,0,0,1-2,2H10.678A14.572,14.572,0,0,1,20,43C20.66,43,21.329,42.958,22,42.893ZM10,48H20a4.053,4.053,0,0,0,3.531-2.027C27.047,45.684,39,42.928,39,38a1,1,0,0,0-.293-.707L36.894,35.48C39.4,32.188,41.027,32,41,32a4.5,4.5,0,0,1,3.394,1.1C45.5,33.95,46.867,35,51,35a27.267,27.267,0,0,0,9.625-1.8,1.016,1.016,0,0,1,.947.109.978.978,0,0,1,.428.818V45.048C56.944,45.4,55.533,48.4,55.148,50H10Zm52-.959V50H57.2C57.579,48.917,58.7,47.312,62,47.041Z"/>
      <path id="Trazado_1033555" data-name="Trazado 1033555" d="M14,54h2v2H14Z"/>
      <path id="Trazado_1033556" data-name="Trazado 1033556" d="M30,32h2v2H30Z"/>
      <path id="Trazado_1033557" data-name="Trazado 1033557" d="M28,36H2V34H28V32H2V30H12a4.053,4.053,0,0,0,3.531-2.027C19.047,27.684,31,24.928,31,20a1,1,0,0,0-.293-.707L28.894,17.48C31.4,14.188,33.027,14,33,14a4.5,4.5,0,0,1,3.394,1.105C37.5,15.95,38.867,17,43,17a27.267,27.267,0,0,0,9.625-1.8,1.016,1.016,0,0,1,.947.109.978.978,0,0,1,.428.818V28h2V16.125a2.955,2.955,0,0,0-3.073-2.974c-2.312-1.56-8.357-1.383-11.014-1.219A4.844,4.844,0,0,0,37,8a1,1,0,0,0-.707.293l-3.767,3.766c-.891.192-2.821,1-5.326,4.341C24.424,20.1,17.748,23,12,23,6.056,23,0,26.028,0,29v8a1,1,0,0,0,1,1H28Zm9.387-25.973A2.768,2.768,0,0,1,40,13a1,1,0,0,0,1.083,1,42.013,42.013,0,0,1,8.452.1A24.782,24.782,0,0,1,43,15c-3.455,0-4.438-.753-5.39-1.482a6.241,6.241,0,0,0-2.442-1.272Zm-9.815,8.959,1.372,1.373c-.756,2.482-9.027,5.129-12.944,5.57V24.612a23.084,23.084,0,0,0,11.572-5.626ZM14,24.893V26a1.882,1.882,0,0,1-2,2H2.678A14.572,14.572,0,0,1,12,25C12.66,25,13.329,24.958,14,24.893Z"/>
    </g>
  </g>
</svg>
